<?xml version="1.0" encoding="UTF-8" standalone="no"?>
<svg
   width="75"
   height="78"
   viewBox="0 0 75 78"
   fill="none"
   version="1.1"
   id="svg8"
   sodipodi:docname="mirv_grenade.svg"
   inkscape:version="1.3.2 (091e20e, 2023-11-25, custom)"
   inkscape:export-filename="mirv_grenade.png"
   inkscape:export-xdpi="96"
   inkscape:export-ydpi="96"
   xmlns:inkscape="http://www.inkscape.org/namespaces/inkscape"
   xmlns:sodipodi="http://sodipodi.sourceforge.net/DTD/sodipodi-0.dtd"
   xmlns="http://www.w3.org/2000/svg"
   xmlns:svg="http://www.w3.org/2000/svg">
  <defs
     id="defs8" />
  <sodipodi:namedview
     id="namedview8"
     pagecolor="#ffffff"
     bordercolor="#000000"
     borderopacity="0.25"
     inkscape:showpageshadow="2"
     inkscape:pageopacity="0.0"
     inkscape:pagecheckerboard="0"
     inkscape:deskcolor="#d1d1d1"
     inkscape:zoom="10.423077"
     inkscape:cx="37.512915"
     inkscape:cy="41.110701"
     inkscape:window-width="1920"
     inkscape:window-height="1009"
     inkscape:window-x="-8"
     inkscape:window-y="-8"
     inkscape:window-maximized="1"
     inkscape:current-layer="g8" />
  <g
     id="g8"
     transform="translate(3.2619926,-10.745387)">
    <path
       d="m 46.7563,28.1484 c -0.2392,-0.138 -0.545,-0.0561 -0.6831,0.1831 l -4.6681,8.0854 c -0.1381,0.2392 -0.0561,0.5449 0.183,0.683 l 4.2468,2.4519 4.251,2.4543 c 0.2392,0.1381 0.545,0.0562 0.683,-0.183 l 4.6682,-8.0854 c 0.1381,-0.2392 0.0561,-0.545 -0.183,-0.683 z"
       fill="#575946"
       stroke="#191a14"
       stroke-width="4"
       stroke-miterlimit="3.99393"
       id="path1" />
    <path
       d="m 63.1917,22.359 c -0.1962,0.3397 -0.3235,0.7149 -0.3746,1.104 -0.0512,0.389 -0.0251,0.7844 0.0766,1.1635 0.1018,0.3791 0.2771,0.7345 0.5162,1.0459 0.2391,0.3114 0.5373,0.5727 0.8773,0.769 0.3401,0.1963 0.7154,0.3239 1.1046,0.3753 0.3893,0.0513 0.7847,0.0255 1.1639,-0.076 0.3792,-0.1014 0.7346,-0.2765 1.046,-0.5153 0.3114,-0.2388 0.5726,-0.5367 0.7688,-0.8764 0.1962,-0.3398 0.3234,-0.7149 0.3746,-1.104 0.0511,-0.3891 0.0251,-0.7845 -0.0767,-1.1636 C 68.5667,22.7023 68.3913,22.347 68.1522,22.0356 67.9131,21.7242 67.615,21.4628 67.275,21.2665 66.9349,21.0702 66.5595,20.9427 66.1703,20.8913 65.781,20.84 65.3856,20.8657 65.0065,20.9672 c -0.3792,0.1014 -0.7347,0.2766 -1.0461,0.5154 -0.3113,0.2388 -0.5725,0.5366 -0.7687,0.8764 z"
       fill="#47443c"
       stroke="#191815"
       stroke-width="4"
       stroke-miterlimit="3.99393"
       id="path4" />
    <path
       d="m 61.772,20.2374 0.5313,1.6084 3.4364,1.984 -8.0975,3.5606 -1.9544,5.9138 c 0,0 -9.6133,-5.5502 -9.7445,-5.626 L 38.962,23.6475 50.5656,13.7674 Z"
       fill="#4E4735"
       stroke="#1b1913"
       stroke-width="4"
       stroke-miterlimit="3.99393"
       stroke-linecap="square"
       id="path5"
       style="fill:#353535;fill-opacity:1" />
    <path
       d="M 43.84,19.4941 27.7847,17.3644 11.0038,34.3214 15.216,39.3587 31.7998,22.743 38.9613,23.6482 Z"
       fill="#4E4735"
       stroke="#1b1913"
       stroke-width="4"
       stroke-miterlimit="3.99393"
       id="path6"
       style="fill:#353535;fill-opacity:1" />
    <g
       id="g11"
       transform="translate(-0.39997422,-1.4997026)">
      <path
         style="fill:#001fcb;fill-opacity:1;stroke:#191a14;stroke-width:7.2;stroke-linejoin:bevel;stroke-dasharray:none;stroke-opacity:1;paint-order:markers stroke fill"
         d="M 16.214022,57.084871 26,46.819188 45.476015,63.99262 35.881918,74.546125 Z"
         id="path11"
         sodipodi:nodetypes="ccccc" />
      <path
         d="m 47.5426,36.5984 c -4.2049,-2.4263 -9.2022,-3.0815 -13.8927,-1.8217 -4.6906,1.2597 -11.1194,8.5395 -11.1194,8.5395 -0.196704,0.346028 26.9926,23.6813 26.9926,23.6813 0,0 3.5097,-3.2922 4.7128,-5.3762 1.2033,-2.0839 1.9847,-4.3843 2.2996,-6.7696 0.3148,-2.3854 0.1569,-4.8091 -0.4646,-7.1327 -0.6216,-2.3236 -1.6947,-4.5017 -3.1579,-6.4098 -1.4633,-1.9081 -3.2882,-3.5088 -5.3704,-4.7108 z"
         stroke="#191a14"
         stroke-width="4"
         stroke-miterlimit="3.99393"
         id="path7"
         sodipodi:nodetypes="ccccccccc"
         style="fill:#25009f;fill-opacity:1" />
      <path
         d="m 14.219451,84.332601 c 4.2049,2.4263 9.2022,3.0815 13.8927,1.8217 4.6906,-1.2597 11.1194,-8.5395 11.1194,-8.5395 0.196704,-0.346028 -26.9926,-23.6813 -26.9926,-23.6813 0,0 -3.5097006,3.2922 -4.7128006,5.3762 -1.2033,2.0839 -1.9847,4.3843 -2.2996,6.7696 -0.3148,2.3854 -0.1569,4.8091 0.4646,7.1327 0.6216,2.3236 1.6947,4.5017 3.1579001,6.4098 1.4633005,1.9081 3.2882005,3.5088 5.3704005,4.7108 z"
         stroke="#191a14"
         stroke-width="4"
         stroke-miterlimit="3.99393"
         id="path9"
         sodipodi:nodetypes="ccccccccc"
         style="fill:#25009f;fill-opacity:1" />
    </g>
    <path
       fill-rule="evenodd"
       clip-rule="evenodd"
       d="m 36.5492,38.0473 c 5.5125,3.1826 12.561,1.2936 15.7436,-4.2189 3.1826,-5.5124 1.2943,-12.5611 -4.2182,-15.7437 -5.512,-3.1824 -12.5609,-1.2936 -15.7435,4.2188 -3.1827,5.5125 -1.2939,12.5614 4.2181,15.7438 z m 2.0479,-3.547 c 3.5541,2.052 8.0986,0.835 10.1504,-2.7187 2.0527,-3.5555 0.8344,-8.0996 -2.7198,-10.1516 -3.5541,-2.052 -8.0986,-0.835 -10.1514,2.7204 -2.0517,3.5538 -0.8334,8.0979 2.7208,10.1499 z"
       fill="#a1a29c"
       stroke="#222220"
       stroke-width="2"
       stroke-miterlimit="3.99393"
       id="path8" />
  </g>
</svg>
