<?xml version="1.0" encoding="UTF-8" standalone="no"?>
<!-- Created with Inkscape (http://www.inkscape.org/) -->

<svg
   width="72"
   height="72"
   viewBox="0 0 19.05 19.050001"
   version="1.1"
   id="svg5"
   inkscape:version="1.4 (86a8ad7, 2024-10-11)"
   sodipodi:docname="12g.svg"
   inkscape:export-filename="/home/desktopgeek/ammo.png"
   inkscape:export-xdpi="1500.0001"
   inkscape:export-ydpi="1500.0001"
   xmlns:inkscape="http://www.inkscape.org/namespaces/inkscape"
   xmlns:sodipodi="http://sodipodi.sourceforge.net/DTD/sodipodi-0.dtd"
   xmlns="http://www.w3.org/2000/svg"
   xmlns:svg="http://www.w3.org/2000/svg">
  <sodipodi:namedview
     id="namedview7"
     pagecolor="#505050"
     bordercolor="#ffffff"
     borderopacity="1"
     inkscape:pageshadow="0"
     inkscape:pageopacity="0"
     inkscape:pagecheckerboard="1"
     inkscape:document-units="px"
     showgrid="false"
     units="px"
     inkscape:zoom="4.6072423"
     inkscape:cx="32.883011"
     inkscape:cy="50.898126"
     inkscape:window-width="1920"
     inkscape:window-height="1009"
     inkscape:window-x="-8"
     inkscape:window-y="-8"
     inkscape:window-maximized="1"
     inkscape:current-layer="svg5"
     inkscape:showpageshadow="2"
     inkscape:deskcolor="#d1d1d1" />
  <defs
     id="defs2">
    <inkscape:path-effect
       effect="spiro"
       id="path-effect2050"
       is_visible="true"
       lpeversion="1" />
    <inkscape:path-effect
       effect="spiro"
       id="path-effect2046"
       is_visible="true"
       lpeversion="1" />
    <inkscape:path-effect
       effect="spiro"
       id="path-effect2050-3"
       is_visible="true"
       lpeversion="1" />
  </defs>
  <rect
     style="display:inline;fill:#cc2424;fill-opacity:1;stroke:#7a1616;stroke-width:1.58485;stroke-linecap:round;stroke-linejoin:round;stroke-miterlimit:10;stroke-dasharray:none;stroke-opacity:1"
     id="rect846-2"
     width="17.465147"
     height="17.465147"
     x="0.79242498"
     y="0.79242498"
     ry="1.0990396"
     rx="1.0990396" />
  <circle
     style="display:inline;fill:none;fill-opacity:1;stroke:#7a1616;stroke-width:0.631031;stroke-linecap:round;stroke-linejoin:round;stroke-miterlimit:4;stroke-dasharray:none;stroke-opacity:1"
     id="path9697-4"
     cx="16.097973"
     cy="2.9521501"
     r="0.73269308" />
  <circle
     style="display:inline;fill:none;fill-opacity:1;stroke:#7a1616;stroke-width:0.631031;stroke-linecap:round;stroke-linejoin:round;stroke-miterlimit:4;stroke-dasharray:none;stroke-opacity:1"
     id="path9697-6-5"
     cx="16.150839"
     cy="16.083687"
     r="0.73269308" />
  <circle
     style="display:inline;fill:none;fill-opacity:1;stroke:#7a1616;stroke-width:0.631031;stroke-linecap:round;stroke-linejoin:round;stroke-miterlimit:4;stroke-dasharray:none;stroke-opacity:1"
     id="path9697-7-5"
     cx="2.9256918"
     cy="16.083687"
     r="0.73269308" />
  <circle
     style="fill:none;fill-opacity:1;stroke:#7a1616;stroke-width:0.631031;stroke-linecap:round;stroke-linejoin:round;stroke-miterlimit:4;stroke-dasharray:none;stroke-opacity:1"
     id="path9697-5-1"
     cx="3.0051222"
     cy="2.9521501"
     r="0.73269308" />
  <path
     d="M 3.9158278,12.446001 V 7.8316659 L 2.9421607,8.1703327 2.5188272,7.1966656 4.0851612,6.519332 h 1.3546672 v 5.926669 z M 10.68917,8.3819994 q 0,0.719667 -0.609601,1.2446005 Q 9.8933027,9.7874667 9.6731693,9.9483334 L 7.8528352,11.260667 H 10.68917 v 1.185334 H 6.1171679 V 10.837334 L 9.1651691,8.6359995 V 8.212666 q 0,-0.5080002 -0.5080002,-0.5080002 H 6.2865013 V 6.519332 h 2.7093344 q 0.8890004,0 1.2869343,0.4064002 0.4064,0.3979335 0.4064,1.2869338 z m 5.842003,3.9370016 q -1.9812,0.211667 -3.640668,0.211667 -0.829733,0 -1.2192,-0.389467 Q 11.281838,11.751734 11.281838,10.922 V 8.212666 q 0,-0.8890003 0.397934,-1.2869338 0.4064,-0.4064002 1.2954,-0.4064002 h 3.048001 v 1.1853338 h -2.709334 q -0.508,0 -0.508,0.5080002 V 10.922 q 0,0.194734 0.110066,0.313267 0.118534,0.110067 0.313267,0.110067 0.973667,0 1.778001,-0.04233 v -1.227668 h -1.100667 v -1.016 h 2.624667 z"
     id="text1"
     style="font-size:8.46667px;font-family:'Russo One';-inkscape-font-specification:'Russo One, Normal';fill:#661212;stroke-width:0.631031;stroke-linecap:round;stroke-linejoin:round;paint-order:markers stroke fill"
     aria-label="12G" />
</svg>
