<?xml version="1.0" encoding="UTF-8" standalone="no"?>
<!-- Created with Inkscape (http://www.inkscape.org/) -->

<svg
   width="19.049999mm"
   height="19.049999mm"
   viewBox="0 0 23.144684 23.741656"
   version="1.1"
   id="svg1"
   inkscape:export-filename="338.svg"
   inkscape:export-xdpi="96"
   inkscape:export-ydpi="96"
   sodipodi:docname="338lap.svg"
   inkscape:version="1.4 (86a8ad7, 2024-10-11)"
   xmlns:inkscape="http://www.inkscape.org/namespaces/inkscape"
   xmlns:sodipodi="http://sodipodi.sourceforge.net/DTD/sodipodi-0.dtd"
   xmlns="http://www.w3.org/2000/svg"
   xmlns:svg="http://www.w3.org/2000/svg">
  <sodipodi:namedview
     id="namedview1"
     pagecolor="#ffffff"
     bordercolor="#000000"
     borderopacity="0.25"
     inkscape:showpageshadow="2"
     inkscape:pageopacity="0.0"
     inkscape:pagecheckerboard="0"
     inkscape:deskcolor="#d1d1d1"
     inkscape:document-units="mm"
     inkscape:zoom="8.0949087"
     inkscape:cx="35.824987"
     inkscape:cy="45.398906"
     inkscape:window-width="1920"
     inkscape:window-height="1009"
     inkscape:window-x="-8"
     inkscape:window-y="-8"
     inkscape:window-maximized="1"
     inkscape:current-layer="layer1" />
  <defs
     id="defs1" />
  <g
     inkscape:label="Layer 1"
     inkscape:groupmode="layer"
     id="layer1">
    <rect
       style="fill:#172900;fill-opacity:1;stroke:#0e1a00;stroke-width:0.897395;stroke-linecap:round;stroke-linejoin:round;stroke-miterlimit:0;stroke-dasharray:none;stroke-opacity:1"
       id="rect1-3-8-8-8-4-5-7-9"
       width="22.844261"
       height="22.844261"
       x="0.1502108"
       y="0.44869748"
       ry="1.4435264"
       inkscape:label="rect1"
       rx="1.4435264" />
    <path
       d="m 2.7493791,13.577874 h 1.5494005 v 1.280284 H 2.7493791 Z m 5.1646664,1.365637 q -1.4374994,0 -3.1848788,-0.170705 V 13.62055 q 1.9023195,0.128028 2.8405676,0.128028 0.1979789,0 0.3098801,-0.110957 0.1205089,-0.119493 0.1205089,-0.315804 v -0.341409 q 0,-0.512114 -0.5164668,-0.512114 h -1.807634 v -1.194933 h 1.6354784 q 0.5164668,0 0.5164668,-0.512114 v -0.170704 q 0,-0.512114 -0.5164668,-0.512114 H 4.8152445 V 8.883496 h 2.9266454 q 0.8435625,0 1.2395205,0.3840856 0.3959579,0.3755502 0.3959579,1.1522564 0,0.512114 -0.2410179,0.836453 -0.2324101,0.315804 -0.6197603,0.443832 0.6972303,0.187775 0.946856,0.921805 0.086078,0.264592 0.086078,0.614537 v 0.08535 q 0,0.836452 -0.3959579,1.229073 -0.3959579,0.392621 -1.2395207,0.392621 z m 5.0785765,0 q -1.437499,0 -3.1848796,-0.170705 V 13.62055 q 1.9023206,0.128028 2.8405676,0.128028 0.197979,0 0.309881,-0.110957 0.120509,-0.119493 0.120509,-0.315804 v -0.341409 q 0,-0.512114 -0.516467,-0.512114 h -1.807634 v -1.194933 h 1.635479 q 0.516466,0 0.516466,-0.512114 v -0.170704 q 0,-0.512114 -0.516466,-0.512114 H 9.8938202 V 8.883496 h 2.9266458 q 0.843563,0 1.239521,0.3840856 0.395958,0.3755502 0.395958,1.1522564 0,0.512114 -0.241018,0.836453 -0.232411,0.315804 -0.61976,0.443832 0.69723,0.187775 0.946855,0.921805 0.08607,0.264592 0.08607,0.614537 v 0.08535 q 0,0.836452 -0.395957,1.229073 -0.395958,0.392621 -1.239521,0.392621 z m 4.217801,-2.475217 q -0.516466,0 -0.516466,0.512114 v 0.341409 q 0,0.196311 0.1119,0.315804 0.120509,0.110957 0.318488,0.110957 h 1.291168 q 0.197979,0 0.30988,-0.110957 0.120509,-0.119493 0.120509,-0.315804 v -0.341409 q 0,-0.512114 -0.516468,-0.512114 z m 0.172156,-2.4752176 q -0.516467,0 -0.516467,0.5121136 v 0.256057 q 0,0.512114 0.516467,0.512114 h 0.7747 q 0.516468,0 0.516468,-0.512114 V 10.50519 q 0,-0.5121136 -0.516468,-0.5121136 z m 3.012724,3.3287406 q 0,0.836452 -0.395959,1.229073 -0.395958,0.392621 -1.23952,0.392621 h -1.97979 q -0.843562,0 -1.23952,-0.392621 -0.395958,-0.392621 -0.395958,-1.229073 v -0.08535 q 0,-0.648677 0.327096,-1.075439 0.258233,-0.34141 0.705838,-0.460903 -0.387351,-0.128028 -0.628369,-0.443832 -0.232409,-0.324339 -0.232409,-0.836453 v -0.08535 q 0,-0.7767062 0.395958,-1.1522565 0.395957,-0.3840855 1.23952,-0.3840855 h 1.635478 q 0.843562,0 1.23952,0.3840855 0.395959,0.3755503 0.395959,1.1522565 v 0.08535 q 0,0.512114 -0.241018,0.836453 -0.232411,0.315804 -0.61976,0.443832 0.69723,0.187775 0.946855,0.921805 0.08608,0.264592 0.08608,0.614537 z"
       id="text1-6-0-6-8-9-0-3-9"
       style="font-size:8.57143px;font-family:'Russo One';-inkscape-font-specification:'Russo One';fill:#345c00;stroke:#0c4132;stroke-width:0;stroke-linecap:round;stroke-linejoin:round;stroke-miterlimit:0"
       aria-label=".338" />
    <circle
       style="fill:#172900;fill-opacity:1;stroke:#315c00;stroke-width:0.538436;stroke-linecap:round;stroke-linejoin:round;stroke-miterlimit:0;stroke-dasharray:none;stroke-opacity:1"
       id="path1-0-5-4-7-4-0-6-3-9"
       cx="2.3816562"
       cy="2.9102454"
       r="0.91579509" />
    <circle
       style="fill:#172900;fill-opacity:1;stroke:#315c00;stroke-width:0.538436;stroke-linecap:round;stroke-linejoin:round;stroke-miterlimit:0;stroke-dasharray:none;stroke-opacity:1"
       id="path1-7-8-8-6-3-0-7-2-6"
       cx="2.3733554"
       cy="21.226461"
       r="0.91579509" />
    <circle
       style="fill:#172900;fill-opacity:1;stroke:#315c00;stroke-width:0.538436;stroke-linecap:round;stroke-linejoin:round;stroke-miterlimit:0;stroke-dasharray:none;stroke-opacity:1"
       id="path1-7-9-40-3-2-9-3-0-5-2"
       cx="20.448776"
       cy="21.226461"
       r="0.91579509" />
    <circle
       style="fill:#172900;fill-opacity:1;stroke:#315c00;stroke-width:0.538436;stroke-linecap:round;stroke-linejoin:round;stroke-miterlimit:0;stroke-dasharray:none;stroke-opacity:1"
       id="path1-7-9-4-4-9-7-5-2-7-0-3"
       cx="20.448776"
       cy="2.9102454"
       r="0.91579509" />
  </g>
</svg>
