<?xml version="1.0" encoding="UTF-8" standalone="no"?>
<!-- Created with Inkscape (http://www.inkscape.org/) -->

<svg
   width="19.049999mm"
   height="19.049999mm"
   viewBox="0 0 23.144684 23.741656"
   version="1.1"
   id="svg1"
   inkscape:export-filename="338.svg"
   inkscape:export-xdpi="96"
   inkscape:export-ydpi="96"
   sodipodi:docname="338lap.svg"
   inkscape:version="1.4 (86a8ad7, 2024-10-11)"
   xmlns:inkscape="http://www.inkscape.org/namespaces/inkscape"
   xmlns:sodipodi="http://sodipodi.sourceforge.net/DTD/sodipodi-0.dtd"
   xmlns="http://www.w3.org/2000/svg"
   xmlns:svg="http://www.w3.org/2000/svg">
  <sodipodi:namedview
     id="namedview1"
     pagecolor="#ffffff"
     bordercolor="#000000"
     borderopacity="0.25"
     inkscape:showpageshadow="2"
     inkscape:pageopacity="0.0"
     inkscape:pagecheckerboard="0"
     inkscape:deskcolor="#d1d1d1"
     inkscape:document-units="mm"
     inkscape:zoom="5.7239648"
     inkscape:cx="50.227423"
     inkscape:cy="35.202872"
     inkscape:window-width="1920"
     inkscape:window-height="1009"
     inkscape:window-x="-8"
     inkscape:window-y="-8"
     inkscape:window-maximized="1"
     inkscape:current-layer="layer1" />
  <defs
     id="defs1" />
  <g
     inkscape:label="Layer 1"
     inkscape:groupmode="layer"
     id="layer1">
    <rect
       style="fill:#172900;fill-opacity:1;stroke:#0e1a00;stroke-width:1.97517;stroke-linecap:round;stroke-linejoin:round;stroke-miterlimit:10;stroke-dasharray:none;stroke-opacity:1"
       id="rect846"
       width="21.766483"
       height="21.766483"
       x="0.68909901"
       y="0.98758501"
       ry="1.3697122"
       rx="1.3697122" />
    <circle
       style="fill:none;fill-opacity:1;stroke:#315c00;stroke-width:0.786442;stroke-linecap:round;stroke-linejoin:round;stroke-miterlimit:4;stroke-dasharray:none;stroke-opacity:1"
       id="path9697"
       cx="19.764114"
       cy="3.6792097"
       r="0.91314155" />
    <circle
       style="fill:none;fill-opacity:1;stroke:#315c00;stroke-width:0.786442;stroke-linecap:round;stroke-linejoin:round;stroke-miterlimit:4;stroke-dasharray:none;stroke-opacity:1"
       id="path9697-6"
       cx="19.830002"
       cy="20.044796"
       r="0.91314155" />
    <circle
       style="fill:none;fill-opacity:1;stroke:#315c00;stroke-width:0.786442;stroke-linecap:round;stroke-linejoin:round;stroke-miterlimit:4;stroke-dasharray:none;stroke-opacity:1"
       id="path9697-7"
       cx="3.347749"
       cy="20.044796"
       r="0.91314155" />
    <circle
       style="fill:none;fill-opacity:1;stroke:#315c00;stroke-width:0.786442;stroke-linecap:round;stroke-linejoin:round;stroke-miterlimit:4;stroke-dasharray:none;stroke-opacity:1"
       id="path9697-5"
       cx="3.4467423"
       cy="3.6792097"
       r="0.91314155" />
    <path
       d="m 2.5592987,13.62947 h 1.5827778 v 1.318981 H 2.5592987 Z m 5.2759241,1.406913 q -1.468466,0 -3.2534877,-0.175864 v -1.187083 q 1.9432994,0.131898 2.9017593,0.131898 0.2022439,0 0.3165556,-0.114312 0.1231049,-0.123105 0.1231049,-0.325349 v -0.351728 q 0,-0.527593 -0.5275926,-0.527593 H 5.5489882 v -1.231049 h 1.6707099 q 0.5275926,0 0.5275926,-0.527593 v -0.175864 q 0,-0.527593 -0.5275926,-0.527593 H 4.6696672 V 8.793204 h 2.9896914 q 0.8617346,0 1.2662223,0.3956945 0.4044876,0.3869012 0.4044876,1.1870835 0,0.527592 -0.2462098,0.861734 -0.2374167,0.325349 -0.6331112,0.457247 0.71225,0.193451 0.9672531,0.949667 0.087932,0.27259 0.087932,0.633111 v 0.08793 q 0,0.861735 -0.4044876,1.266222 -0.4044877,0.404488 -1.2662223,0.404488 z m 5.1879952,0 q -1.468466,0 -3.2534877,-0.175864 v -1.187083 q 1.9432997,0.131898 2.9017597,0.131898 0.202243,0 0.316555,-0.114312 0.123105,-0.123105 0.123105,-0.325349 v -0.351728 q 0,-0.527593 -0.527592,-0.527593 h -1.846575 v -1.231049 h 1.67071 q 0.527593,0 0.527593,-0.527593 v -0.175864 q 0,-0.527593 -0.527593,-0.527593 H 9.8576624 V 8.793204 h 2.9896916 q 0.861734,0 1.266222,0.3956945 0.404488,0.3869012 0.404488,1.1870835 0,0.527592 -0.24621,0.861734 -0.237417,0.325349 -0.633111,0.457247 0.71225,0.193451 0.967253,0.949667 0.08793,0.27259 0.08793,0.633111 v 0.08793 q 0,0.861735 -0.404488,1.266222 -0.404487,0.404488 -1.266222,0.404488 z m 4.308679,-2.550031 q -0.527593,0 -0.527593,0.527593 v 0.351728 q 0,0.202244 0.114312,0.325349 0.123105,0.114312 0.325349,0.114312 h 1.318981 q 0.202244,0 0.316556,-0.114312 0.123105,-0.123105 0.123105,-0.325349 v -0.351728 q 0,-0.527593 -0.527593,-0.527593 z m 0.175864,-2.5500307 q -0.527593,0 -0.527593,0.5275927 v 0.263796 q 0,0.527593 0.527593,0.527593 h 0.791389 q 0.527592,0 0.527592,-0.527593 v -0.263796 q 0,-0.5275927 -0.527592,-0.5275927 z m 3.077623,3.4293517 q 0,0.861735 -0.404487,1.266222 -0.404488,0.404488 -1.266222,0.404488 h -2.022439 q -0.861734,0 -1.266222,-0.404488 -0.404488,-0.404487 -0.404488,-1.266222 v -0.08793 q 0,-0.668284 0.334142,-1.107944 0.263797,-0.351729 0.721044,-0.474834 -0.395695,-0.131898 -0.641905,-0.457247 -0.237416,-0.334142 -0.237416,-0.861734 v -0.08793 q 0,-0.8001824 0.404487,-1.1870836 0.404488,-0.3956945 1.266222,-0.3956945 h 1.67071 q 0.861735,0 1.266223,0.3956945 0.404487,0.3869012 0.404487,1.1870836 v 0.08793 q 0,0.527592 -0.24621,0.861734 -0.237416,0.325349 -0.633111,0.457247 0.71225,0.193451 0.967253,0.949667 0.08793,0.27259 0.08793,0.633111 z"
       id="text1"
       style="font-size:8.79321px;font-family:'Russo One';-inkscape-font-specification:'Russo One, Normal';fill:#345c00;stroke-width:0.786442;stroke-linecap:round;stroke-linejoin:round;paint-order:markers stroke fill"
       aria-label=".338" />
  </g>
</svg>
