<?xml version="1.0" encoding="UTF-8" standalone="no"?>
<!-- Created with Inkscape (http://www.inkscape.org/) -->

<svg
   width="72"
   height="49.846001"
   viewBox="0 0 19.05 13.188422"
   version="1.1"
   id="svg5"
   inkscape:version="1.3 (0e150ed6c4, 2023-07-21)"
   sodipodi:docname="12g.svg"
   inkscape:export-filename="e.png"
   inkscape:export-xdpi="1500.0001"
   inkscape:export-ydpi="1500.0001"
   xml:space="preserve"
   xmlns:inkscape="http://www.inkscape.org/namespaces/inkscape"
   xmlns:sodipodi="http://sodipodi.sourceforge.net/DTD/sodipodi-0.dtd"
   xmlns="http://www.w3.org/2000/svg"
   xmlns:svg="http://www.w3.org/2000/svg"><sodipodi:namedview
     id="namedview7"
     pagecolor="#505050"
     bordercolor="#ffffff"
     borderopacity="1"
     inkscape:pageshadow="0"
     inkscape:pageopacity="0"
     inkscape:pagecheckerboard="1"
     inkscape:document-units="px"
     showgrid="false"
     units="px"
     inkscape:zoom="5.6568543"
     inkscape:cx="5.2149125"
     inkscape:cy="37.388271"
     inkscape:window-width="1920"
     inkscape:window-height="1017"
     inkscape:window-x="-8"
     inkscape:window-y="-8"
     inkscape:window-maximized="1"
     inkscape:current-layer="layer1"
     inkscape:showpageshadow="2"
     inkscape:deskcolor="#d1d1d1" /><defs
     id="defs2"><inkscape:path-effect
       effect="spiro"
       id="path-effect2050"
       is_visible="true"
       lpeversion="1" /><inkscape:path-effect
       effect="spiro"
       id="path-effect2046"
       is_visible="true"
       lpeversion="1" /><inkscape:path-effect
       effect="spiro"
       id="path-effect2050-3"
       is_visible="true"
       lpeversion="1" /></defs><g
     inkscape:label="Layer 1"
     inkscape:groupmode="layer"
     id="layer1"><path
       style="fill:#1e0036;fill-opacity:1;stroke:#5600b1;stroke-width:0.153477;stroke-opacity:1"
       d=""
       id="path10"
       transform="scale(0.26458334)" /><g
       id="g15"
       transform="matrix(0.01690452,0,0,0.01690452,0.01565619,0)"><g
         stroke-width="2"
         fill="none"
         stroke-linecap="butt"
         id="g27"><path
           stroke="#500b26"
           vector-effect="non-scaling-stroke"
           d="m 1054.22,1.96 q -30.49,0.16 -60.47,0.31 -2.02,0.01 -4,0 C 700.78,1.93 411.78,0.7 122.81,1.96 Q 84.13,2.13 70.81,3.3 63.67,3.92 61.5,4.49 54.78,6.23 39.16,14"
           id="path1" /><path
           stroke="#500b26"
           vector-effect="non-scaling-stroke"
           d="m 1076.32,8.82 19.52,12.91"
           id="path2" /><path
           stroke="#500b26"
           vector-effect="non-scaling-stroke"
           d="m 1123.41,71.1 0.6,359.16 q 0,0.17 0.09,0.32 0.07,0.12 0.13,0.23 0.2,0.35 0.22,-0.05 0.23,-3.77 -0.16,-7.51 -0.02,-0.23 0.18,-0.33 0.32,-0.16 0.33,0.2 l 0.2,7.44"
           id="path3" /><path
           stroke="#500b26"
           vector-effect="non-scaling-stroke"
           d="m 1125,623.31 q -0.35,-0.09 -0.79,0.59 -0.24,0.37 -0.24,0.9 0.26,27.2 -0.55,54.38 -0.64,21.15 -2.53,34.25 -0.89,6.11 -0.77,7.75"
           id="path4" /><path
           stroke="#500b26"
           vector-effect="non-scaling-stroke"
           d="m 1102.31,750.73 q -12.48,10.93 -26.58,19.67"
           id="path5" /><path
           stroke="#500b26"
           vector-effect="non-scaling-stroke"
           d="m 1062.67,775.48 q -2.75,-0.1 -8.17,0.46 -5.55,0.58 -24.56,0.91 -59.31,1.02 -118.55,1.2 -46.21,0.15 -128.47,0.18 c -192.89,0.08 -443.68,1.07 -672.11,-1.3 q -14.4,-0.15 -48.47,-1.47"
           id="path6" /><path
           stroke="#500b26"
           vector-effect="non-scaling-stroke"
           d="m 50.63,771.4 q 0.15,-0.34 0.14,-0.57 -0.01,-0.24 -0.35,-0.4 -25.37,-12.44 -39.34,-36.94 c -0.73,-1.27 -1.53,-3.91 -3.21,-4.46"
           id="path7" /><path
           stroke="#500b26"
           vector-effect="non-scaling-stroke"
           d="M 3.68,717.41 Q 2.48,705.35 2.3,698 C 0.31,615.81 1.02,530.34 0.44,446.49 q 0,-0.18 -0.18,-0.24 Q 0.13,446.21 0,446.19"
           id="path8" /><path
           stroke="#500b26"
           vector-effect="non-scaling-stroke"
           d="m 0,146.2 q 0.79,-1.94 0.76,-3.95 C 0.4,113.21 0.85,84.16 5.33,56.19"
           id="path9" /><path
           stroke="#3a0074"
           vector-effect="non-scaling-stroke"
           d="M 602.25,42.5 Q 416.22,42.49 230.18,42.51 c -44.26,0.01 -90.64,0.24 -139.29,0.84"
           id="path10-8" /><path
           stroke="#500b26"
           vector-effect="non-scaling-stroke"
           d="M 90.89,43.35 Q 78.33,41.91 68.27,44.61"
           id="path11" /><path
           stroke="#3a0074"
           vector-effect="non-scaling-stroke"
           d="M 68.27,44.61 C 57.47,52.16 44.29,63.66 43.51,77.74 q -0.45,7.99 -0.77,31.75 c -0.01,1.44 -0.58,3.07 -0.56,4.26 0.26,14.08 -0.16,30.2 -0.16,42.18 0.08,180.64 -0.86,361.37 1.26,541.99 0.04,3.61 0.42,9.4 1.59,11.91 5.76,12.36 17.38,23.51 31.34,25.06 14.33,1.6 29.65,1.52 47.61,1.6 171.63,0.75 345.72,0.65 494.43,1.06 q 0.36,0 0.63,-0.08 0.8,-0.24 0.93,-0.24 c 128.05,0.07 256.08,0.17 384.13,-0.61 q 29.58,-0.18 44.3,-1.59 c 13.99,-1.35 27.56,-14.43 32.05,-27.32 q 1.43,-4.07 1.63,-11.12 c 0.43,-15 0.85,-29.81 0.96,-45.02 q 1.9,-271.16 -0.15,-542.32 -0.06,-8.8 -0.97,-31.33 c -0.57,-14.07 -16.78,-28.59 -28.61,-34.21 q -0.45,-0.21 -0.95,-0.22 l -80.69,-0.78"
           id="path12" /><path
           stroke="#500b26"
           vector-effect="non-scaling-stroke"
           d="M 971.51,42.71 602.25,42.5"
           id="path13" /><path
           stroke="#6c0b63"
           vector-effect="non-scaling-stroke"
           d="m 971.51,42.71 -369.18,0.05 q -0.02,0 -0.02,-0.01 -0.03,-0.12 -0.06,-0.25"
           id="path14" /><path
           stroke="#6c0b63"
           vector-effect="non-scaling-stroke"
           d="M 68.27,44.61 90.89,43.35"
           id="path15" /><path
           stroke="#3a0074"
           vector-effect="non-scaling-stroke"
           d="m 976.34,81.11 c -43.62,18.44 -44.45,78.66 -1.38,97.34 q 7.92,3.43 17.05,3.47 c 37.27,0.16 61.03,-29.07 53.66,-65.11 -2.56,-12.53 -11.95,-22.87 -22.11,-30.37 -12.02,-8.87 -33.56,-11.1 -47.22,-5.33"
           id="path16" /><path
           stroke="#3a0074"
           vector-effect="non-scaling-stroke"
           d="M 162.64,90.1 Q 149.88,79.23 133.01,78.93 121.07,78.71 117.09,79.79 C 90.8,86.92 78.25,108.26 79.03,134.43 q 0.2,6.63 2.28,12.39 c 13.69,37.87 62.63,46.71 88.43,15.17 6.32,-7.73 9.84,-13.75 9.94,-23.49 q 0.13,-14.1 -0.6,-21.23 c -1.05,-10.36 -8.85,-20.7 -16.44,-27.17"
           id="path17" /><path
           stroke="#3a0074"
           vector-effect="non-scaling-stroke"
           d="m 554.91,411.75 a 0.4,0.4 0 0 1 -0.4,-0.4 l -0.01,-173.7 a 0.4,0.4 0 0 0 -0.4,-0.4 h -78.7 a 0.4,0.4 0 0 0 -0.31,0.15 L 333.84,409.65 a 0.4,0.4 0 0 0 -0.09,0.25 v 55.7 a 0.4,0.4 0 0 0 0.4,0.4 h 145.46 a 0.4,0.4 0 0 1 0.4,0.4 l -0.02,68.43 a 0.4,0.4 0 0 0 0.4,0.4 l 73.72,0.06 a 0.4,0.4 0 0 0 0.4,-0.4 V 466.4 a 0.4,0.4 0 0 1 0.4,-0.4 h 40.44 a 0.4,0.4 0 0 0 0.4,-0.4 v -53.45 a 0.4,0.4 0 0 0 -0.4,-0.4 h -40.44"
           id="path18" /><path
           stroke="#3a0074"
           vector-effect="non-scaling-stroke"
           d="m 730.71,294.25 h 140.32 a 0.77,0.77 0 0 0 0.77,-0.78 l -0.07,-55.73 q 0,-0.49 -0.49,-0.49 H 657.5 a 0.5,0.5 0 0 0 -0.5,0.5 v 166.51 q 0,0.5 0.5,0.55 5.63,0.62 7.27,0.26 c 30.37,-6.63 56.55,-11.5 86.48,-7.98 16.49,1.94 34.68,5.5 44.66,20.35 6.33,9.43 6.89,21.4 4.41,32.35 -2.66,11.75 -14.22,21.9 -24.69,26.18 q -6.69,2.74 -19.4,4.72 c -34.17,5.32 -67.55,-4.42 -97.57,-21.17 -4.59,-2.56 -7.74,-3.19 -12.67,-2.35 q -0.49,0.09 -0.49,0.58 V 522 a 1.18,1.18 0 0 0 0.76,1.1 q 39.61,15.05 81.51,17.03 c 36.91,1.74 73.23,-0.53 105.59,-20.19 37.77,-22.95 53.22,-65.18 45.14,-108.19 -11.17,-59.42 -76.1,-71.68 -125.95,-69.9 q -10.7,0.38 -21.7,0.73 -0.59,0.02 -0.6,-0.57 l -0.01,-47.29 q 0,-0.47 0.47,-0.47"
           id="path19" /><path
           stroke="#3a0074"
           vector-effect="non-scaling-stroke"
           d="M 279.5,456.27 A 0.27,0.27 0 0 0 279.23,456 h -75.22 a 0.27,0.27 0 0 0 -0.27,0.27 v 77.96 a 0.27,0.27 0 0 0 0.27,0.27 h 75.22 a 0.27,0.27 0 0 0 0.27,-0.27 v -77.96"
           id="path20" /><path
           stroke="#3a0074"
           vector-effect="non-scaling-stroke"
           d="m 101.8,692.54 c 12.34,8.74 26.74,8.58 41.29,5.74 15.05,-2.95 33.33,-19.99 35.94,-35.28 1.82,-10.65 1.9,-29.1 -4.16,-39.1 -10.12,-16.68 -26.79,-25.99 -46.39,-25.98 -23.25,0.01 -45.31,17.71 -48.78,42.08 -3.15,22.19 3.92,39.68 22.1,52.54"
           id="path21" /><path
           stroke="#3a0074"
           vector-effect="non-scaling-stroke"
           d="m 953.6,620.34 c -24.35,34.26 3.41,83.45 45.61,79.5 36.19,-3.38 59.37,-44.63 39.62,-76.22 -20.01,-32.02 -63.37,-34.05 -85.23,-3.28"
           id="path22" /><path
           stroke="#3a0074"
           vector-effect="non-scaling-stroke"
           d="m 985.2,98.3 c -9.36,2.33 -19.81,12.27 -21.75,21.69 -4.38,21.26 6.25,41.43 29.4,43.05 23.84,1.67 43.87,-24.64 32.74,-46.37 Q 1012.68,91.45 985.2,98.3"
           id="path23" /><path
           stroke="#3a0074"
           vector-effect="non-scaling-stroke"
           d="M 160.51,115.81 C 154.84,103.54 141.34,95.12 128,96.11 c -20.75,1.53 -34.59,19.51 -30.67,40.19 4.04,21.3 24.68,32.91 44.81,24.65 8.93,-3.67 19.14,-13.21 20.28,-23.52 0.73,-6.6 0.93,-15.48 -1.91,-21.62"
           id="path24" /><path
           stroke="#3a0074"
           vector-effect="non-scaling-stroke"
           d="m 480,305.37 a 0.34,0.34 0 0 0 -0.6,-0.21 l -86.72,106.03 a 0.34,0.34 0 0 0 0.27,0.56 h 86.71 A 0.34,0.34 0 0 0 480,411.41 V 305.37"
           id="path25" /><path
           stroke="#3a0074"
           vector-effect="non-scaling-stroke"
           d="m 103.41,628.64 c -19.27,25.69 3.11,60.48 34.03,53.53 29.93,-6.71 35.59,-48.88 8.26,-62.82 -14.63,-7.47 -32.41,-3.88 -42.29,9.29"
           id="path26" /><path
           stroke="#3a0074"
           vector-effect="non-scaling-stroke"
           d="m 961.13,649.66 c 0.19,18.64 15.84,35.39 35.31,33.51 17.34,-1.67 35.3,-16.98 33.21,-35.86 -2.69,-24.23 -28.86,-42.3 -51.4,-27.26 -10.17,6.78 -17.25,17 -17.12,29.61"
           id="path27" /></g><path
         fill="#1e0036"
         d="m 1054.22,1.96 q 2.87,-0.1 6.21,0.19 2.94,0.27 5.88,1.65 5.33,2.5 10.01,5.02 l 19.52,12.91 q 14.85,12.64 22.65,31.49 c 2.45,5.93 5.94,11.25 4.92,17.88 l 0.6,359.16 q 0,0.17 0.09,0.32 0.07,0.12 0.13,0.23 0.2,0.35 0.22,-0.05 0.23,-3.77 -0.16,-7.51 -0.02,-0.23 0.18,-0.33 0.32,-0.16 0.33,0.2 l 0.2,7.44 v 192.75 q -0.35,-0.09 -0.79,0.59 -0.24,0.37 -0.24,0.9 0.26,27.2 -0.55,54.38 -0.64,21.15 -2.53,34.25 -0.89,6.11 -0.77,7.75 -5.54,17.03 -17.81,29.55 -12.48,10.93 -26.58,19.67 -5.97,3.6 -13.06,5.08 -2.75,-0.1 -8.17,0.46 -5.55,0.58 -24.56,0.91 -59.31,1.02 -118.55,1.2 -46.21,0.15 -128.47,0.18 c -192.89,0.08 -443.68,1.07 -672.11,-1.3 q -14.4,-0.15 -48.47,-1.47 L 50.63,771.4 q 0.15,-0.34 0.14,-0.57 -0.01,-0.24 -0.35,-0.4 -25.37,-12.44 -39.34,-36.94 c -0.73,-1.27 -1.53,-3.91 -3.21,-4.46 L 3.68,717.41 Q 2.48,705.35 2.3,698 C 0.31,615.81 1.02,530.34 0.44,446.49 q 0,-0.18 -0.18,-0.24 Q 0.13,446.21 0,446.19 V 146.2 q 0.79,-1.94 0.76,-3.95 C 0.4,113.21 0.85,84.16 5.33,56.19 Q 15.36,29.44 39.16,14 54.78,6.23 61.5,4.49 63.67,3.92 70.81,3.3 84.13,2.13 122.81,1.96 C 411.78,0.7 700.78,1.93 989.75,2.27 q 1.98,0.01 4,0 29.98,-0.15 60.47,-0.31 z M 602.25,42.5 Q 416.22,42.49 230.18,42.51 c -44.26,0.01 -90.64,0.24 -139.29,0.84 Q 78.33,41.91 68.27,44.61 C 57.47,52.16 44.29,63.66 43.51,77.74 q -0.45,7.99 -0.77,31.75 c -0.01,1.44 -0.58,3.07 -0.56,4.26 0.26,14.08 -0.16,30.2 -0.16,42.18 0.08,180.64 -0.86,361.37 1.26,541.99 0.04,3.61 0.42,9.4 1.59,11.91 5.76,12.36 17.38,23.51 31.34,25.06 14.33,1.6 29.65,1.52 47.61,1.6 171.63,0.75 345.72,0.65 494.43,1.06 q 0.36,0 0.63,-0.08 0.8,-0.24 0.93,-0.24 c 128.05,0.07 256.08,0.17 384.13,-0.61 q 29.58,-0.18 44.3,-1.59 c 13.99,-1.35 27.56,-14.43 32.05,-27.32 q 1.43,-4.07 1.63,-11.12 c 0.43,-15 0.85,-29.81 0.96,-45.02 q 1.9,-271.16 -0.15,-542.32 -0.06,-8.8 -0.97,-31.33 c -0.57,-14.07 -16.78,-28.59 -28.61,-34.21 q -0.45,-0.21 -0.95,-0.22 l -80.69,-0.78 z"
         id="path29" /><path
         fill="#811515"
         d="m 1076.32,8.82 q 11.03,4.65 19.52,12.91 z"
         id="path30" /><path
         fill="#811515"
         d="m 971.51,42.71 -369.18,0.05 q -0.02,0 -0.02,-0.01 -0.03,-0.12 -0.06,-0.25 z"
         id="path31" /><path
         fill="#5600b1"
         d="m 602.25,42.5 q 0.03,0.13 0.06,0.25 0,0.01 0.02,0.01 l 369.18,-0.05 80.69,0.78 q 0.5,0.01 0.95,0.22 c 11.83,5.62 28.04,20.14 28.61,34.21 q 0.91,22.53 0.97,31.33 2.05,271.16 0.15,542.32 c -0.11,15.21 -0.53,30.02 -0.96,45.02 q -0.2,7.05 -1.63,11.12 c -4.49,12.89 -18.06,25.97 -32.05,27.32 q -14.72,1.41 -44.3,1.59 c -128.05,0.78 -256.08,0.68 -384.13,0.61 q -0.13,0 -0.93,0.24 -0.27,0.08 -0.63,0.08 c -148.71,-0.41 -322.8,-0.31 -494.43,-1.06 -17.96,-0.08 -33.28,0 -47.61,-1.6 -13.96,-1.55 -25.58,-12.7 -31.34,-25.06 -1.17,-2.51 -1.55,-8.3 -1.59,-11.91 C 41.16,517.3 42.1,336.57 42.02,155.93 c 0,-11.98 0.42,-28.1 0.16,-42.18 -0.02,-1.19 0.55,-2.82 0.56,-4.26 Q 43.06,85.73 43.51,77.74 C 44.29,63.66 57.47,52.16 68.27,44.61 l 22.62,-1.26 c 48.65,-0.6 95.03,-0.83 139.29,-0.84 Q 416.22,42.49 602.25,42.5 Z m 374.09,38.61 c -43.62,18.44 -44.45,78.66 -1.38,97.34 q 7.92,3.43 17.05,3.47 c 37.27,0.16 61.03,-29.07 53.66,-65.11 -2.56,-12.53 -11.95,-22.87 -22.11,-30.37 C 1011.54,77.57 990,75.34 976.34,81.11 Z M 162.64,90.1 Q 149.88,79.23 133.01,78.93 121.07,78.71 117.09,79.79 C 90.8,86.92 78.25,108.26 79.03,134.43 q 0.2,6.63 2.28,12.39 c 13.69,37.87 62.63,46.71 88.43,15.17 6.32,-7.73 9.84,-13.75 9.94,-23.49 q 0.13,-14.1 -0.6,-21.23 c -1.05,-10.36 -8.85,-20.7 -16.44,-27.17 z m 392.27,321.65 a 0.4,0.4 0 0 1 -0.4,-0.4 l -0.01,-173.7 a 0.4,0.4 0 0 0 -0.4,-0.4 h -78.7 a 0.4,0.4 0 0 0 -0.31,0.15 L 333.84,409.65 a 0.4,0.4 0 0 0 -0.09,0.25 v 55.7 a 0.4,0.4 0 0 0 0.4,0.4 h 145.46 a 0.4,0.4 0 0 1 0.4,0.4 l -0.02,68.43 a 0.4,0.4 0 0 0 0.4,0.4 l 73.72,0.06 a 0.4,0.4 0 0 0 0.4,-0.4 V 466.4 a 0.4,0.4 0 0 1 0.4,-0.4 h 40.44 a 0.4,0.4 0 0 0 0.4,-0.4 v -53.45 a 0.4,0.4 0 0 0 -0.4,-0.4 z m 175.8,-117.5 h 140.32 a 0.77,0.77 0 0 0 0.77,-0.78 l -0.07,-55.73 q 0,-0.49 -0.49,-0.49 H 657.5 a 0.5,0.5 0 0 0 -0.5,0.5 v 166.51 q 0,0.5 0.5,0.55 5.63,0.62 7.27,0.26 c 30.37,-6.63 56.55,-11.5 86.48,-7.98 16.49,1.94 34.68,5.5 44.66,20.35 6.33,9.43 6.89,21.4 4.41,32.35 -2.66,11.75 -14.22,21.9 -24.69,26.18 q -6.69,2.74 -19.4,4.72 c -34.17,5.32 -67.55,-4.42 -97.57,-21.17 -4.59,-2.56 -7.74,-3.19 -12.67,-2.35 q -0.49,0.09 -0.49,0.58 V 522 a 1.18,1.18 0 0 0 0.76,1.1 q 39.61,15.05 81.51,17.03 c 36.91,1.74 73.23,-0.53 105.59,-20.19 37.77,-22.95 53.22,-65.18 45.14,-108.19 -11.17,-59.42 -76.1,-71.68 -125.95,-69.9 q -10.7,0.38 -21.7,0.73 -0.59,0.02 -0.6,-0.57 l -0.01,-47.29 q 0,-0.47 0.47,-0.47 z M 279.5,456.27 A 0.27,0.27 0 0 0 279.23,456 h -75.22 a 0.27,0.27 0 0 0 -0.27,0.27 v 77.96 a 0.27,0.27 0 0 0 0.27,0.27 h 75.22 a 0.27,0.27 0 0 0 0.27,-0.27 z M 101.8,692.54 c 12.34,8.74 26.74,8.58 41.29,5.74 15.05,-2.95 33.33,-19.99 35.94,-35.28 1.82,-10.65 1.9,-29.1 -4.16,-39.1 -10.12,-16.68 -26.79,-25.99 -46.39,-25.98 -23.25,0.01 -45.31,17.71 -48.78,42.08 -3.15,22.19 3.92,39.68 22.1,52.54 z m 851.8,-72.2 c -24.35,34.26 3.41,83.45 45.61,79.5 36.19,-3.38 59.37,-44.63 39.62,-76.22 -20.01,-32.02 -63.37,-34.05 -85.23,-3.28 z"
         id="path32" /><path
         fill="#811515"
         d="m 90.89,43.35 -22.62,1.26 q 10.06,-2.7 22.62,-1.26 z"
         id="path33" /><path
         fill="#811515"
         d="m 1123.41,71.1 1.59,11.22 v 348.24 l -0.2,-7.44 q -0.01,-0.36 -0.33,-0.2 -0.2,0.1 -0.18,0.33 0.39,3.74 0.16,7.51 -0.02,0.4 -0.22,0.05 -0.06,-0.11 -0.13,-0.23 -0.09,-0.15 -0.09,-0.32 z"
         id="path35" /><path
         fill="#1e0036"
         d="m 974.96,178.45 c -43.07,-18.68 -42.24,-78.9 1.38,-97.34 13.66,-5.77 35.2,-3.54 47.22,5.33 10.16,7.5 19.55,17.84 22.11,30.37 7.37,36.04 -16.39,65.27 -53.66,65.11 q -9.13,-0.04 -17.05,-3.47 z M 985.2,98.3 c -9.36,2.33 -19.81,12.27 -21.75,21.69 -4.38,21.26 6.25,41.43 29.4,43.05 23.84,1.67 43.87,-24.64 32.74,-46.37 Q 1012.68,91.45 985.2,98.3 Z"
         id="path36" /><path
         fill="#1e0036"
         d="m 162.64,90.1 c 7.59,6.47 15.39,16.81 16.44,27.17 q 0.73,7.13 0.6,21.23 c -0.1,9.74 -3.62,15.76 -9.94,23.49 -25.8,31.54 -74.74,22.7 -88.43,-15.17 q -2.08,-5.76 -2.28,-12.39 C 78.25,108.26 90.8,86.92 117.09,79.79 q 3.98,-1.08 15.92,-0.86 16.87,0.3 29.63,11.17 z m -2.13,25.71 C 154.84,103.54 141.34,95.12 128,96.11 c -20.75,1.53 -34.59,19.51 -30.67,40.19 4.04,21.3 24.68,32.91 44.81,24.65 8.93,-3.67 19.14,-13.21 20.28,-23.52 0.73,-6.6 0.93,-15.48 -1.91,-21.62 z"
         id="path37" /><path
         fill="#5600b1"
         d="m 128,96.11 c 13.34,-0.99 26.84,7.43 32.51,19.7 2.84,6.14 2.64,15.02 1.91,21.62 -1.14,10.31 -11.35,19.85 -20.28,23.52 -20.13,8.26 -40.77,-3.35 -44.81,-24.65 -3.92,-20.68 9.92,-38.66 30.67,-40.19 z"
         id="path38" /><path
         fill="#5600b1"
         d="m 963.45,119.99 c 1.94,-9.42 12.39,-19.36 21.75,-21.69 q 27.48,-6.85 40.39,18.37 c 11.13,21.73 -8.9,48.04 -32.74,46.37 -23.15,-1.62 -33.78,-21.79 -29.4,-43.05 z"
         id="path39" /><path
         fill="#1e0036"
         d="m 554.91,411.75 h 40.44 a 0.4,0.4 0 0 1 0.4,0.4 v 53.45 a 0.4,0.4 0 0 1 -0.4,0.4 h -40.44 a 0.4,0.4 0 0 0 -0.4,0.4 v 68.49 a 0.4,0.4 0 0 1 -0.4,0.4 l -73.72,-0.06 a 0.4,0.4 0 0 1 -0.4,-0.4 l 0.02,-68.43 a 0.4,0.4 0 0 0 -0.4,-0.4 H 334.15 a 0.4,0.4 0 0 1 -0.4,-0.4 v -55.7 a 0.4,0.4 0 0 1 0.09,-0.25 L 475.09,237.4 a 0.4,0.4 0 0 1 0.31,-0.15 h 78.7 a 0.4,0.4 0 0 1 0.4,0.4 l 0.01,173.7 a 0.4,0.4 0 0 0 0.4,0.4 z M 480,305.37 a 0.34,0.34 0 0 0 -0.6,-0.21 l -86.72,106.03 a 0.34,0.34 0 0 0 0.27,0.56 h 86.71 a 0.34,0.34 0 0 0 0.34,-0.34 z"
         id="path40" /><path
         fill="#1e0036"
         d="m 730.24,294.72 0.01,47.29 q 0.01,0.59 0.6,0.57 11,-0.35 21.7,-0.73 c 49.85,-1.78 114.78,10.48 125.95,69.9 8.08,43.01 -7.37,85.24 -45.14,108.19 -32.36,19.66 -68.68,21.93 -105.59,20.19 q -41.9,-1.98 -81.51,-17.03 A 1.18,1.18 0 0 1 645.5,522 v -64.25 q 0,-0.49 0.49,-0.58 c 4.93,-0.84 8.08,-0.21 12.67,2.35 30.02,16.75 63.4,26.49 97.57,21.17 q 12.71,-1.98 19.4,-4.72 c 10.47,-4.28 22.03,-14.43 24.69,-26.18 2.48,-10.95 1.92,-22.92 -4.41,-32.35 -9.98,-14.85 -28.17,-18.41 -44.66,-20.35 -29.93,-3.52 -56.11,1.35 -86.48,7.98 q -1.64,0.36 -7.27,-0.26 -0.5,-0.05 -0.5,-0.55 V 237.75 a 0.5,0.5 0 0 1 0.5,-0.5 h 213.74 q 0.49,0 0.49,0.49 l 0.07,55.73 a 0.77,0.77 0 0 1 -0.77,0.78 H 730.71 q -0.47,0 -0.47,0.47 z"
         id="path41" /><path
         fill="#5600b1"
         d="m 480,305.37 v 106.04 a 0.34,0.34 0 0 1 -0.34,0.34 h -86.71 a 0.34,0.34 0 0 1 -0.27,-0.56 L 479.4,305.16 a 0.34,0.34 0 0 1 0.6,0.21 z"
         id="path42" /><rect
         fill="#1e0036"
         x="203.74001"
         y="456"
         width="75.760002"
         height="78.5"
         rx="0.27000001"
         id="rect43" /><path
         fill="#1e0036"
         d="M 101.8,692.54 C 83.62,679.68 76.55,662.19 79.7,640 c 3.47,-24.37 25.53,-42.07 48.78,-42.08 19.6,-0.01 36.27,9.3 46.39,25.98 6.06,10 5.98,28.45 4.16,39.1 -2.61,15.29 -20.89,32.33 -35.94,35.28 -14.55,2.84 -28.95,3 -41.29,-5.74 z m 1.61,-63.9 c -19.27,25.69 3.11,60.48 34.03,53.53 29.93,-6.71 35.59,-48.88 8.26,-62.82 -14.63,-7.47 -32.41,-3.88 -42.29,9.29 z"
         id="path44" /><path
         fill="#1e0036"
         d="m 999.21,699.84 c -42.2,3.95 -69.96,-45.24 -45.61,-79.5 21.86,-30.77 65.22,-28.74 85.23,3.28 19.75,31.59 -3.43,72.84 -39.62,76.22 z m -38.08,-50.18 c 0.19,18.64 15.84,35.39 35.31,33.51 17.34,-1.67 35.3,-16.98 33.21,-35.86 -2.69,-24.23 -28.86,-42.3 -51.4,-27.26 -10.17,6.78 -17.25,17 -17.12,29.61 z"
         id="path45" /><path
         fill="#5600b1"
         d="m 996.44,683.17 c -19.47,1.88 -35.12,-14.87 -35.31,-33.51 -0.13,-12.61 6.95,-22.83 17.12,-29.61 22.54,-15.04 48.71,3.03 51.4,27.26 2.09,18.88 -15.87,34.19 -33.21,35.86 z"
         id="path46" /><path
         fill="#5600b1"
         d="m 137.44,682.17 c -30.92,6.95 -53.3,-27.84 -34.03,-53.53 9.88,-13.17 27.66,-16.76 42.29,-9.29 27.33,13.94 21.67,56.11 -8.26,62.82 z"
         id="path47" /></g></g></svg>
