<?xml version="1.0" encoding="UTF-8" standalone="no"?>
<!-- Created with Inkscape (http://www.inkscape.org/) -->

<svg
   width="72"
   height="72"
   viewBox="0 0 19.05 19.05"
   version="1.1"
   id="svg1"
   inkscape:version="1.4 (86a8ad7, 2024-10-11)"
   sodipodi:docname="50cal.svg"
   xmlns:inkscape="http://www.inkscape.org/namespaces/inkscape"
   xmlns:sodipodi="http://sodipodi.sourceforge.net/DTD/sodipodi-0.dtd"
   xmlns="http://www.w3.org/2000/svg"
   xmlns:svg="http://www.w3.org/2000/svg">
  <sodipodi:namedview
     id="namedview1"
     pagecolor="#ffffff"
     bordercolor="#000000"
     borderopacity="0.25"
     inkscape:showpageshadow="2"
     inkscape:pageopacity="0.0"
     inkscape:pagecheckerboard="0"
     inkscape:deskcolor="#d1d1d1"
     inkscape:document-units="mm"
     inkscape:zoom="5.7370928"
     inkscape:cx="43.66323"
     inkscape:cy="33.902188"
     inkscape:window-width="1920"
     inkscape:window-height="1009"
     inkscape:window-x="-8"
     inkscape:window-y="-8"
     inkscape:window-maximized="1"
     inkscape:current-layer="svg1" />
  <defs
     id="defs1" />
  <rect
     style="fill:#202020;fill-opacity:1;stroke:#000000;stroke-width:1.58485;stroke-linecap:round;stroke-linejoin:round;stroke-miterlimit:10;stroke-dasharray:none;stroke-opacity:1"
     id="rect846"
     width="17.465147"
     height="17.465147"
     x="0.79242498"
     y="0.79242498"
     ry="1.0990396"
     rx="1.0990396" />
  <circle
     style="fill:none;fill-opacity:1;stroke:#484848;stroke-width:0.631031;stroke-linecap:round;stroke-linejoin:round;stroke-miterlimit:4;stroke-dasharray:none;stroke-opacity:1"
     id="path9697"
     cx="16.097973"
     cy="2.9521501"
     r="0.73269308" />
  <circle
     style="fill:none;fill-opacity:1;stroke:#484848;stroke-width:0.631031;stroke-linecap:round;stroke-linejoin:round;stroke-miterlimit:4;stroke-dasharray:none;stroke-opacity:1"
     id="path9697-6"
     cx="16.150839"
     cy="16.083685"
     r="0.73269308" />
  <circle
     style="fill:none;fill-opacity:1;stroke:#484848;stroke-width:0.631031;stroke-linecap:round;stroke-linejoin:round;stroke-miterlimit:4;stroke-dasharray:none;stroke-opacity:1"
     id="path9697-7"
     cx="2.9256918"
     cy="16.083685"
     r="0.73269308" />
  <circle
     style="fill:none;fill-opacity:1;stroke:#484848;stroke-width:0.631031;stroke-linecap:round;stroke-linejoin:round;stroke-miterlimit:4;stroke-dasharray:none;stroke-opacity:1"
     id="path9697-5"
     cx="3.0051224"
     cy="2.9521501"
     r="0.73269308" />
  <path
     d="m 2.6669994,11.429999 h 1.7144999 v 1.42875 H 2.6669994 Z m 5.7149975,1.524 q -1.5906749,0 -3.5242499,-0.1905 v -1.285875 q 2.105025,0.142875 3.1432499,0.142875 0.219075,0 0.3429,-0.123825 0.13335,-0.13335 0.13335,-0.352425 v -0.47625 q 0,-0.571499 -0.5715,-0.571499 H 5.143497 V 6.1912497 H 9.7154969 V 7.5247496 H 6.857997 v 1.23825 h 1.5239999 q 0.93345,0 1.3716,0.4286249 0.4381501,0.4191 0.4381501,1.2858745 v 0.66675 q 0,0.93345 -0.4381501,1.3716 -0.43815,0.43815 -1.3716,0.43815 z M 14.668501,8.0009996 q 0,-0.5715 -0.5715,-0.5715 h -1.04775 q -0.5715,0 -0.5715,0.5715 v 3.0479994 q 0,0.5715 0.5715,0.5715 h 1.04775 q 0.5715,0 0.5715,-0.5715 z m 1.7145,3.0479994 q 0,1.000125 -0.4572,1.457325 -0.447675,0.447675 -1.4478,0.447675 h -1.80975 q -1.000125,0 -1.457325,-0.447675 -0.447675,-0.4572 -0.447675,-1.457325 V 8.0009996 q 0,-1.000125 0.447675,-1.4478 0.4572,-0.4571999 1.457325,-0.4571999 h 1.80975 q 1.000125,0 1.4478,0.4571999 0.4572,0.447675 0.4572,1.4478 z"
     id="text1"
     style="font-size:9.525px;font-family:'Russo One';-inkscape-font-specification:'Russo One, Normal';fill:#5f5f5f;stroke-width:0.631031;stroke-linecap:round;stroke-linejoin:round;paint-order:markers stroke fill"
     aria-label=".50" />
</svg>
