<?xml version="1.0" encoding="UTF-8" standalone="no"?>
<!-- Created with Inkscape (http://www.inkscape.org/) -->

<svg
   width="19.049999mm"
   height="19.049999mm"
   viewBox="0 0 19.049999 19.05"
   version="1.1"
   id="svg5"
   inkscape:version="1.4 (86a8ad7, 2024-10-11)"
   sodipodi:docname="556mm.svg"
   inkscape:export-filename="/home/desktopgeek/ammo.png"
   inkscape:export-xdpi="1500.0001"
   inkscape:export-ydpi="1500.0001"
   xmlns:inkscape="http://www.inkscape.org/namespaces/inkscape"
   xmlns:sodipodi="http://sodipodi.sourceforge.net/DTD/sodipodi-0.dtd"
   xmlns="http://www.w3.org/2000/svg"
   xmlns:svg="http://www.w3.org/2000/svg">
  <sodipodi:namedview
     id="namedview7"
     pagecolor="#505050"
     bordercolor="#ffffff"
     borderopacity="1"
     inkscape:pageshadow="0"
     inkscape:pageopacity="0"
     inkscape:pagecheckerboard="1"
     inkscape:document-units="px"
     showgrid="false"
     units="px"
     inkscape:zoom="4.6072423"
     inkscape:cx="53.719771"
     inkscape:cy="36.355805"
     inkscape:window-width="1920"
     inkscape:window-height="1009"
     inkscape:window-x="-8"
     inkscape:window-y="-8"
     inkscape:window-maximized="1"
     inkscape:current-layer="layer1"
     inkscape:showpageshadow="2"
     inkscape:deskcolor="#d1d1d1" />
  <defs
     id="defs2">
    <inkscape:path-effect
       effect="spiro"
       id="path-effect2050"
       is_visible="true"
       lpeversion="1" />
    <inkscape:path-effect
       effect="spiro"
       id="path-effect2046"
       is_visible="true"
       lpeversion="1" />
    <inkscape:path-effect
       effect="spiro"
       id="path-effect2050-3"
       is_visible="true"
       lpeversion="1" />
  </defs>
  <g
     inkscape:label="Layer 1"
     inkscape:groupmode="layer"
     id="layer1">
    <rect
       style="fill:#1e8d1e;fill-opacity:1;stroke:#125512;stroke-width:1.58485;stroke-linecap:round;stroke-linejoin:round;stroke-miterlimit:10;stroke-dasharray:none;stroke-opacity:1"
       id="rect846-0"
       width="17.465147"
       height="17.465147"
       x="0.79242498"
       y="0.79242498"
       ry="1.0990396"
       rx="1.0990396" />
    <circle
       style="fill:none;fill-opacity:1;stroke:#125512;stroke-width:0.631031;stroke-linecap:round;stroke-linejoin:round;stroke-miterlimit:4;stroke-dasharray:none;stroke-opacity:1"
       id="path9697-9"
       cx="16.097973"
       cy="2.9521501"
       r="0.73269308" />
    <circle
       style="fill:none;fill-opacity:1;stroke:#125512;stroke-width:0.631031;stroke-linecap:round;stroke-linejoin:round;stroke-miterlimit:4;stroke-dasharray:none;stroke-opacity:1"
       id="path9697-6-4"
       cx="16.150839"
       cy="16.083687"
       r="0.73269308" />
    <circle
       style="fill:none;fill-opacity:1;stroke:#125512;stroke-width:0.631031;stroke-linecap:round;stroke-linejoin:round;stroke-miterlimit:4;stroke-dasharray:none;stroke-opacity:1"
       id="path9697-7-8"
       cx="2.9256914"
       cy="16.083687"
       r="0.73269308" />
    <circle
       style="fill:none;fill-opacity:1;stroke:#125512;stroke-width:0.631031;stroke-linecap:round;stroke-linejoin:round;stroke-miterlimit:4;stroke-dasharray:none;stroke-opacity:1"
       id="path9697-5-8"
       cx="3.0051219"
       cy="2.9521501"
       r="0.73269308" />
    <path
       d="m 4.9741611,12.065001 q -1.1782785,0 -2.6105572,-0.141111 v -0.9525 q 1.5592788,0.105833 2.3283348,0.105833 0.1622779,0 0.2540002,-0.09172 0.098778,-0.09878 0.098778,-0.261056 v -0.352778 q 0,-0.4233336 -0.4233336,-0.4233336 H 2.5752707 V 7.0555537 H 5.9619396 V 8.0433321 H 3.8452715 V 8.960555 h 1.1288896 q 0.6914449,0 1.0160007,0.3175002 0.3245558,0.3104446 0.3245558,0.9525008 v 0.493889 q 0,0.691445 -0.3245558,1.016001 -0.3245558,0.324555 -1.0160007,0.324555 z m 1.6933372,-1.128889 h 1.2700009 v 1.058334 H 6.6674983 Z m 4.2333347,1.128889 q -1.1782789,0 -2.6105576,-0.141111 v -0.9525 q 1.5592788,0.105833 2.3283346,0.105833 0.162278,0 0.254,-0.09172 0.09878,-0.09878 0.09878,-0.261056 v -0.352778 q 0,-0.4233336 -0.423333,-0.4233336 H 8.5019422 V 7.0555537 H 11.888611 V 8.0433321 H 9.771943 V 8.960555 h 1.12889 q 0.691445,0 1.016,0.3175002 0.324556,0.3104446 0.324556,0.9525008 v 0.493889 q 0,0.691445 -0.324556,1.016001 -0.324555,0.324555 -1.016,0.324555 z m 3.104449,-5.0800029 q 0.966612,0 2.328335,0.1411112 v 0.9525006 q -0.388056,-0.021167 -0.663223,-0.035278 -0.268111,-0.021167 -0.4445,-0.028222 -0.169334,-0.014111 -0.338667,-0.028222 -0.282223,-0.014111 -0.522112,-0.014111 -0.430389,0 -0.430389,0.352778 V 8.960555 q 0.68439,-0.1411112 1.199445,-0.1411112 h 0.49389 q 0.479778,0 0.769056,0.2892779 0.289278,0.289278 0.289278,0.7690561 v 0.9172232 q 0,0.642056 -0.324556,0.959556 -0.324556,0.310444 -1.016001,0.310444 h -1.340556 q -0.691445,0 -1.016001,-0.310444 -0.324556,-0.3175 -0.324556,-0.959556 V 8.3255545 q 0,-0.6914448 0.324556,-1.0160006 0.324556,-0.3245558 1.016001,-0.3245558 z m 0.776111,2.8222241 q -0.268111,0 -0.493889,0.028222 -0.218722,0.028222 -0.352778,0.042333 v 0.7761112 q 0,0.423334 0.423334,0.423334 h 0.635 q 0.423334,0 0.423334,-0.423334 v -0.599722 q 0,-0.1058336 -0.07056,-0.1763892 -0.07056,-0.070556 -0.176389,-0.070556 z"
       id="text1"
       style="font-size:7.05556px;font-family:'Russo One';-inkscape-font-specification:'Russo One, Normal';fill:#0f460f;stroke-width:0.631031;stroke-linecap:round;stroke-linejoin:round;paint-order:markers stroke fill"
       aria-label="5.56" />
  </g>
</svg>
