<?xml version="1.0" encoding="UTF-8" standalone="no"?>
<!-- Created with Inkscape (http://www.inkscape.org/) -->

<svg
   width="72"
   height="72"
   viewBox="0 0 19.05 19.050001"
   version="1.1"
   id="svg5"
   inkscape:version="1.4 (86a8ad7, 2024-10-11)"
   sodipodi:docname="762mm.svg"
   inkscape:export-filename="/home/desktopgeek/Downloads/Ammo emojis/762mm_ammo.png"
   inkscape:export-xdpi="945.23077"
   inkscape:export-ydpi="945.23077"
   xmlns:inkscape="http://www.inkscape.org/namespaces/inkscape"
   xmlns:sodipodi="http://sodipodi.sourceforge.net/DTD/sodipodi-0.dtd"
   xmlns="http://www.w3.org/2000/svg"
   xmlns:svg="http://www.w3.org/2000/svg">
  <sodipodi:namedview
     id="namedview7"
     pagecolor="#505050"
     bordercolor="#ffffff"
     borderopacity="1"
     inkscape:pageshadow="0"
     inkscape:pageopacity="0"
     inkscape:pagecheckerboard="1"
     inkscape:document-units="px"
     showgrid="false"
     units="px"
     inkscape:zoom="4.6072423"
     inkscape:cx="11.829202"
     inkscape:cy="44.16959"
     inkscape:window-width="1920"
     inkscape:window-height="1009"
     inkscape:window-x="-8"
     inkscape:window-y="-8"
     inkscape:window-maximized="1"
     inkscape:current-layer="layer1"
     inkscape:showpageshadow="2"
     inkscape:deskcolor="#d1d1d1" />
  <defs
     id="defs2">
    <inkscape:path-effect
       effect="spiro"
       id="path-effect2050"
       is_visible="true"
       lpeversion="1" />
    <inkscape:path-effect
       effect="spiro"
       id="path-effect2046"
       is_visible="true"
       lpeversion="1" />
    <inkscape:path-effect
       effect="spiro"
       id="path-effect2050-3"
       is_visible="true"
       lpeversion="1" />
  </defs>
  <g
     inkscape:label="Layer 1"
     inkscape:groupmode="layer"
     id="layer1">
    <rect
       style="fill:#1f55cc;fill-opacity:1;stroke:#13337a;stroke-width:1.58485;stroke-linecap:round;stroke-linejoin:round;stroke-miterlimit:10;stroke-dasharray:none;stroke-opacity:1"
       id="rect846-2"
       width="17.465147"
       height="17.465147"
       x="0.79242498"
       y="0.79242498"
       ry="1.0990396"
       rx="1.0990396" />
    <circle
       style="fill:none;fill-opacity:1;stroke:#13337a;stroke-width:0.631031;stroke-linecap:round;stroke-linejoin:round;stroke-miterlimit:4;stroke-dasharray:none;stroke-opacity:1"
       id="path9697-4"
       cx="16.097971"
       cy="2.9521501"
       r="0.73269308" />
    <circle
       style="fill:none;fill-opacity:1;stroke:#13337a;stroke-width:0.631031;stroke-linecap:round;stroke-linejoin:round;stroke-miterlimit:4;stroke-dasharray:none;stroke-opacity:1"
       id="path9697-6-5"
       cx="16.150839"
       cy="16.083687"
       r="0.73269308" />
    <circle
       style="fill:none;fill-opacity:1;stroke:#13337a;stroke-width:0.631031;stroke-linecap:round;stroke-linejoin:round;stroke-miterlimit:4;stroke-dasharray:none;stroke-opacity:1"
       id="path9697-7-5"
       cx="2.9256918"
       cy="16.083687"
       r="0.73269308" />
    <circle
       style="fill:none;fill-opacity:1;stroke:#13337a;stroke-width:0.631031;stroke-linecap:round;stroke-linejoin:round;stroke-miterlimit:4;stroke-dasharray:none;stroke-opacity:1"
       id="path9697-5-1"
       cx="3.0051222"
       cy="2.9521501"
       r="0.73269308" />
    <path
       d="M 2.0355325,6.8086114 H 6.2265318 V 7.8951668 L 4.4414765,12.241388 H 2.8892546 L 4.7519209,7.8951668 H 2.0355325 Z m 4.11339,4.2686106 h 1.3969997 v 1.164166 H 6.1489225 Z M 9.5638089,6.7310003 q 1.0632721,0 2.5611661,0.1552222 v 1.0477499 q -0.426861,-0.023283 -0.729544,-0.038806 -0.294922,-0.023283 -0.48895,-0.031044 -0.186267,-0.015522 -0.372533,-0.031045 -0.310445,-0.015522 -0.5743225,-0.015522 -0.4734277,0 -0.4734277,0.3880555 V 8.9041111 Q 10.239025,8.7488889 10.805586,8.7488889 h 0.543278 q 0.527756,0 0.845961,0.3182055 0.318206,0.3182055 0.318206,0.845961 V 10.922 q 0,0.706261 -0.357011,1.055511 -0.357011,0.341488 -1.1176,0.341488 H 9.5638089 q -0.7605888,0 -1.1175998,-0.341488 Q 8.089198,11.628261 8.089198,10.922 V 8.2056112 q 0,-0.7605888 0.3570111,-1.1175998 0.357011,-0.3570111 1.1175998,-0.3570111 z m 0.8537221,3.104444 q -0.294922,0 -0.5432777,0.031044 -0.2405944,0.031045 -0.3880555,0.046567 v 0.8537216 q 0,0.465667 0.4656666,0.465667 h 0.6984996 q 0.465667,0 0.465667,-0.465667 v -0.659694 q 0,-0.1164165 -0.07761,-0.1940276 -0.07761,-0.077611 -0.194028,-0.077611 z m 6.596937,-1.3193887 q 0,0.6596943 -0.5588,1.1408831 -0.170744,0.1474611 -0.372533,0.2949222 l -1.668639,1.2029721 h 2.599972 v 1.086555 H 12.823469 V 10.766777 L 15.617468,8.7488889 V 8.3608334 q 0,-0.4656666 -0.465666,-0.4656666 H 12.978691 V 6.8086114 h 2.483555 q 0.814917,0 1.179689,0.3725333 0.372533,0.3647722 0.372533,1.1796887 z"
       id="text1"
       style="font-size:7.76111px;font-family:'Russo One';-inkscape-font-specification:'Russo One, Normal';fill:#0f2a66;stroke-width:0.631031;stroke-linecap:round;stroke-linejoin:round;paint-order:markers stroke fill"
       aria-label="7.62" />
  </g>
</svg>
