<?xml version="1.0" encoding="UTF-8" standalone="no"?>
<!-- Created with Inkscape (http://www.inkscape.org/) -->

<svg
   width="74.564629"
   height="52.089489"
   viewBox="0 0 19.728558 13.782011"
   version="1.1"
   id="svg1"
   inkscape:export-filename="engorged.svg"
   inkscape:export-xdpi="96"
   inkscape:export-ydpi="96"
   sodipodi:docname="captain_perk.svg"
   inkscape:version="1.1.2 (0a00cf5339, 2022-02-04)"
   xmlns:inkscape="http://www.inkscape.org/namespaces/inkscape"
   xmlns:sodipodi="http://sodipodi.sourceforge.net/DTD/sodipodi-0.dtd"
   xmlns="http://www.w3.org/2000/svg"
   xmlns:svg="http://www.w3.org/2000/svg">
  <sodipodi:namedview
     id="namedview1"
     pagecolor="#505050"
     bordercolor="#ffffff"
     borderopacity="1"
     inkscape:showpageshadow="0"
     inkscape:pageopacity="0"
     inkscape:pagecheckerboard="1"
     inkscape:deskcolor="#505050"
     inkscape:document-units="mm"
     inkscape:zoom="5.4774503"
     inkscape:cx="-8.9457681"
     inkscape:cy="48.015041"
     inkscape:window-width="1920"
     inkscape:window-height="996"
     inkscape:window-x="0"
     inkscape:window-y="0"
     inkscape:window-maximized="1"
     inkscape:current-layer="layer1"
     inkscape:pageshadow="2"
     showgrid="false" />
  <defs
     id="defs1" />
  <g
     inkscape:label="Layer 1"
     inkscape:groupmode="layer"
     id="layer1"
     transform="translate(-89.569466,-94.616807)">
    <path
       style="fill:#ffff00;stroke:#000000;stroke-width:0.52916667;stroke-miterlimit:4;stroke-dasharray:none;stroke-opacity:1"
       d="m 97.251809,105.02389 c 0.01806,-0.0598 0.217692,-0.67874 0.443621,-1.37547 0.22593,-0.69672 0.399873,-1.2952 0.386541,-1.32994 -0.01333,-0.0348 -0.548798,-0.44285 -1.189925,-0.90691 l -1.165685,-0.84374 1.489756,-0.0127 1.489756,-0.0128 0.425667,-1.315609 c 0.234118,-0.723588 0.446898,-1.369955 0.472845,-1.436373 0.04055,-0.10381 0.112716,0.07926 0.514085,1.304211 l 0.46691,1.424971 1.49155,0.0241 1.49154,0.0242 -1.19103,0.86258 c -0.65506,0.47441 -1.19103,0.88217 -1.19103,0.90613 0,0.0239 0.19597,0.64555 0.43549,1.38132 0.23951,0.73578 0.42917,1.35671 0.42145,1.37985 -0.008,0.0231 -0.54162,-0.34188 -1.18646,-0.81115 -0.73445,-0.53449 -1.199472,-0.84286 -1.244808,-0.82546 -0.0398,0.0153 -0.581433,0.3976 -1.20362,0.84962 -0.622186,0.45202 -1.144353,0.82185 -1.160371,0.82185 -0.01602,0 -0.01434,-0.0489 0.0037,-0.10869 z"
       id="path5994" />
    <path
       style="fill:#ffff00;stroke:#000000;stroke-width:0.270511;stroke-miterlimit:4;stroke-dasharray:none;stroke-opacity:1"
       d="m 98.411592,103.46313 c 0.0094,-0.0306 0.111289,-0.34697 0.226787,-0.70314 0.115489,-0.35617 0.20441,-0.66212 0.197592,-0.67988 -0.0066,-0.0178 -0.280545,-0.22638 -0.608278,-0.46361 l -0.595907,-0.43132 0.761566,-0.007 0.761559,-0.007 0.217603,-0.67255 c 0.119679,-0.3699 0.228453,-0.700325 0.241722,-0.734279 0.02072,-0.05306 0.05763,0.04052 0.262794,0.666719 l 0.23869,0.72845 0.76248,0.0123 0.76248,0.0123 -0.60886,0.44096 c -0.33486,0.24252 -0.60886,0.45096 -0.60886,0.46321 0,0.0122 0.10019,0.33001 0.22263,0.70614 0.12244,0.37613 0.21939,0.69355 0.21545,0.70538 -0.004,0.0118 -0.27688,-0.17477 -0.60653,-0.41466 -0.375446,-0.27324 -0.613163,-0.43087 -0.636347,-0.42198 -0.02034,0.008 -0.297226,0.20325 -0.615287,0.43432 -0.318062,0.23108 -0.584993,0.42014 -0.593186,0.42014 -0.0085,0 -0.0075,-0.025 0.0019,-0.0556 z"
       id="path5994-5" />
  </g>
</svg>
