<?xml version="1.0" encoding="UTF-8" standalone="no"?>
<svg
   width="61.512001"
   height="35.366001"
   viewBox="0 0 61.512001 35.366001"
   version="1.1"
   id="svg9"
   sodipodi:docname="pirate_fist.svg"
   inkscape:version="1.4 (86a8ad7, 2024-10-11)"
   inkscape:export-filename="C:\Users\kjust\Desktop\projects\surviv\client\img\guns\melee-bayonet.png"
   inkscape:export-xdpi="266.66666"
   inkscape:export-ydpi="266.66666"
   xmlns:inkscape="http://www.inkscape.org/namespaces/inkscape"
   xmlns:sodipodi="http://sodipodi.sourceforge.net/DTD/sodipodi-0.dtd"
   xmlns:xlink="http://www.w3.org/1999/xlink"
   xmlns="http://www.w3.org/2000/svg"
   xmlns:svg="http://www.w3.org/2000/svg"
   xmlns:rdf="http://www.w3.org/1999/02/22-rdf-syntax-ns#"
   xmlns:cc="http://creativecommons.org/ns#"
   xmlns:dc="http://purl.org/dc/elements/1.1/">
  <metadata
     id="metadata13">
    <rdf:RDF>
      <cc:Work
         rdf:about="">
        <dc:format>image/svg+xml</dc:format>
        <dc:type
           rdf:resource="http://purl.org/dc/dcmitype/StillImage" />
      </cc:Work>
    </rdf:RDF>
  </metadata>
  <sodipodi:namedview
     pagecolor="#ffffff"
     bordercolor="#666666"
     borderopacity="1"
     objecttolerance="10"
     gridtolerance="10"
     guidetolerance="10"
     inkscape:pageopacity="0"
     inkscape:pageshadow="2"
     inkscape:window-width="1920"
     inkscape:window-height="1009"
     id="namedview11"
     showgrid="true"
     inkscape:showpageshadow="false"
     inkscape:zoom="3.0503597"
     inkscape:cx="91.300708"
     inkscape:cy="60.15684"
     inkscape:window-x="-8"
     inkscape:window-y="-8"
     inkscape:window-maximized="1"
     inkscape:current-layer="svg9"
     inkscape:snap-smooth-nodes="true"
     inkscape:object-paths="true"
     inkscape:snap-intersection-paths="true"
     inkscape:snap-nodes="false"
     inkscape:pagecheckerboard="0"
     inkscape:deskcolor="#d1d1d1">
    <inkscape:grid
       type="xygrid"
       id="grid822"
       empspacing="4"
       spacingx="1"
       spacingy="1"
       originx="0"
       originy="0"
       units="px" />
  </sodipodi:namedview>
  <defs
     id="defs5">
    <linearGradient
       id="linearGradient4733"
       inkscape:collect="always">
      <stop
         id="stop4729"
         offset="0"
         style="stop-color:#4f4f4f;stop-opacity:1" />
      <stop
         id="stop4731"
         offset="1"
         style="stop-color:#a1a3a6;stop-opacity:1" />
    </linearGradient>
    <linearGradient
       inkscape:collect="always"
       id="linearGradient827">
      <stop
         style="stop-color:#1f2021;stop-opacity:1"
         offset="0"
         id="stop823" />
      <stop
         style="stop-color:#a1a3a6;stop-opacity:1"
         offset="1"
         id="stop825" />
    </linearGradient>
    <clipPath
       id="a">
      <rect
         ry="3.836"
         rx="2.4690001"
         y="272.65799"
         x="0.52899998"
         height="24.341999"
         width="3.704"
         stroke-miterlimit="10"
         id="rect2"
         style="fill:#515151;stroke-width:1.323;stroke-miterlimit:10;stroke-opacity:0.49" />
    </clipPath>
    <clipPath
       clipPathUnits="userSpaceOnUse"
       id="clipPath4585">
      <path
         style="fill:#929292;fill-opacity:1;stroke:none;stroke-width:1.1726px;stroke-linecap:butt;stroke-linejoin:miter;stroke-opacity:1"
         d="M 68,21 V 16 C 68,12 56,5 36,5 16,5 4,12 4,16 v 5 c 0,8 12,-3 32,-3 20,0 32,11 32,3 z"
         id="path4587"
         inkscape:connector-curvature="0"
         sodipodi:nodetypes="cccccsc" />
    </clipPath>
    <clipPath
       clipPathUnits="userSpaceOnUse"
       id="clipPath853">
      <path
         style="fill:#393a3c;fill-opacity:1;stroke:none;stroke-width:1px;stroke-linecap:butt;stroke-linejoin:miter;stroke-opacity:1"
         d="M 30,52 V 46 L 29,45 V 20 C 29.430325,9 35,1 35,1 l 8,23 v 24 l -1,1 v 3 z"
         id="path855"
         inkscape:connector-curvature="0"
         sodipodi:nodetypes="cccccccccc" />
    </clipPath>
    <clipPath
       clipPathUnits="userSpaceOnUse"
       id="clipPath859">
      <path
         sodipodi:nodetypes="ccccccssssccccc"
         inkscape:connector-curvature="0"
         id="path861"
         d="m 24,52 h 27 v 4 H 41 v 25 l 1,1 v 8 c 0,0.514951 -1,1 -2,1 h -8 c -1,0 -2.000036,-0.485049 -2,-1 L 30.000489,82 31,81 V 56 h -7 z"
         style="fill:#3d3522;fill-opacity:1;stroke:none;stroke-width:7.44853;stroke-miterlimit:4;stroke-dasharray:none;stroke-opacity:1" />
    </clipPath>
    <clipPath
       clipPathUnits="userSpaceOnUse"
       id="clipPath4717">
      <path
         sodipodi:nodetypes="csccccscc"
         id="path4719"
         d="M 57.420561,78.392526 C 54.130841,78.392526 48,82 48,88 v 12 c 0,2 2,4 4,4 h 24 c 2,0 4,-2 4,-4 V 88 c 0,-6 -6.130841,-9.607474 -9.42056,-9.607466 z"
         style="fill:#808080;stroke-width:0.193815"
         inkscape:connector-curvature="0"
         inkscape:export-filename="C:\Users\kjust\Desktop\projects\surviv\client\img\guns\path899.png"
         inkscape:export-xdpi="266.66666"
         inkscape:export-ydpi="266.66666" />
    </clipPath>
    <linearGradient
       inkscape:collect="always"
       xlink:href="#linearGradient4733"
       id="linearGradient4727"
       x1="18.89151"
       y1="38.827831"
       x2="4.1367922"
       y2="11.417453"
       gradientUnits="userSpaceOnUse"
       gradientTransform="matrix(0,-1,-1,0,91.039106,104.11215)" />
    <clipPath
       clipPathUnits="userSpaceOnUse"
       id="clipPath4752">
      <path
         inkscape:export-ydpi="266.66666"
         inkscape:export-xdpi="266.66666"
         inkscape:export-filename="C:\Users\kjust\Desktop\projects\surviv\client\img\guns\path899.png"
         inkscape:connector-curvature="0"
         id="path4754"
         d="m 64.000001,42.599883 c -7.953015,0 -14.400208,6.447193 -14.400208,14.400208 C 55.194915,50.341102 60.159946,50 64,50 c 4.330109,0 7,3.717327 7,7 0,3.980781 -1.665272,5.907615 -4.119958,6.529368 C 65.926886,63.833512 64.850012,63.995103 64,64 c -1.091528,2.47e-4 -3.055216,-0.194516 -4.006963,-0.480052 v 0.0056 l 10e-7,7.568113 v 3.186609 h 8.054896 V 71.111454 C 74.620957,69.777272 78.400207,63.966751 78.400207,57 c 0,-7.953014 -6.447193,-14.400207 -14.400209,-14.400207 z"
         style="fill:#676767;fill-opacity:1;stroke:none;stroke-width:2.88004;stroke-linecap:round;stroke-linejoin:miter;stroke-miterlimit:4;stroke-dasharray:none;stroke-opacity:1"
         sodipodi:nodetypes="ccssccccccccssc" />
    </clipPath>
    <linearGradient
       inkscape:collect="always"
       xlink:href="#linearGradient827"
       id="linearGradient4762"
       x1="57.816608"
       y1="45.066059"
       x2="38.566254"
       y2="12.503448"
       gradientUnits="userSpaceOnUse"
       gradientTransform="matrix(0,-1,-1,0,91.039106,104.11215)" />
  </defs>
  <g
     transform="matrix(0,-0.23566156,-0.23566156,0,85.800638,243.27147)"
     id="g14"
     inkscape:export-filename="C:\Users\kjust\Desktop\projects\surviv\client\img\guns\path857.png"
     inkscape:export-xdpi="266.66666"
     inkscape:export-ydpi="266.66666" />
  <g
     transform="matrix(0,-0.23566156,-0.23566156,0,85.800638,243.27147)"
     id="g16"
     inkscape:export-filename="C:\Users\kjust\Desktop\projects\surviv\client\img\guns\path857.png"
     inkscape:export-xdpi="266.66666"
     inkscape:export-ydpi="266.66666" />
  <g
     transform="matrix(0,-0.23566156,-0.23566156,0,85.800638,243.27147)"
     id="g18"
     inkscape:export-filename="C:\Users\kjust\Desktop\projects\surviv\client\img\guns\path857.png"
     inkscape:export-xdpi="266.66666"
     inkscape:export-ydpi="266.66666" />
  <g
     transform="matrix(0,-0.23566156,-0.23566156,0,85.800638,243.27147)"
     id="g20"
     inkscape:export-filename="C:\Users\kjust\Desktop\projects\surviv\client\img\guns\path857.png"
     inkscape:export-xdpi="266.66666"
     inkscape:export-ydpi="266.66666" />
  <g
     transform="matrix(0,-0.23566156,-0.23566156,0,85.800638,243.27147)"
     id="g22"
     inkscape:export-filename="C:\Users\kjust\Desktop\projects\surviv\client\img\guns\path857.png"
     inkscape:export-xdpi="266.66666"
     inkscape:export-ydpi="266.66666" />
  <g
     transform="matrix(0,-0.23566156,-0.23566156,0,85.800638,243.27147)"
     id="g24"
     inkscape:export-filename="C:\Users\kjust\Desktop\projects\surviv\client\img\guns\path857.png"
     inkscape:export-xdpi="266.66666"
     inkscape:export-ydpi="266.66666" />
  <g
     transform="matrix(0,-0.23566156,-0.23566156,0,85.800638,243.27147)"
     id="g26"
     inkscape:export-filename="C:\Users\kjust\Desktop\projects\surviv\client\img\guns\path857.png"
     inkscape:export-xdpi="266.66666"
     inkscape:export-ydpi="266.66666" />
  <g
     transform="matrix(0,-0.23566156,-0.23566156,0,85.800638,243.27147)"
     id="g28"
     inkscape:export-filename="C:\Users\kjust\Desktop\projects\surviv\client\img\guns\path857.png"
     inkscape:export-xdpi="266.66666"
     inkscape:export-ydpi="266.66666" />
  <g
     transform="matrix(0,-0.23566156,-0.23566156,0,85.800638,243.27147)"
     id="g30"
     inkscape:export-filename="C:\Users\kjust\Desktop\projects\surviv\client\img\guns\path857.png"
     inkscape:export-xdpi="266.66666"
     inkscape:export-ydpi="266.66666" />
  <g
     transform="matrix(0,-0.23566156,-0.23566156,0,85.800638,243.27147)"
     id="g32"
     inkscape:export-filename="C:\Users\kjust\Desktop\projects\surviv\client\img\guns\path857.png"
     inkscape:export-xdpi="266.66666"
     inkscape:export-ydpi="266.66666" />
  <g
     transform="matrix(0,-0.23566156,-0.23566156,0,85.800638,243.27147)"
     id="g34"
     inkscape:export-filename="C:\Users\kjust\Desktop\projects\surviv\client\img\guns\path857.png"
     inkscape:export-xdpi="266.66666"
     inkscape:export-ydpi="266.66666" />
  <g
     transform="matrix(0,-0.23566156,-0.23566156,0,85.800638,243.27147)"
     id="g36"
     inkscape:export-filename="C:\Users\kjust\Desktop\projects\surviv\client\img\guns\path857.png"
     inkscape:export-xdpi="266.66666"
     inkscape:export-ydpi="266.66666" />
  <g
     transform="matrix(0,-0.23566156,-0.23566156,0,85.800638,243.27147)"
     id="g38"
     inkscape:export-filename="C:\Users\kjust\Desktop\projects\surviv\client\img\guns\path857.png"
     inkscape:export-xdpi="266.66666"
     inkscape:export-ydpi="266.66666" />
  <g
     transform="matrix(0,-0.23566156,-0.23566156,0,85.800638,243.27147)"
     id="g40"
     inkscape:export-filename="C:\Users\kjust\Desktop\projects\surviv\client\img\guns\path857.png"
     inkscape:export-xdpi="266.66666"
     inkscape:export-ydpi="266.66666" />
  <g
     transform="matrix(0,-0.23566156,-0.23566156,0,85.800638,243.27147)"
     id="g42"
     inkscape:export-filename="C:\Users\kjust\Desktop\projects\surviv\client\img\guns\path857.png"
     inkscape:export-xdpi="266.66666"
     inkscape:export-ydpi="266.66666" />
  <g
     id="g4768"
     transform="matrix(0,-1,-1,0,104.11215,81.683134)">
    <path
       clip-path="url(#clipPath4752)"
       inkscape:export-ydpi="266.66666"
       inkscape:export-xdpi="266.66666"
       inkscape:export-filename="C:\Users\kjust\Desktop\projects\surviv\client\img\guns\path899.png"
       inkscape:connector-curvature="0"
       id="path4750"
       d="m 64.000001,42.599883 c -7.953015,0 -14.400208,6.447193 -14.400208,14.400208 C 55.194915,50.341102 60.159946,50 64,50 c 4.330109,0 7,3.717327 7,7 0,3.980781 -1.665272,5.907615 -4.119958,6.529368 C 65.926886,63.833512 64.850012,63.995103 64,64 c -1.091528,2.47e-4 -3.055216,-0.194516 -4.006963,-0.480052 v 0.0056 l 10e-7,7.568113 v 3.186609 h 8.054896 V 71.111454 C 74.620957,69.777272 78.400207,63.966751 78.400207,57 c 0,-7.953014 -6.447193,-14.400207 -14.400209,-14.400207 z"
       style="fill:url(#linearGradient4762);fill-opacity:1;stroke:#000000;stroke-width:5;stroke-linecap:round;stroke-linejoin:miter;stroke-miterlimit:4;stroke-dasharray:none;stroke-opacity:1"
       sodipodi:nodetypes="ccssccccccccssc" />
    <path
       clip-path="url(#clipPath4717)"
       sodipodi:nodetypes="csccccscc"
       id="path4715"
       d="M 57.420561,78.392526 C 54.130841,78.392526 48,82 48,88 v 12 c 0,2 2,4 4,4 h 24 c 2,0 4,-2 4,-4 V 88 c 0,-6 -6.130841,-9.607474 -9.42056,-9.607466 z"
       style="fill:url(#linearGradient4727);fill-opacity:1;stroke:#000000;stroke-width:6;stroke-miterlimit:4;stroke-dasharray:none;stroke-opacity:1"
       inkscape:connector-curvature="0"
       inkscape:export-filename="C:\Users\kjust\Desktop\projects\surviv\client\img\guns\path899.png"
       inkscape:export-xdpi="266.66666"
       inkscape:export-ydpi="266.66666" />
    <path
       inkscape:export-ydpi="266.66666"
       inkscape:export-xdpi="266.66666"
       inkscape:export-filename="C:\Users\kjust\Desktop\projects\surviv\client\img\guns\path899.png"
       sodipodi:nodetypes="ssssscs"
       inkscape:connector-curvature="0"
       style="fill:#171717;fill-opacity:1;stroke-width:0.355538"
       d="m 70.578908,74.280384 h -13.15888 c -1.134167,0 -2.056433,0.921911 -2.056433,2.055713 0,1.134164 0.922266,2.056437 2.056433,2.056437 h 13.15888 c 1.134879,0 2.057497,-0.922273 2.057497,-2.056437 3.54e-4,-1.133802 -0.92298,-2.055713 -2.057497,-2.055713 z"
       id="path6" />
    <path
       inkscape:export-ydpi="266.66666"
       inkscape:export-xdpi="266.66666"
       inkscape:export-filename="C:\Users\kjust\Desktop\projects\surviv\client\img\guns\path899.png"
       id="path899"
       d="M 79.625636,100 H 48.373298 c -1.134167,0 -2.056432,0.92191 -2.056432,2.05571 0,1.13417 0.922265,2.05644 2.056432,2.05644 h 31.252338 c 1.134877,0 2.057498,-0.92227 2.057498,-2.05644 C 81.683489,100.92191 80.760158,100 79.625636,100 Z"
       style="fill:#171717;fill-opacity:1;stroke-width:0.355538"
       inkscape:connector-curvature="0"
       sodipodi:nodetypes="ssssscs" />
  </g>
</svg>
