<?xml version="1.0" encoding="UTF-8" standalone="no"?>
<svg
   version="1.1"
   width="61.359581"
   height="49.487877"
   viewBox="0 0 61.35958 49.487876"
   xml:space="preserve"
   id="svg218"
   sodipodi:docname="bush_particle_1.svg"
   inkscape:version="1.4.2 (f4327f4, 2025-05-13)"
   xmlns:inkscape="http://www.inkscape.org/namespaces/inkscape"
   xmlns:sodipodi="http://sodipodi.sourceforge.net/DTD/sodipodi-0.dtd"
   xmlns="http://www.w3.org/2000/svg"
   xmlns:svg="http://www.w3.org/2000/svg"><sodipodi:namedview
   id="namedview220"
   pagecolor="#505050"
   bordercolor="#eeeeee"
   borderopacity="1"
   inkscape:showpageshadow="0"
   inkscape:pageopacity="0"
   inkscape:pagecheckerboard="true"
   inkscape:deskcolor="#505050"
   showgrid="false"
   inkscape:zoom="5.12"
   inkscape:cx="11.621094"
   inkscape:cy="44.824218"
   inkscape:window-width="1920"
   inkscape:window-height="1009"
   inkscape:window-x="-8"
   inkscape:window-y="-8"
   inkscape:window-maximized="1"
   inkscape:current-layer="svg218"
   showguides="true"
   inkscape:pageshadow="0" />
<desc
   id="desc181">Created with Fabric.js 5.3.0</desc>
<defs
   id="defs183" />

<g
   id="g7393"
   transform="matrix(3.3302396,0,0,3.3302396,15345.795,7441.4901)"
   inkscape:export-filename="bush_particle_01.svg"
   inkscape:export-xdpi="96"
   inkscape:export-ydpi="96"
   style="fill:#2c0a4f;fill-opacity:0.92549"><path
     id="path542-2-2"
     style="fill:#2c0a4f;fill-opacity:0.92549;stroke:#333333;stroke-width:0;stroke-linejoin:round;stroke-dasharray:none"
     d="m -4597.9889,-2219.6717 c -1.9493,-0.1549 -3.2823,-2.9232 -2.1731,-4.6062 1.9096,-2.8974 9.5119,-4.8491 10.4686,-2.2775 0.9567,2.5715 -4.9789,7.1474 -8.2955,6.8837 z"
     sodipodi:nodetypes="aaza" /><path
     id="path542-6"
     style="fill:#3f0d63;fill-opacity:0.92549;stroke:#333333;stroke-width:0;stroke-linejoin:round;stroke-dasharray:none"
     d="M 39.293065,49.721059 C 31.342472,54.117262 16.219168,47.625942 14.299009,38.805516 10.993329,23.621233 39.460197,0.54200862 45.682306,4.1023209 51.904414,7.662634 52.820536,42.241138 39.293065,49.721059 Z"
     sodipodi:nodetypes="aaza"
     transform="matrix(0.30027869,0,0,0.30027869,-4608.8083,-2235.6423)" /><path
     id="path542-0-2"
     style="fill:#4d1962;fill-opacity:0.92549;stroke:#333333;stroke-width:0;stroke-linejoin:round;stroke-dasharray:none"
     d="M 27.287493,35.719954 C 27.958818,41.237453 21.042396,46.122261 15.753496,43.722652 6.6481976,39.591532 0.19651455,17.064643 3.532639,15.391012 6.8687626,13.717075 26.145214,26.332108 27.287493,35.719954 Z"
     sodipodi:nodetypes="aaza"
     transform="matrix(0.30027869,0,0,0.30027869,-4608.8083,-2235.6423)" /></g></svg>
