<?xml version="1.0" encoding="UTF-8" standalone="no"?>
<!-- Created with Inkscape (http://www.inkscape.org/) -->

<svg
   width="81.656998mm"
   height="35.428001mm"
   viewBox="0 0 81.656999 35.428"
   version="1.1"
   id="svg1"
   xml:space="preserve"
   sodipodi:docname="proj_tactical_nuke.svg"
   inkscape:version="1.4 (86a8ad7, 2024-10-11)"
   xmlns:inkscape="http://www.inkscape.org/namespaces/inkscape"
   xmlns:sodipodi="http://sodipodi.sourceforge.net/DTD/sodipodi-0.dtd"
   xmlns="http://www.w3.org/2000/svg"
   xmlns:svg="http://www.w3.org/2000/svg"><sodipodi:namedview
     id="namedview1"
     pagecolor="#ffffff"
     bordercolor="#000000"
     borderopacity="0.25"
     inkscape:showpageshadow="2"
     inkscape:pageopacity="0.0"
     inkscape:pagecheckerboard="0"
     inkscape:deskcolor="#d1d1d1"
     inkscape:document-units="mm"
     inkscape:zoom="2"
     inkscape:cx="141.5"
     inkscape:cy="118.75"
     inkscape:window-width="1920"
     inkscape:window-height="1009"
     inkscape:window-x="-8"
     inkscape:window-y="-8"
     inkscape:window-maximized="1"
     inkscape:current-layer="layer1"
     showgrid="false" /><defs
     id="defs1"><mask
       id="a"
       width="60"
       height="60"
       x="-30"
       y="-30"
       maskUnits="userSpaceOnUse"><path
         fill="#ffffff"
         d="M -27,-27 H 27 V 27 H -27 Z"
         id="path907" /><path
         d="m 2,-23 v -4 h -4 v 4 m 1.5,17 v 4 h 1 v -4"
         id="path909" /><circle
         cy="-15"
         r="10.5"
         id="circle911"
         cx="0" /><g
         transform="rotate(120)"
         id="g917"><path
           d="m 2,-23 v -4 h -4 v 4 m 1.5,17 v 4 h 1 v -4"
           id="path913" /><circle
           cy="-15"
           r="10.5"
           id="circle915"
           cx="0" /></g><g
         transform="rotate(-120)"
         id="g923"><path
           d="m 2,-23 v -4 h -4 v 4 m 1.5,17 v 4 h 1 v -4"
           id="path919" /><circle
           cy="-15"
           r="10.5"
           id="circle921"
           cx="0" /></g><circle
         r="3"
         id="circle925"
         cx="0"
         cy="0" /></mask><clipPath
       id="b"><circle
         cy="-15"
         r="9.5"
         id="circle900"
         cx="0" /><circle
         cy="-15"
         r="9.5"
         transform="rotate(120)"
         id="circle902"
         cx="0" /><circle
         cy="-15"
         r="9.5"
         transform="rotate(-120)"
         id="circle904"
         cx="0" /></clipPath></defs><g
     inkscape:label="Layer 1"
     inkscape:groupmode="layer"
     id="layer1"
     transform="translate(30.356041,-30.355713)"><ellipse
       style="opacity:1;fill:#bebbb0;fill-opacity:1;stroke:#87826d;stroke-width:2.11701;stroke-linecap:round;stroke-linejoin:round;stroke-miterlimit:5;stroke-dasharray:none;stroke-opacity:1"
       id="ellipse45"
       cx="49.365295"
       cy="47.097122"
       rx="0.87733787"
       ry="2.2605782" /><path
       style="fill:#616549;fill-opacity:1;stroke:#393a2c;stroke-width:2.117;stroke-linecap:round;stroke-linejoin:round;stroke-miterlimit:5;stroke-dasharray:none;stroke-opacity:1"
       d="m -28.366734,42.910094 1.666695,-7.987551 c 0,0 0.314469,-1.132086 1.100646,-1.132086 h 4.811399 c 0,0 0.619325,-0.01209 1.383669,0.628939 0.974861,0.817611 5.314553,4.779941 5.314553,4.779941 z"
       id="path45"
       sodipodi:nodetypes="ccscscc" /><path
       style="fill:#616549;fill-opacity:1;stroke:#393a2c;stroke-width:2.117;stroke-linecap:round;stroke-linejoin:round;stroke-miterlimit:5;stroke-dasharray:none;stroke-opacity:1"
       d="m -28.366735,51.890174 1.666695,7.987551 c 0,0 0.314469,1.132086 1.100646,1.132086 h 4.811399 c 0,0 0.619325,0.01209 1.383669,-0.628939 0.974861,-0.817611 5.314553,-4.779941 5.314553,-4.779941 z"
       id="path1"
       sodipodi:nodetypes="ccscscc" /><path
       style="fill:#60604d;fill-opacity:1;stroke:#37372f;stroke-width:2.11701;stroke-linecap:round;stroke-linejoin:round;stroke-miterlimit:5;stroke-dasharray:none;stroke-opacity:1"
       d="m 4.315304,63.832807 c 9.340851,1.858759 25.1761,0.949275 32.853582,-4.074957 8.088058,-8.711823 5.617782,-16.696638 0.572658,-24.504128 -8.758072,-4.836073 -28.9899772,-4.107799 -33.018232,-3.105517 -9.596353,2.154278 -17.064959,3.638534 -30.537565,11.288075 0,0 -1.082272,0.622464 -1.082272,3.912456 0,2.685234 1.396742,3.340452 1.396742,3.340452 0,0 15.461957,10.844578 29.815087,13.143619 z"
       id="path47"
       sodipodi:nodetypes="cccccscc" /><path
       style="fill:#616549;fill-opacity:1;stroke:#393a2c;stroke-width:2.117;stroke-linecap:round;stroke-linejoin:round;stroke-miterlimit:5;stroke-dasharray:none;stroke-opacity:1"
       d="m -28.477537,44.797906 c 0,0 -0.723283,0.22014 -0.314471,0.377366 0.408812,0.157238 7.327163,2.421433 7.327163,2.421433 L -8.2570833,46.967755 -21.30761,44.829363 Z"
       id="path48" /><path
       id="path49"
       style="opacity:1;fill:#bebbb0;stroke:#87826d;stroke-width:2.11701;stroke-linecap:round;stroke-linejoin:round;stroke-miterlimit:5;stroke-dasharray:none;stroke-opacity:1"
       d="m 45.19408,42.157307 h 2.785949 c 0.938072,0.546903 1.528773,2.437217 1.522336,5.177045 0,2.880222 -0.396375,3.888522 -1.337648,5.070916 H 45.19408 Z"
       sodipodi:nodetypes="cccccc" /><path
       style="fill:#34f444;fill-opacity:1;stroke:#067c0b;stroke-width:2.11701;stroke-linecap:round;stroke-linejoin:round;stroke-miterlimit:6;stroke-dasharray:none;stroke-opacity:1"
       d="m 36.553143,60.087972 c 2.676265,-0.818628 4.499041,-2.513611 6.698342,-3.5857 0,0 2.30718,-1.18822 2.30718,-8.599617 0,-8.338603 -2.307386,-9.344328 -2.41455,-9.644949 0,0 -2.585245,-2.229176 -6.263393,-3.432164 4.139683,4.318054 4.104046,21.684615 -0.327579,25.26243 z"
       id="path50"
       sodipodi:nodetypes="ccsccc" /><g
       id="g2312"
       transform="matrix(0.33960087,0,0,0.33960087,9.1140544,47.390512)"><g
         mask="url(#a)"
         id="g936"
         style="fill:#ff7500;fill-opacity:1;stroke:none;stroke-opacity:1"
         transform="matrix(0.97854222,0,0,0.97853768,4,4.6909786)"><circle
           cy="-11"
           r="15"
           id="circle930"
           style="fill:#ff7500;fill-opacity:1;stroke:none;stroke-opacity:1"
           cx="0" /><circle
           cy="-11"
           r="15"
           transform="rotate(120)"
           id="circle932"
           style="fill:#ff7500;fill-opacity:1;stroke:none;stroke-opacity:1"
           cx="0" /><circle
           cy="-11"
           r="15"
           transform="rotate(-120)"
           id="circle934"
           style="fill:#ff7500;fill-opacity:1;stroke:none;stroke-opacity:1"
           cx="0" /></g><circle
         r="11.75"
         fill="none"
         stroke="#000"
         stroke-width="3.5"
         clip-path="url(#b)"
         id="circle938"
         style="stroke:#008aff;stroke-opacity:1"
         cx="0"
         cy="0"
         transform="matrix(0.97854222,0,0,0.97853768,4,4.6909786)" /></g></g></svg>
