<?xml version="1.0" encoding="UTF-8" standalone="no"?>
<!-- Created with Inkscape (http://www.inkscape.org/) -->

<svg
   width="315.15421"
   height="85.692459"
   viewBox="0 0 83.38455 22.672796"
   version="1.1"
   id="svg1"
   xml:space="preserve"
   sodipodi:docname="airstrike_bomb.svg"
   inkscape:version="1.3 (0e150ed6c4, 2023-07-21)"
   xmlns:inkscape="http://www.inkscape.org/namespaces/inkscape"
   xmlns:sodipodi="http://sodipodi.sourceforge.net/DTD/sodipodi-0.dtd"
   xmlns="http://www.w3.org/2000/svg"
   xmlns:svg="http://www.w3.org/2000/svg"><sodipodi:namedview
     id="namedview1"
     pagecolor="#ffffff"
     bordercolor="#000000"
     borderopacity="0.25"
     inkscape:showpageshadow="2"
     inkscape:pageopacity="0.0"
     inkscape:pagecheckerboard="0"
     inkscape:deskcolor="#d1d1d1"
     inkscape:document-units="mm"
     inkscape:zoom="1"
     inkscape:cx="77.5"
     inkscape:cy="198.5"
     inkscape:window-width="1920"
     inkscape:window-height="991"
     inkscape:window-x="-9"
     inkscape:window-y="-9"
     inkscape:window-maximized="1"
     inkscape:current-layer="layer1"
     showgrid="false" /><defs
     id="defs1" /><g
     inkscape:label="Layer 1"
     inkscape:groupmode="layer"
     id="layer1"
     transform="translate(30.356041,-30.355713)"><ellipse
       style="opacity:1;fill:#bebbb0;fill-opacity:1;stroke:#87826d;stroke-width:2.117;stroke-linecap:round;stroke-linejoin:round;stroke-miterlimit:5;stroke-dasharray:none;stroke-opacity:1"
       id="ellipse45"
       cx="51.09267"
       cy="41.272892"
       rx="0.87733787"
       ry="1.0389527" /><path
       style="fill:#616549;fill-opacity:1;stroke:#393a2c;stroke-width:2.117;stroke-linecap:round;stroke-linejoin:round;stroke-miterlimit:5;stroke-dasharray:none;stroke-opacity:1"
       d="m -19.49561,40.53385 1.666695,-7.987551 c 0,0 0.314469,-1.132086 1.100646,-1.132086 h 4.811399 c 0,0 0.619325,-0.01209 1.383669,0.628939 0.9748612,0.817611 5.3145532,4.779941 5.3145532,4.779941 z"
       id="path45"
       sodipodi:nodetypes="ccscscc" /><path
       style="fill:#616549;fill-opacity:1;stroke:#393a2c;stroke-width:2.117;stroke-linecap:round;stroke-linejoin:round;stroke-miterlimit:5;stroke-dasharray:none;stroke-opacity:1"
       d="m -20.187444,43.269746 -1.918271,7.830313 c 0,0 -0.283023,0.849068 0.75473,0.849068 1.037752,0 5.062975,0 5.062975,0 0,0 0.408811,0.188694 1.540904,-0.566049 1.132094,-0.75472 9.0253052,-6.100721 9.0253052,-6.100721 z"
       id="path46" /><path
       style="fill:#60604d;fill-opacity:1;stroke:#37372f;stroke-width:2.117;stroke-linecap:round;stroke-linejoin:round;stroke-miterlimit:5;stroke-dasharray:none;stroke-opacity:1"
       d="m 6.0426782,48.96455 c 9.3408508,0.854279 25.1760998,0.436283 32.8535818,-1.872832 8.088058,-4.003919 5.617782,-7.673708 0.572658,-11.262 -8.758072,-2.222639 -28.989977,-1.887929 -33.0182318,-1.427284 -9.596353,0.9901 -17.0649592,1.672258 -30.5375652,5.187955 0,0 -1.082272,0.286082 -1.082272,1.798147 0,1.234125 1.396742,1.535261 1.396742,1.535261 0,0 15.4619572,4.984125 29.8150872,6.040753 z"
       id="path47"
       sodipodi:nodetypes="cccccscc" /><path
       style="fill:#616549;fill-opacity:1;stroke:#393a2c;stroke-width:2.117;stroke-linecap:round;stroke-linejoin:round;stroke-miterlimit:5;stroke-dasharray:none;stroke-opacity:1"
       d="m -28.86683,37.923745 c 0,0 -0.723283,0.22014 -0.314471,0.377366 0.408812,0.157238 7.327163,2.421433 7.327163,2.421433 l 13.2077622,-0.62895 -13.0505272,-2.138392 z"
       id="path48" /><path
       id="path49"
       style="opacity:1;fill:#bebbb0;stroke:#87826d;stroke-width:2.117;stroke-linecap:round;stroke-linejoin:round;stroke-miterlimit:5;stroke-dasharray:none;stroke-opacity:1"
       d="m 46.921454,39.002578 h 2.785949 c 0.938072,0.251355 1.528773,1.120135 1.522336,2.379349 0,1.32374 -0.396375,1.78715 -1.337648,2.330574 h -2.970637 z"
       sodipodi:nodetypes="cccccc" /><path
       style="fill:#f4dd34;fill-opacity:1;stroke:#928207;stroke-width:2.117;stroke-linecap:round;stroke-linejoin:round;stroke-miterlimit:6;stroke-dasharray:none;stroke-opacity:1"
       d="m 38.280517,47.243441 c 2.676265,-0.376238 4.499041,-1.155247 6.698342,-1.647974 0,0 2.30718,-0.546101 2.30718,-3.952349 0,-3.832388 -2.307386,-4.294615 -2.41455,-4.432782 0,0 -2.585245,-1.024519 -6.263393,-1.577407 4.139683,1.984562 4.104046,9.96616 -0.327579,11.610512 z"
       id="path50"
       sodipodi:nodetypes="ccsccc" /></g></svg>
