<?xml version="1.0" encoding="UTF-8" standalone="no"?>
<svg
   width="90mm"
   height="90mm"
   version="1.1"
   viewBox="0 0 89.999996 89.999996"
   id="svg10"
   sodipodi:docname="big_airdrop_crate_unlocking.svg"
   inkscape:version="1.4 (86a8ad7, 2024-10-11)"
   xmlns:inkscape="http://www.inkscape.org/namespaces/inkscape"
   xmlns:sodipodi="http://sodipodi.sourceforge.net/DTD/sodipodi-0.dtd"
   xmlns:xlink="http://www.w3.org/1999/xlink"
   xmlns="http://www.w3.org/2000/svg"
   xmlns:svg="http://www.w3.org/2000/svg">
  <defs
     id="defs10">
    <pattern
       inkscape:collect="always"
       xlink:href="#pattern188-2"
       preserveAspectRatio="xMidYMid"
       id="pattern189-8"
       patternTransform="matrix(0.75494581,0.75494351,-0.75494581,0.75494351,12.311027,-56.868408)"
       x="0.25"
       y="0" />
    <pattern
       inkscape:collect="always"
       patternUnits="userSpaceOnUse"
       width="2"
       height="10"
       patternTransform="translate(0,0) scale(2,2)"
       preserveAspectRatio="xMidYMid"
       id="pattern188-2"
       style="fill:#d9d9d9"
       inkscape:stockid="Stripes 01 (1:1)"
       inkscape:isstock="true"
       inkscape:label="Stripes 01 (1:1)">
      <rect
         style="stroke:none"
         x="0"
         y="-0.5"
         width="1"
         height="11"
         id="rect187-8" />
    </pattern>
    <pattern
       inkscape:collect="always"
       xlink:href="#pattern188-1-2"
       preserveAspectRatio="xMidYMid"
       id="pattern189-9-3"
       patternTransform="matrix(0.75494581,0.75494351,-0.75494581,0.75494351,12.311027,-35.871909)"
       x="0.25"
       y="0" />
    <pattern
       inkscape:collect="always"
       patternUnits="userSpaceOnUse"
       width="2"
       height="10"
       patternTransform="translate(0,0) scale(2,2)"
       preserveAspectRatio="xMidYMid"
       id="pattern188-1-2"
       style="fill:#d9d9d9"
       inkscape:stockid="Stripes 01 (1:1)"
       inkscape:isstock="true"
       inkscape:label="Stripes 01 (1:1)">
      <rect
         style="stroke:none"
         x="0"
         y="-0.5"
         width="1"
         height="11"
         id="rect187-0-2" />
    </pattern>
  </defs>
  <sodipodi:namedview
     id="namedview10"
     pagecolor="#ffffff"
     bordercolor="#000000"
     borderopacity="0.25"
     inkscape:showpageshadow="2"
     inkscape:pageopacity="0.0"
     inkscape:pagecheckerboard="0"
     inkscape:deskcolor="#d1d1d1"
     inkscape:document-units="mm"
     inkscape:zoom="1.1715019"
     inkscape:cx="52.069911"
     inkscape:cy="245.41147"
     inkscape:window-width="1920"
     inkscape:window-height="1009"
     inkscape:window-x="-8"
     inkscape:window-y="-8"
     inkscape:window-maximized="1"
     inkscape:current-layer="g29" />
  <g
     id="g29"
     transform="matrix(1.8732648,0,0,1.8732707,9.8959599,304.77018)"
     style="stroke-width:0.533827">
    <g
       transform="matrix(0.53353434,0,0,0.53356967,-92.290695,-287.95407)"
       id="g9"
       style="stroke-width:1.00051">
      <g
         stroke="#262673"
         stroke-linecap="round"
         stroke-linejoin="round"
         id="g2"
         style="stroke-width:1.00051">
        <rect
           x="164.06001"
           y="235.74002"
           width="88.038399"
           height="88.038399"
           fill="#4059bf"
           stroke-width="1.9626"
           id="rect1" />
        <path
           d="m 179.32587,242.07998 -8.7241,8.72409 v 57.70392 l 8.72288,8.72288 H 237.031 l 8.72166,-8.72166 v -57.70636 l -8.72288,-8.72287 z"
           fill="#384b94"
           stroke-width="1.96259"
           id="path1"
           sodipodi:nodetypes="ccccccccc" />
        <path
           d="M 239.64486,244.41559 216.80834,266.502 h -17.8589 l -22.38829,-22.21756 -3.84008,4.00949 22.50598,21.83372 -0.1001,19.55903 -22.02476,22.08373 3.23311,3.21511 22.51404,-21.37652 h 17.86135 l 22.83265,21.70118 3.99285,-3.83498 -23.00224,-21.78729 0.1001,-19.56391 23.12333,-21.6755 z"
           fill="#4059bf"
           stroke-width="1.96302"
           id="path2"
           sodipodi:nodetypes="ccccccccccccccccc" />
      </g>
      <g
         transform="matrix(0.70664,0,0,0.70664,134.56,220.23)"
         fill="#262673"
         stroke-width="1.28996"
         id="g4">
        <path
           d="m 97.891865,82.829341 h 12.305095 c 1.31611,0 2.37569,1.059589 2.37569,2.375734 v 12.413184 c 0,1.316157 -1.05958,2.375742 -2.37569,2.375742 H 97.891865 c -1.316136,0 -2.375729,-1.059585 -2.375729,-2.375742 V 85.205075 c 0,-1.316145 1.059593,-2.375734 2.375729,-2.375734 z"
           stroke-linejoin="round"
           stroke-width="1.28995"
           id="path3" />
        <path
           d="m 106.66896,80.941502 5.11202,-5.439048 c -0.0253,-1.073212 -3.4821,-1.884547 -4.6488,-0.217995 l -1.66085,5.362509 -0.63165,-0.0061 1.60772,-5.24337 c -0.83586,-1.540481 -3.88989,-1.26033 -4.80138,-0.08585 l 1.6749,5.354983 -0.71919,-0.0074 -1.65947,-5.307686 c -0.9288,-1.399416 -3.836624,-1.367046 -4.8168,-0.01032 l 5.42588,5.653835 -0.6758,0.544989 -5.384199,-6.041328 c 0.116321,-9.071777 16.581639,-9.617364 17.100639,0.03596 l -5.48191,5.820176 z"
           id="path4"
           style="stroke-width:1.28996" />
      </g>
      <path
         d="m 164.06,235.74 v 11.659 h 8.0796 l 3.5786,-3.5786 v -8.0806 z m 76.42765,0 v 8.0796 l 3.5786,3.5786 h 8.0801 v -11.658 z m 3.5791,76.4208 -3.5786,3.5786 v 8.0801 h 11.658 v -11.659 z m -80.00665,5.1e-4 v 11.658 h 11.659 v -8.0796 l -3.5786,-3.5786 z"
         fill="#7c776f"
         stroke="#333333"
         stroke-linecap="round"
         stroke-linejoin="round"
         stroke-width="1.96301"
         id="path5"
         sodipodi:nodetypes="cccccccccccccccccccccccc" />
    </g>
    <g
       id="g3"
       transform="matrix(0.53353434,0,0,0.53356967,-5.7207531,-169.93496)"
       style="stroke-width:1.00051">
      <path
         d="m 64.645711,59.92019 v -2.670671 c 0,-0.285652 0.229971,-0.515623 0.515614,-0.515623 H 80.1558 c 0.285644,0 0.515617,0.229971 0.515617,0.515623 v 2.670671 c 0,0.28565 -0.229973,0.515624 -0.515617,0.515624 H 65.161325 c -0.285643,0 -0.515614,-0.229974 -0.515614,-0.515624 z"
         stroke-linejoin="round"
         stroke-width="0.911072"
         id="path6"
         style="fill:#4059bf;fill-opacity:1;stroke:#262673;stroke-width:1.64126;stroke-dasharray:none;stroke-opacity:1"
         sodipodi:nodetypes="sssssssss" />
      <path
         d="m 44.474509,78.558374 h 2.670671 c 0.285652,0 0.515623,0.229971 0.515623,0.515614 v 14.094474 c 0,0.285644 -0.229971,0.515617 -0.515623,0.515617 h -2.670671 c -0.28565,0 -0.515624,-0.229973 -0.515624,-0.515617 V 79.073988 c 0,-0.285643 0.229974,-0.515614 0.515624,-0.515614 z"
         stroke-linejoin="round"
         stroke-width="0.911072"
         id="path8"
         style="fill:#4059bf;fill-opacity:1;stroke:#262673;stroke-width:1.64126;stroke-dasharray:none;stroke-opacity:1"
         sodipodi:nodetypes="sssssssss" />
      <path
         d="m 25.731325,57.224172 v 2.670671 c 0,0.285652 -0.229971,0.515623 -0.515614,0.515623 H 11.322063 c -0.285644,0 -0.515617,-0.229971 -0.515617,-0.515623 v -2.670671 c 0,-0.28565 0.229973,-0.515624 0.515617,-0.515624 h 13.893648 c 0.285643,0 0.515614,0.229974 0.515614,0.515624 z"
         stroke-linejoin="round"
         stroke-width="0.911072"
         id="path10"
         style="fill:#4059bf;fill-opacity:1;stroke:#262673;stroke-width:1.64126;stroke-dasharray:none;stroke-opacity:1"
         sodipodi:nodetypes="sssssssss" />
      <path
         d="m 44.474509,39.902163 h 2.670671 c 0.285652,0 0.515623,-0.63032 0.515623,-0.915963 V 23.892076 c 0,-0.285644 -0.229971,-0.515617 -0.515623,-0.515617 h -2.670671 c -0.28565,0 -0.515624,0.229973 -0.515624,0.515617 V 38.9862 c 0,0.285643 0.229974,0.915963 0.515624,0.915963 z"
         stroke-linejoin="round"
         stroke-width="0.911072"
         id="path12"
         style="fill:#4059bf;fill-opacity:1;stroke:#262673;stroke-width:1.64126;stroke-dasharray:none;stroke-opacity:1"
         sodipodi:nodetypes="sssssssss" />
    </g>
    <g
       id="g21"
       transform="translate(2.2536293,-37.18165)"
       style="stroke-width:0.533827">
      <path
         d="m -3.4341856,-124.98892 8.0796,8.0796 H 28.315414 l 8.0796,-8.0796 z m -3.5786,3.5786 v 39.829001 l 8.0796,-8.0796 v -23.670001 z m 46.9859996,0 -8.0796,8.0796 v 23.670001 l 8.0796,8.0796 z m -35.3279996,35.328001 -8.0796,8.0796 H 36.394614 l -8.0796,-8.0796 z"
         fill="#7c776f"
         stroke="#444444"
         stroke-width="1.04715"
         id="path11"
         style="fill:#727679;fill-opacity:1;stroke-linecap:round;stroke-linejoin:round" />
      <rect
         x="-7.0121846"
         y="-124.98891"
         width="46.986"
         height="46.986"
         fill="none"
         stroke="#333333"
         stroke-linecap="round"
         stroke-linejoin="round"
         stroke-width="1.04715"
         id="rect13" />
      <g
         id="g16"
         style="mix-blend-mode:normal;fill:#d9d9d9;fill-opacity:1"
         transform="matrix(0.53382736,0,0,0.53382568,-7.5363634,-125.5125)" />
      <rect
         style="fill:url(#pattern189-8);fill-opacity:1;stroke:none;stroke-width:0.843396;stroke-linecap:round;stroke-linejoin:round;stroke-dasharray:none;stroke-opacity:1;paint-order:fill markers stroke"
         id="rect16"
         width="25.417122"
         height="1.9410692"
         x="3.7773068"
         y="-122.1271" />
      <rect
         style="fill:url(#pattern189-9-3);fill-opacity:1;stroke:none;stroke-width:0.843396;stroke-linecap:round;stroke-linejoin:round;stroke-dasharray:none;stroke-opacity:1;paint-order:fill markers stroke"
         id="rect17"
         width="25.417122"
         height="1.9410692"
         x="3.7773068"
         y="-82.794662" />
      <g
         transform="matrix(1.9617,0,0,1.9617,-185.96419,-180.58092)"
         fill="#595651"
         stroke="#333333"
         stroke-width="0.99998"
         id="g20"
         style="fill:#525658;fill-opacity:1;stroke-width:0.533907;stroke-linecap:round;stroke-linejoin:round;stroke-dasharray:none">
        <path
           d="m 91.224,28.34 h 1.8241 l 4.119,4.1188 -1.8242,1.8243 -4.1189,-4.1187 z"
           id="path17"
           style="fill:#525658;fill-opacity:1;stroke-width:0.533907;stroke-dasharray:none" />
        <path
           d="m 115.18,28.34 v 1.8242 l -4.1188,4.119 -1.8243,-1.8242 4.1187,-4.1189 z"
           id="path18"
           style="fill:#525658;fill-opacity:1;stroke-width:0.533907;stroke-dasharray:none" />
        <path
           d="m 91.224,52.292 v -1.8242 l 4.1188,-4.119 1.8243,1.8242 -4.1187,4.1189 z"
           id="path19"
           style="fill:#525658;fill-opacity:1;stroke-width:0.533907;stroke-dasharray:none" />
        <path
           d="m 115.18,52.292 h -1.8242 l -4.119,-4.1188 1.8242,-1.8243 4.1189,4.1187 z"
           id="path20"
           style="fill:#525658;fill-opacity:1;stroke-width:0.533907;stroke-dasharray:none" />
      </g>
    </g>
    <g
       id="g30">
      <ellipse
         style="fill:#454545;fill-opacity:1;stroke:#333333;stroke-width:0.925303;stroke-linecap:round;stroke-linejoin:round;stroke-dasharray:none;stroke-opacity:1;paint-order:fill markers stroke"
         id="ellipse21"
         cx="-0.85562342"
         cy="-138.67212"
         rx="0.288524"
         ry="0.28852311" />
      <ellipse
         style="fill:#454545;fill-opacity:1;stroke:#333333;stroke-width:0.925303;stroke-linecap:round;stroke-linejoin:round;stroke-dasharray:none;stroke-opacity:1;paint-order:fill markers stroke"
         id="ellipse22"
         cx="-0.85562342"
         cy="-135.46909"
         rx="0.288524"
         ry="0.28852311" />
      <ellipse
         style="fill:#454545;fill-opacity:1;stroke:#333333;stroke-width:0.925303;stroke-linecap:round;stroke-linejoin:round;stroke-dasharray:none;stroke-opacity:1;paint-order:fill markers stroke"
         id="ellipse23"
         cx="-0.85562342"
         cy="-142.03506"
         rx="0.288524"
         ry="0.28852311" />
      <ellipse
         style="fill:#454545;fill-opacity:1;stroke:#333333;stroke-width:0.925303;stroke-linecap:round;stroke-linejoin:round;stroke-dasharray:none;stroke-opacity:1;paint-order:fill markers stroke"
         id="ellipse24"
         cx="-0.85562342"
         cy="-148.60129"
         rx="0.288524"
         ry="0.28852311" />
      <ellipse
         style="fill:#454545;fill-opacity:1;stroke:#333333;stroke-width:0.925303;stroke-linecap:round;stroke-linejoin:round;stroke-dasharray:none;stroke-opacity:1;paint-order:fill markers stroke"
         id="ellipse25"
         cx="-0.85562342"
         cy="-145.39825"
         rx="0.288524"
         ry="0.28852311" />
      <ellipse
         style="fill:#454545;fill-opacity:1;stroke:#333333;stroke-width:0.925303;stroke-linecap:round;stroke-linejoin:round;stroke-dasharray:none;stroke-opacity:1;paint-order:fill markers stroke"
         id="ellipse26"
         cx="-0.85562342"
         cy="-151.96423"
         rx="0.288524"
         ry="0.28852311" />
      <ellipse
         style="fill:#454545;fill-opacity:1;stroke:#333333;stroke-width:0.925303;stroke-linecap:round;stroke-linejoin:round;stroke-dasharray:none;stroke-opacity:1;paint-order:fill markers stroke"
         id="ellipse27"
         cx="-0.85562342"
         cy="-128.58289"
         rx="0.288524"
         ry="0.28852311" />
      <ellipse
         style="fill:#454545;fill-opacity:1;stroke:#333333;stroke-width:0.925303;stroke-linecap:round;stroke-linejoin:round;stroke-dasharray:none;stroke-opacity:1;paint-order:fill markers stroke"
         id="ellipse28"
         cx="-0.85562342"
         cy="-125.37975"
         rx="0.288524"
         ry="0.28852311" />
      <ellipse
         style="fill:#454545;fill-opacity:1;stroke:#333333;stroke-width:0.925303;stroke-linecap:round;stroke-linejoin:round;stroke-dasharray:none;stroke-opacity:1;paint-order:fill markers stroke"
         id="ellipse29"
         cx="-0.85562342"
         cy="-131.94583"
         rx="0.288524"
         ry="0.28852311" />
    </g>
    <g
       id="g38"
       transform="translate(39.396459)">
      <ellipse
         style="fill:#454545;fill-opacity:1;stroke:#333333;stroke-width:0.925303;stroke-linecap:round;stroke-linejoin:round;stroke-dasharray:none;stroke-opacity:1;paint-order:fill markers stroke"
         id="ellipse30"
         cx="-0.85562342"
         cy="-138.67212"
         rx="0.288524"
         ry="0.28852311" />
      <ellipse
         style="fill:#454545;fill-opacity:1;stroke:#333333;stroke-width:0.925303;stroke-linecap:round;stroke-linejoin:round;stroke-dasharray:none;stroke-opacity:1;paint-order:fill markers stroke"
         id="ellipse31"
         cx="-0.85562342"
         cy="-135.46909"
         rx="0.288524"
         ry="0.28852311" />
      <ellipse
         style="fill:#454545;fill-opacity:1;stroke:#333333;stroke-width:0.925303;stroke-linecap:round;stroke-linejoin:round;stroke-dasharray:none;stroke-opacity:1;paint-order:fill markers stroke"
         id="ellipse32"
         cx="-0.85562342"
         cy="-142.03506"
         rx="0.288524"
         ry="0.28852311" />
      <ellipse
         style="fill:#454545;fill-opacity:1;stroke:#333333;stroke-width:0.925303;stroke-linecap:round;stroke-linejoin:round;stroke-dasharray:none;stroke-opacity:1;paint-order:fill markers stroke"
         id="ellipse33"
         cx="-0.85562342"
         cy="-148.60129"
         rx="0.288524"
         ry="0.28852311" />
      <ellipse
         style="fill:#454545;fill-opacity:1;stroke:#333333;stroke-width:0.925303;stroke-linecap:round;stroke-linejoin:round;stroke-dasharray:none;stroke-opacity:1;paint-order:fill markers stroke"
         id="ellipse34"
         cx="-0.85562342"
         cy="-145.39825"
         rx="0.288524"
         ry="0.28852311" />
      <ellipse
         style="fill:#454545;fill-opacity:1;stroke:#333333;stroke-width:0.925303;stroke-linecap:round;stroke-linejoin:round;stroke-dasharray:none;stroke-opacity:1;paint-order:fill markers stroke"
         id="ellipse35"
         cx="-0.85562342"
         cy="-151.96423"
         rx="0.288524"
         ry="0.28852311" />
      <ellipse
         style="fill:#454545;fill-opacity:1;stroke:#333333;stroke-width:0.925303;stroke-linecap:round;stroke-linejoin:round;stroke-dasharray:none;stroke-opacity:1;paint-order:fill markers stroke"
         id="ellipse36"
         cx="-0.85562342"
         cy="-128.58289"
         rx="0.288524"
         ry="0.28852311" />
      <ellipse
         style="fill:#454545;fill-opacity:1;stroke:#333333;stroke-width:0.925303;stroke-linecap:round;stroke-linejoin:round;stroke-dasharray:none;stroke-opacity:1;paint-order:fill markers stroke"
         id="ellipse37"
         cx="-0.85562342"
         cy="-125.37975"
         rx="0.288524"
         ry="0.28852311" />
      <ellipse
         style="fill:#454545;fill-opacity:1;stroke:#333333;stroke-width:0.925303;stroke-linecap:round;stroke-linejoin:round;stroke-dasharray:none;stroke-opacity:1;paint-order:fill markers stroke"
         id="ellipse38"
         cx="-0.85562342"
         cy="-131.94583"
         rx="0.288524"
         ry="0.28852311" />
    </g>
  </g>
</svg>
