<?xml version="1.0" encoding="UTF-8" standalone="no"?>
<svg
   width="90mm"
   height="90mm"
   version="1.1"
   viewBox="0 0 89.999996 89.999997"
   id="svg9"
   sodipodi:docname="gold_big_airdrop_crate.svg"
   inkscape:version="1.4 (86a8ad7, 2024-10-11)"
   xmlns:inkscape="http://www.inkscape.org/namespaces/inkscape"
   xmlns:sodipodi="http://sodipodi.sourceforge.net/DTD/sodipodi-0.dtd"
   xmlns="http://www.w3.org/2000/svg"
   xmlns:svg="http://www.w3.org/2000/svg">
  <defs
     id="defs9" />
  <sodipodi:namedview
     id="namedview9"
     pagecolor="#ffffff"
     bordercolor="#000000"
     borderopacity="0.25"
     inkscape:showpageshadow="2"
     inkscape:pageopacity="0.0"
     inkscape:pagecheckerboard="0"
     inkscape:deskcolor="#d1d1d1"
     inkscape:document-units="mm"
     inkscape:zoom="1.1715019"
     inkscape:cx="169.01381"
     inkscape:cy="278.70207"
     inkscape:window-width="1920"
     inkscape:window-height="1009"
     inkscape:window-x="-8"
     inkscape:window-y="-8"
     inkscape:window-maximized="1"
     inkscape:current-layer="svg9" />
  <g
     transform="translate(-163.08,-234.76)"
     id="g9">
    <g
       stroke="#262673"
       stroke-linecap="round"
       stroke-linejoin="round"
       id="g2">
      <rect
         x="164.06001"
         y="235.74002"
         width="88.038399"
         height="88.038399"
         fill="#4059bf"
         stroke-width="1.96159"
         id="rect1" />
      <path
         d="m 179.32587,242.07998 -8.7241,8.72409 v 57.70392 l 8.72288,8.72288 H 237.031 l 8.72166,-8.72166 v -57.70636 l -8.72288,-8.72287 z"
         fill="#384b94"
         stroke-width="1.96158"
         id="path1"
         sodipodi:nodetypes="ccccccccc" />
      <path
         d="M 239.64486,244.41559 216.80834,266.502 h -17.8589 l -22.38829,-22.21756 -3.84008,4.00949 22.50598,21.83372 -0.1001,19.55903 -22.02476,22.08373 3.23311,3.21511 22.51404,-21.37652 h 17.86135 l 22.83265,21.70118 3.99285,-3.83498 -23.00224,-21.78729 0.1001,-19.56391 23.12333,-21.6755 z"
         fill="#4059bf"
         stroke-width="1.96201"
         id="path2"
         sodipodi:nodetypes="ccccccccccccccccc" />
    </g>
    <g
       transform="matrix(0.70664,0,0,0.70664,134.56,220.23)"
       fill="#262673"
       stroke-width="1.2893"
       id="g4">
      <path
         d="m 97.891865,82.829341 h 12.305095 c 1.31611,0 2.37569,1.059589 2.37569,2.375734 v 12.413184 c 0,1.316157 -1.05958,2.375742 -2.37569,2.375742 H 97.891865 c -1.316136,0 -2.375729,-1.059585 -2.375729,-2.375742 V 85.205075 c 0,-1.316145 1.059593,-2.375734 2.375729,-2.375734 z"
         stroke-linejoin="round"
         stroke-width="1.28929"
         id="path3" />
      <path
         d="m 106.66896,80.941502 5.11202,-5.439048 c -0.0253,-1.073212 -3.4821,-1.884547 -4.6488,-0.217995 l -1.66085,5.362509 -0.63165,-0.0061 1.60772,-5.24337 c -0.83586,-1.540481 -3.88989,-1.26033 -4.80138,-0.08585 l 1.6749,5.354983 -0.71919,-0.0074 -1.65947,-5.307686 c -0.9288,-1.399416 -3.836624,-1.367046 -4.8168,-0.01032 l 5.42588,5.653835 -0.6758,0.544989 -5.384199,-6.041328 c 0.116321,-9.071777 16.581639,-9.617364 17.100639,0.03596 l -5.48191,5.820176 z"
         id="path4"
         style="stroke-width:1.2893" />
    </g>
    <path
       d="m 164.06,235.74 v 11.659 h 8.0796 l 3.5786,-3.5786 v -8.0806 z m 76.42765,0 v 8.0796 l 3.5786,3.5786 h 8.0801 v -11.658 z m 3.5791,76.4208 -3.5786,3.5786 v 8.0801 h 11.658 v -11.659 z m -80.00665,5.1e-4 v 11.658 h 11.659 v -8.0796 l -3.5786,-3.5786 z"
       fill="#7c776f"
       stroke="#333333"
       stroke-linecap="round"
       stroke-linejoin="round"
       stroke-width="1.962"
       id="path5"
       sodipodi:nodetypes="cccccccccccccccccccccccc"
       style="fill:#aa8534;fill-opacity:1;stroke:#5e4a1d;stroke-opacity:1" />
    <g
       fill="#808080"
       stroke="#2e2e2e"
       stroke-linecap="round"
       stroke-linejoin="round"
       stroke-width="0.98082"
       id="g8"
       style="stroke:#4d3c19;stroke-opacity:1;fill:#c49d46;fill-opacity:1">
      <circle
         cx="169.89"
         cy="241.57001"
         r="1.6222"
         id="circle5"
         style="stroke:#4d3c19;stroke-opacity:1;fill:#c49d46;fill-opacity:1" />
      <circle
         transform="rotate(-90)"
         cx="-317.89966"
         cy="169.89"
         r="1.6222"
         id="circle6"
         style="stroke:#4d3c19;stroke-opacity:1;fill:#c49d46;fill-opacity:1" />
      <circle
         transform="scale(-1)"
         cx="-246.61961"
         cy="-317.89966"
         r="1.6222"
         id="circle7"
         style="stroke:#4d3c19;stroke-opacity:1;fill:#c49d46;fill-opacity:1" />
      <circle
         transform="rotate(90)"
         cx="241.57001"
         cy="-246.61961"
         r="1.6222"
         id="circle8"
         style="stroke:#4d3c19;stroke-opacity:1;fill:#c49d46;fill-opacity:1" />
    </g>
  </g>
  <g
     id="g1"
     transform="translate(-0.822518,-13.572181)">
    <path
       d="m 64.645711,59.92019 v -2.670671 c 0,-0.285652 0.229971,-0.515623 0.515614,-0.515623 H 80.1558 c 0.285644,0 0.515617,0.229971 0.515617,0.515623 v 2.670671 c 0,0.28565 -0.229973,0.515624 -0.515617,0.515624 H 65.161325 c -0.285643,0 -0.515614,-0.229974 -0.515614,-0.515624 z"
       stroke-linejoin="round"
       stroke-width="0.911072"
       id="path6"
       style="fill:#4059bf;fill-opacity:1;stroke:#262673;stroke-width:1.64042;stroke-dasharray:none;stroke-opacity:1"
       sodipodi:nodetypes="sssssssss" />
    <path
       d="m 44.474509,78.558374 h 2.670671 c 0.285652,0 0.515623,0.229971 0.515623,0.515614 v 14.094474 c 0,0.285644 -0.229971,0.515617 -0.515623,0.515617 h -2.670671 c -0.28565,0 -0.515624,-0.229973 -0.515624,-0.515617 V 79.073988 c 0,-0.285643 0.229974,-0.515614 0.515624,-0.515614 z"
       stroke-linejoin="round"
       stroke-width="0.911072"
       id="path8"
       style="fill:#4059bf;fill-opacity:1;stroke:#262673;stroke-width:1.64042;stroke-dasharray:none;stroke-opacity:1"
       sodipodi:nodetypes="sssssssss" />
    <path
       d="m 25.731325,57.224172 v 2.670671 c 0,0.285652 -0.229971,0.515623 -0.515614,0.515623 H 11.322063 c -0.285644,0 -0.515617,-0.229971 -0.515617,-0.515623 v -2.670671 c 0,-0.28565 0.229973,-0.515624 0.515617,-0.515624 h 13.893648 c 0.285643,0 0.515614,0.229974 0.515614,0.515624 z"
       stroke-linejoin="round"
       stroke-width="0.911072"
       id="path10"
       style="fill:#4059bf;fill-opacity:1;stroke:#262673;stroke-width:1.64042;stroke-dasharray:none;stroke-opacity:1"
       sodipodi:nodetypes="sssssssss" />
    <path
       d="m 44.474509,39.902163 h 2.670671 c 0.285652,0 0.515623,-0.63032 0.515623,-0.915963 V 23.892076 c 0,-0.285644 -0.229971,-0.515617 -0.515623,-0.515617 h -2.670671 c -0.28565,0 -0.515624,0.229973 -0.515624,0.515617 V 38.9862 c 0,0.285643 0.229974,0.915963 0.515624,0.915963 z"
       stroke-linejoin="round"
       stroke-width="0.911072"
       id="path12"
       style="fill:#4059bf;fill-opacity:1;stroke:#262673;stroke-width:1.64042;stroke-dasharray:none;stroke-opacity:1"
       sodipodi:nodetypes="sssssssss" />
  </g>
</svg>
