<?xml version="1.0" encoding="UTF-8" standalone="no"?>
<svg
   version="1.1"
   width="65.552612"
   height="75.317001"
   viewBox="0 0 65.552611 75.317003"
   xml:space="preserve"
   id="svg218"
   sodipodi:docname="leaf_particle_4.svg"
   inkscape:version="1.3.2 (091e20e, 2023-11-25, custom)"
   xmlns:inkscape="http://www.inkscape.org/namespaces/inkscape"
   xmlns:sodipodi="http://sodipodi.sourceforge.net/DTD/sodipodi-0.dtd"
   xmlns="http://www.w3.org/2000/svg"
   xmlns:svg="http://www.w3.org/2000/svg"><sodipodi:namedview
   id="namedview220"
   pagecolor="#505050"
   bordercolor="#eeeeee"
   borderopacity="1"
   inkscape:showpageshadow="0"
   inkscape:pageopacity="0"
   inkscape:pagecheckerboard="true"
   inkscape:deskcolor="#505050"
   showgrid="false"
   inkscape:zoom="7.4618172"
   inkscape:cx="25.865013"
   inkscape:cy="46.034363"
   inkscape:window-width="1920"
   inkscape:window-height="1009"
   inkscape:window-x="-8"
   inkscape:window-y="-8"
   inkscape:window-maximized="1"
   inkscape:current-layer="svg218"
   showguides="true"
   inkscape:pageshadow="0" />
<desc
   id="desc181">Created with Fabric.js 5.3.0</desc>
<defs
   id="defs183" />

<path
   d="M 65.549213,50.47665 C 47.810373,41.35696 4.5098428,37.62985 9.5143128,63.78974 16.807293,89.4079 53.807733,66.6107 65.552613,50.48833 v -2.6e-4 c -0.003,-10e-4 0,-0.008 0,-0.008 z"
   fill="#77a37a"
   id="path24-03-1-3-4"
   style="fill:#19ac15;fill-opacity:0.93333334;stroke-width:2.54596" /><path
   d="M 48.811573,0 V 0.0151 C 24.051513,7.90562 -19.257717,44.25855 9.5237628,63.78911 39.911163,80.71584 52.908953,25.68777 48.824423,0.02436 v -0.0151 c -0.003,0.002 0,0.001 0,0.004 0,-0.004 -0.001,-0.008 0,-0.0113 z"
   fill="#5f926a"
   id="path26-73-5-4-0"
   style="fill:#19ac15;fill-opacity:0.93396229;stroke-width:2.54596" /><path
   d="m 26.029711,34.978075 v 0.0056 C 9.5688123,35.369501 -2.5432321,55.579008 10.671463,62.836552 24.623499,69.126514 30.457274,47.203946 26.03561,34.987127 v -0.0056 c -0.0014,7.43e-4 0,3.72e-4 0,0.0015 0,-0.0015 0,-0.0042 0,-0.0042 z"
   fill="#5f926a"
   id="path1"
   style="fill:#39e635;fill-opacity:0.933962;stroke-width:2.54596"
   sodipodi:nodetypes="cccccccc" /></svg>
