<?xml version="1.0" encoding="UTF-8" standalone="no"?>
<svg
   version="1.1"
   width="50.811401"
   height="51.269543"
   viewBox="0 0 50.8114 51.269543"
   xml:space="preserve"
   id="svg218"
   sodipodi:docname="leaf_particle_5.svg"
   inkscape:version="1.3.2 (091e20e, 2023-11-25, custom)"
   xmlns:inkscape="http://www.inkscape.org/namespaces/inkscape"
   xmlns:sodipodi="http://sodipodi.sourceforge.net/DTD/sodipodi-0.dtd"
   xmlns="http://www.w3.org/2000/svg"
   xmlns:svg="http://www.w3.org/2000/svg"><sodipodi:namedview
   id="namedview220"
   pagecolor="#505050"
   bordercolor="#eeeeee"
   borderopacity="1"
   inkscape:showpageshadow="0"
   inkscape:pageopacity="0"
   inkscape:pagecheckerboard="true"
   inkscape:deskcolor="#505050"
   showgrid="false"
   inkscape:zoom="7.4618172"
   inkscape:cx="25.730998"
   inkscape:cy="25.66399"
   inkscape:window-width="1920"
   inkscape:window-height="1009"
   inkscape:window-x="-8"
   inkscape:window-y="-8"
   inkscape:window-maximized="1"
   inkscape:current-layer="svg218"
   showguides="true"
   inkscape:pageshadow="0" />
<desc
   id="desc181">Created with Fabric.js 5.3.0</desc>
<defs
   id="defs183" />

<path
   id="path542-0-2"
   style="fill:#19ac15;fill-opacity:0.933333;stroke:#333333;stroke-width:0;stroke-linejoin:round;stroke-dasharray:none"
   d="m 30.978003,37.278165 c 0.719665,5.968123 -6.69478,11.251881 -12.364512,8.656292 C 8.852558,41.465942 1.9363164,17.099245 5.5126607,15.288926 9.0890051,13.478275 29.753474,27.123599 30.978003,37.278165 Z"
   sodipodi:nodetypes="aaza" /><path
   id="path542-6"
   style="fill:#19ac15;fill-opacity:0.93333334;stroke:#333333;stroke-width:0;stroke-linejoin:round;stroke-dasharray:none"
   d="M 39.291516,49.742451 C 30.768435,54.4977 14.556163,47.476223 12.497742,37.935419 8.9540334,21.511011 39.470683,-3.4531313 46.140821,0.39795776 52.810957,4.2490468 53.793045,41.651634 39.291516,49.742451 Z"
   sodipodi:nodetypes="aaza" /><path
   id="path1"
   style="fill:#39e635;fill-opacity:0.933333;stroke:#333333;stroke-width:0;stroke-linejoin:round;stroke-dasharray:none"
   d="m 37.946816,40.092494 c -2.228876,6.009367 -13.14409,10.971354 -17.993168,6.780073 -7.322556,-6.32922 2.621073,-26.556946 6.197417,-28.367265 3.576345,-1.810651 14.64728,13.899065 11.795751,21.587192 z"
   sodipodi:nodetypes="aaza" /></svg>
