<?xml version="1.0" encoding="UTF-8" standalone="no"?>
<svg
   version="1.1"
   width="84"
   height="84"
   viewBox="0 0 84.000001 84.000005"
   id="svg30"
   sodipodi:docname="apple_emote.svg"
   inkscape:version="1.4 (86a8ad7, 2024-10-11)"
   xmlns:inkscape="http://www.inkscape.org/namespaces/inkscape"
   xmlns:sodipodi="http://sodipodi.sourceforge.net/DTD/sodipodi-0.dtd"
   xmlns="http://www.w3.org/2000/svg"
   xmlns:svg="http://www.w3.org/2000/svg">
  <defs
     id="defs34" />
  <sodipodi:namedview
     id="namedview32"
     pagecolor="#505050"
     bordercolor="#ffffff"
     borderopacity="1"
     inkscape:pageshadow="0"
     inkscape:pageopacity="0"
     inkscape:pagecheckerboard="1"
     showgrid="false"
     inkscape:zoom="3.1060868"
     inkscape:cx="-27.687572"
     inkscape:cy="117.67218"
     inkscape:window-width="1920"
     inkscape:window-height="1009"
     inkscape:window-x="-8"
     inkscape:window-y="-8"
     inkscape:window-maximized="1"
     inkscape:current-layer="g28"
     inkscape:showpageshadow="2"
     inkscape:deskcolor="#d1d1d1" />
  <g
     id="g865"
     transform="matrix(1.1744147,0,0,1.1744147,0.67842675,1.319013)">
    <g
       transform="translate(-204.81656,-145.36207)"
       id="g28">
      <g
         data-paper-data="{&quot;isPaintingLayer&quot;:true}"
         fill-rule="nonzero"
         stroke-linecap="butt"
         stroke-linejoin="miter"
         stroke-miterlimit="10"
         stroke-dasharray="none"
         stroke-dashoffset="0"
         style="mix-blend-mode:normal"
         id="g26"
         transform="translate(0.66888251,-0.86666794)">
        <g
           id="g24"
           transform="matrix(0.25574241,0.65346183,-0.66294996,0.24958074,297.60879,-21.057331)"
           style="stroke-width:1.41842">
          <g
             stroke="#527a3a"
             stroke-width="3.54604"
             id="g8"
             transform="rotate(21,227.17723,157.50992)">
            <path
               d="m 231.96622,173.73468 c -2.68302,2.39747 -13.32258,-20.84896 -13.59538,-23.92542 0.03,-2.67704 1.66409,-5.12292 4.76628,-5.44953 2.92909,-0.42709 12.26364,18.25224 8.8291,29.37495 z"
               data-paper-data="{&quot;index&quot;:null}"
               fill="#6ba04d"
               id="path2"
               style="stroke-width:3.54604"
               sodipodi:nodetypes="cccc" />
          </g>
        </g>
        <path
           style="fill:#904300;fill-opacity:1;stroke:#692800;stroke-width:3.94409;stroke-dasharray:none;stroke-opacity:1;paint-order:markers stroke fill"
           d="m 237.29384,173.1726 c 0.1542,-6.30476 -0.0862,-12.48621 2.87842,-19.66921 h 2.91268 c -2.38896,6.65882 -2.77491,13.23751 -2.91262,19.80628 z"
           id="path1"
           sodipodi:nodetypes="ccccc" />
        <path
           style="fill:#ed2929;fill-opacity:1;stroke:#640203;stroke-width:5.90251;stroke-linecap:round;stroke-linejoin:round;stroke-dasharray:none;stroke-opacity:1;paint-order:markers stroke fill"
           d="m 224.6473,171.50264 c 8.60503,-3.03886 10.31329,4.18686 17.03595,1.67955 5.35732,-1.99809 9.88541,-1.80295 13.15509,-0.32264 9.00395,4.32561 4.35576,24.42134 -2.17787,30.34674 -2.95082,3.4653 -10.56139,4.57531 -10.96426,3.86447 -1.05013,-1.85289 -5.8681,-1.45329 -6.74487,0.073 -0.43328,0.75425 -6.43661,-0.89145 -10.5234,-4.25586 -4.83037,-3.65773 -9.82779,-28.51252 0.21931,-31.38534 z"
           id="path4"
           sodipodi:nodetypes="csccssccc" />
        <path
           style="fill:#f04f40;fill-opacity:1;stroke:none;stroke-width:5.90251;stroke-linecap:round;stroke-linejoin:round;stroke-dasharray:none;stroke-opacity:1;paint-order:markers stroke fill"
           d="m 241.68325,173.18219 c 4.85269,-3.02401 9.88541,-1.80295 13.15509,-0.32264 9.00395,4.32561 4.35576,24.42134 -2.17787,30.34674 -1.8147,3.33906 -14.41505,-27.88177 -10.97722,-30.0241 z"
           id="path3"
           sodipodi:nodetypes="sccs" />
      </g>
    </g>
  </g>
</svg>
