<?xml version="1.0" encoding="UTF-8" standalone="no"?>
<svg
   width="225.66901"
   height="225.66901"
   version="1.1"
   viewBox="0 0 59.708249 59.708253"
   id="svg30"
   sodipodi:docname="big_airdrop_particle_1.svg"
   inkscape:version="1.4 (86a8ad7, 2024-10-11)"
   xmlns:inkscape="http://www.inkscape.org/namespaces/inkscape"
   xmlns:sodipodi="http://sodipodi.sourceforge.net/DTD/sodipodi-0.dtd"
   xmlns:xlink="http://www.w3.org/1999/xlink"
   xmlns="http://www.w3.org/2000/svg"
   xmlns:svg="http://www.w3.org/2000/svg">
  <defs
     id="defs34">
    <pattern
       inkscape:collect="always"
       xlink:href="#Strips1_1-47"
       preserveAspectRatio="xMidYMid"
       id="pattern183-9"
       patternTransform="matrix(0.91955836,0.91955544,-1.2812009,1.2811969,8.4272507,-45.814996)"
       x="0"
       y="0" />
    <pattern
       inkscape:collect="always"
       patternUnits="userSpaceOnUse"
       width="2"
       height="10"
       patternTransform="translate(0,0) scale(2,2)"
       preserveAspectRatio="xMidYMid"
       id="Strips1_1-47"
       style="fill:#a68024"
       inkscape:stockid="Stripes 01 (1:1)"
       inkscape:isstock="true"
       inkscape:label="Stripes 01 (1:1)">
      <rect
         style="stroke:none"
         x="0"
         y="-0.5"
         width="1"
         height="11"
         id="rect134-1" />
    </pattern>
  </defs>
  <sodipodi:namedview
     id="namedview32"
     pagecolor="#505050"
     bordercolor="#ffffff"
     borderopacity="1"
     inkscape:pageshadow="0"
     inkscape:pageopacity="0"
     inkscape:pagecheckerboard="1"
     inkscape:document-units="px"
     showgrid="false"
     inkscape:zoom="1.177025"
     inkscape:cx="42.479982"
     inkscape:cy="148.25514"
     inkscape:window-width="1920"
     inkscape:window-height="1009"
     inkscape:window-x="-8"
     inkscape:window-y="-8"
     inkscape:window-maximized="1"
     inkscape:current-layer="svg30"
     units="px"
     inkscape:showpageshadow="2"
     inkscape:deskcolor="#d1d1d1" />
  <g
     id="g21"
     transform="matrix(1.8732648,0,0,1.8732707,-1.0183805,219.99222)"
     style="stroke-width:0.533827">
    <path
       d="m 4.6458144,-116.91392 -3.5786,3.5786 v 23.669998 l 3.5781,3.5781 H 28.316314 l 3.5776,-3.5776 v -23.670998 l -3.5781,-3.5781 z"
       fill="#8e8a81"
       stroke="#333333"
       stroke-width="1.04715"
       id="path10"
       style="fill:#232323;fill-opacity:1;stroke:none;stroke-linecap:round;stroke-linejoin:round" />
    <path
       d="m 4.6458144,-116.91392 -3.5786,3.5786 v 23.670001 l 3.5781,3.5781 H 28.316314 l 3.5776,-3.5776 v -23.671001 l -3.5781,-3.5781 z"
       fill="#8e8a81"
       stroke="#333333"
       stroke-width="1.04715"
       id="path12"
       style="display:inline;fill:url(#pattern183-9);fill-opacity:1;stroke-linecap:round;stroke-linejoin:round" />
    <path
       d="m 6.9080224,-113.96766 -2.894552,2.89455 v 19.145486 l 2.894147,2.894144 H 26.053915 l 2.893743,-2.89374 v -19.1463 l -2.894147,-2.89414 z"
       fill="#8e8a81"
       stroke="#333333"
       stroke-width="1.58664"
       id="path13"
       style="fill:#6f767c;fill-opacity:1;stroke-width:0.847183;stroke-linecap:round;stroke-linejoin:round;stroke-dasharray:none" />
    <g
       id="g16"
       style="mix-blend-mode:normal;fill:#d9d9d9;fill-opacity:1"
       transform="matrix(0.53382736,0,0,0.53382568,-7.5363634,-125.5125)">
      <path
         d="m 37.828385,43.350049 h 14.349648 c 1.534788,0 2.770426,1.235649 2.770426,2.770476 v 14.475699 c 0,1.534843 -1.235638,2.770485 -2.770426,2.770485 H 37.828385 c -1.534816,0 -2.770465,-1.235642 -2.770465,-2.770485 V 46.120525 c 0,-1.534827 1.235649,-2.770476 2.770465,-2.770476 z"
         stroke-linejoin="round"
         stroke-width="0.911066"
         id="path14"
         style="fill:#d9d9d9;fill-opacity:1" />
      <path
         d="m 48.063839,41.148541 5.961411,-6.342774 c -0.02949,-1.251533 -4.060664,-2.19767 -5.421224,-0.254216 l -1.936806,6.253518 -0.736607,-0.0071 1.874855,-6.114583 c -0.97474,-1.796402 -4.536215,-1.469702 -5.599151,-0.10005 l 1.95319,6.244741 -0.838688,-0.0084 -1.935195,-6.18958 c -1.083129,-1.6317 -4.474101,-1.593952 -5.617137,-0.01098 l 6.327417,6.593164 -0.788086,0.635537 L 35.029,34.802497 c 0.135651,-10.579095 19.336767,-11.215334 19.942,0.04183 l -6.392754,6.787229 z"
         id="path15"
         style="fill:#d9d9d9;fill-opacity:1;stroke-width:0.91107" />
    </g>
  </g>
</svg>
