<?xml version="1.0" encoding="UTF-8" standalone="no"?>
<svg
   width="127.63705"
   height="37.201"
   viewBox="0 0 127.63705 37.201"
   fill="none"
   version="1.1"
   id="svg71"
   sodipodi:docname="ak47.svg"
   inkscape:version="1.4 (86a8ad7, 2024-10-11)"
   xmlns:inkscape="http://www.inkscape.org/namespaces/inkscape"
   xmlns:sodipodi="http://sodipodi.sourceforge.net/DTD/sodipodi-0.dtd"
   xmlns="http://www.w3.org/2000/svg"
   xmlns:svg="http://www.w3.org/2000/svg">
  <sodipodi:namedview
     id="namedview71"
     pagecolor="#ffffff"
     bordercolor="#000000"
     borderopacity="0.25"
     inkscape:showpageshadow="2"
     inkscape:pageopacity="0.0"
     inkscape:pagecheckerboard="0"
     inkscape:deskcolor="#d1d1d1"
     inkscape:zoom="3.6681818"
     inkscape:cx="56.022305"
     inkscape:cy="83.556382"
     inkscape:window-width="1920"
     inkscape:window-height="1009"
     inkscape:window-x="-8"
     inkscape:window-y="-8"
     inkscape:window-maximized="1"
     inkscape:current-layer="svg71" />
  <g
     clip-path="url(#clip0_619_1191)"
     id="g71"
     transform="rotate(30,135.07082,46.466459)">
    <path
       d="m 83.8589,32.7125 1.278,-0.7379 -1.146,-1.9849 -1.2623,0.7288 z"
       fill="#3a3a3a"
       stroke="#333333"
       stroke-width="0.572369"
       id="path1" />
    <path
       d="M 103.263,19.0774 84.084,30.1504 85.1061,31.9207 104.505,20.721 104.13,20.5795 Z"
       fill="#393939"
       stroke="#333333"
       stroke-width="0.572369"
       id="path2" />
    <path
       d="m 85.1369,31.9746 -1.278,0.7379 -1.1303,-1.994 1.2623,-0.7288 0.0929,0.1609 19.1792,-11.073 0.867,1.5021 0.374,0.1416 -19.3981,11.1996 z"
       stroke="#333333"
       stroke-width="1.14474"
       id="path3" />
    <path
       d="m 82.1798,29.7478 1.7911,-1.0341 -1.5176,-2.6287 -1.7704,1.0221 z"
       fill="#3a3a3a"
       id="path4" />
    <path
       d="m 82.7294,30.7186 1.2623,-0.7288 -0.5575,-0.9657 -1.2547,0.7244 z"
       fill="#333333"
       id="path5" />
    <path
       d="m 51.5222,56.3879 0.6921,-0.7215 0.5368,0.62 -0.9811,0.5307 z"
       fill="#363636"
       id="path6" />
    <path
       d="m 51.9517,55.3276 c 3.277,4.3102 6.3504,6.9164 9.9717,8.8312 4.0242,2.1279 8.3015,3.9336 15.3595,4.0788 l 0.5339,-8.677 c -4.369,-0.1957 -7.3431,-1.0019 -10.1451,-2.3328 -2.8422,-1.3501 -5.5286,-3.2179 -8.2905,-6.6329 z"
       fill="#3d3d3d"
       id="path7" />
    <path
       d="M 77.6988,61.7094 C 72.8876,61.4736 69.1654,60.272 65.7731,58.7118 62.6202,57.2616 59.8846,55.0665 57.1551,52.0125 l 2.2222,-1.4155 c 2.7678,3.4281 5.4593,5.3007 8.3073,6.6535 2.8019,1.331 5.776,2.1372 10.145,2.3328 z"
       fill="#3d3d3d"
       id="path8" />
    <path
       d="m 42.4947,61.3519 2.516,-1.6028 c -0.5118,1.06 -0.2365,1.7826 0.0916,2.2065 0.329,0.4252 0.7252,0.7974 2.0841,0.5493 0.2588,-0.0473 0.3395,0.3403 0.0094,0.388 -1.622,0.2343 -2.2558,0.0191 -3.0754,-1.3002 -0.6506,0.2813 -1.0225,0.2107 -1.6257,-0.2408 z"
       fill="#383838"
       stroke="#333333"
       stroke-width="0.572369"
       id="path9" />
    <path
       d="m 48.8122,57.3282 2.4568,-1.565 1.4918,2.5227 c 0.1858,0.3218 -0.0183,1.0834 -0.3401,1.2693 l -1.3412,0.7743 c 0.3097,0.5364 -0.1471,1.4797 -0.4958,1.681 l -4.8159,2.9951 c -0.6169,0.3561 -1.7211,-0.0077 -1.907,-0.3296 l -1.7444,-3.0825 0.288,-0.1834 1.5925,2.7582 c 0.2787,0.4828 1.1786,0.6785 1.6346,0.4153 l 4.6704,-2.8753 c 0.4291,-0.2478 0.5682,-0.9361 0.4289,-1.1775 z"
       fill="#3d3d3d"
       stroke="#333333"
       stroke-width="0.572369"
       id="path10" />
    <path
       d="M 9.87742,93.8443 C 6.77975,89.2346 4.81028,86.8485 0.843121,82.9664 c 0,0 -0.162058,-0.1568 -0.055871,-0.4685 0.084212,-0.2471 0.4549,-0.5129 0.4549,-0.5129 0,0 7.70614,-6.1659 8.59436,-6.8575 0.91289,-0.7109 6.62819,-4.9355 7.13789,-5.2298 0.5096,-0.2942 0.4554,-0.3881 2.4258,-0.5064 1.853,-0.5691 2.4843,-1.1482 2.4843,-1.1482 l 8.3005,-6.4374 3.9288,4.8845 -8.3922,9.9953 c 0,0 -8.9842,10.8159 -12.6151,15.0084 -0.7838,0.9051 -1.3554,1.378 -1.4916,1.505 -0.6045,0.5636 -0.7923,0.672 -0.7923,0.672 0,0 -0.2259,0.1662 -0.5179,0.1559 -0.2921,-0.0102 -0.42728,-0.1825 -0.42728,-0.1825 z"
       fill="#775426"
       stroke="#4d3719"
       stroke-width="1.14474"
       id="path11" />
    <path
       d="m 0.844279,82.9665 c 3.967151,3.8821 5.936621,6.2682 9.034301,10.878 0,0 0.13522,0.1723 0.42722,0.1825 0.1922,0.0067 0.3752,-0.0613 0.5334,-0.1658 C 10.0004,92.5022 9.12608,91.0954 8.70325,90.4459 7.9188,89.2411 6.46325,87.468 5.49213,86.285 5.29002,86.0388 5.1089,85.8182 4.95917,85.6336 4.33988,84.8699 2.35041,82.9909 1.25766,81.9736 c -0.00949,0.0076 -0.01435,0.0115 -0.01435,0.0115 0,0 -0.37069,0.2658 -0.454901,0.513 -0.106187,0.3117 0.05587,0.4684 0.05587,0.4684 z"
       fill="#3c3c3c"
       stroke="#333333"
       stroke-width="1.14474"
       id="path12" />
    <path
       d="m 30.8561,58.3789 -0.3265,1.4797 -0.7843,0.3776 0.144,-1.2991 z"
       fill="#404040"
       stroke="#333333"
       stroke-width="0.572369"
       id="path13" />
    <path
       d="m 49.2324,48.7705 10.354,-5.9779 0.7433,1.2875 -10.3539,5.9779 z"
       fill="#484848"
       id="path14" />
    <path
       d="m 58.9043,43.3438 0.3916,-0.2261 0.6443,1.1159 -0.3916,0.2261 z"
       fill="#404040"
       id="path15" />
    <path
       d="m 82.543,26.2471 4.9624,-2.8651 1.4247,2.4678 -4.9624,2.865 z"
       fill="#363636"
       id="path16" />
    <path
       d="m 87.5054,23.382 -0.9657,0.5575 0.1858,0.3219 -3.9967,2.3075 0.4027,0.6975 3.9967,-2.3076 0.2168,0.3756 -3.9967,2.3075 0.4026,0.6974 3.9967,-2.3075 0.2169,0.3755 0.9656,-0.5575 z"
       fill="#3b3b3b"
       id="path17" />
    <path
       d="m 62.418,41.873 0.751,-0.4336 3.0663,5.311 -0.9678,0.0581 z"
       fill="#424242"
       stroke="#333333"
       stroke-width="1.14474"
       id="path18" />
    <path
       d="m 66.3297,34.8937 c -0.1549,-0.2682 0.2392,-0.6388 0.5735,-0.6172 l 2.0132,3.487 -0.6974,0.4027 z"
       fill="#424242"
       id="path19" />
    <rect
       x="66.084"
       y="35.464802"
       width="0.495105"
       height="3.4069901"
       transform="rotate(-30,66.084,35.4648)"
       fill="#3b3b3b"
       id="rect19" />
    <path
       d="m 66.9003,34.277 c -0.3343,-0.0216 -0.7284,0.349 -0.5735,0.6172 l 0.1858,0.3219 -0.4287,0.2476 1.7035,2.9505 1.1261,-0.6502 z"
       stroke="#333333"
       stroke-width="0.572369"
       id="path20" />
    <path
       d="M 49.2314,48.7699 59.5853,42.792 58.811,41.4508 49.6373,46.7473 c -0.0537,0.031 -0.8407,1.0218 -0.4059,2.0226 z"
       fill="#4d4d4d"
       id="path21" />
    <path
       d="m 60.3287,44.0795 -10.354,5.9779 -0.7433,-1.2875 c -0.4348,-1.0008 0.3522,-1.9916 0.4059,-2.0226 l 9.1737,-5.2965 z"
       stroke="#333333"
       stroke-width="0.572369"
       id="path22" />
    <path
       fill-rule="evenodd"
       clip-rule="evenodd"
       d="m 40.5498,54.3556 8.8704,-5.2644 0.5575,0.9657 -9.8217,5.8303 z"
       fill="#363636"
       id="path23" />
    <path
       d="m 35.4372,67.2491 c -0.0929,-0.1609 -0.2055,-0.4178 -0.2055,-0.4178 l 7.9009,-3.8463 c 0,0 0.6628,1.334 0.7248,1.4413 0.0619,0.1073 0.0351,0.1228 -0.0216,0.3343 -0.1711,0.385 -0.1485,0.3003 -0.3393,0.5893 -0.133,0.3272 -0.1515,0.4809 -0.1504,0.7306 0.0279,0.2342 0.2554,8.1857 0.6309,7.9689 0,0 0.5896,0.1602 0.9836,0.8984 0.394,0.7381 0.2594,1.3165 0.2594,1.3165 0,0 -0.7375,0.8908 -1.7794,1.5639 -1.3794,0.8321 -2.1202,0.9737 -2.1202,0.9737 0,0 -0.8905,0.1923 -1.6656,-0.4689 -0.7752,-0.6612 -1.115,-1.9313 -1.115,-1.9313 -0.2892,-1.8338 -0.7476,-5.4794 -1.0073,-7.072 0,0 -0.063,-0.357 -0.1869,-0.5716 0,0 -0.2257,-0.4529 -0.9682,-0.8716 -0.7424,-0.4187 -0.7389,-0.2887 -0.9402,-0.6374 z"
       fill="#775426"
       id="path24" />
    <path
       d="m 35.2317,66.8313 c 0,0 0.1126,0.2569 0.2055,0.4178 m -0.2055,-0.4178 7.9009,-3.8463 c 0,0 0.6628,1.334 0.7248,1.4413 0.0619,0.1073 0.0351,0.1228 -0.0216,0.3343 -0.1711,0.385 -0.1485,0.3003 -0.3393,0.5893 -0.133,0.3272 -0.1515,0.4809 -0.1504,0.7306 0.0279,0.2342 0.2554,8.1857 0.6309,7.9689 0,0 0.5896,0.1602 0.9836,0.8984 0.394,0.7381 0.2594,1.3165 0.2594,1.3165 0,0 -0.7375,0.8908 -1.7794,1.5639 -1.3794,0.8321 -2.1202,0.9737 -2.1202,0.9737 0,0 -0.8905,0.1923 -1.6656,-0.4689 -0.7752,-0.6612 -1.115,-1.9313 -1.115,-1.9313 -0.2892,-1.8338 -0.7476,-5.4794 -1.0073,-7.072 0,0 -0.063,-0.357 -0.1869,-0.5716 0,0 -0.2257,-0.4529 -0.9682,-0.8716 -0.7424,-0.4187 -0.7389,-0.2887 -0.9402,-0.6374 m -0.2055,-0.4178 0.2055,0.4178"
       stroke="#4d3719"
       stroke-width="1.14474"
       id="path25" />
    <path
       d="m 34.9055,66.187 7.4294,-4.7327 0.7987,1.5314 -7.9008,3.8463 z"
       fill="#484848"
       stroke="#333333"
       stroke-width="1.14474"
       id="path26" />
    <path
       d="m 34.1134,66.6906 -3.9288,-4.8845 19.7907,-11.7481 10.354,-5.9778 -0.8363,-1.4485 2.5215,-1.4557 3.2676,5.6597 -14.0315,8.9383 -0.0712,0.7059 -2.0726,1.3039 -0.929,-0.0524 z"
       fill="#454545"
       id="path27" />
    <rect
       x="50.835899"
       y="55.140598"
       width="0.805309"
       height="0.24778201"
       transform="rotate(-30,50.8359,55.1406)"
       fill="#424242"
       id="rect27" />
    <rect
       width="11.8938"
       height="2.3506501"
       rx="0.429277"
       transform="matrix(0.842453,-0.53877,0.538772,0.842452,53.1191,50.7969)"
       fill="#404040"
       id="rect28"
       ry="0.429277"
       x="0"
       y="0" />
    <path
       d="m 74.8466,68.1169 0.1934,-2.016 c 0.0125,-0.1309 -0.0834,-0.2473 -0.2144,-0.2598 -0.1309,-0.0126 -0.2472,0.0834 -0.2598,0.2143 l -0.1937,2.0195 c 0.1567,0.0149 0.3148,0.0289 0.4745,0.042 z"
       fill="#3b3b3b"
       id="path28" />
    <path
       d="m 75.7121,68.1768 0.2864,-2.985 c 0.0142,-0.1485 -0.0946,-0.2804 -0.2431,-0.2946 -0.1485,-0.0143 -0.2804,0.0946 -0.2946,0.243 l -0.2879,3.0011 c 0.1778,0.013 0.3576,0.0248 0.5392,0.0355 z"
       fill="#3b3b3b"
       id="path29" />
    <path
       d="m 75.5479,61.5333 c -0.1951,-0.0225 -0.3883,-0.0467 -0.5797,-0.0725 l 0.1147,-1.1954 c 0.0153,-0.1605 0.158,-0.2781 0.3185,-0.2627 0.1605,0.0154 0.2782,0.158 0.2628,0.3185 z"
       fill="#383838"
       id="path30" />
    <path
       d="m 76.4564,61.6244 0.0724,-1.1393 c 0.0102,-0.1609 0.149,-0.2831 0.3099,-0.2729 0.161,0.0103 0.2831,0.149 0.2729,0.3099 l -0.0729,1.1475 c -0.1959,-0.0134 -0.39,-0.0285 -0.5823,-0.0452 z"
       fill="#383838"
       id="path31" />
    <path
       d="m 76.6671,68.2202 0.1303,-2.0504 c 0.0076,-0.1189 -0.0827,-0.2215 -0.2017,-0.2291 -0.1189,-0.0075 -0.2215,0.0828 -0.229,0.2018 l -0.131,2.0603 c 0.1426,0.0065 0.2864,0.0123 0.4314,0.0174 z"
       fill="#3b3b3b"
       id="path32" />
    <ellipse
       cx="51.593601"
       cy="58.743301"
       rx="0.46460101"
       ry="0.464591"
       transform="rotate(-30,51.5936,58.7433)"
       fill="#383838"
       id="ellipse32" />
    <path
       d="m 51.8785,59.8665 0.2727,0.0929 0.6814,1.1802 c 0.1084,0.1878 0.4189,0.0443 0.3487,-0.2013 l -0.5399,-1.6286 c -0.0631,0.1089 -0.1391,0.1966 -0.2231,0.2451 z"
       fill="#383838"
       stroke="#333333"
       stroke-width="0.572369"
       id="path33" />
    <path
       d="m 55.0083,54.8061 c -0.3113,-0.3209 -0.7706,0.123 -0.5323,0.3789 3.011,3.2328 5.7485,5.3326 8.6717,6.9029 2.938,1.5782 6.2274,2.7349 10.5449,3.4609 0.4358,0.0733 0.5494,-0.5675 0.0855,-0.6573 -4.2681,-0.8262 -7.3009,-1.944 -10.0798,-3.4077 -2.9728,-1.5657 -5.6873,-3.5831 -8.69,-6.6777 z"
       fill="#3b3b3b"
       id="path34" />
    <path
       d="m 56.1353,53.9604 c -0.3114,-0.3209 -0.7706,0.123 -0.5323,0.3789 3.0109,3.2328 5.4132,5.0771 8.3364,6.6474 2.938,1.5783 5.6472,2.5334 9.9647,3.2595 0.4358,0.0732 0.5494,-0.5676 0.0855,-0.6574 -4.2681,-0.8261 -6.7205,-1.6711 -9.4994,-3.1347 -2.9727,-1.5658 -5.3522,-3.3991 -8.3549,-6.4937 z"
       fill="#3b3b3b"
       id="path35" />
    <path
       d="m 57.2857,53.2241 c -0.3114,-0.321 -0.7706,0.123 -0.5323,0.3788 2.8158,3.2184 5.5587,4.9575 8.4818,6.5278 2.938,1.5782 4.5698,2.154 8.8874,2.88 0.4357,0.0733 0.5493,-0.5675 0.0854,-0.6573 -4.268,-0.8261 -5.6431,-1.2918 -8.4219,-2.7554 -2.9728,-1.5657 -5.4977,-3.2794 -8.5004,-6.3739 z"
       fill="#3b3b3b"
       id="path36" />
    <path
       d="m 74.9676,61.4608 -0.3526,3.6759 c -0.0154,0.1606 0.1023,0.3032 0.2628,0.3186 0.1605,0.0154 0.3031,-0.1023 0.3185,-0.2628 l 0.351,-3.6592 c -0.195,-0.0226 -0.3882,-0.0468 -0.5797,-0.0725 z"
       fill="#3b3b3b"
       id="path37" />
    <path
       d="m 77.0379,61.671 c -0.1959,-0.0135 -0.39,-0.0286 -0.5823,-0.0452 l -0.238,3.7445 c -0.0103,0.161 0.1119,0.2997 0.2729,0.3099 0.1609,0.0103 0.2996,-0.1119 0.3099,-0.2728 z"
       fill="#3b3b3b"
       id="path38" />
    <path
       d="m 65.9323,35.1953 -8.53,4.9248 0.5576,0.9657 0.4828,-0.2788 1.0531,1.824 2.5214,-1.4558 0.4026,0.6974 5.5257,-3.1902 z"
       fill="#4a4a4a"
       stroke="#333333"
       stroke-width="0.572369"
       id="path39" />
    <path
       d="m 60.192,38.5095 -2.7897,1.6106 0.2788,0.4828 2.2377,-1.3277 c 0.2909,-0.2395 0.3744,-0.4665 0.2732,-0.7657 z"
       fill="#424242"
       id="path40" />
    <path
       d="m 84.5451,33.9256 c 0.1394,0.2414 -0.4145,0.9546 -0.753,0.8639 l -4.3528,-7.787 c 0.5901,-0.3407 1.1175,-0.1087 1.2414,0.1059 z"
       fill="#424242"
       stroke="#333333"
       stroke-width="1.14474"
       id="path41" />
    <ellipse
       cx="83.725197"
       cy="26.495001"
       rx="0.247787"
       ry="0.24778201"
       transform="rotate(-30,83.7252,26.495)"
       fill="#363636"
       id="ellipse41" />
    <ellipse
       cx="84.744698"
       cy="25.907101"
       rx="0.247787"
       ry="0.24778201"
       transform="rotate(-30,84.7447,25.9071)"
       fill="#363636"
       id="ellipse42" />
    <ellipse
       cx="85.762299"
       cy="25.318199"
       rx="0.247787"
       ry="0.24778201"
       transform="rotate(-30,85.7623,25.3182)"
       fill="#363636"
       id="ellipse43" />
    <ellipse
       cx="86.781799"
       cy="24.729401"
       rx="0.247787"
       ry="0.24778201"
       transform="rotate(-30,86.7818,24.7294)"
       fill="#363636"
       id="ellipse44" />
    <path
       d="m 107.909,18.9755 0.744,-0.7199 -0.062,-0.1073 0.483,-0.2788 0.062,0.1073 0.429,-0.2478 -1.146,-1.9849 -0.429,0.2478 0.093,0.1609 -0.483,0.2788 -0.093,-0.161 -0.214,0.1239 -0.186,-0.3218 -0.59,0.3407 1.208,2.0922 z"
       fill="#373737"
       stroke="#333333"
       stroke-width="0.572369"
       id="path44" />
    <path
       d="m 84.3616,33.5976 22.3044,-13.191 c -0.122,-0.0299 -0.251,-0.0753 -0.389,-0.1361 l -0.437,0.0462 -21.724,12.8477 z"
       fill="#383838"
       stroke="#333333"
       stroke-width="0.572369"
       id="path45" />
    <path
       d="m 90.4048,21.7093 -2.897,1.6725 1.4248,2.4678 1.5557,-0.8983 c 0.5108,-0.0445 0.9154,0.2226 1.2406,0.7859 l 1.177,2.0386 c 0.2394,0.4148 0.7458,0.5707 1.131,0.3484 0.3852,-0.2224 0.5033,-0.7389 0.2638,-1.1537 l 3.0579,-1.7655 -1.3938,-2.4141 c 0,0 -1.4753,0.8518 -3.2451,0.2642 -1.7699,-0.5876 -2.3149,-1.3458 -2.3149,-1.3458 z"
       fill="#3c3c3c"
       id="path46" />
    <path
       d="m 82.5462,26.246 4.9623,-2.865 2.8971,-1.6726 c 0,0 0.545,0.7582 2.3149,1.3458 1.7698,0.5875 3.2451,-0.2642 3.2451,-0.2642 l 1.3938,2.4141 -3.0579,1.7654 c 0.2395,0.4148 0.1213,0.9314 -0.2638,1.1538 -0.3852,0.2223 -0.8916,0.0664 -1.1311,-0.3484 L 91.7297,25.7363 C 91.4045,25.173 90.9999,24.9059 90.4891,24.9504 l -1.5558,0.8983 -6.7535,3.8991 -1.4969,-2.6407 1.7704,-1.0221 z"
       stroke="#333333"
       stroke-width="1.14474"
       id="path47" />
    <path
       fill-rule="evenodd"
       clip-rule="evenodd"
       d="m 102.242,13.1572 0.743,5.4366 1.146,1.9849 0.412,0.1557 0.824,-0.3686 0.91,-0.0963 c 0.912,0.4032 1.468,0.1251 1.825,-0.8034 l -0.377,-0.9626 -3.546,-6.1425 c 0,0 -0.54,-0.5642 -1.334,-0.2668 -0.794,0.2974 -0.603,1.063 -0.603,1.063 z m 2.329,4.3423 1.234,-0.7124 c 0.214,-0.1239 0.221,-0.2353 0.113,-0.4231 l -0.387,-0.6705 c -0.248,-0.4292 -0.417,-0.4746 -0.846,-0.2268 l -0.966,0.5576 c -0.161,0.0929 -0.516,0.6554 -0.245,1.1248 0.256,0.4425 0.936,0.4434 1.097,0.3504 z"
       fill="#3c3c3c"
       stroke="#333333"
       stroke-width="0.572369"
       id="path48" />
    <path
       d="m 30.8609,61.7376 -0.5307,-0.9811 1.0583,-4.7954 c 0.0792,-0.3183 0.163,-0.4802 0.4001,-0.7317 L 57.462,40.228 l 0.4956,0.8584 0.4828,-0.2788 0.3717,0.6438 -9.1738,5.2964 c -0.0536,0.031 -0.8406,1.0218 -0.4059,2.0226 l 0.1858,0.3219 -8.8703,5.2643 -0.5401,2.1 z"
       fill="#474747"
       stroke="#333333"
       stroke-width="0.572369"
       id="path49" />
    <ellipse
       cx="104.03"
       cy="14.5215"
       rx="0.71238899"
       ry="0.71237302"
       transform="rotate(-30,104.03,14.5215)"
       fill="#363636"
       id="ellipse49" />
    <path
       d="m 51.9508,55.3272 c 0.0865,0.1139 0.173,0.2265 0.2593,0.338 l 0.6357,-0.3934 c 3.4892,4.3107 6.8989,6.9102 11.123,8.737 2.6347,1.1395 5.5618,2.2609 9.5326,2.758 0.3672,0.074 0.4269,-0.3756 0.1402,-0.4386 C 70.0897,65.8753 67.395,64.915 64.9638,63.9351 60.68,61.9508 57.0067,59.445 53.3014,54.9899 l 4.2128,-2.6071 c 2.3773,2.6428 4.4466,4.0589 6.7853,5.5698 2.5497,1.4201 5.8134,2.7593 9.7925,3.3947 0.4333,0.0692 0.5596,-0.5174 0.2278,-0.5965 -3.842,-0.9159 -6.7149,-1.7496 -9.1918,-3.0977 -2.4338,-1.3247 -4.9308,-3.5252 -7.3714,-6.0243 z"
       fill="#383838"
       id="path50" />
    <path
       d="m 57.676,51.6821 c 0.1219,0.114 0.2814,0.1895 0.4417,0.1494 l 1.4711,-0.9209 c 0.1339,-0.1051 0.1282,-0.3024 0.0608,-0.4858 z"
       fill="#3d3d3d"
       id="path51" />
    <path
       d="m 63.1696,41.4394 4.7747,-2.7566 -0.031,-0.0537 1.7704,-1.0221 0.3694,0.1443 3.7017,-2.1371 0.0597,-0.3922 2.3605,-1.3628 0.3695,0.1443 3.3261,-1.9203 0.0598,-0.3921 1.6094,-0.9292 2.2538,4.0276 c 0.062,0.1073 -0.2856,0.5583 -0.5807,0.7287 -4.404,2.7992 -6.8885,4.2989 -11.4217,6.9162 0,0 -1.5618,1.2593 -2.1639,2.0129 -0.0832,0.1041 -0.1868,0.2489 -0.3046,0.4136 -0.3671,0.5132 -0.8716,1.2186 -1.3214,1.4782 -0.6974,0.4027 -1.1027,0.4279 -1.7654,0.4113 z"
       fill="#775426"
       stroke="#4d3719"
       stroke-width="1.14474"
       id="path52" />
    <path
       d="m 66.7793,34.0625 12.6619,-7.06 1.9195,3.4338 -1.6158,0.9329 -0.4004,-0.198 -3.3261,1.9204 -0.0288,0.4457 -2.3605,1.3629 -0.4004,-0.198 -3.7017,2.1372 -0.0288,0.4457 -0.6437,0.3717 z"
       fill="#775426"
       stroke="#4d3719"
       stroke-width="1.14474"
       id="path53" />
    <path
       d="m 63.3153,35.5621 0.5387,-0.311 -0.1239,-0.2146 1.0193,-0.5885 c 0.2414,-0.1393 0.68,8e-4 0.8039,0.2154 l 0.3252,0.5633 -6.9474,4.0111 0.1402,-0.4386 2.1644,-1.3927 0.0968,-0.6996 1.0215,-0.5898 c -0.0563,-0.2592 0.0419,-0.5249 0.2639,-0.653 0.2219,-0.1281 0.5011,-0.0804 0.6974,0.098 z"
       fill="#505050"
       id="path54" />
    <path
       d="m 61.3295,36.7072 -4.0504,2.3385 -0.1858,-0.3219 -0.7027,0.0838 0.5957,0.9079 0.2229,0.0143 4.0236,-2.323 z"
       fill="#484848"
       id="path55" />
    <path
       d="m 59.3124,38.2295 c 0.171,0.2963 0.0695,0.6751 -0.2268,0.8462 -0.2963,0.1711 -0.6751,0.0695 -0.8462,-0.2267 -0.171,-0.2963 -0.0695,-0.6752 0.2268,-0.8462 0.2963,-0.1711 0.6751,-0.0696 0.8462,0.2267 z"
       fill="#424242"
       id="path56" />
    <path
       fill-rule="evenodd"
       clip-rule="evenodd"
       d="m 58.9626,39.1302 -0.0346,0.1079 6.9474,-4.011 -0.3252,-0.5633 C 65.4263,34.4492 64.9877,34.309 64.7463,34.4484 l -1.0193,0.5885 0.1239,0.2146 -0.5387,0.311 c -0.1962,-0.1784 -0.4755,-0.2262 -0.6974,-0.0981 -0.2219,0.1282 -0.3202,0.3939 -0.2639,0.6531 l -3.2659,1.8856 c -0.1853,-0.1068 -0.421,-0.1146 -0.6195,0 -0.1986,0.1147 -0.3097,0.3227 -0.3099,0.5366 l -0.8765,0.506 -0.1858,-0.3219 -0.7027,0.0838 0.5957,0.9079 0.2229,0.0143 1.198,-0.6917 c 0.1577,0.1163 0.3646,0.1528 0.5554,0.0921 z m 0.43,-0.5393 1.8399,-1.184 -1.8416,1.0633 c 0.0045,0.0403 0.005,0.0807 0.0017,0.1207 z"
       stroke="#333333"
       stroke-width="0.572369"
       id="path57" />
    <path
       d="m 63.3457,36.0435 c 0.1369,0.2371 0.1157,0.5055 -0.0473,0.5996 -0.1629,0.0941 -0.406,-0.0218 -0.5428,-0.2589 -0.1369,-0.237 -0.1157,-0.5054 0.0473,-0.5995 0.1629,-0.0941 0.406,0.0218 0.5428,0.2588 z"
       fill="#484848"
       id="path58" />
    <path
       d="M 77.6988,61.7094 C 72.8876,61.4736 69.1654,60.272 65.7731,58.7118 62.6202,57.2616 59.8846,55.0665 57.1551,52.0125 l 2.2222,-1.4155 c 2.7678,3.4281 5.4593,5.3007 8.3073,6.6535 2.8019,1.331 5.776,2.1372 10.145,2.3328 z"
       stroke="#333333"
       stroke-width="0.572369"
       id="path59" />
    <path
       d="m 51.9517,55.3276 c 3.277,4.3102 6.3504,6.9164 9.9717,8.8312 4.0242,2.1279 8.3015,3.9336 15.3595,4.0788 l 0.5339,-8.677 c -4.369,-0.1957 -7.3431,-1.0019 -10.1451,-2.3328 -2.8422,-1.3501 -5.5286,-3.2179 -8.2905,-6.6329 z"
       stroke="#333333"
       stroke-width="1.14474"
       id="path60" />
    <path
       fill-rule="evenodd"
       clip-rule="evenodd"
       d="m 65.9307,35.1957 -8.5299,4.9248 0.0619,0.1072 -25.6733,15.0014 c -0.2371,0.2515 -0.3209,0.4133 -0.4002,0.7317 l -1.0582,4.7954 0.3944,0.7291 -0.5396,0.3203 3.9288,4.8846 14.0644,-8.9593 0.929,0.0525 2.0726,-1.3039 0.0712,-0.706 14.0315,-8.9383 -2.865,-4.9623 5.5257,-3.1902 z m -25.7759,20.6922 9.8217,-5.8303 10.354,-5.9779 -1.5177,-2.6286 -9.1737,5.2964 c -0.0537,0.031 -0.8407,1.0218 -0.4059,2.0226 l 0.1858,0.3219 -8.8704,5.2643 z"
       stroke="#333333"
       stroke-width="1.14474"
       id="path61" />
    <path
       d="m 40.4012,56.7645 0.9238,-2.1785 10.4713,-3.7925 0.4317,1.1814 -0.9162,0.4574 0.0858,0.2724 -2.1603,1.4618 -9.5336,6.3809 c -0.0598,0.0459 -0.1232,0.0884 -0.1902,0.1272 -0.8296,0.479 -1.892,0.1957 -2.371,-0.6339 -0.4789,-0.8296 -0.1947,-1.8904 0.6349,-2.3693 0.1147,-0.0663 0.2339,-0.1179 0.3553,-0.1555 z"
       fill="#404040"
       id="path62" />
    <path
       d="m 45.5729,55.9967 0.385,0.1712 3.911,-2.5799 -0.8083,-1.2143 -7.2801,2.6296 -1.1849,2.2219 -2.3136,0.829 c -0.0914,0.0231 -0.1526,0.0584 -0.2256,0.1005 -0.5629,0.3251 -0.7558,1.0449 -0.4308,1.6078 0.325,0.563 1.0449,0.7558 1.6078,0.4308 0.0427,-0.0246 0.0832,-0.0516 0.1216,-0.0805 z"
       fill="#474747"
       id="path63" />
    <ellipse
       cx="38.645599"
       cy="59.173901"
       rx="0.86725599"
       ry="0.86723697"
       transform="rotate(-30,38.6456,59.1739)"
       fill="#4d4d4d"
       id="ellipse63" />
    <path
       d="m 51.5587,52.9204 -0.1972,-0.2796 -2.2913,1.3587 0.2776,0.2331 z"
       fill="#4d4d4d"
       id="path64" />
    <ellipse
       cx="50.266201"
       cy="52.536999"
       rx="0.247787"
       ry="0.24778201"
       transform="rotate(-30,50.2662,52.537)"
       fill="#3b3b3b"
       id="ellipse64" />
    <path
       d="m 65.8647,36.1931 c 0.1742,-0.2036 0.2104,-0.5028 0.0688,-0.748 -0.1796,-0.3111 -0.5774,-0.4177 -0.8885,-0.2381 -0.1078,0.0623 -0.191,0.1507 -0.2463,0.2526 l -1.214,2.2357 -0.3385,-0.0907 -0.5528,0.9629 0.2395,0.2909 c 0.255,0.3178 0.5243,0.4126 0.9731,0.2608 z"
       fill="#4d4d4d"
       id="path65" />
    <path
       d="m 65.878,35.4758 c 0.1625,0.2815 0.0661,0.6414 -0.2154,0.8039 -0.2815,0.1625 -0.6414,0.0661 -0.8039,-0.2154 -0.1625,-0.2814 -0.0661,-0.6414 0.2154,-0.8039 0.2815,-0.1625 0.6414,-0.066 0.8039,0.2154 z"
       fill="#424242"
       id="path66" />
    <path
       d="m 62.9503,38.8798 0.6338,-1.1852 -0.3385,-0.0907 -0.5528,0.9629 0.2395,0.2909 c 0.006,0.0075 0.012,0.0148 0.018,0.0221 z"
       fill="#575757"
       id="path67" />
    <path
       d="m 65.8647,36.1931 c 0.1742,-0.2036 0.2104,-0.5028 0.0688,-0.748 -0.1796,-0.3111 -0.5774,-0.4177 -0.8885,-0.2381 -0.1078,0.0623 -0.191,0.1507 -0.2463,0.2526 l -1.214,2.2357 -0.3385,-0.0907 -0.5528,0.9629 0.2395,0.2909 c 0.255,0.3178 0.5243,0.4126 0.9731,0.2608 z"
       stroke="#333333"
       stroke-width="0.572369"
       id="path68" />
    <path
       d="m 102.242,13.1572 0.743,5.4366 1.146,1.9849 0.412,0.1557 0.824,-0.3686 0.91,-0.0963 c 0.912,0.4032 1.468,0.1251 1.825,-0.8034 l -0.377,-0.9626 -3.546,-6.1425 c 0,0 -0.54,-0.5642 -1.334,-0.2668 -0.794,0.2974 -0.603,1.063 -0.603,1.063 z"
       stroke="#333333"
       stroke-width="1.14474"
       id="path69" />
    <path
       d="m 82.543,26.2471 4.9624,-2.8651 1.4247,2.4678 -4.9624,2.865 z"
       stroke="#333333"
       stroke-width="0.572369"
       id="path70" />
    <path
       d="m 41.325,54.586 -0.9238,2.1785 -2.2685,0.7514 c -0.1214,0.0376 -0.2406,0.0892 -0.3553,0.1555 -0.8296,0.4789 -1.1138,1.5397 -0.6349,2.3693 0.479,0.8296 1.5414,1.1129 2.371,0.6339 0.067,-0.0388 0.1304,-0.0813 0.1902,-0.1272 l 9.5336,-6.3809 0.0171,-0.0116 0.0925,0.0777 2.2109,-1.3122 -0.1668,-0.2365 -0.0792,-0.2516 0.9162,-0.4574 -0.4317,-1.1814 z"
       stroke="#333333"
       stroke-width="0.572369"
       id="path71" />
  </g>
  <defs
     id="defs71">
    <clipPath
       id="clip0_619_1191">
      <rect
         width="110"
         height="110"
         fill="#ffffff"
         id="rect71"
         x="0"
         y="0" />
    </clipPath>
  </defs>
</svg>
