<?xml version="1.0" encoding="UTF-8" standalone="no"?>
<!DOCTYPE svg PUBLIC "-//W3C//DTD SVG 1.1//EN" "http://www.w3.org/Graphics/SVG/1.1/DTD/svg11.dtd">
<svg xmlns="http://www.w3.org/2000/svg" version="1.1" viewBox="0.00 0.00 110.00 110.00">
<g stroke-width="2.00" fill="none" stroke-linecap="butt">
<path stroke="#52382c" vector-effect="non-scaling-stroke" d="
  M 54.89 50.29
  A 0.55 0.55 0.0 0 0 55.34 51.02
  Q 55.96 51.09 56.87 50.54
  Q 67.08 44.39 76.96 37.58
  A 0.31 0.31 0.0 0 0 76.85 37.03
  Q 76.02 36.86 74.59 37.65
  C 70.78 39.75 56.14 46.77 54.89 50.29"
/>
<path stroke="#52382c" vector-effect="non-scaling-stroke" d="
  M 9.75 94.80
  L 36.95 65.25
  A 0.46 0.46 0.0 0 0 36.32 64.59
  C 33.50 66.95 29.50 72.57 25.74 72.62
  Q 25.28 72.63 24.87 72.44
  C 23.07 71.62 22.00 72.73 21.30 74.40
  Q 19.72 78.20 16.48 80.70
  C 14.13 82.51 9.74 88.78 6.92 84.43
  A 0.92 0.92 0.0 0 0 5.66 84.15
  L 2.95 85.82
  A 0.78 0.77 -35.1 0 0 2.75 86.96
  L 8.92 94.77
  Q 9.32 95.27 9.75 94.80"
/>
</g>
<path fill="#323232" d="
  M 102.20 18.45
  Q 102.12 18.58 102.00 18.64
  A 0.25 0.25 0.0 0 1 101.73 18.24
  L 104.40 15.32
  Q 104.82 14.86 105.22 15.35
  L 105.42 15.59
  Q 105.93 16.22 105.21 16.59
  Q 103.78 17.32 102.43 18.21
  Q 102.29 18.30 102.20 18.45
  Z"
/>
<path fill="#323232" d="
  M 0.00 86.73
  L 0.00 85.43
  L 4.84 82.02
  Q 5.27 81.72 5.39 81.21
  L 5.62 80.24
  Q 5.76 79.66 6.26 79.34
  C 11.72 75.84 16.62 72.69 22.68 70.29
  Q 23.14 70.11 23.60 70.29
  C 27.92 71.96 31.99 65.68 35.70 61.03
  Q 36.01 60.65 35.95 60.16
  C 35.69 58.17 36.11 56.71 37.95 55.58
  Q 47.24 49.88 56.92 44.90
  Q 57.89 44.40 58.06 43.09
  Q 58.13 42.57 58.64 42.43
  C 64.89 40.85 69.35 37.95 74.84 34.85
  Q 90.16 26.20 106.38 16.77
  A 0.72 0.72 0.0 0 1 107.18 16.83
  Q 108.09 17.52 107.70 18.27
  Q 107.49 18.67 106.74 19.11
  Q 92.89 27.24 78.68 35.37
  A 0.64 0.64 0.0 0 0 78.96 36.57
  Q 79.52 36.61 80.26 36.08
  A 0.47 0.47 0.0 0 1 81.00 36.47
  L 81.00 37.40
  Q 81.00 38.21 80.32 37.76
  L 79.50 37.21
  A 0.25 0.25 0.0 0 0 79.14 37.53
  L 79.38 38.03
  Q 79.61 38.53 79.15 38.83
  L 54.86 54.39
  Q 54.46 54.64 54.59 55.09
  Q 54.79 55.85 54.24 56.24
  Q 51.26 58.32 46.27 60.82
  Q 45.83 61.05 45.44 60.74
  Q 44.91 60.32 44.50 60.51
  C 41.05 62.06 45.03 65.55 43.41 68.45
  Q 43.21 68.80 41.39 70.34
  C 40.35 71.23 39.99 72.58 39.17 73.52
  Q 37.07 75.93 34.83 78.17
  Q 34.48 78.52 33.98 78.54
  Q 31.15 78.60 31.22 75.78
  A 0.42 0.42 0.0 0 0 30.49 75.48
  L 9.14 98.41
  Q 8.76 98.81 8.44 98.36
  L 0.00 86.73
  Z
  M 54.89 50.29
  A 0.55 0.55 0.0 0 0 55.34 51.02
  Q 55.96 51.09 56.87 50.54
  Q 67.08 44.39 76.96 37.58
  A 0.31 0.31 0.0 0 0 76.85 37.03
  Q 76.02 36.86 74.59 37.65
  C 70.78 39.75 56.14 46.77 54.89 50.29
  Z
  M 48.97 57.97
  Q 47.36 58.13 46.06 59.44
  Q 45.60 59.90 46.25 59.85
  Q 48.14 59.73 48.97 57.97
  Q 50.83 57.93 51.96 56.51
  Q 52.33 56.04 51.74 56.16
  Q 49.82 56.56 48.97 57.97
  Z
  M 9.75 94.80
  L 36.95 65.25
  A 0.46 0.46 0.0 0 0 36.32 64.59
  C 33.50 66.95 29.50 72.57 25.74 72.62
  Q 25.28 72.63 24.87 72.44
  C 23.07 71.62 22.00 72.73 21.30 74.40
  Q 19.72 78.20 16.48 80.70
  C 14.13 82.51 9.74 88.78 6.92 84.43
  A 0.92 0.92 0.0 0 0 5.66 84.15
  L 2.95 85.82
  A 0.78 0.77 -35.1 0 0 2.75 86.96
  L 8.92 94.77
  Q 9.32 95.27 9.75 94.80
  Z
  M 40.47 67.82
  L 38.56 67.19
  A 0.48 0.47 82.6 0 0 38.02 67.90
  C 39.95 70.92 42.87 68.64 43.01 65.89
  A 1.35 1.35 0.0 0 0 41.37 64.50
  Q 39.93 64.81 39.71 66.24
  Q 39.64 66.65 40.00 66.86
  L 40.71 67.29
  A 0.29 0.29 0.0 0 1 40.47 67.82
  Z
  M 38.9448 71.8944
  A 1.11 1.11 0.0 0 0 38.8818 70.3259
  L 38.8230 70.2717
  A 1.11 1.11 0.0 0 0 37.2545 70.3347
  L 32.5752 75.4056
  A 1.11 1.11 0.0 0 0 32.6382 76.9741
  L 32.6970 77.0283
  A 1.11 1.11 0.0 0 0 34.2655 76.9653
  L 38.9448 71.8944
  Z"
/>
<path fill="#713d25" d="
  M 54.89 50.29
  C 56.14 46.77 70.78 39.75 74.59 37.65
  Q 76.02 36.86 76.85 37.03
  A 0.31 0.31 0.0 0 1 76.96 37.58
  Q 67.08 44.39 56.87 50.54
  Q 55.96 51.09 55.34 51.02
  A 0.55 0.55 0.0 0 1 54.89 50.29
  Z"
/>
<path fill="#323232" d="
  M 34.72 59.44
  Q 35.56 60.96 34.27 61.87
  Q 33.10 62.70 33.75 61.42
  Q 34.16 60.61 33.55 59.83
  Q 33.16 59.34 33.73 59.09
  Q 34.02 58.96 34.30 59.06
  Q 34.55 59.14 34.72 59.44
  Z"
/>
<path fill="#713d25" d="
  M 36.95 65.25
  L 9.75 94.80
  Q 9.32 95.27 8.92 94.77
  L 2.75 86.96
  A 0.78 0.77 -35.1 0 1 2.95 85.82
  L 5.66 84.15
  A 0.92 0.92 0.0 0 1 6.92 84.43
  C 9.74 88.78 14.13 82.51 16.48 80.70
  Q 19.72 78.20 21.30 74.40
  C 22.00 72.73 23.07 71.62 24.87 72.44
  Q 25.28 72.63 25.74 72.62
  C 29.50 72.57 33.50 66.95 36.32 64.59
  A 0.46 0.46 0.0 0 1 36.95 65.25
  Z"
/>
</svg>
