<?xml version="1.0" encoding="UTF-8" standalone="no"?>
<svg
   version="1.1"
   width="228.69505"
   height="22.026863"
   style="clip-rule:evenodd;fill-rule:evenodd;image-rendering:optimizeQuality;shape-rendering:geometricPrecision;text-rendering:geometricPrecision"
   id="svg66"
   xml:space="preserve"
   sodipodi:docname="blr_world.svg"
   inkscape:version="1.3 (0e150ed6c4, 2023-07-21)"
   xmlns:inkscape="http://www.inkscape.org/namespaces/inkscape"
   xmlns:sodipodi="http://sodipodi.sourceforge.net/DTD/sodipodi-0.dtd"
   xmlns="http://www.w3.org/2000/svg"
   xmlns:svg="http://www.w3.org/2000/svg"><sodipodi:namedview
     id="namedview1"
     pagecolor="#ffffff"
     bordercolor="#000000"
     borderopacity="0.25"
     inkscape:showpageshadow="2"
     inkscape:pageopacity="0.0"
     inkscape:pagecheckerboard="0"
     inkscape:deskcolor="#d1d1d1"
     inkscape:zoom="17.351854"
     inkscape:cx="78.867651"
     inkscape:cy="12.995729"
     inkscape:window-width="1920"
     inkscape:window-height="1017"
     inkscape:window-x="-8"
     inkscape:window-y="-8"
     inkscape:window-maximized="1"
     inkscape:current-layer="svg66" /><defs
     id="defs70" /><g
     id="g4" /><g
     id="g20"
     transform="matrix(0,0.14231603,-0.14231603,0,241.72418,-108.87182)" /><rect
     style="fill:#080707;fill-opacity:1;stroke:#171717;stroke-width:0.292347;stroke-opacity:0"
     id="rect6"
     width="67.405243"
     height="8.3464947"
     x="159.92911"
     y="2.9692786"
     rx="4.3657832"
     ry="1.7144244" /><g
     id="g16"
     transform="matrix(0.75049168,0,0,1.0231598,0.11637321,-31.293738)"
     style="clip-rule:evenodd;fill-rule:evenodd;image-rendering:optimizeQuality;shape-rendering:geometricPrecision;text-rendering:geometricPrecision"><rect
       style="fill:#3e3b38;fill-opacity:1;stroke:#080707;stroke-width:3.50001;stroke-linecap:round;stroke-linejoin:round;stroke-dasharray:none;stroke-opacity:1"
       id="rect16"
       width="17.237471"
       height="4.7168527"
       x="209.70758"
       y="35.215698" /><rect
       style="fill:#793a1d;fill-opacity:1;stroke:none;stroke-width:3.50001;stroke-linecap:round;stroke-linejoin:round;stroke-dasharray:none;stroke-opacity:1"
       id="rect15"
       width="86.121323"
       height="7.6537609"
       x="124.96656"
       y="33.747246" /><rect
       style="fill:#79391d;fill-opacity:1;stroke:#251109;stroke-width:3.5;stroke-linecap:round;stroke-linejoin:round;stroke-dasharray:none;stroke-opacity:1"
       id="rect2"
       width="19.924244"
       height="8.1312447"
       x="43.264477"
       y="33.508503" /><path
       id="rect1"
       style="fill:#79391d;stroke:#251109;stroke-width:3.5;stroke-linecap:round;stroke-linejoin:round"
       d="M 4.1136158,32.208382 H 43.264476 V 42.939869 H 4.1136158 A 2.3636085,2.3636085 0 0 1 1.7500073,40.576261 V 34.57199 a 2.3636085,2.3636085 0 0 1 2.3636085,-2.363608 z" /><rect
       style="fill:#716d69;fill-opacity:1;stroke:#181716;stroke-width:3.5;stroke-linecap:round;stroke-linejoin:round;stroke-dasharray:none;stroke-opacity:1"
       id="rect3"
       width="5.6704764"
       height="8.1312447"
       x="63.188713"
       y="33.508503" /><path
       style="fill:none;fill-opacity:1;stroke:#44403d;stroke-width:2.5;stroke-linecap:butt;stroke-linejoin:round;stroke-dasharray:none;stroke-opacity:1"
       d="m 195.81496,35.284437 v 4.579377"
       id="path15" /><path
       style="fill:none;fill-opacity:1;stroke:#44403d;stroke-width:2.5;stroke-linecap:butt;stroke-linejoin:round;stroke-dasharray:none;stroke-opacity:1"
       d="m 135.38703,35.284437 v 4.579377"
       id="path12" /><path
       style="fill:none;fill-opacity:1;stroke:#524e4b;stroke-width:2.5;stroke-linecap:butt;stroke-linejoin:round;stroke-dasharray:none;stroke-opacity:1"
       d="m 131.54827,35.284437 v 4.579377"
       id="path13" /><rect
       style="fill:none;fill-opacity:1;stroke:#251209;stroke-width:3.50001;stroke-linecap:round;stroke-linejoin:round;stroke-dasharray:none;stroke-opacity:1"
       id="rect12"
       width="86.121323"
       height="7.6537609"
       x="124.96656"
       y="33.747246" /><rect
       style="fill:#544e4e;fill-opacity:1;stroke:none;stroke-width:3.49999;stroke-linecap:round;stroke-linejoin:round;stroke-dasharray:none;stroke-opacity:1"
       id="rect11"
       width="60.653576"
       height="10.731603"
       x="68.184006"
       y="32.208324" /><rect
       style="fill:#716d69;fill-opacity:1;stroke:#181616;stroke-width:1.5;stroke-linecap:round;stroke-linejoin:round;stroke-dasharray:none;stroke-opacity:1"
       id="rect5"
       width="15.508925"
       height="5.7844334"
       x="78.380463"
       y="37.466892" /><path
       d="m 119.72492,36.265679 -6.89633,-1.319546 -0.14203,-2.62689 h -9.10255 v 10.509765 h 8.8799 l 0.23885,-2.404234 7.02219,-1.319545 z"
       style="fill:#4d4946;fill-opacity:1;stroke:#181616;stroke-width:1.49999;stroke-linecap:round;stroke-linejoin:round"
       id="path8" /><rect
       style="fill:none;fill-opacity:1;stroke:#181616;stroke-width:3.49999;stroke-linecap:round;stroke-linejoin:round;stroke-dasharray:none;stroke-opacity:1"
       id="rect4"
       width="60.653576"
       height="10.731603"
       x="68.184006"
       y="32.208324" /></g><rect
     style="fill:#3e3b38;fill-opacity:1;stroke:#171717;stroke-width:0.185926;stroke-opacity:0"
     id="rect7"
     width="65.961418"
     height="2.1121302"
     x="159.95909"
     y="6.0346227"
     rx="4.4858818"
     ry="0.67487025" /><g
     stroke-width="2"
     fill="none"
     stroke-linecap="butt"
     id="g2"
     transform="translate(205,-23.097263)"><path
       stroke="#52382c"
       vector-effect="non-scaling-stroke"
       d="m 54.89,50.29 a 0.55,0.55 0 0 0 0.45,0.73 q 0.62,0.07 1.53,-0.48 10.21,-6.15 20.09,-12.96 a 0.31,0.31 0 0 0 -0.11,-0.55 q -0.83,-0.17 -2.26,0.62 c -3.81,2.1 -18.45,9.12 -19.7,12.64"
       id="path1" /><path
       stroke="#52382c"
       vector-effect="non-scaling-stroke"
       d="m 9.75,94.8 27.2,-29.55 a 0.46,0.46 0 0 0 -0.63,-0.66 c -2.82,2.36 -6.82,7.98 -10.58,8.03 q -0.46,0.01 -0.87,-0.18 C 23.07,71.62 22,72.73 21.3,74.4 q -1.58,3.8 -4.82,6.3 c -2.35,1.81 -6.74,8.08 -9.56,3.73 A 0.92,0.92 0 0 0 5.66,84.15 l -2.71,1.67 a 0.78,0.77 -35.1 0 0 -0.2,1.14 l 6.17,7.81 q 0.4,0.5 0.83,0.03"
       id="path2" /></g><path
     fill="#323232"
     d="m 307.2,-4.647263 q -0.08,0.13 -0.2,0.19 a 0.25,0.25 0 0 1 -0.27,-0.4 l 2.67,-2.92 q 0.42,-0.46 0.82,0.03 l 0.2,0.24 q 0.51,0.63 -0.21,1 -1.43,0.73 -2.78,1.62 -0.14,0.09 -0.23,0.24 z"
     id="path3" /><path
     fill="#323232"
     d="m 205,63.632737 v -1.3 l 4.84,-3.41 q 0.43,-0.3 0.55,-0.81 l 0.23,-0.97 q 0.14,-0.58 0.64,-0.9 c 5.46,-3.5 10.36,-6.65 16.42,-9.05 q 0.46,-0.18 0.92,0 c 4.32,1.67 8.39,-4.61 12.1,-9.26 q 0.31,-0.38 0.25,-0.87 c -0.26,-1.99 0.16,-3.45 2,-4.58 q 9.29,-5.7 18.97,-10.68 0.97,-0.5 1.14,-1.81 0.07,-0.52 0.58,-0.66 c 6.25,-1.58 10.71,-4.48 16.2,-7.58 q 15.32,-8.65 31.54,-18.08 a 0.72,0.72 0 0 1 0.8,0.06 q 0.91,0.69 0.52,1.44 -0.21,0.4 -0.96,0.84 -13.85,8.13 -28.06,16.26 a 0.64,0.64 0 0 0 0.28,1.2 q 0.56,0.04 1.3,-0.49 a 0.47,0.47 0 0 1 0.74,0.39 v 0.93 q 0,0.81 -0.68,0.36 l -0.82,-0.55 a 0.25,0.25 0 0 0 -0.36,0.32 l 0.24,0.5 q 0.23,0.5 -0.23,0.8 l -24.29,15.56 q -0.4,0.25 -0.27,0.7 0.2,0.76 -0.35,1.15 -2.98,2.08 -7.97,4.58 -0.44,0.23 -0.83,-0.08 -0.53,-0.42 -0.94,-0.23 c -3.45,1.55 0.53,5.04 -1.09,7.94 q -0.2,0.35 -2.02,1.89 c -1.04,0.89 -1.4,2.24 -2.22,3.18 q -2.1,2.41 -4.34,4.65 -0.35,0.35 -0.85,0.37 -2.83,0.06 -2.76,-2.76 a 0.42,0.42 0 0 0 -0.73,-0.3 l -21.35,22.93 q -0.38,0.4 -0.7,-0.05 z m 54.89,-36.44 a 0.55,0.55 0 0 0 0.45,0.73 q 0.62,0.07 1.53,-0.48 10.21,-6.15 20.09,-12.96 a 0.31,0.31 0 0 0 -0.11,-0.55 q -0.83,-0.17 -2.26,0.62 c -3.81,2.1 -18.45,9.12 -19.7,12.64 z m -5.92,7.68 q -1.61,0.16 -2.91,1.47 -0.46,0.46 0.19,0.41 1.89,-0.12 2.72,-1.88 1.86,-0.04 2.99,-1.46 0.37,-0.47 -0.22,-0.35 -1.92,0.4 -2.77,1.81 z m -39.22,36.83 27.2,-29.55 a 0.46,0.46 0 0 0 -0.63,-0.66 c -2.82,2.36 -6.82,7.98 -10.58,8.03 q -0.46,0.01 -0.87,-0.18 c -1.8,-0.82 -2.87,0.29 -3.57,1.96 q -1.58,3.8 -4.82,6.3 c -2.35,1.81 -6.74,8.08 -9.56,3.73 a 0.92,0.92 0 0 0 -1.26,-0.28 l -2.71,1.67 a 0.77,0.78 54.9 0 0 -0.2,1.14 l 6.17,7.81 q 0.4,0.5 0.83,0.03 z m 30.72,-26.98 -1.91,-0.63 a 0.48,0.47 82.6 0 0 -0.54,0.71 c 1.93,3.02 4.85,0.74 4.99,-2.01 a 1.35,1.35 0 0 0 -1.64,-1.39 q -1.44,0.31 -1.66,1.74 -0.07,0.41 0.29,0.62 l 0.71,0.43 a 0.29090376,0.29090376 0 0 1 -0.24,0.53 z m -1.5252,4.0744 a 1.11,1.11 0 0 0 -0.063,-1.5685 l -0.0588,-0.0542 a 1.11,1.11 0 0 0 -1.5685,0.063 l -4.6793,5.0709 a 1.11,1.11 0 0 0 0.063,1.5685 l 0.0588,0.0542 a 1.11,1.11 0 0 0 1.5685,-0.063 z"
     id="path4" /><path
     fill="#713d25"
     d="m 259.89,27.192737 c 1.25,-3.52 15.89,-10.54 19.7,-12.64 q 1.43,-0.79 2.26,-0.62 a 0.31,0.31 0 0 1 0.11,0.55 q -9.88,6.81 -20.09,12.96 -0.91,0.55 -1.53,0.48 a 0.55,0.55 0 0 1 -0.45,-0.73 z"
     id="path5" /><path
     fill="#323232"
     d="m 239.72,36.342737 q 0.84,1.52 -0.45,2.43 -1.17,0.83 -0.52,-0.45 0.41,-0.81 -0.2,-1.59 -0.39,-0.49 0.18,-0.74 0.29,-0.13 0.57,-0.03 0.25,0.08 0.42,0.38 z"
     id="path6" /><path
     fill="#713d25"
     d="m 241.95,42.152737 -27.2,29.55 q -0.43,0.47 -0.83,-0.03 l -6.17,-7.81 a 0.77,0.78 54.9 0 1 0.2,-1.14 l 2.71,-1.67 a 0.92,0.92 0 0 1 1.26,0.28 c 2.82,4.35 7.21,-1.92 9.56,-3.73 q 3.24,-2.5 4.82,-6.3 c 0.7,-1.67 1.77,-2.78 3.57,-1.96 q 0.41,0.19 0.87,0.18 c 3.76,-0.05 7.76,-5.67 10.58,-8.03 a 0.46,0.46 0 0 1 0.63,0.66 z"
     id="path7" /><path
     style="fill:#323232;fill-opacity:1;stroke:#171717;stroke-width:0.0265956;stroke-opacity:0"
     d="M 52.522905,7.1725824 V 3.4383077 h 12.436574 12.436574 v 3.7342747 3.7342746 h -3.12577 -3.12577 V 8.9152439 c 0,-1.7703229 -0.02956,-2.0284949 -0.266023,-2.3235487 -0.257961,-0.3218769 -0.443371,-0.3319355 -6.118528,-0.3319355 -5.675157,0 -5.860567,0.01006 -6.118529,0.3319355 -0.236464,0.2950538 -0.266022,0.5532258 -0.266022,2.3235487 v 1.9916131 h -2.926253 -2.926253 z"
     id="path10" /><path
     style="fill:#323232;fill-opacity:1;stroke:#171717;stroke-width:0.00940296;stroke-opacity:0"
     d="M 59.511054,9.346573 V 7.8209329 h 5.243473 5.243472 v 1.5256401 1.525641 h -5.243472 -5.243473 z"
     id="path14" /><path
     style="fill:#323232;fill-opacity:1;stroke:#171717;stroke-width:0.00940296;stroke-opacity:0"
     d="M 78.415772,7.1461305 V 3.4200479 h 2.885987 2.885985 l 0.02913,0.2200443 c 0.01599,0.1210244 0.02946,0.3916788 0.02987,0.6014542 7.59e-4,0.4142442 0.09417,0.6840675 0.292014,0.8435344 0.0594,0.0479 1.134411,0.3545716 2.388848,0.6814925 1.254436,0.3269208 2.328414,0.6088909 2.386603,0.6266002 0.103599,0.031525 0.105811,0.049762 0.105811,0.8718129 v 0.8396142 l -0.223372,0.059712 c -0.122857,0.032841 -1.217994,0.3134967 -2.43363,0.6236778 -1.448358,0.36956 -2.25078,0.600074 -2.327819,0.6687154 -0.180458,0.1607784 -0.277056,0.461586 -0.308537,0.9607492 l -0.02864,0.454759 h -2.841104 -2.841101 z"
     id="path16" /><path
     style="fill:#323232;fill-opacity:1;stroke:#171717;stroke-width:0.00940296;stroke-opacity:0"
     d="m 85.187614,10.784454 c 0,-0.04855 0.0084,-0.08828 0.01877,-0.08828 0.09051,0 4.880821,-1.2527012 4.983392,-1.3031929 0.07417,-0.036519 0.174624,-0.1477183 0.2232,-0.2471096 0.08103,-0.1657306 0.08833,-0.320805 0.08849,-1.8706314 C 90.501657,5.4595478 90.486202,5.3279224 90.254262,5.1715424 90.196326,5.132483 89.075232,4.8195628 87.762917,4.4761639 86.450602,4.1327648 85.367656,3.8402775 85.35637,3.826192 85.34511,3.8121065 85.328953,3.7215633 85.320548,3.6249847 l -0.01534,-0.1755975 h 5.102398 5.10239 V 7.1461305 10.842874 L 90.34882,10.8578 c -4.568374,0.01322 -5.161174,0.0048 -5.161174,-0.07335 z"
     id="path17" /><rect
     style="fill:#242424;fill-opacity:1;stroke:#171717;stroke-width:0.138256;stroke-opacity:0"
     id="rect18"
     width="14.764956"
     height="9.4225893"
     x="7.8549414"
     y="0.27690846"
     rx="1.3797207"
     ry="1.213274" /><rect
     style="clip-rule:evenodd;fill:#323232;fill-opacity:1;fill-rule:evenodd;stroke:#171717;stroke-width:0.138256;stroke-opacity:0;image-rendering:optimizeQuality;shape-rendering:geometricPrecision;text-rendering:geometricPrecision"
     id="rect17"
     width="12.848892"
     height="6.7505121"
     x="8.7707195"
     y="1.471712"
     rx="1.3797207"
     ry="1.213274" /><ellipse
     style="fill:#080707;fill-opacity:1;stroke:#171717;stroke-width:0.188219;stroke-opacity:0"
     id="path18"
     cx="227.00743"
     cy="7.1462102"
     rx="1.0327438"
     ry="2.9921885" /><ellipse
     style="fill:#080707;fill-opacity:1;stroke:#171717;stroke-width:0.286119;stroke-opacity:0"
     id="path19"
     cx="218.34164"
     cy="3.1480784"
     rx="7.0129781"
     ry="1.7978276" /><rect
     style="fill:#323232;fill-opacity:1;stroke:#171717;stroke-width:0.179;stroke-opacity:0"
     id="rect19"
     width="18.384203"
     height="6.0512266"
     x="56.074699"
     y="4.898612"
     rx="1.9953973"
     ry="1.40625" /><rect
     style="fill:#323232;fill-opacity:1;stroke:#171717;stroke-width:0.186934;stroke-opacity:0"
     id="rect20"
     width="12.901349"
     height="7.4840608"
     x="80.859879"
     y="3.4618106"
     rx="1.994171"
     ry="1.5346127" /></svg>
