<?xml version="1.0" encoding="UTF-8" standalone="no"?>
<svg
   width="120"
   height="120"
   viewBox="0 0 120 120"
   fill="none"
   version="1.1"
   id="svg45"
   sodipodi:docname="dual_peacemaker.svg"
   inkscape:version="1.3.2 (091e20e, 2023-11-25, custom)"
   xml:space="preserve"
   xmlns:inkscape="http://www.inkscape.org/namespaces/inkscape"
   xmlns:sodipodi="http://sodipodi.sourceforge.net/DTD/sodipodi-0.dtd"
   xmlns="http://www.w3.org/2000/svg"
   xmlns:svg="http://www.w3.org/2000/svg"><sodipodi:namedview
     id="namedview47"
     pagecolor="#505050"
     bordercolor="#ffffff"
     borderopacity="1"
     inkscape:pageshadow="0"
     inkscape:pageopacity="0"
     inkscape:pagecheckerboard="1"
     showgrid="false"
     inkscape:zoom="2.7995"
     inkscape:cx="-8.9301661"
     inkscape:cy="83.050545"
     inkscape:window-width="1920"
     inkscape:window-height="1009"
     inkscape:window-x="-8"
     inkscape:window-y="-8"
     inkscape:window-maximized="1"
     inkscape:current-layer="svg45"
     inkscape:showpageshadow="2"
     inkscape:deskcolor="#d1d1d1" /><defs
     id="defs43"><clipPath
       id="clip0_619_1225"><rect
         width="110"
         height="110"
         fill="#ffffff"
         transform="translate(0.0859375)"
         id="rect40"
         x="0"
         y="0" /></clipPath></defs><g
     id="g1"
     transform="matrix(0.34626887,0.02607129,-0.02607129,0.34626887,-2.4749041,-9.9687529)"><g
       stroke-width="2"
       fill="none"
       stroke-linecap="butt"
       id="g7"><path
         stroke="#999999"
         vector-effect="non-scaling-stroke"
         d="m 281.34,35.62 a 0.5,0.5 0 0 1 0.7,0.21 l 1.13,2.25 a 0.5,0.5 0 0 0 0.7,0.2 l 8.36,-4.85 a 0.5,0.5 0 0 0 0.18,-0.68 l -5.46,-9.33 a 0.5,0.5 0 0 0 -0.68,-0.18 l -98.19,56.7 a 0.5,0.5 0 0 0 -0.18,0.68 l 3.6,6.3 a 0.5,0.5 0 0 0 0.68,0.19 l 89.16,-51.49"
         id="path1" /><path
         stroke="#999999"
         vector-effect="non-scaling-stroke"
         d="m 278.944,46.8119 a 0.29,0.29 0 0 0 -0.3962,-0.1061 l -82.4456,47.6 a 0.29,0.29 0 0 0 -0.1062,0.3961 l 3.56,6.1662 a 0.29,0.29 0 0 0 0.3962,0.1061 l 82.4456,-47.6 a 0.29,0.29 0 0 0 0.1062,-0.3961 l -3.56,-6.1662"
         id="path2-2" /><path
         stroke="#999999"
         vector-effect="non-scaling-stroke"
         d="m 106.44,177.3 c -2.76,2.08 -18.67,13.08 -13.71,17.77 q 0.41,0.39 0.9,0.11 l 11.29,-6.51 a 0.67,0.67 0 0 1 0.91,0.25 l 10.62,18.38 q 0.29,0.49 0.72,0.12 l 74,-63.26 q 0.39,-0.34 0.22,-0.84 -2.49,-7.15 -5.01,-14.31 c -1.3,-3.7 -0.76,-6.59 -0.31,-10.33 a 1.63,1.6 33.9 0 0 -0.2,-0.98 L 168.99,88.5 q -0.26,-0.44 -0.71,-0.22 L 153,95.71 q -0.48,0.23 -0.21,0.69 l 28.82,50.03 a 0.59,0.59 0 0 1 -0.22,0.8 l -64.44,37.2 a 0.64,0.64 0 0 1 -0.87,-0.23 L 88.59,136.6 a 0.43,0.43 0 0 0 -0.74,-0.01 c -6.58,11.2 -6.28,27.04 5.57,34.73 3.57,2.31 8.54,3.6 12.91,5.22 q 0.75,0.28 0.11,0.76"
         id="path3" /><path
         stroke="#999999"
         vector-effect="non-scaling-stroke"
         d="m 123.87,193 a 5.09,5.09 0 0 0 -5.09,-5.09 5.09,5.09 0 0 0 -5.09,5.09 5.09,5.09 0 0 0 5.09,5.09 5.09,5.09 0 0 0 5.09,-5.09"
         id="path4-1" /><path
         stroke="#999999"
         vector-effect="non-scaling-stroke"
         d="m 128.81,140.44 c -6.1,-1.8 -11.55,-12.45 -4.74,-16.36 q 8.03,-4.62 16.1,-9.25 0.46,-0.26 0.19,-0.72 l -3.91,-6.79 q -0.24,-0.41 -0.65,-0.17 -8.46,4.93 -17.65,8.22 c -5.7,2.04 -9.81,4.57 -14.72,7.48 q -0.57,0.33 -0.24,0.91 l 19.52,33.79 q 0.26,0.46 0.73,0.2 c 5.36,-2.88 9.57,-5.35 14.6,-9.58 q 7.09,-5.98 15.23,-10.64 a 0.57,0.56 59.9 0 0 0.2,-0.78 l -3.43,-5.8 a 0.53,0.53 0 0 0 -0.73,-0.19 c -4.06,2.33 -16.41,10.88 -20.5,9.68"
         id="path5" /><path
         stroke="#999999"
         vector-effect="non-scaling-stroke"
         d="m 84.98,222.35 -5.64,-9.88 q -0.37,-0.65 -0.94,-0.17 c -13.69,11.59 -15.92,27.06 -14.79,43.89 1.55,22.95 7.03,45.51 10.13,68.28 q 0.07,0.5 0.51,0.25 l 52.51,-30.5 q 0.55,-0.32 0.09,-0.75 c -17.48,-16.59 -38.83,-41.23 -23.12,-66.5 q 0.3,-0.48 0.02,-0.98 l -5.67,-9.77 q -0.29,-0.49 -0.78,-0.2 l -11.41,6.58 q -0.58,0.33 -0.91,-0.25"
         id="path6-9" /><path
         stroke="#999999"
         vector-effect="non-scaling-stroke"
         d="m 93.85,272.45 a 8.12,8.12 0 0 0 -8.12,-8.12 8.12,8.12 0 0 0 -8.12,8.12 8.12,8.12 0 0 0 8.12,8.12 8.12,8.12 0 0 0 8.12,-8.12"
         id="path7" /></g><path
       fill="#323232"
       d="M 261.73,27.31 259.28,23 a 0.79,0.78 36.3 0 1 -0.09,-0.55 c 0.7,-3.55 5.68,-5.58 8.52,-7.22 4.2,-2.42 8.46,-1.47 11.89,1.56 a 1.12,1.12 0 0 0 1.31,0.13 l 8.19,-4.82 a 0.63,0.62 -30.1 0 1 0.85,0.22 l 13.71,23.29 a 0.64,0.64 0 0 1 -0.23,0.87 l -15.35,8.76 q -0.47,0.27 -0.19,0.73 l 5.77,9.62 a 0.62,0.61 59.8 0 1 -0.22,0.86 l -96.33,55.64 a 0.56,0.55 59.7 0 1 -0.75,-0.2 l -19.6,-34.11 q -0.35,-0.6 0.25,-0.95 l 84.51,-48.74 q 0.49,-0.29 0.21,-0.78 z m 19.61,8.31 a 0.5,0.5 0 0 1 0.7,0.21 l 1.13,2.25 a 0.5,0.5 0 0 0 0.7,0.2 l 8.36,-4.85 a 0.5,0.5 0 0 0 0.18,-0.68 l -5.46,-9.33 a 0.5,0.5 0 0 0 -0.68,-0.18 l -98.19,56.7 a 0.5,0.5 0 0 0 -0.18,0.68 l 3.6,6.3 a 0.5,0.5 0 0 0 0.68,0.19 z m -2.396,11.1919 a 0.29,0.29 0 0 0 -0.3962,-0.1061 l -82.4456,47.6 a 0.29,0.29 0 0 0 -0.1062,0.3961 l 3.56,6.1662 a 0.29,0.29 0 0 0 0.3962,0.1061 l 82.4456,-47.6 a 0.29,0.29 0 0 0 0.1062,-0.3961 z"
       id="path8-5" /><path
       fill="#ffffff"
       d="m 281.34,35.62 -89.16,51.49 a 0.5,0.5 0 0 1 -0.68,-0.19 l -3.6,-6.3 a 0.5,0.5 0 0 1 0.18,-0.68 l 98.19,-56.7 a 0.5,0.5 0 0 1 0.68,0.18 l 5.46,9.33 a 0.5,0.5 0 0 1 -0.18,0.68 l -8.36,4.85 a 0.5,0.5 0 0 1 -0.7,-0.2 l -1.13,-2.25 a 0.5,0.5 0 0 0 -0.7,-0.21 z"
       id="path9" /><rect
       fill="#ffffff"
       x="-47.889999"
       y="-3.8499999"
       transform="rotate(-30,257.41232,-409.52658)"
       width="95.779999"
       height="7.6999998"
       rx="0.28999999"
       id="rect9"
       ry="0.28999999" /><path
       fill="#323232"
       d="m 119.09,172.98 a 0.68,0.67 59.8 0 0 0.92,0.25 l 50.28,-29.01 a 0.54,0.54 0 0 0 0.2,-0.74 L 141.3,92.96 a 0.62,0.61 -27.9 0 1 0.27,-0.86 l 29.9,-14.44 q 0.59,-0.29 0.91,0.28 l 21.93,37.98 a 1.45,1.4 34.6 0 1 0.18,0.89 c -0.41,3.65 -1.25,7.12 0.05,10.71 q 3.33,9.17 6.37,18.42 0.17,0.51 -0.23,0.85 -16.29,13.95 -32.53,27.81 c -10.75,9.17 7.38,18.2 5.83,29.63 -1.36,10.11 -10.45,15.83 -18.91,21.34 -15.4,10.01 -21.71,-7.49 -36.45,-2.34 q -0.48,0.17 -0.93,-0.07 -2.16,-1.13 -2.93,-2.45 -5.98,-10.34 -11.96,-20.7 -0.29,-0.49 -0.78,-0.21 l -11.36,6.61 a 0.83,0.83 0 0 1 -1.13,-0.29 q -2.66,-4.43 -5.08,-8.74 c -3.12,-5.57 1.6,-13.59 5.84,-17.09 a 0.85,0.85 0 0 0 -0.09,-1.38 q -10.19,-6.27 -13.67,-17.73 -0.14,-0.46 -0.57,-0.66 c -2.94,-1.38 -6.38,-1.42 -9.35,-2.31 -8.06,-2.43 -9.8,-7.46 -19.74,-5.88 q -0.59,0.1 -0.55,-0.49 0.5,-8 7.03,-8.86 c 7.74,-1.02 15.6,5.42 22.78,-0.56 a 1.65,1.6 80.2 0 0 0.52,-0.76 q 3.66,-11.3 12.6,-19.11 0.47,-0.42 0.79,0.13 z m -12.65,4.32 c -2.76,2.08 -18.67,13.08 -13.71,17.77 q 0.41,0.39 0.9,0.11 l 11.29,-6.51 a 0.67,0.67 0 0 1 0.91,0.25 l 10.62,18.38 q 0.29,0.49 0.72,0.12 l 74,-63.26 q 0.39,-0.34 0.22,-0.84 -2.49,-7.15 -5.01,-14.31 c -1.3,-3.7 -0.76,-6.59 -0.31,-10.33 a 1.63,1.6 33.9 0 0 -0.2,-0.98 L 168.99,88.5 q -0.26,-0.44 -0.71,-0.22 L 153,95.71 q -0.48,0.23 -0.21,0.69 l 28.82,50.03 a 0.59,0.59 0 0 1 -0.22,0.8 l -64.44,37.2 a 0.64,0.64 0 0 1 -0.87,-0.23 L 88.59,136.6 a 0.43,0.43 0 0 0 -0.74,-0.01 c -6.58,11.2 -6.28,27.04 5.57,34.73 3.57,2.31 8.54,3.6 12.91,5.22 q 0.75,0.28 0.11,0.76 z m 61.47,29.54 c 2.81,-7.91 -5.14,-19.45 -13.98,-18.29 -4.17,0.56 -9.95,6.71 -13.11,9.49 a 1.74,1.74 0 0 0 -0.56,1.67 q 2.36,11.37 13.61,14.27 0.48,0.13 0.68,0.58 0.63,1.46 -0.71,2.44 -0.43,0.31 -0.96,0.3 c -8.42,-0.25 -14.84,-5.91 -18.2,-13.3 a 0.53,0.53 0 0 0 -0.96,-0.01 c -1.17,2.48 -1.82,4.92 -1.01,7.67 1.97,6.7 9.34,13.67 16.87,10.81 5.61,-2.14 16.32,-10 18.33,-15.63 z"
       id="path10-8" /><path
       fill="#ffffff"
       d="m 106.33,176.54 c -4.37,-1.62 -9.34,-2.91 -12.91,-5.22 -11.85,-7.69 -12.15,-23.53 -5.57,-34.73 a 0.43,0.43 0 0 1 0.74,0.01 l 27.49,47.6 a 0.64,0.64 0 0 0 0.87,0.23 l 64.44,-37.2 a 0.59,0.59 0 0 0 0.22,-0.8 L 152.79,96.4 q -0.27,-0.46 0.21,-0.69 l 15.28,-7.43 q 0.45,-0.22 0.71,0.22 l 16.88,29.2 a 1.63,1.6 33.9 0 1 0.2,0.98 c -0.45,3.74 -0.99,6.63 0.31,10.33 q 2.52,7.16 5.01,14.31 0.17,0.5 -0.22,0.84 l -74,63.26 q -0.43,0.37 -0.72,-0.12 l -10.62,-18.38 a 0.67,0.67 0 0 0 -0.91,-0.25 l -11.29,6.51 q -0.49,0.28 -0.9,-0.11 c -4.96,-4.69 10.95,-15.69 13.71,-17.77 q 0.64,-0.48 -0.11,-0.76 z M 123.87,193 a 5.09,5.09 0 0 0 -5.09,-5.09 5.09,5.09 0 0 0 -5.09,5.09 5.09,5.09 0 0 0 5.09,5.09 5.09,5.09 0 0 0 5.09,-5.09 z"
       id="path11" /><path
       fill="#323232"
       d="m 129.78,131.7 a 0.94,0.93 -33.1 0 0 1.21,0.25 l 21.3,-12.37 q 0.53,-0.31 0.84,0.23 l 11.48,19.84 a 0.65,0.65 0 0 1 -0.26,0.9 q -11.75,6.33 -22.31,14.74 c -0.94,0.75 -1.54,1.99 -2.65,2.66 q -9.26,5.56 -18.94,11.04 a 0.54,0.54 0 0 1 -0.73,-0.2 L 92,120.73 q -0.36,-0.61 0.26,-0.96 9.14,-5.25 18.22,-10.45 0.93,-0.53 2.15,-0.87 c 9.05,-2.48 18.16,-7.42 26,-12.28 a 0.72,0.72 0 0 1 1.01,0.25 l 11.95,20.73 q 0.24,0.42 -0.18,0.67 -10.54,6.05 -21.1,11.98 -1.37,0.78 -0.53,1.9 z m -0.97,8.74 c -6.1,-1.8 -11.55,-12.45 -4.74,-16.36 q 8.03,-4.62 16.1,-9.25 0.46,-0.26 0.19,-0.72 l -3.91,-6.79 q -0.24,-0.41 -0.65,-0.17 -8.46,4.93 -17.65,8.22 c -5.7,2.04 -9.81,4.57 -14.72,7.48 q -0.57,0.33 -0.24,0.91 l 19.52,33.79 q 0.26,0.46 0.73,0.2 c 5.36,-2.88 9.57,-5.35 14.6,-9.58 q 7.09,-5.98 15.23,-10.64 a 0.57,0.56 59.9 0 0 0.2,-0.78 l -3.43,-5.8 a 0.53,0.53 0 0 0 -0.73,-0.19 c -4.06,2.33 -16.41,10.88 -20.5,9.68 z"
       id="path12-7" /><path
       fill="#ffffff"
       d="m 128.81,140.44 c 4.09,1.2 16.44,-7.35 20.5,-9.68 a 0.53,0.53 0 0 1 0.73,0.19 l 3.43,5.8 a 0.57,0.56 59.9 0 1 -0.2,0.78 q -8.14,4.66 -15.23,10.64 c -5.03,4.23 -9.24,6.7 -14.6,9.58 q -0.47,0.26 -0.73,-0.2 l -19.52,-33.79 q -0.33,-0.58 0.24,-0.91 c 4.91,-2.91 9.02,-5.44 14.72,-7.48 q 9.19,-3.29 17.65,-8.22 0.41,-0.24 0.65,0.17 l 3.91,6.79 q 0.27,0.46 -0.19,0.72 -8.07,4.63 -16.1,9.25 c -6.81,3.91 -1.36,14.56 4.74,16.36 z"
       id="path13" /><circle
       fill="#323232"
       cx="118.78"
       cy="193"
       r="5.0900002"
       id="circle13" /><path
       fill="#323232"
       d="m 115.1,225.18 a 0.71,0.71 0 0 1 0.21,1.1 c -6.97,8.07 -11.33,14.84 -8.08,25.99 4.71,16.12 20.45,31.86 33.32,42.45 a 0.63,0.63 0 0 1 -0.09,1.03 L 68.05,337.8 q -0.77,0.45 -0.88,-0.44 -3.22,-26.52 -8.22,-52.89 C 55.8,267.83 53.16,247.96 57.01,231.76 60.5,217.09 69.53,208.13 80.82,199.78 q 0.46,-0.34 0.75,0.16 L 88,211.12 a 0.73,0.73 0 0 0 1,0.27 l 11.31,-6.55 q 0.48,-0.28 0.76,0.2 4.81,8.16 9.46,16.32 c 1.18,2.07 2.53,2.78 4.57,3.82 z m -30.12,-2.83 -5.64,-9.88 q -0.37,-0.65 -0.94,-0.17 c -13.69,11.59 -15.92,27.06 -14.79,43.89 1.55,22.95 7.03,45.51 10.13,68.28 q 0.07,0.5 0.51,0.25 l 52.51,-30.5 q 0.55,-0.32 0.09,-0.75 c -17.48,-16.59 -38.83,-41.23 -23.12,-66.5 q 0.3,-0.48 0.02,-0.98 l -5.67,-9.77 q -0.29,-0.49 -0.78,-0.2 l -11.41,6.58 q -0.58,0.33 -0.91,-0.25 z"
       id="path14-4" /><path
       fill="#ffffff"
       d="m 85.89,222.6 11.41,-6.58 q 0.49,-0.29 0.78,0.2 l 5.67,9.77 q 0.28,0.5 -0.02,0.98 c -15.71,25.27 5.64,49.91 23.12,66.5 q 0.46,0.43 -0.09,0.75 l -52.51,30.5 q -0.44,0.25 -0.51,-0.25 c -3.1,-22.77 -8.58,-45.33 -10.13,-68.28 -1.13,-16.83 1.1,-32.3 14.79,-43.89 q 0.57,-0.48 0.94,0.17 l 5.64,9.88 q 0.33,0.58 0.91,0.25 z m 7.96,49.85 a 8.12,8.12 0 0 0 -8.12,-8.12 8.12,8.12 0 0 0 -8.12,8.12 8.12,8.12 0 0 0 8.12,8.12 8.12,8.12 0 0 0 8.12,-8.12 z"
       id="path15" /><circle
       fill="#323232"
       cx="85.730003"
       cy="272.45001"
       r="8.1199999"
       id="circle15" /></g><path
     style="fill:#4d4d4d;fill-opacity:1;stroke:#333333;stroke-width:0.51277"
     d="m 14.565669,102.81414 c -0.0656,-0.85033 -0.35204,-3.997388 -0.636542,-6.993459 -0.802701,-8.453188 -0.924768,-10.342193 -0.934838,-14.466869 -0.01,-4.088908 0.220479,-6.097361 0.96322,-8.394356 0.516656,-1.597804 1.604481,-3.656906 2.521606,-4.773049 0.764798,-0.930761 2.539761,-2.549687 2.795434,-2.549687 0.07415,0 0.520883,0.843901 0.992729,1.875335 0.483917,1.057817 0.965093,1.875335 1.103789,1.875335 0.135236,0 1.13227,-0.444539 2.215629,-0.987864 1.083359,-0.543325 2.026385,-0.952611 2.095614,-0.909525 0.06923,0.04309 0.518128,0.876487 0.997554,1.852002 l 0.871683,1.773663 -0.743553,1.232827 c -0.408954,0.678056 -0.954605,1.876531 -1.212557,2.663278 -0.672549,2.051259 -0.663109,4.845963 0.02414,7.144774 1.12583,3.765869 3.006197,6.801214 7.602592,12.272334 l 0.556273,0.662135 -1.461134,0.734643 c -1.614469,0.81174 -11.600154,5.655403 -15.285605,7.414433 l -2.346763,1.1201 z m 6.357986,-13.427715 c 0.835077,-0.231948 1.878654,-1.375124 2.039889,-2.234577 0.361341,-1.926116 -1.473793,-3.761249 -3.399908,-3.399907 -0.903184,0.169437 -2.00753,1.206917 -2.2523,2.115926 -0.390069,1.448605 0.421756,2.908451 1.913036,3.440078 0.845402,0.301377 0.889471,0.303412 1.699283,0.07848 z"
     id="path17" /><path
     style="fill:#898989;fill-opacity:1;stroke:#333333;stroke-width:0.51277"
     d="m 30.92638,61.538706 c -0.898961,-1.859909 -1.69497,-3.41834 -1.768908,-3.463184 -0.07394,-0.04484 -1.122541,0.388294 -2.33023,0.962531 l -2.195798,1.044063 -0.189426,-0.415746 c -0.426989,-0.937137 0.857898,-2.422232 3.821957,-4.41749 0.859529,-0.578593 1.56278,-1.112696 1.56278,-1.186898 0,-0.0742 -0.928045,-0.566773 -2.062321,-1.094603 -1.553072,-0.722716 -2.291789,-1.186079 -2.991606,-1.876501 -2.137835,-2.109132 -2.7702,-5.21252 -1.735576,-8.517501 0.32084,-1.024886 1.38633,-3.136997 1.505701,-2.984738 0.02643,0.03371 1.878164,3.878944 4.11496,8.544956 2.236797,4.666012 4.15862,8.581596 4.270718,8.701298 0.157988,0.168705 2.846345,-1.054142 11.956568,-5.438657 10.544538,-5.074815 11.743186,-5.693918 11.659691,-6.022248 -0.05118,-0.201274 -1.986834,-4.301062 -4.301442,-9.110641 -2.314607,-4.809579 -4.17616,-8.828153 -4.136781,-8.930166 0.07643,-0.197983 5.432607,-2.341176 5.551282,-2.221259 0.03872,0.03913 1.208748,2.442105 2.600048,5.339944 l 2.52964,5.268798 -0.199604,1.36814 c -0.221409,1.517618 -0.247194,1.342934 0.743392,5.036411 0.391473,1.459634 0.644183,2.713254 0.561577,2.785822 -0.08261,0.07257 -6.178053,4.537523 -13.54544,9.922124 -7.367387,5.3846 -13.483327,9.85701 -13.590978,9.938689 -0.130526,0.09904 -0.740211,-0.978002 -1.830204,-3.233144 z m 3.966214,-0.302122 c 1.468337,-1.468337 -0.215222,-3.757469 -2.123875,-2.887828 -0.94701,0.431486 -1.269864,1.867 -0.608885,2.707298 0.676349,0.859839 1.968115,0.945174 2.73276,0.18053 z"
     id="path19" /><path
     style="fill:#a7a7a7;fill-opacity:1;stroke:#333333;stroke-width:0.51277"
     d="m 31.079051,61.166063 c -0.895921,-1.775376 -1.742301,-3.271456 -1.880843,-3.324619 -0.138543,-0.05316 -1.181565,0.323537 -2.317827,0.837112 -1.136263,0.513574 -2.114368,0.885337 -2.173568,0.826137 -0.424858,-0.424858 1.218868,-2.237339 3.42321,-3.774658 1.833536,-1.278716 2.090235,-1.532893 1.845687,-1.827555 -0.112085,-0.135054 -1.095632,-0.701398 -2.18566,-1.258541 -2.160535,-1.104309 -3.372934,-2.140493 -4.04678,-3.458603 -0.846746,-1.656319 -1.079379,-3.483467 -0.68423,-5.374081 0.216743,-1.037018 1.19432,-3.537518 1.381631,-3.53401 0.06451,0.0012 0.757937,1.347431 1.540956,2.991606 0.783019,1.644174 2.611425,5.43117 4.063125,8.415544 l 2.639455,5.426137 0.618632,-0.100392 c 0.725667,-0.117758 5.012293,-2.096251 14.641417,-6.757747 7.647315,-3.702093 8.8516,-4.358975 8.8516,-4.828136 0,-0.171611 -1.615594,-3.711068 -3.590209,-7.86546 -4.553761,-9.580658 -4.716294,-9.945413 -4.519152,-10.141788 0.192333,-0.191585 4.734489,-2.00698 4.816444,-1.925023 0.03119,0.03119 1.147798,2.330248 2.481358,5.109026 l 2.424654,5.052322 -0.110648,1.641095 c -0.100899,1.496452 -0.05373,1.86935 0.535192,4.230843 0.355213,1.424361 0.677512,2.730421 0.716221,2.902356 0.0518,0.230064 -0.597237,0.800323 -2.458011,2.15968 -1.390614,1.01589 -7.189937,5.257678 -12.887383,9.426196 -5.697446,4.168517 -10.614892,7.759435 -10.927658,7.979819 l -0.568665,0.400698 z m 3.562879,0.606478 c 1.118,-0.66042 1.418234,-2.134662 0.626381,-3.075724 -1.293063,-1.536718 -3.667716,-0.771065 -3.719379,1.19923 -0.04267,1.627405 1.712267,2.692111 3.092998,1.876494 z"
     id="path21" /><path
     style="fill:#a7a7a7;fill-opacity:1;stroke:#333333;stroke-width:0.51277"
     d="m 33.052504,41.715614 c -1.604525,-3.333426 -2.918995,-6.126335 -2.921045,-6.206465 -0.0067,-0.261541 2.95763,-1.618398 4.78549,-2.19046 0.982318,-0.307435 2.830863,-0.965035 4.107877,-1.461334 1.277013,-0.496299 2.462714,-0.915101 2.634891,-0.930671 0.222825,-0.02015 0.475552,0.319504 0.87689,1.178505 0.310114,0.663748 0.530914,1.235052 0.490667,1.269564 -0.04025,0.03451 -1.491684,0.747785 -3.225418,1.585051 -3.556403,1.717482 -3.821509,1.956929 -3.80042,3.432592 0.01596,1.116581 0.519058,2.131352 1.492842,3.011107 1.229441,1.110726 2.377902,0.905242 6.377482,-1.141063 l 2.042928,-1.045224 0.350171,0.573567 c 0.364628,0.597249 0.789339,1.723544 0.680964,1.805854 -0.03435,0.02609 -0.705423,0.388684 -1.491278,0.805771 -0.785854,0.417087 -2.43347,1.425629 -3.661368,2.241203 -1.976758,1.312971 -5.27417,3.132777 -5.67646,3.132777 -0.08079,0 -1.459689,-2.727348 -3.064213,-6.060774 z"
     id="path23" /><path
     style="fill:#a7a7a7;fill-opacity:1;stroke:#333333;stroke-width:0.51277"
     d="M 61.060625,23.913588 C 60.766309,23.264489 60.550328,22.713024 60.580667,22.688109 60.796532,22.510834 96.119267,5.5983802 96.166202,5.6498265 96.317136,5.8152619 97.890487,9.062458 97.841114,9.10663 97.587104,9.3338811 94.77943,10.627498 94.703975,10.552045 94.650392,10.498461 94.511489,10.272361 94.3953,10.0496 94.279112,9.8268384 94.110248,9.6591028 94.020048,9.6768534 c -0.0902,0.017751 -7.352946,3.4938176 -16.139432,7.7245936 -8.786486,4.230776 -16.045053,7.692319 -16.130151,7.692319 -0.0851,0 -0.395525,-0.53108 -0.68984,-1.180178 z"
     id="path25" /><path
     style="fill:#a7a7a7;fill-opacity:1;stroke:#333333;stroke-width:0.51277"
     d="m 63.499676,29.036001 c -0.284018,-0.594233 -0.477076,-1.119744 -0.429018,-1.167802 0.04806,-0.04806 6.753316,-3.29568 14.900573,-7.216938 l 14.813194,-7.12956 0.565012,1.097696 c 0.310755,0.603732 0.511684,1.14864 0.446508,1.210905 -0.148518,0.141884 -29.130452,14.095369 -29.505359,14.20549 -0.192969,0.05668 -0.427913,-0.240312 -0.79091,-0.999791 z"
     id="path27" /><path
     style="fill:#323232;fill-opacity:1;stroke:#333333;stroke-width:2.871"
     id="path29"
     d="m 54.59905,21.966656 c 0.32771,0.244676 0.63806,0.508594 0.932339,0.792385 0.252589,0.222762 0.351678,0.52348 0.423385,0.841292 0.08031,0.447852 0.168337,0.894059 0.268917,1.337801 0.142579,0.726651 0.388487,1.423663 0.673799,2.10491 0.297712,0.682769 0.738914,1.28413 1.193954,1.868301 0.306595,0.360226 0.567081,0.75193 0.805751,1.159295 0.170903,0.289967 0.333738,0.585396 0.519216,0.866419 0.133811,0.244983 0.27293,0.488521 0.389899,0.742206 0.10348,0.242167 0.118883,0.507687 0.130404,0.767428 9.06e-4,0.04551 0.0074,0.194882 -0.0034,0.247923 -0.0076,0.03704 -0.249402,0.07365 -0.280643,0.0782 -0.119415,9.3e-5 -0.234236,-0.03444 -0.350661,-0.05662 -0.03971,-0.0076 -0.08073,-0.0099 -0.119204,-0.02236 -0.08322,-0.02685 -0.131099,-0.06928 -0.201233,-0.119135 -1.087331,-0.713866 -0.118347,-0.0747 2.93956,1.682629 0.03862,0.02219 -0.07888,-0.04201 -0.114951,-0.06813 -0.117067,-0.08478 -0.194183,-0.191178 -0.270086,-0.311421 -0.158648,-0.389965 -0.177094,-0.819922 -0.226156,-1.233871 -0.07363,-0.689371 -0.198937,-1.371417 -0.292966,-2.058009 -0.08408,-0.584128 -0.06093,-1.175535 -0.104481,-1.762299 -0.01907,-0.256898 -0.06556,-0.615455 -0.09697,-0.873642 -0.06327,-0.547461 -0.169983,-1.087452 -0.358968,-1.605402 -0.167559,-0.405397 -0.311856,-0.819763 -0.458609,-1.232994 -0.115046,-0.371609 -0.233559,-0.741622 -0.425241,-1.081403 -0.142023,-0.239738 -0.336344,-0.435147 -0.545888,-0.61513 -1.092318,-0.624093 -2.179342,-1.257544 -3.276954,-1.87228 -0.03861,-0.02162 -0.08537,-0.02333 -0.128115,-0.03478 -0.08984,-0.02407 -0.165559,-0.0364 -0.246463,-0.0844 -0.03255,-0.01931 -0.12166,-0.08952 -0.08878,-0.07078 1.032587,0.588812 2.059368,1.187747 3.089053,1.781621 -1.136263,-0.837409 -0.0459,-0.206674 -3.456262,-1.904418 -0.05042,-0.0251 -0.103014,0.04561 -0.154948,0.06741 -0.381765,0.160308 0.06683,-0.0345 -0.312856,0.131858 -0.212679,0.100207 -0.417148,0.2206 -0.632562,0.31503 -0.03046,0.01335 -0.06657,0.01449 -0.09411,0.03313 -0.03179,0.02152 -0.05257,0.05596 -0.07885,0.08394 1.078701,0.655334 2.138033,1.34367 3.236104,1.966003 0.03621,0.02052 0.06501,-0.05215 0.09939,-0.07561 0.245867,-0.16775 0.508649,-0.304581 0.768574,-0.448618 0.367561,-0.178848 0.747013,-0.335152 1.1504,-0.408495 0.08688,-0.02535 0.179152,-0.0032 0.2667,-0.01266 0.08185,-0.0088 0.161914,-0.03196 0.244769,-0.03985 0.26552,-0.0068 0.528021,-0.0424 0.792664,-0.06154 0.04362,-0.0023 0.08725,-0.0046 0.130873,-0.0069 0,0 -3.00541,-2.146786 -3.00541,-2.146786 v 0 c -0.04142,0.0046 -0.08284,0.0092 -0.124264,0.01374 -0.275969,0.02738 -0.552851,0.02653 -0.828829,0.05303 -0.178141,0.02638 -0.357501,0.04053 -0.524553,0.115011 -0.379472,0.152479 -0.740547,0.34584 -1.10955,0.521364 -0.225047,0.108056 -0.449096,0.221169 -0.678774,0.319254 -1.31999,0.563707 -1.946142,-0.875319 2.83743,2.107148 -0.01967,0.01742 -0.03647,0.03879 -0.05903,0.05227 -0.02213,0.01323 0.03656,-0.03678 0.05773,-0.0515 0.03718,-0.02584 0.07666,-0.04836 0.116598,-0.06968 0.154189,-0.08231 0.317296,-0.147759 0.481866,-0.205857 0.08738,-0.02589 0.186921,-0.06328 0.280599,-0.05969 0.0389,0.0015 0.146942,0.04793 0.113267,0.02841 -1.03466,-0.599898 -2.080016,-1.181155 -3.120024,-1.771732 0.107898,0.04312 0.0573,0.01288 0.150023,0.09366 1.08434,0.632525 2.164142,1.272894 3.25302,1.897575 0.06799,0.039 0.151525,0.04103 0.225006,0.06831 1.090081,0.404718 3.406367,2.931642 -2.83017,-1.652591 0.256503,0.09191 0.459843,0.283298 0.646785,0.476342 0.06554,0.08281 0.144202,0.175576 0.196449,0.268126 0.131551,0.233026 0.215792,0.495044 0.302387,0.746441 0.14385,0.414742 0.275919,0.834061 0.438468,1.241982 0.02449,0.05526 0.153209,0.344482 0.173794,0.396317 0.153168,0.385709 0.259358,0.789762 0.349419,1.194066 0.06822,0.388954 0.08769,0.451385 0.122401,0.849636 0.05153,0.591273 0.03258,1.186311 0.08531,1.777541 0.06508,0.665873 0.137671,1.330995 0.186638,1.99827 0.06594,0.817601 -0.02755,-0.309453 0.04532,0.470816 0.02014,0.215608 0.02714,0.433996 0.05379,0.648943 0.0077,0.06185 0.02123,0.122823 0.03185,0.184235 0.0456,0.183326 0.08366,0.298154 0.192361,0.453852 0.02871,0.04111 0.04667,0.09496 0.08963,0.12082 2.973564,1.790021 2.1104,1.437845 3.395805,1.951613 0.273197,0.05917 0.556542,0.07892 0.825388,-0.01278 0.215227,-0.0959 0.426643,-0.223787 0.511276,-0.461063 0.01132,-0.03173 0.0065,-0.251518 0.0062,-0.280928 -0.0037,-0.292746 -0.0087,-0.586883 -0.07149,-0.874352 -0.03722,-0.121754 -0.04309,-0.156481 -0.09758,-0.272301 -0.08489,-0.180452 -0.200955,-0.34517 -0.279911,-0.528671 -0.156566,-0.319916 -0.387493,-0.597001 -0.575168,-0.89889 -0.253989,-0.420109 -0.461327,-0.877131 -0.817008,-1.225203 -0.488919,-0.556145 -0.969231,-1.128089 -1.292922,-1.80048 -0.284127,-0.648443 -0.537455,-1.290874 -0.62376,-1.999715 -0.07501,-0.436262 -0.168602,-0.869114 -0.225842,-1.308198 -0.04971,-0.37107 -0.108397,-0.735333 -0.333982,-1.046717 -0.27008,-0.274964 -0.556132,-0.534883 -0.847562,-0.786794 z" /><path
     style="fill:#323232;fill-opacity:1;stroke:#333333;stroke-width:2.871"
     id="path31"
     d="m 24.774588,33.926123 c 0.08588,0.435634 0.169075,0.871923 0.26686,1.305073 0.09333,0.417907 0.217785,0.827881 0.358605,1.231997 0.138277,0.374413 0.237484,0.759871 0.329528,1.14753 0.08978,0.384373 0.196433,0.759884 0.345825,1.125394 0.259164,0.583705 0.508708,1.171338 0.768153,1.754964 0.346974,0.75919 0.683961,1.523218 1.062968,2.267127 0.373807,0.706048 0.811257,1.376299 1.294621,2.011709 0.33661,0.442212 0.705201,0.857829 1.042902,1.299149 0.357302,0.469148 0.664354,0.972699 0.936494,1.495092 0.256223,0.493329 0.443217,1.016421 0.590485,1.551185 0.105393,0.34129 0.149619,0.696786 0.234841,1.042499 0.08208,0.262655 0.227807,0.517946 0.421066,0.714697 0.220393,0.19969 0.396832,0.445061 0.56269,0.69076 1.269688,1.940411 2.394375,1.998213 3.957051,2.042942 0.342203,-0.03174 0.61626,-0.258091 0.877001,-0.462298 0.297029,-0.240327 0.604087,-0.466997 0.909199,-0.697339 0.119765,-0.11107 0.386898,-0.221605 0.495997,-0.335244 0.03129,-0.03259 0.113976,-0.08632 0.07666,-0.111794 -1.047774,-0.71504 -2.145156,-1.354533 -3.217734,-2.031799 -0.574978,0.368165 -1.181053,0.685243 -1.764074,1.041665 -1.544293,1.013093 -1.221258,0.701932 2.811119,2.211949 0.179875,0.06736 0.307523,-0.230432 0.466293,-0.338527 0.20256,-0.13791 0.411539,-0.26615 0.617308,-0.399224 1.293061,-0.822831 2.587351,-1.641853 3.918494,-2.401961 0.985228,-0.541502 1.996125,-1.033788 2.990673,-1.557398 0.647724,-0.357107 1.286887,-0.728377 1.949211,-1.058272 0.522659,-0.24638 1.040875,-0.499648 1.551352,-0.770278 0.485377,-0.260726 0.963557,-0.532497 1.434486,-0.81831 0.23786,-0.119254 0.463541,-0.263919 0.700077,-0.385154 0.100856,-0.05169 0.206424,-0.09374 0.307891,-0.144221 0.04425,-0.0192 0.08725,-0.04161 0.132762,-0.05759 0.04182,-0.01468 0.08676,-0.01921 0.128505,-0.03411 0.215412,-0.07686 0.420174,-0.193787 0.621388,-0.30091 0.314436,-0.175395 0.578473,-0.400068 0.783505,-0.695215 0.239511,-0.339112 0.292196,-0.723257 0.28327,-1.12742 -0.02418,-0.453335 -0.186546,-0.873746 -0.370116,-1.282985 -0.223052,-0.464462 -0.477713,-0.913802 -0.749828,-1.351139 -0.230787,-0.345049 -0.473257,-0.68409 -0.734172,-1.007106 -0.29147,-0.327536 -0.553143,-0.679757 -0.803009,-1.039558 -0.256953,-0.381014 -0.493028,-0.776635 -0.722193,-1.174958 -0.16941,-0.292289 -0.318054,-0.531093 -0.594957,-0.731476 -1.395128,0.790429 -2.451002,-2.038552 -3.943857,-2.087816 -0.299099,-0.0099 -0.41913,0.03475 -0.726179,0.09522 -0.809279,0.183748 -1.601477,0.44259 -2.372061,0.749662 -0.42425,0.182175 -0.859048,0.334016 -1.279702,0.525371 -0.477249,0.238296 -0.993596,0.391395 -1.460823,0.65096 -0.09415,0.05231 -0.183349,0.113075 -0.275024,0.169613 -0.380372,0.220887 -0.740941,0.473914 -1.081648,0.751693 -0.182567,0.139961 -0.374288,0.261783 -0.581861,0.36032 0,0 3.104136,2.023406 3.104136,2.023406 v 0 c 0.207659,-0.131229 0.408353,-0.272599 0.605949,-0.418565 0.327471,-0.256276 0.644726,-0.527291 1.0023,-0.742244 0.54847,-0.312366 1.137196,-0.538505 1.724527,-0.766848 0.431058,-0.164513 0.869843,-0.312708 1.277615,-0.531855 0.716127,-0.33545 1.463286,-0.616783 2.256504,-0.694941 0.353414,-0.0025 0.400389,-0.0291 0.718885,0.05472 0.874979,0.230271 5.301566,3.24643 -2.42368,-1.469628 0.0897,0.04196 0.1837,0.0755 0.269668,0.124655 0.181009,0.103495 0.276738,0.289826 0.409301,0.442341 0.246927,0.401547 0.498429,0.799094 0.734251,1.207655 0.248321,0.360265 0.482547,0.73177 0.766361,1.066092 0.282958,0.307522 0.519933,0.650541 0.781398,0.97636 0.288067,0.411851 0.520768,0.853926 0.762837,1.293645 0.169824,0.371209 0.351526,0.743658 0.413285,1.151515 0.02826,0.320382 0.01952,0.625692 -0.172514,0.89912 -0.188,0.23675 -0.425098,0.409597 -0.692634,0.549977 -0.291192,0.142614 -0.598901,0.241398 -0.886139,0.390837 -0.340899,0.180405 -0.674805,0.373694 -1.007334,0.569027 -0.445582,0.292396 -0.892325,0.583301 -1.372602,0.817258 -0.522104,0.251838 -1.046301,0.499554 -1.557847,0.772516 -0.63881,0.352592 -1.261427,0.73155 -1.889481,1.102518 -0.971002,0.538081 -1.945859,1.06946 -2.905484,1.627654 -1.309229,0.789162 -2.575131,1.6474 -3.897139,2.415114 -0.225604,0.119053 -0.44787,0.244657 -0.67681,0.357158 -0.18641,0.0916 -0.713457,0.105986 -0.568606,0.254841 0.821411,0.844118 1.899456,1.393227 2.849627,2.089237 0.01119,0.0082 -0.04155,-0.01513 -0.03266,-0.02578 0.05065,-0.06074 0.118693,-0.104744 0.181532,-0.152762 0.08213,-0.06276 0.168671,-0.119522 0.253007,-0.179283 0.425153,-0.263929 0.849326,-0.51761 1.316448,-0.702175 0.08943,-0.03534 0.178165,-0.07584 0.272401,-0.09499 0.05691,-0.01156 0.116101,0.0028 0.174152,0.0042 -3.435425,-2.270315 -2.119892,-2.72395 -3.497524,-1.692866 -0.304995,0.2313 -0.615662,0.454915 -0.920692,0.686054 -0.226469,0.158582 -0.450681,0.290925 -0.737727,0.242623 -0.142609,-0.01439 -0.298311,-0.02214 -0.430286,-0.08519 -0.03908,-0.01867 -0.144694,-0.09514 -0.107406,-0.07311 2.837858,1.676672 4.096423,2.466813 2.991775,1.774148 -0.213069,-0.218532 -0.371847,-0.485942 -0.550698,-0.73222 -0.03103,-0.02892 -0.06206,-0.05783 -0.0931,-0.08675 -0.03288,-0.02022 -0.07001,-0.03478 -0.09864,-0.06067 -0.122361,-0.110648 -0.187958,-0.284528 -0.307719,-0.399007 -0.129751,-0.342102 -0.174401,-0.708667 -0.291679,-1.055493 -0.148607,-0.558154 -0.328338,-1.105408 -0.574948,-1.629021 -0.270974,-0.531375 -0.553654,-1.058262 -0.901562,-1.544247 -0.332521,-0.462902 -0.693591,-0.881601 -1.058602,-1.31768 -0.509428,-0.624161 -1.002784,-1.260083 -1.383281,-1.974422 -0.375094,-0.727754 -0.697305,-1.478513 -1.029511,-2.226518 -0.1329,-0.314434 -0.279398,-0.623488 -0.407659,-0.939811 -0.399396,-0.985015 0.157787,0.360683 -0.208536,-0.560859 -0.03076,-0.07737 -0.06698,-0.152467 -0.100463,-0.2287 -0.153535,-0.341718 -0.263762,-0.693641 -0.340517,-1.060372 -0.108923,-0.397947 -0.205507,-0.798687 -0.341838,-1.188692 -0.139096,-0.39421 -0.271258,-0.790211 -0.36372,-1.198504 -0.114496,-0.403523 -0.212921,-0.815861 -0.248195,-1.234454 z" /><path
     style="fill:#323232;fill-opacity:1;stroke:#333333;stroke-width:2.871"
     id="path33"
     d="m 49.754329,35.275055 c -0.298053,-0.771198 -0.598833,-1.540484 -0.929601,-2.298486 -0.292113,-0.666881 -0.693533,-1.275776 -1.095188,-1.880059 -0.239985,-0.335398 -0.483798,-0.668205 -0.737846,-0.993099 -0.249061,-0.296547 -0.503078,-0.588772 -0.75263,-0.884996 -0.235684,-0.278233 -0.499999,-0.530161 -0.740937,-0.803564 -0.149814,-0.191195 -0.220344,-0.234375 -0.135978,-0.47332 0.04979,-0.102384 0.122391,-0.129609 0.229722,-0.141646 0.03043,-0.0034 0.06246,-0.0147 0.0917,-0.0056 0.03604,0.01121 0.06257,0.04223 0.09385,0.06334 1.037223,0.696231 2.391633,1.327006 -2.644619,-1.485269 -0.07214,-0.04028 0.132945,0.09824 0.19724,0.150134 0.163971,0.132352 0.177562,0.154157 0.32602,0.303415 0.255407,0.298747 0.366253,0.659563 0.381941,1.045889 -0.0012,0.08749 -6.74e-4,0.238113 -0.01231,0.324543 -0.0058,0.04284 -0.01126,0.165799 -0.02906,0.126399 -0.02153,-0.04767 -0.03158,-0.178665 0.01562,-0.15614 2.974666,1.419338 3.976051,2.587344 3.032917,1.521638 -0.23603,-0.388148 -0.326738,-0.832964 -0.449908,-1.263481 -0.03785,-0.114881 -0.07678,-0.246854 -0.131755,-0.354915 -0.621411,-1.221529 -3.392449,-2.214822 -3.643962,-2.360182 -0.55544,0.0706 -1.080606,0.288448 -1.607753,0.467739 -0.589214,0.190401 -1.179083,0.379696 -1.763261,0.585129 -0.390053,0.169718 -0.77317,0.35039 -1.118981,0.599611 -0.311717,0.235382 -0.638794,0.447708 -0.977069,0.642549 -0.0381,0.01773 -0.07798,0.03204 -0.114292,0.0532 -0.121454,0.07078 -0.230453,0.160501 -0.355452,0.226995 -0.05012,0.02666 -0.102305,0.04923 -0.153458,0.07384 -0.06106,0.03356 -0.122125,0.06712 -0.183187,0.10068 -0.407691,0.214279 -0.833928,0.388905 -1.260412,0.561223 -0.487134,0.223263 -1.019012,0.302741 -1.539168,0.409323 -0.319403,0.06165 -0.640833,0.09893 -0.953667,0.190227 -0.328887,0.07822 -0.65528,0.16621 -0.988224,0.227127 -0.351435,0.117928 -0.714694,0.190844 -1.073572,0.281605 -0.340496,0.05518 -0.663223,0.171259 -0.993988,0.264495 -0.218773,0.07049 -0.450195,0.07478 -0.674251,0.113478 -0.08179,0.01413 -0.161109,0.04002 -0.241744,0.0597 -0.133739,0.02196 -0.06701,0.01273 -0.200165,0.0278 0,0 3.053788,2.141533 3.053788,2.141533 v 0 c 0.142803,-0.03156 0.07128,-0.01473 0.214568,-0.05056 0.294372,-0.07196 0.59608,-0.114401 0.886946,-0.202285 0.328987,-0.08257 0.652322,-0.186652 0.983344,-0.262088 0.362101,-0.08401 0.723852,-0.168255 1.083577,-0.261855 0.334443,-0.0811 0.670583,-0.154139 1.005986,-0.231126 0.303929,-0.0635 0.607769,-0.12785 0.907307,-0.21023 0.536219,-0.129199 1.078143,-0.245159 1.590813,-0.454259 0.4279,-0.188069 0.852022,-0.385163 1.275077,-0.583815 0.292795,-0.138429 0.581055,-0.284516 0.847255,-0.470538 0.319212,-0.22488 0.645088,-0.439886 0.967169,-0.660623 0.33279,-0.209741 0.683274,-0.389674 1.045757,-0.542714 0.570906,-0.225078 1.154904,-0.408263 1.740783,-0.589928 0.33905,-0.118982 0.977666,-0.357704 1.334433,-0.276045 0.0567,0.01298 0.10603,0.04784 0.159045,0.07177 -1.004356,-0.592378 -2.007364,-1.187048 -3.013069,-1.777133 -0.04616,-0.02708 0.09162,0.05571 0.13427,0.08803 0.180528,0.136824 0.344441,0.312111 0.416172,0.529224 0.158374,0.438671 0.260702,0.895419 0.437149,1.328103 0.02128,0.075 -0.0026,0.184175 0.06384,0.225002 1.103241,0.678182 2.900674,2.820274 3.505377,1.675107 0.06815,-0.129058 0.06094,-0.393088 0.07387,-0.536978 -0.0014,-0.467758 -0.06272,-0.866372 -0.303658,-1.278344 -0.118468,-0.176452 -0.306246,-0.427332 -0.491388,-0.539804 -1.102219,-0.669587 -2.213544,-1.324248 -3.329905,-1.969981 -0.06745,-0.03901 -0.143337,-0.0627 -0.218667,-0.08261 -0.064,-0.01692 -0.131144,-0.01812 -0.196716,-0.02718 -0.320245,0.06536 -0.531766,0.177461 -0.683861,0.480654 -0.130518,0.303141 -0.202494,0.528997 -0.01667,0.830679 0.214245,0.303312 0.491971,0.549124 0.739951,0.824136 0.258665,0.286674 0.501481,0.586586 0.760819,0.87259 0.270653,0.326496 0.525206,0.664342 0.793057,0.993167 0.345155,0.454044 0.0021,-0.0074 0.350974,0.495422 0.302211,0.435503 0.622962,0.858753 0.838931,1.347526 0.323361,0.717055 0.658261,1.442173 0.828818,2.213357 z" /><path
     style="fill:#323232;fill-opacity:1;stroke:#333333;stroke-width:2.871"
     id="path35"
     d="m 20.060038,61.106634 c -0.181466,0.307178 -0.390438,0.597109 -0.604766,0.882108 -1.270297,1.37536 -0.433239,0.534283 2.775649,2.481172 0.541689,-0.483878 1.130206,-0.914337 1.722036,-1.334417 0.486731,-0.351288 1.012419,-0.648627 1.59246,-0.812004 -3.206428,-2.104476 -2.229477,-2.665781 -3.529572,-1.757664 -0.230159,0.160766 -0.476808,0.299658 -0.715529,0.447024 -0.383643,0.238748 -0.763084,0.492547 -1.101342,0.793763 -0.06172,0.05496 -0.132074,0.10368 -0.178529,0.172028 -0.04544,0.06685 -0.06076,0.14981 -0.09113,0.224715 0.346627,1.551085 0.03818,0.518647 3.55623,2.113146 0.120125,0.05445 0.260811,-0.03966 0.390592,-0.06314 0.47026,-0.08508 0.92574,-0.218035 1.387448,-0.339511 0.046,-0.01339 0.713012,-0.214906 0.803506,-0.215747 0.07692,-7.15e-4 0.14355,0.05533 0.215325,0.083 -1.041379,-0.576239 -2.045454,-1.225761 -3.124136,-1.728719 -0.07522,-0.03507 -0.03531,0.16404 -0.07276,0.238101 -0.07308,0.144533 -0.170879,0.275171 -0.256319,0.412757 -1.287305,1.755467 -1.084645,1.001098 2.688182,2.872112 0.108221,0.05367 0.219868,-0.100261 0.331494,-0.146433 0.13371,-0.05531 0.269561,-0.105288 0.404341,-0.157933 1.961249,-0.706413 1.640682,-0.371398 -2.338997,-2.418525 -0.143241,-0.07368 -0.308068,0.09473 -0.464274,0.134064 -0.22445,0.05651 -0.451481,0.102234 -0.677221,0.153351 -0.205619,0.03986 -0.90923,0.208979 -1.190313,0.165636 -0.05441,-0.0084 -0.161184,-0.147954 -0.114144,-0.119357 1.098673,0.667923 2.125317,1.461716 3.273639,2.040127 0.142281,0.07167 0.298598,-0.111188 0.448434,-0.165313 0.190642,-0.06886 0.381989,-0.135766 0.572983,-0.203649 0.302944,-0.08919 0.702527,-0.225975 1.027419,-0.256332 0.08443,-0.0079 0.324952,0.0687 0.253308,0.02334 -2.843906,-1.800356 -2.184058,-2.375728 -3.788237,-1.61791 -0.489738,0.219786 -0.978979,0.438264 -1.495298,0.58811 -0.05635,0.01635 -0.219628,0.0079 -0.171176,0.04103 3.187343,2.176957 2.09725,2.601723 3.528367,1.909283 1.784101,-0.646056 1.167878,-0.490986 -2.719615,-2.188365 -0.157139,-0.06861 -0.307399,0.152154 -0.463534,0.223021 -0.189877,0.08618 -0.382859,0.16535 -0.574288,0.248025 -1.987677,0.829678 -2.103741,0.212966 2.247227,2.407135 0.118763,0.05989 0.249488,-0.09241 0.375394,-0.135295 0.135977,-0.04632 0.273427,-0.0882 0.41014,-0.132303 -0.195928,-0.538959 0.493535,0.147252 0.381034,0.08224 -1.060728,-0.613005 -2.099711,-1.262986 -3.156418,-1.882896 -0.01046,-0.0061 0.0087,0.02354 0.0075,0.03561 -0.007,0.0706 -0.09208,0.172606 -0.03205,0.210436 1.083968,0.683121 2.234495,1.254431 3.351743,1.881646 0.649621,-0.273779 1.242707,-0.658188 1.873671,-0.969155 0.280728,-0.18776 0.861218,-0.300866 1.108083,-0.535228 0.05973,-0.05671 0.197133,-0.169125 0.126842,-0.212061 -3.304897,-2.018724 -2.309208,-2.364995 -3.850351,-1.624179 -0.812852,0.353796 -1.598731,0.759202 -2.331539,1.258049 -0.271637,0.197417 -0.552683,0.382256 -0.836522,0.561626 -0.04777,0.03019 -0.11316,0.04062 -0.145564,0.08692 -0.07065,0.100948 -0.257334,0.274494 -0.151304,0.337262 1.116702,0.661062 2.348178,1.105515 3.522268,1.658273 0.611914,-0.270371 1.220505,-0.548879 1.846604,-0.785218 0.347885,-0.13132 0.220069,-0.102574 0.459898,-0.139897 -1.069459,-0.663537 -2.111365,-1.373692 -3.208377,-1.990611 -0.05126,-0.02882 -0.09034,0.07576 -0.139647,0.107808 -0.04833,0.03141 -0.313728,0.174015 -0.33083,0.169137 -0.03576,-0.0102 -0.0209,-0.130011 0.01107,-0.111016 1.083481,0.643735 2.131763,1.344951 3.197645,2.017427 0.662061,-0.502915 1.380652,-0.925709 2.045043,-1.425517 0.498181,-0.372406 0.783103,-0.94581 1.276112,-1.320786 0.05015,-0.02322 0.09631,-0.08074 0.150451,-0.06967 0.03378,0.0069 0.04158,0.119774 0.01155,0.102807 -1.089481,-0.615729 -2.094134,-1.386697 -3.22639,-1.919696 -0.114132,-0.05373 -0.163267,0.192682 -0.252131,0.282215 -0.237086,0.238872 -0.524732,0.481001 -0.778276,0.701609 -0.101226,0.08815 -0.213401,0.165126 -0.303678,0.264464 -0.88135,0.969812 2.115445,1.591002 3.321997,2.102416 0.180289,0.07642 0.364075,-0.144445 0.54803,-0.21156 0.468678,-0.170995 1.045373,-0.360395 1.516195,-0.518034 0.219709,-0.03307 0.437089,-0.09115 0.659127,-0.09923 0.154657,-0.0056 0.313894,0.0092 0.460581,0.05849 0.09466,0.03183 0.328766,0.225797 0.241318,0.177562 -1.012452,-0.573267 -2.024905,-1.146535 -3.037358,-1.719803 0.0212,0.03312 0.05291,0.06152 0.0636,0.09937 0.01003,0.03549 -0.0028,0.0737 -0.0043,0.110553 -0.238186,0.658174 -0.593033,1.265984 -0.912695,1.886547 -0.657386,1.569064 0.862494,1.189587 3.286784,2.228701 0.004,0.0017 0.492749,-0.314768 0.498641,-0.317445 0.04817,-0.0219 0.10448,-0.01681 0.15672,-0.02522 -1.068809,-0.580028 -2.103626,-1.227624 -3.206428,-1.740082 -0.06976,-0.03242 -0.0262,0.153124 -0.05697,0.223622 -0.0737,0.168843 -0.163778,0.330267 -0.254732,0.490476 -0.87076,1.533787 0.184389,-0.39427 -0.660821,1.055606 -0.07448,0.127755 -0.133724,0.263799 -0.200586,0.395699 -0.102601,1.616415 -0.132015,0.563209 3.384009,2.346349 0.140003,0.071 0.311401,-0.03998 0.467125,-0.05977 0.187647,-0.02385 0.731335,-0.104247 0.939174,-0.08742 0.09763,0.0079 0.188042,0.05495 0.282063,0.08243 -1.032015,-0.5729 -2.055957,-1.160589 -3.096045,-1.718699 -0.01675,-0.009 0.0099,0.04123 -6.67e-4,0.05701 -0.05197,0.07737 -0.117485,0.144895 -0.180854,0.213238 -0.222658,0.240136 -0.468823,0.446851 -0.677126,0.699877 -0.09107,0.186656 -0.105797,0.327748 -0.0045,0.506104 0.02023,0.03561 0.05703,0.06438 0.06433,0.104679 0.02707,0.149516 -0.06114,0.299208 -0.111891,0.427063 -0.04498,0.07552 -0.08363,0.155196 -0.134941,0.226574 -0.833887,1.160088 -4.007897,-1.543149 3.109982,2.059925 0.06376,0.03228 0.113063,-0.08754 0.171685,-0.128413 0.08467,-0.05904 0.172019,-0.114138 0.258029,-0.171207 0.356062,-0.197626 0.720678,-0.382198 1.087821,-0.558501 0.08122,-0.039 0.609597,-0.270672 0.702572,-0.32613 0.07991,-0.04767 0.147135,-0.113956 0.220703,-0.170934 0.03509,-0.08686 0.0982,-0.16716 0.105271,-0.260569 0.01799,-0.237534 -0.08362,-0.390905 -0.282355,-0.505506 -1.136731,-0.6555 -2.288435,-1.284896 -3.442356,-1.909639 -0.08331,-0.0451 -0.348418,-0.146184 -0.266606,-0.09842 0.973536,0.568319 1.96347,1.108071 2.945205,1.662106 -0.516092,-0.345666 -0.433612,-0.978482 -0.583992,-1.509694 -0.04174,-0.147443 -0.105205,-0.287851 -0.157807,-0.431777 -0.09037,-0.14044 -0.163143,-0.293905 -0.2711,-0.421321 -0.117719,-0.138937 -0.245312,-0.27633 -0.400599,-0.371446 -1.168186,-0.715536 -2.353519,-1.404405 -3.559514,-2.054196 -0.157911,-0.08508 -0.345336,-0.09722 -0.518726,-0.143164 -0.147629,-0.03912 -0.574721,-0.19141 -0.444273,-0.11199 0.945384,0.575574 1.936129,1.073102 2.904194,1.609653 -0.03354,-0.04414 -0.09955,-0.07699 -0.100633,-0.132417 -0.0044,-0.224717 0.263295,-0.618019 0.356036,-0.754101 0.135803,-0.199267 0.513828,-0.686383 0.707807,-0.851956 0.07415,-0.06329 0.172753,-0.0904 0.25913,-0.135604 -1.063254,-0.541085 -2.078176,-1.190056 -3.18976,-1.623255 -0.117117,-0.04564 0.01237,0.252986 -0.0081,0.377002 -0.07286,0.441094 -0.319745,1.274806 -0.558477,1.661251 -0.03179,0.05147 -0.09531,0.07453 -0.142961,0.111802 5.473019,2.626347 3.520446,2.462358 3.015722,1.202584 -0.0667,-0.166477 -0.107258,-0.342271 -0.161242,-0.513294 -0.160706,-0.509126 -0.328133,-1.013753 -0.510288,-1.515581 -0.602982,-1.543504 -0.89404,-1.13811 -3.662764,-2.141698 -0.08724,-0.03162 -0.275386,0.645928 -0.27707,0.653204 -0.02501,0.10802 -0.03267,0.219333 -0.04901,0.328999 0.01456,0.108656 0.0045,0.223581 0.04368,0.325967 0.04336,0.113303 0.0939,0.243002 0.197932,0.305418 1.148781,0.689274 2.310439,1.365633 3.52596,1.928932 0.155959,0.07227 0.342615,-0.03103 0.512467,-0.05743 0.514838,-0.08002 0.525512,-0.1037 1.01189,-0.259009 0,0 -2.985326,-2.040134 -2.985326,-2.040134 v 0 c -0.37632,0.102315 -0.550706,0.174639 -0.952308,0.177112 -0.157426,9.7e-4 -0.597544,-0.141275 -0.469694,-0.04942 0.875633,0.62913 1.844341,1.117603 2.756518,1.692469 0.140289,0.08841 -0.591043,-0.229978 -0.380197,-0.320824 0.01,-0.238896 -0.01,-0.297302 0.08893,-0.520976 0.02188,-0.04948 0.139199,-0.103696 0.0935,-0.132648 -1.015291,-0.643269 -2.096694,-1.176256 -3.129545,-1.790932 -0.0634,-0.03773 0.161273,0.0045 0.214172,0.05592 0.08857,0.08612 0.118524,0.216799 0.177786,0.325199 0.272689,0.635917 0.538612,1.301622 0.661325,1.986276 0.0259,0.144507 -0.07685,0.358203 0.0464,0.437976 1.083124,0.701089 2.281812,1.205018 3.422718,1.807526 0.184667,-0.403407 0.06981,-0.129995 0.267636,-0.713937 0.156006,-0.460496 0.262553,-0.770634 0.431785,-1.226693 0.06583,-0.177399 0.351687,-0.413287 0.20288,-0.530163 -0.999313,-0.784877 -2.201593,-1.269496 -3.30239,-1.904245 -0.34642,0.355659 -0.665246,0.737777 -0.962395,1.135857 -0.178102,0.238598 -0.477762,0.640525 -0.561303,0.944227 -0.03707,0.13476 -0.01193,0.279277 -0.01789,0.418916 1.134841,0.645768 2.254477,1.319019 3.404522,1.937306 0.124561,0.06697 0.274969,0.06768 0.408965,0.1129 1.079045,0.364151 2.566198,1.370426 -2.113054,-1.352716 -0.145309,-0.08456 0.293704,0.16786 0.421208,0.277442 0.113035,0.09715 0.195866,0.224713 0.2938,0.337069 0.06037,0.121394 0.135556,0.23649 0.181121,0.364182 0.203581,0.570509 0.03658,1.245528 0.423094,1.758575 1.131595,0.649181 2.256897,1.309456 3.394784,1.947542 0.08056,0.04518 0.337197,0.148525 0.258086,0.100853 -0.956357,-0.576307 -1.940554,-1.105833 -2.892962,-1.688644 -0.07314,-0.04476 0.16308,0.05526 0.247578,0.06984 0.06223,0.01073 0.127779,-0.0085 0.189352,0.0055 0.02197,0.005 0.03155,0.03217 0.04732,0.04826 -0.240929,0.212384 -0.536361,0.324578 -0.823419,0.465018 -0.379866,0.185845 -0.762829,0.365707 -1.135941,0.564934 -0.09712,0.05535 -0.194763,0.109779 -0.291344,0.166059 -0.07135,0.04158 -0.278424,0.07788 -0.212411,0.127491 3.019073,2.26909 2.529271,3.029852 3.387048,1.517756 0.07419,-0.149939 0.434871,-0.787596 0.190008,-0.926127 -0.02747,-0.01554 -0.0631,0.0013 -0.09465,0.0019 -0.01693,-0.01372 -0.03385,-0.02743 -0.05078,-0.04115 0.02728,-0.05215 0.04474,-0.110758 0.08184,-0.156447 0.24012,-0.295724 0.586147,-0.503393 0.802406,-0.8208 0.08031,-0.117873 0.307203,-0.294651 0.193982,-0.381396 -1.011121,-0.774679 -2.180533,-1.317289 -3.2708,-1.975934 -0.399662,0.01022 -0.804324,0.09152 -1.203692,0.07473 -0.147239,-0.0062 -0.556001,-0.152447 -0.437283,-0.06513 3.937516,2.895921 3.57657,2.559113 2.695107,1.690243 0.039,-0.124722 0.06026,-0.256454 0.11701,-0.374167 0.25467,-0.528249 0.687791,-1.046187 1.009027,-1.539536 0.08646,-0.13279 0.368846,-0.310083 0.244167,-0.407881 -0.996335,-0.781521 -2.171304,-1.303559 -3.256957,-1.955339 -0.08576,0.05274 -0.320407,0.198925 -0.392755,0.233632 -0.07902,0.03791 -0.317506,0.04464 -0.245379,0.09442 0.984064,0.679207 2.067581,1.203557 3.070098,1.855219 0.04434,0.02882 -0.126705,0.08644 -0.153335,0.04075 -0.04005,-0.06872 0.02666,-0.15682 0.03999,-0.235231 0.306552,-0.664636 0.707442,-1.276902 1.025947,-1.935579 0.424384,-1.595766 -1.240181,-1.377849 -3.200861,-2.522172 -0.08017,-0.04679 -0.183633,-0.03496 -0.276444,-0.03351 -0.435805,0.0068 -0.639733,0.09409 -1.084876,0.209184 -0.57102,0.181318 -0.988498,0.326439 -1.571562,0.462259 -0.199513,0.04648 -0.754674,-0.02773 -0.604369,0.111463 0.851636,0.788653 1.909485,1.320188 2.863812,1.980883 0.02337,0.01618 -0.08513,-0.02271 -0.07092,-0.04733 0.06255,-0.108387 0.170982,-0.18278 0.256473,-0.27417 0.564508,-0.499284 0.218304,-0.201959 0.817062,-0.694558 0.11632,-0.0957 0.457991,-0.185157 0.348081,-0.288151 -3.433286,-3.217253 -2.044627,-2.894529 -3.27012,-1.976273 -0.443176,0.413416 -0.742532,0.952659 -1.21755,1.335207 -0.674172,0.525989 -1.40236,0.971162 -2.138595,1.404128 0.99916,0.733249 1.973023,1.502277 2.997479,2.199747 0.03636,0.02475 0.04973,-0.074 0.08354,-0.102129 0.04358,-0.03625 0.09661,-0.05932 0.145338,-0.08827 1.386791,-0.823793 0.821425,-0.126543 -2.692475,-2.314926 -0.213,0.185247 -0.544331,0.293709 -0.79475,0.40076 -0.470675,0.20121 -0.94571,0.398396 -1.446992,0.511297 1.012762,0.596686 2.09333,1.090932 3.038286,1.79006 0.09864,0.07298 -0.15535,0.191707 -0.21408,0.299435 -0.02314,0.04245 0.0678,-0.06922 0.105251,-0.09981 0.255822,-0.208957 0.54085,-0.379064 0.807919,-0.572461 0.71117,-0.47634 1.452741,-0.913597 2.262513,-1.202361 0.145327,-0.04145 0.55302,-0.02874 0.435981,-0.124346 -0.916318,-0.748489 -2.012003,-1.249474 -2.969211,-1.944908 -0.04801,-0.03488 0.189931,-0.141632 0.138863,-0.111405 -0.640136,0.378892 0.497892,-0.176565 -0.553554,0.325018 -0.153031,0.073 -0.308718,0.140301 -0.463077,0.210452 -0.865057,0.402731 -0.0786,0.0303 -0.837606,0.405671 -0.253493,0.125366 -0.546563,0.299059 -0.832718,0.339969 -0.06193,0.0089 -0.124981,-0.0059 -0.187471,-0.0088 1.027113,0.618497 2.076562,1.201332 3.081338,1.855491 0.03885,0.0253 -0.09679,0.115204 -0.117835,0.0739 -0.02756,-0.05408 0.04653,-0.11212 0.06979,-0.16818 -1.058493,-0.683862 -2.116986,-1.367725 -3.175479,-2.051588 -0.12488,-0.07512 -0.294136,0.332059 -0.413985,0.140574 -0.137283,0.04141 -0.273364,0.08703 -0.411847,0.124226 -0.137772,0.03701 -0.521581,0.0018 -0.416527,0.09828 0.873978,0.802887 1.883082,1.445698 2.848527,2.135901 0.02195,0.01569 0.02611,-0.05011 0.04894,-0.06448 0.241536,-0.152024 0.623948,-0.299295 0.86556,-0.402959 0.199995,-0.07544 0.398079,-0.15615 0.599985,-0.226312 0.1751,-0.06085 0.664211,-0.03808 0.530586,-0.166558 -2.711122,-2.60674 -1.897195,-2.42794 -3.377772,-1.926338 -1.486806,0.370585 -0.564925,0.05282 2.620757,2.208552 0.03183,0.02154 0.05444,-0.05591 0.08822,-0.07426 0.114181,-0.06204 0.234285,-0.112575 0.352986,-0.165453 0.174876,-0.0779 0.350516,-0.154182 0.527634,-0.226844 0.194589,-0.07983 0.391563,-0.153712 0.587345,-0.230568 0.174586,-0.06875 0.357507,-0.119268 0.523759,-0.20626 0.141729,-0.07416 0.516147,-0.170685 0.393991,-0.273956 -2.839282,-2.400341 -2.282513,-2.332208 -4.363264,-1.672471 -0.199702,0.06116 -0.3989,0.123982 -0.599106,0.183471 -0.179352,0.05329 -0.666153,0.01712 -0.539522,0.154857 0.807946,0.878809 1.822442,1.543845 2.769452,2.270654 0.03287,0.02523 0.06761,-0.05079 0.107263,-0.06284 0.232496,-0.07066 0.986038,-0.204699 1.126644,-0.231489 0.24523,-0.0374 0.48969,-0.08026 0.73569,-0.112199 0.176414,-0.02291 0.662108,0.06807 0.531117,-0.05229 -0.876333,-0.805254 -1.921219,-1.405169 -2.881828,-2.107754 -0.01516,0.01915 -0.02359,0.04662 -0.04548,0.05746 -0.154981,0.0767 -0.622713,0.232529 -0.767145,0.282657 -0.139821,0.04132 -0.277062,0.09268 -0.419465,0.123971 -0.106727,0.02345 -0.412514,-0.02627 -0.325408,0.03971 0.949729,0.719392 1.987417,1.314615 2.981126,1.971922 -0.01466,-0.03158 -0.05512,-0.06175 -0.04397,-0.09473 0.06425,-0.189995 0.412248,-0.62563 0.499674,-0.743549 0.110184,-0.146205 0.229656,-0.285852 0.330554,-0.438613 0.08884,-0.134501 0.3604,-0.317101 0.237404,-0.421285 -2.781868,-2.356388 -2.269828,-2.39084 -4.220059,-1.808383 -0.451982,0.11413 -0.906772,0.24444 -1.375934,0.263213 -0.124102,0.005 -0.475111,-0.08519 -0.37228,-0.01554 2.769665,1.876053 3.983178,1.298602 2.69601,1.835998 -0.107948,-0.07285 -0.08113,-0.02898 0.08862,-0.191421 0.31362,-0.300115 0.688103,-0.530654 1.062211,-0.745956 0.253603,-0.146267 0.505169,-0.294751 0.754956,-0.447422 1.359213,-0.830757 0.716657,-0.172087 -2.707706,-2.313878 -0.174459,0.109417 -0.365416,0.187397 -0.545126,0.287967 -0.346252,0.19377 -0.665967,0.428221 -0.988907,0.657615 -0.590141,0.426662 -1.171888,0.879997 -1.817077,1.220451 3.687454,2.356353 2.342144,2.859474 3.577356,1.473209 0.215015,-0.293003 0.407117,-0.602536 0.632131,-0.887973 z" /><g
     id="g30"
     transform="matrix(0.34626887,0.02607129,-0.02607129,0.34626887,11.813362,1.4618597)"><g
       stroke-width="2"
       fill="none"
       stroke-linecap="butt"
       id="g14"><path
         stroke="#999999"
         vector-effect="non-scaling-stroke"
         d="m 281.34,35.62 a 0.5,0.5 0 0 1 0.7,0.21 l 1.13,2.25 a 0.5,0.5 0 0 0 0.7,0.2 l 8.36,-4.85 a 0.5,0.5 0 0 0 0.18,-0.68 l -5.46,-9.33 a 0.5,0.5 0 0 0 -0.68,-0.18 l -98.19,56.7 a 0.5,0.5 0 0 0 -0.18,0.68 l 3.6,6.3 a 0.5,0.5 0 0 0 0.68,0.19 l 89.16,-51.49"
         id="path2" /><path
         stroke="#999999"
         vector-effect="non-scaling-stroke"
         d="m 278.944,46.8119 a 0.29,0.29 0 0 0 -0.3962,-0.1061 l -82.4456,47.6 a 0.29,0.29 0 0 0 -0.1062,0.3961 l 3.56,6.1662 a 0.29,0.29 0 0 0 0.3962,0.1061 l 82.4456,-47.6 a 0.29,0.29 0 0 0 0.1062,-0.3961 l -3.56,-6.1662"
         id="path4" /><path
         stroke="#999999"
         vector-effect="non-scaling-stroke"
         d="m 106.44,177.3 c -2.76,2.08 -18.67,13.08 -13.71,17.77 q 0.41,0.39 0.9,0.11 l 11.29,-6.51 a 0.67,0.67 0 0 1 0.91,0.25 l 10.62,18.38 q 0.29,0.49 0.72,0.12 l 74,-63.26 q 0.39,-0.34 0.22,-0.84 -2.49,-7.15 -5.01,-14.31 c -1.3,-3.7 -0.76,-6.59 -0.31,-10.33 a 1.63,1.6 33.9 0 0 -0.2,-0.98 L 168.99,88.5 q -0.26,-0.44 -0.71,-0.22 L 153,95.71 q -0.48,0.23 -0.21,0.69 l 28.82,50.03 a 0.59,0.59 0 0 1 -0.22,0.8 l -64.44,37.2 a 0.64,0.64 0 0 1 -0.87,-0.23 L 88.59,136.6 a 0.43,0.43 0 0 0 -0.74,-0.01 c -6.58,11.2 -6.28,27.04 5.57,34.73 3.57,2.31 8.54,3.6 12.91,5.22 q 0.75,0.28 0.11,0.76"
         id="path6" /><path
         stroke="#999999"
         vector-effect="non-scaling-stroke"
         d="m 123.87,193 a 5.09,5.09 0 0 0 -5.09,-5.09 5.09,5.09 0 0 0 -5.09,5.09 5.09,5.09 0 0 0 5.09,5.09 5.09,5.09 0 0 0 5.09,-5.09"
         id="path8" /><path
         stroke="#999999"
         vector-effect="non-scaling-stroke"
         d="m 128.81,140.44 c -6.1,-1.8 -11.55,-12.45 -4.74,-16.36 q 8.03,-4.62 16.1,-9.25 0.46,-0.26 0.19,-0.72 l -3.91,-6.79 q -0.24,-0.41 -0.65,-0.17 -8.46,4.93 -17.65,8.22 c -5.7,2.04 -9.81,4.57 -14.72,7.48 q -0.57,0.33 -0.24,0.91 l 19.52,33.79 q 0.26,0.46 0.73,0.2 c 5.36,-2.88 9.57,-5.35 14.6,-9.58 q 7.09,-5.98 15.23,-10.64 a 0.57,0.56 59.9 0 0 0.2,-0.78 l -3.43,-5.8 a 0.53,0.53 0 0 0 -0.73,-0.19 c -4.06,2.33 -16.41,10.88 -20.5,9.68"
         id="path10" /><path
         stroke="#999999"
         vector-effect="non-scaling-stroke"
         d="m 84.98,222.35 -5.64,-9.88 q -0.37,-0.65 -0.94,-0.17 c -13.69,11.59 -15.92,27.06 -14.79,43.89 1.55,22.95 7.03,45.51 10.13,68.28 q 0.07,0.5 0.51,0.25 l 52.51,-30.5 q 0.55,-0.32 0.09,-0.75 c -17.48,-16.59 -38.83,-41.23 -23.12,-66.5 q 0.3,-0.48 0.02,-0.98 l -5.67,-9.77 q -0.29,-0.49 -0.78,-0.2 l -11.41,6.58 q -0.58,0.33 -0.91,-0.25"
         id="path12" /><path
         stroke="#999999"
         vector-effect="non-scaling-stroke"
         d="m 93.85,272.45 a 8.12,8.12 0 0 0 -8.12,-8.12 8.12,8.12 0 0 0 -8.12,8.12 8.12,8.12 0 0 0 8.12,8.12 8.12,8.12 0 0 0 8.12,-8.12"
         id="path14" /></g><path
       fill="#323232"
       d="M 261.73,27.31 259.28,23 a 0.79,0.78 36.3 0 1 -0.09,-0.55 c 0.7,-3.55 5.68,-5.58 8.52,-7.22 4.2,-2.42 8.46,-1.47 11.89,1.56 a 1.12,1.12 0 0 0 1.31,0.13 l 8.19,-4.82 a 0.63,0.62 -30.1 0 1 0.85,0.22 l 13.71,23.29 a 0.64,0.64 0 0 1 -0.23,0.87 l -15.35,8.76 q -0.47,0.27 -0.19,0.73 l 5.77,9.62 a 0.62,0.61 59.8 0 1 -0.22,0.86 l -96.33,55.64 a 0.56,0.55 59.7 0 1 -0.75,-0.2 l -19.6,-34.11 q -0.35,-0.6 0.25,-0.95 l 84.51,-48.74 q 0.49,-0.29 0.21,-0.78 z m 19.61,8.31 a 0.5,0.5 0 0 1 0.7,0.21 l 1.13,2.25 a 0.5,0.5 0 0 0 0.7,0.2 l 8.36,-4.85 a 0.5,0.5 0 0 0 0.18,-0.68 l -5.46,-9.33 a 0.5,0.5 0 0 0 -0.68,-0.18 l -98.19,56.7 a 0.5,0.5 0 0 0 -0.18,0.68 l 3.6,6.3 a 0.5,0.5 0 0 0 0.68,0.19 z m -2.396,11.1919 a 0.29,0.29 0 0 0 -0.3962,-0.1061 l -82.4456,47.6 a 0.29,0.29 0 0 0 -0.1062,0.3961 l 3.56,6.1662 a 0.29,0.29 0 0 0 0.3962,0.1061 l 82.4456,-47.6 a 0.29,0.29 0 0 0 0.1062,-0.3961 z"
       id="path16" /><path
       fill="#ffffff"
       d="m 281.34,35.62 -89.16,51.49 a 0.5,0.5 0 0 1 -0.68,-0.19 l -3.6,-6.3 a 0.5,0.5 0 0 1 0.18,-0.68 l 98.19,-56.7 a 0.5,0.5 0 0 1 0.68,0.18 l 5.46,9.33 a 0.5,0.5 0 0 1 -0.18,0.68 l -8.36,4.85 a 0.5,0.5 0 0 1 -0.7,-0.2 l -1.13,-2.25 a 0.5,0.5 0 0 0 -0.7,-0.21 z"
       id="path18" /><rect
       fill="#ffffff"
       x="-47.889999"
       y="-3.8499999"
       transform="rotate(-30,257.41232,-409.52658)"
       width="95.779999"
       height="7.6999998"
       rx="0.28999999"
       id="rect18"
       ry="0.28999999" /><path
       fill="#323232"
       d="m 119.09,172.98 a 0.68,0.67 59.8 0 0 0.92,0.25 l 50.28,-29.01 a 0.54,0.54 0 0 0 0.2,-0.74 L 141.3,92.96 a 0.62,0.61 -27.9 0 1 0.27,-0.86 l 29.9,-14.44 q 0.59,-0.29 0.91,0.28 l 21.93,37.98 a 1.45,1.4 34.6 0 1 0.18,0.89 c -0.41,3.65 -1.25,7.12 0.05,10.71 q 3.33,9.17 6.37,18.42 0.17,0.51 -0.23,0.85 -16.29,13.95 -32.53,27.81 c -10.75,9.17 7.38,18.2 5.83,29.63 -1.36,10.11 -10.45,15.83 -18.91,21.34 -15.4,10.01 -21.71,-7.49 -36.45,-2.34 q -0.48,0.17 -0.93,-0.07 -2.16,-1.13 -2.93,-2.45 -5.98,-10.34 -11.96,-20.7 -0.29,-0.49 -0.78,-0.21 l -11.36,6.61 a 0.83,0.83 0 0 1 -1.13,-0.29 q -2.66,-4.43 -5.08,-8.74 c -3.12,-5.57 1.6,-13.59 5.84,-17.09 a 0.85,0.85 0 0 0 -0.09,-1.38 q -10.19,-6.27 -13.67,-17.73 -0.14,-0.46 -0.57,-0.66 c -2.94,-1.38 -6.38,-1.42 -9.35,-2.31 -8.06,-2.43 -9.8,-7.46 -19.74,-5.88 q -0.59,0.1 -0.55,-0.49 0.5,-8 7.03,-8.86 c 7.74,-1.02 15.6,5.42 22.78,-0.56 a 1.65,1.6 80.2 0 0 0.52,-0.76 q 3.66,-11.3 12.6,-19.11 0.47,-0.42 0.79,0.13 z m -12.65,4.32 c -2.76,2.08 -18.67,13.08 -13.71,17.77 q 0.41,0.39 0.9,0.11 l 11.29,-6.51 a 0.67,0.67 0 0 1 0.91,0.25 l 10.62,18.38 q 0.29,0.49 0.72,0.12 l 74,-63.26 q 0.39,-0.34 0.22,-0.84 -2.49,-7.15 -5.01,-14.31 c -1.3,-3.7 -0.76,-6.59 -0.31,-10.33 a 1.63,1.6 33.9 0 0 -0.2,-0.98 L 168.99,88.5 q -0.26,-0.44 -0.71,-0.22 L 153,95.71 q -0.48,0.23 -0.21,0.69 l 28.82,50.03 a 0.59,0.59 0 0 1 -0.22,0.8 l -64.44,37.2 a 0.64,0.64 0 0 1 -0.87,-0.23 L 88.59,136.6 a 0.43,0.43 0 0 0 -0.74,-0.01 c -6.58,11.2 -6.28,27.04 5.57,34.73 3.57,2.31 8.54,3.6 12.91,5.22 q 0.75,0.28 0.11,0.76 z m 61.47,29.54 c 2.81,-7.91 -5.14,-19.45 -13.98,-18.29 -4.17,0.56 -9.95,6.71 -13.11,9.49 a 1.74,1.74 0 0 0 -0.56,1.67 q 2.36,11.37 13.61,14.27 0.48,0.13 0.68,0.58 0.63,1.46 -0.71,2.44 -0.43,0.31 -0.96,0.3 c -8.42,-0.25 -14.84,-5.91 -18.2,-13.3 a 0.53,0.53 0 0 0 -0.96,-0.01 c -1.17,2.48 -1.82,4.92 -1.01,7.67 1.97,6.7 9.34,13.67 16.87,10.81 5.61,-2.14 16.32,-10 18.33,-15.63 z"
       id="path20" /><path
       fill="#ffffff"
       d="m 106.33,176.54 c -4.37,-1.62 -9.34,-2.91 -12.91,-5.22 -11.85,-7.69 -12.15,-23.53 -5.57,-34.73 a 0.43,0.43 0 0 1 0.74,0.01 l 27.49,47.6 a 0.64,0.64 0 0 0 0.87,0.23 l 64.44,-37.2 a 0.59,0.59 0 0 0 0.22,-0.8 L 152.79,96.4 q -0.27,-0.46 0.21,-0.69 l 15.28,-7.43 q 0.45,-0.22 0.71,0.22 l 16.88,29.2 a 1.63,1.6 33.9 0 1 0.2,0.98 c -0.45,3.74 -0.99,6.63 0.31,10.33 q 2.52,7.16 5.01,14.31 0.17,0.5 -0.22,0.84 l -74,63.26 q -0.43,0.37 -0.72,-0.12 l -10.62,-18.38 a 0.67,0.67 0 0 0 -0.91,-0.25 l -11.29,6.51 q -0.49,0.28 -0.9,-0.11 c -4.96,-4.69 10.95,-15.69 13.71,-17.77 q 0.64,-0.48 -0.11,-0.76 z M 123.87,193 a 5.09,5.09 0 0 0 -5.09,-5.09 5.09,5.09 0 0 0 -5.09,5.09 5.09,5.09 0 0 0 5.09,5.09 5.09,5.09 0 0 0 5.09,-5.09 z"
       id="path22" /><path
       fill="#323232"
       d="m 129.78,131.7 a 0.94,0.93 -33.1 0 0 1.21,0.25 l 21.3,-12.37 q 0.53,-0.31 0.84,0.23 l 11.48,19.84 a 0.65,0.65 0 0 1 -0.26,0.9 q -11.75,6.33 -22.31,14.74 c -0.94,0.75 -1.54,1.99 -2.65,2.66 q -9.26,5.56 -18.94,11.04 a 0.54,0.54 0 0 1 -0.73,-0.2 L 92,120.73 q -0.36,-0.61 0.26,-0.96 9.14,-5.25 18.22,-10.45 0.93,-0.53 2.15,-0.87 c 9.05,-2.48 18.16,-7.42 26,-12.28 a 0.72,0.72 0 0 1 1.01,0.25 l 11.95,20.73 q 0.24,0.42 -0.18,0.67 -10.54,6.05 -21.1,11.98 -1.37,0.78 -0.53,1.9 z m -0.97,8.74 c -6.1,-1.8 -11.55,-12.45 -4.74,-16.36 q 8.03,-4.62 16.1,-9.25 0.46,-0.26 0.19,-0.72 l -3.91,-6.79 q -0.24,-0.41 -0.65,-0.17 -8.46,4.93 -17.65,8.22 c -5.7,2.04 -9.81,4.57 -14.72,7.48 q -0.57,0.33 -0.24,0.91 l 19.52,33.79 q 0.26,0.46 0.73,0.2 c 5.36,-2.88 9.57,-5.35 14.6,-9.58 q 7.09,-5.98 15.23,-10.64 a 0.57,0.56 59.9 0 0 0.2,-0.78 l -3.43,-5.8 a 0.53,0.53 0 0 0 -0.73,-0.19 c -4.06,2.33 -16.41,10.88 -20.5,9.68 z"
       id="path24" /><path
       fill="#ffffff"
       d="m 128.81,140.44 c 4.09,1.2 16.44,-7.35 20.5,-9.68 a 0.53,0.53 0 0 1 0.73,0.19 l 3.43,5.8 a 0.57,0.56 59.9 0 1 -0.2,0.78 q -8.14,4.66 -15.23,10.64 c -5.03,4.23 -9.24,6.7 -14.6,9.58 q -0.47,0.26 -0.73,-0.2 l -19.52,-33.79 q -0.33,-0.58 0.24,-0.91 c 4.91,-2.91 9.02,-5.44 14.72,-7.48 q 9.19,-3.29 17.65,-8.22 0.41,-0.24 0.65,0.17 l 3.91,6.79 q 0.27,0.46 -0.19,0.72 -8.07,4.63 -16.1,9.25 c -6.81,3.91 -1.36,14.56 4.74,16.36 z"
       id="path26" /><circle
       fill="#323232"
       cx="118.78"
       cy="193"
       r="5.0900002"
       id="circle26" /><path
       fill="#323232"
       d="m 115.1,225.18 a 0.71,0.71 0 0 1 0.21,1.1 c -6.97,8.07 -11.33,14.84 -8.08,25.99 4.71,16.12 20.45,31.86 33.32,42.45 a 0.63,0.63 0 0 1 -0.09,1.03 L 68.05,337.8 q -0.77,0.45 -0.88,-0.44 -3.22,-26.52 -8.22,-52.89 C 55.8,267.83 53.16,247.96 57.01,231.76 60.5,217.09 69.53,208.13 80.82,199.78 q 0.46,-0.34 0.75,0.16 L 88,211.12 a 0.73,0.73 0 0 0 1,0.27 l 11.31,-6.55 q 0.48,-0.28 0.76,0.2 4.81,8.16 9.46,16.32 c 1.18,2.07 2.53,2.78 4.57,3.82 z m -30.12,-2.83 -5.64,-9.88 q -0.37,-0.65 -0.94,-0.17 c -13.69,11.59 -15.92,27.06 -14.79,43.89 1.55,22.95 7.03,45.51 10.13,68.28 q 0.07,0.5 0.51,0.25 l 52.51,-30.5 q 0.55,-0.32 0.09,-0.75 c -17.48,-16.59 -38.83,-41.23 -23.12,-66.5 q 0.3,-0.48 0.02,-0.98 l -5.67,-9.77 q -0.29,-0.49 -0.78,-0.2 l -11.41,6.58 q -0.58,0.33 -0.91,-0.25 z"
       id="path28" /><path
       fill="#ffffff"
       d="m 85.89,222.6 11.41,-6.58 q 0.49,-0.29 0.78,0.2 l 5.67,9.77 q 0.28,0.5 -0.02,0.98 c -15.71,25.27 5.64,49.91 23.12,66.5 q 0.46,0.43 -0.09,0.75 l -52.51,30.5 q -0.44,0.25 -0.51,-0.25 c -3.1,-22.77 -8.58,-45.33 -10.13,-68.28 -1.13,-16.83 1.1,-32.3 14.79,-43.89 q 0.57,-0.48 0.94,0.17 l 5.64,9.88 q 0.33,0.58 0.91,0.25 z m 7.96,49.85 a 8.12,8.12 0 0 0 -8.12,-8.12 8.12,8.12 0 0 0 -8.12,8.12 8.12,8.12 0 0 0 8.12,8.12 8.12,8.12 0 0 0 8.12,-8.12 z"
       id="path30" /><circle
       fill="#323232"
       cx="85.730003"
       cy="272.45001"
       r="8.1199999"
       id="circle30" /></g><path
     style="fill:#4d4d4d;fill-opacity:1;stroke:#333333;stroke-width:0.51277"
     d="m 28.853935,114.24475 c -0.0656,-0.85033 -0.35204,-3.99739 -0.636542,-6.99346 -0.802701,-8.453184 -0.924768,-10.342189 -0.934838,-14.466865 -0.01,-4.088908 0.220479,-6.097361 0.96322,-8.394356 0.516656,-1.597804 1.604481,-3.656906 2.521606,-4.773049 0.764798,-0.930761 2.539761,-2.549687 2.795434,-2.549687 0.07415,0 0.520883,0.843901 0.992729,1.875335 0.483917,1.057817 0.965093,1.875335 1.103789,1.875335 0.135236,0 1.13227,-0.444539 2.215629,-0.987864 1.083359,-0.543325 2.026385,-0.952611 2.095614,-0.909525 0.06923,0.04309 0.518128,0.876487 0.997554,1.852002 l 0.871683,1.773663 -0.743553,1.232827 c -0.408954,0.678056 -0.954605,1.876531 -1.212557,2.663278 -0.672549,2.051259 -0.663109,4.845963 0.02414,7.144774 1.12583,3.765869 3.006197,6.801212 7.602592,12.272332 l 0.556273,0.66214 -1.461134,0.73464 c -1.614469,0.81174 -11.600154,5.6554 -15.285605,7.41443 l -2.346763,1.1201 z m 6.357986,-13.42771 c 0.835077,-0.23195 1.878654,-1.375126 2.039889,-2.234579 0.361341,-1.926116 -1.473793,-3.761249 -3.399908,-3.399907 -0.903184,0.169437 -2.00753,1.206917 -2.2523,2.115926 -0.390069,1.448605 0.421756,2.90845 1.913036,3.44008 0.845402,0.30137 0.889471,0.30341 1.699283,0.0785 z"
     id="path32" /><path
     style="fill:#898989;fill-opacity:1;stroke:#333333;stroke-width:0.51277"
     d="m 45.214646,72.969319 c -0.898961,-1.859909 -1.69497,-3.41834 -1.768908,-3.463184 -0.07394,-0.04484 -1.122541,0.388294 -2.33023,0.962531 l -2.195798,1.044063 -0.189426,-0.415746 c -0.426989,-0.937137 0.857898,-2.422232 3.821957,-4.41749 0.859529,-0.578593 1.56278,-1.112696 1.56278,-1.186898 0,-0.0742 -0.928045,-0.566773 -2.062321,-1.094603 -1.553072,-0.722716 -2.291789,-1.186079 -2.991606,-1.876501 -2.137835,-2.109132 -2.7702,-5.21252 -1.735576,-8.517501 0.32084,-1.024886 1.38633,-3.136997 1.505701,-2.984738 0.02643,0.03371 1.878164,3.878944 4.11496,8.544956 2.236797,4.666012 4.15862,8.581596 4.270718,8.701298 0.157988,0.168705 2.846345,-1.054142 11.956568,-5.438657 10.544538,-5.074815 11.743186,-5.693918 11.659691,-6.022248 -0.05118,-0.201274 -1.986834,-4.301062 -4.301442,-9.110641 -2.314607,-4.809579 -4.17616,-8.828153 -4.136781,-8.930166 0.07643,-0.197983 5.432607,-2.341176 5.551282,-2.221259 0.03872,0.03913 1.208748,2.442105 2.600048,5.339944 l 2.52964,5.268798 -0.199604,1.36814 c -0.221409,1.517618 -0.247194,1.342934 0.743392,5.036411 0.391473,1.459634 0.644183,2.713254 0.561577,2.785822 -0.08261,0.07257 -6.178053,4.537523 -13.54544,9.922124 -7.367387,5.3846 -13.483327,9.85701 -13.590978,9.938689 -0.130526,0.09904 -0.740211,-0.978002 -1.830204,-3.233144 z m 3.966214,-0.302122 c 1.468337,-1.468337 -0.215222,-3.757469 -2.123875,-2.887828 -0.94701,0.431486 -1.269864,1.867 -0.608885,2.707298 0.676349,0.859839 1.968115,0.945174 2.73276,0.18053 z"
     id="path34" /><path
     style="fill:#a7a7a7;fill-opacity:1;stroke:#333333;stroke-width:0.51277"
     d="M 45.367317,72.596676 C 44.471396,70.8213 43.625016,69.32522 43.486474,69.272057 c -0.138543,-0.05316 -1.181565,0.323537 -2.317827,0.837112 -1.136263,0.513574 -2.114368,0.885337 -2.173568,0.826137 -0.424858,-0.424858 1.218868,-2.237339 3.42321,-3.774658 1.833536,-1.278716 2.090235,-1.532893 1.845687,-1.827555 -0.112085,-0.135054 -1.095632,-0.701398 -2.18566,-1.258541 -2.160535,-1.104309 -3.372934,-2.140493 -4.04678,-3.458603 -0.846746,-1.656319 -1.079379,-3.483467 -0.68423,-5.374081 0.216743,-1.037018 1.19432,-3.537518 1.381631,-3.53401 0.06451,0.0012 0.757937,1.347431 1.540956,2.991606 0.783019,1.644174 2.611425,5.43117 4.063125,8.415544 l 2.639455,5.426137 0.618632,-0.100392 c 0.725667,-0.117758 5.012293,-2.096251 14.641417,-6.757747 7.647315,-3.702093 8.8516,-4.358975 8.8516,-4.828136 0,-0.171611 -1.615594,-3.711068 -3.590209,-7.86546 -4.553761,-9.580658 -4.716294,-9.945413 -4.519152,-10.141788 0.192333,-0.191585 4.734489,-2.00698 4.816444,-1.925023 0.03119,0.03119 1.147798,2.330248 2.481358,5.109026 l 2.424654,5.052322 -0.110648,1.641095 c -0.100899,1.496452 -0.05373,1.86935 0.535192,4.230843 0.355213,1.424361 0.677512,2.730421 0.716221,2.902356 0.0518,0.230064 -0.597237,0.800323 -2.458011,2.15968 -1.390614,1.01589 -7.189937,5.257678 -12.887383,9.426196 -5.697446,4.168517 -10.614892,7.759435 -10.927658,7.979819 l -0.568665,0.400698 z m 3.562879,0.606478 c 1.118,-0.66042 1.418234,-2.134662 0.626381,-3.075724 -1.293063,-1.536718 -3.667716,-0.771065 -3.719379,1.19923 -0.04267,1.627405 1.712267,2.692111 3.092998,1.876494 z"
     id="path36" /><path
     style="fill:#a7a7a7;fill-opacity:1;stroke:#333333;stroke-width:0.51277"
     d="m 47.34077,53.146227 c -1.604525,-3.333426 -2.918995,-6.126335 -2.921045,-6.206465 -0.0067,-0.261541 2.95763,-1.618398 4.78549,-2.19046 0.982318,-0.307435 2.830863,-0.965035 4.107877,-1.461334 1.277013,-0.496299 2.462714,-0.915101 2.634891,-0.930671 0.222825,-0.02015 0.475552,0.319504 0.87689,1.178505 0.310114,0.663748 0.530914,1.235052 0.490667,1.269564 -0.04025,0.03451 -1.491684,0.747785 -3.225418,1.585051 -3.556403,1.717482 -3.821509,1.956929 -3.80042,3.432592 0.01596,1.116581 0.519058,2.131352 1.492842,3.011107 1.229441,1.110726 2.377902,0.905242 6.377482,-1.141063 l 2.042928,-1.045224 0.350171,0.573567 c 0.364628,0.597249 0.789339,1.723544 0.680964,1.805854 -0.03435,0.02609 -0.705423,0.388684 -1.491278,0.805771 -0.785854,0.417087 -2.43347,1.425629 -3.661368,2.241203 -1.976758,1.312971 -5.27417,3.132777 -5.67646,3.132777 -0.08079,0 -1.459689,-2.727348 -3.064213,-6.060774 z"
     id="path37" /><path
     style="fill:#a7a7a7;fill-opacity:1;stroke:#333333;stroke-width:0.51277"
     d="m 75.348891,35.344201 c -0.294316,-0.649099 -0.510297,-1.200564 -0.479958,-1.225479 0.215865,-0.177275 35.538597,-17.089729 35.585537,-17.038283 0.15093,0.165436 1.72428,3.412632 1.67491,3.456804 -0.25401,0.227251 -3.06168,1.520868 -3.13714,1.445415 -0.0536,-0.05358 -0.19249,-0.279684 -0.30867,-0.502445 -0.11619,-0.222762 -0.28506,-0.390498 -0.37526,-0.372747 -0.0902,0.01775 -7.35294,3.493818 -16.139428,7.724594 -8.786486,4.230776 -16.045053,7.692319 -16.130151,7.692319 -0.0851,0 -0.395525,-0.53108 -0.68984,-1.180178 z"
     id="path38" /><path
     style="fill:#a7a7a7;fill-opacity:1;stroke:#333333;stroke-width:0.51277"
     d="m 77.787942,40.466614 c -0.284018,-0.594233 -0.477076,-1.119744 -0.429018,-1.167802 0.04806,-0.04806 6.753316,-3.29568 14.900573,-7.216938 l 14.813193,-7.12956 0.56501,1.097696 c 0.31076,0.603732 0.51169,1.14864 0.44651,1.210905 -0.14852,0.141884 -29.130451,14.095369 -29.505358,14.20549 -0.192969,0.05668 -0.427913,-0.240312 -0.79091,-0.999791 z"
     id="path39" /><path
     style="fill:#323232;fill-opacity:1;stroke:#333333;stroke-width:2.871"
     id="path40"
     d="m 68.887316,33.397269 c 0.32771,0.244676 0.63806,0.508594 0.932339,0.792385 0.252589,0.222762 0.351678,0.52348 0.423385,0.841292 0.08031,0.447852 0.168337,0.894059 0.268917,1.337801 0.142579,0.726651 0.388487,1.423663 0.673799,2.10491 0.297712,0.682769 0.738914,1.28413 1.193954,1.868301 0.306595,0.360226 0.567081,0.75193 0.805751,1.159295 0.170903,0.289967 0.333738,0.585396 0.519216,0.866419 0.133811,0.244983 0.27293,0.488521 0.389899,0.742206 0.10348,0.242167 0.118883,0.507687 0.130404,0.767428 9.06e-4,0.04551 0.0074,0.194882 -0.0034,0.247923 -0.0076,0.03704 -0.249402,0.07365 -0.280643,0.0782 -0.119415,9.3e-5 -0.234236,-0.03444 -0.350661,-0.05662 -0.03971,-0.0076 -0.08073,-0.0099 -0.119204,-0.02236 -0.08322,-0.02685 -0.131099,-0.06928 -0.201233,-0.119135 -1.087331,-0.713866 -0.118347,-0.0747 2.93956,1.682629 0.03862,0.02219 -0.07888,-0.04201 -0.114951,-0.06813 -0.117067,-0.08478 -0.194183,-0.191178 -0.270086,-0.311421 -0.158648,-0.389965 -0.177094,-0.819922 -0.226156,-1.233871 -0.07363,-0.689371 -0.198937,-1.371417 -0.292966,-2.058009 -0.08408,-0.584128 -0.06093,-1.175535 -0.104481,-1.762299 -0.01907,-0.256898 -0.06556,-0.615455 -0.09697,-0.873642 -0.06327,-0.547461 -0.169983,-1.087452 -0.358968,-1.605402 -0.167559,-0.405397 -0.311856,-0.819763 -0.458609,-1.232994 -0.115046,-0.371609 -0.233559,-0.741622 -0.425241,-1.081403 -0.142023,-0.239738 -0.336344,-0.435147 -0.545888,-0.61513 -1.092318,-0.624093 -2.179342,-1.257544 -3.276954,-1.87228 -0.03861,-0.02162 -0.08537,-0.02333 -0.128115,-0.03478 -0.08984,-0.02407 -0.165559,-0.0364 -0.246463,-0.0844 -0.03255,-0.01931 -0.12166,-0.08952 -0.08878,-0.07078 1.032587,0.588812 2.059368,1.187747 3.089053,1.781621 -1.136263,-0.837409 -0.0459,-0.206674 -3.456262,-1.904418 -0.05042,-0.0251 -0.103014,0.04561 -0.154948,0.06741 -0.381765,0.160308 0.06683,-0.0345 -0.312856,0.131858 -0.212679,0.100207 -0.417148,0.2206 -0.632562,0.31503 -0.03046,0.01335 -0.06657,0.01449 -0.09411,0.03313 -0.03179,0.02152 -0.05257,0.05596 -0.07885,0.08394 1.078701,0.655334 2.138033,1.34367 3.236104,1.966003 0.03621,0.02052 0.06501,-0.05215 0.09939,-0.07561 0.245867,-0.16775 0.508649,-0.304581 0.768574,-0.448618 0.367561,-0.178848 0.747013,-0.335152 1.1504,-0.408495 0.08688,-0.02535 0.179152,-0.0032 0.2667,-0.01266 0.08185,-0.0088 0.161914,-0.03196 0.244769,-0.03985 0.26552,-0.0068 0.528021,-0.0424 0.792664,-0.06154 0.04362,-0.0023 0.08725,-0.0046 0.130873,-0.0069 0,0 -3.00541,-2.146786 -3.00541,-2.146786 v 0 c -0.04142,0.0046 -0.08284,0.0092 -0.124264,0.01374 -0.275969,0.02738 -0.552851,0.02653 -0.828829,0.05303 -0.178141,0.02638 -0.357501,0.04053 -0.524553,0.115011 -0.379472,0.152479 -0.740547,0.34584 -1.10955,0.521364 -0.225047,0.108056 -0.449096,0.221169 -0.678774,0.319254 -1.31999,0.563707 -1.946142,-0.875319 2.83743,2.107148 -0.01967,0.01742 -0.03647,0.03879 -0.05903,0.05227 -0.02213,0.01323 0.03656,-0.03678 0.05773,-0.0515 0.03718,-0.02584 0.07666,-0.04836 0.116598,-0.06968 0.154189,-0.08231 0.317296,-0.147759 0.481866,-0.205857 0.08738,-0.02589 0.186921,-0.06328 0.280599,-0.05969 0.0389,0.0015 0.146942,0.04793 0.113267,0.02841 -1.03466,-0.599898 -2.080016,-1.181155 -3.120024,-1.771732 0.107898,0.04312 0.0573,0.01288 0.150023,0.09366 1.08434,0.632525 2.164142,1.272894 3.25302,1.897575 0.06799,0.039 0.151525,0.04103 0.225006,0.06831 1.090081,0.404718 3.406367,2.931642 -2.83017,-1.652591 0.256503,0.09191 0.459843,0.283298 0.646785,0.476342 0.06554,0.08281 0.144202,0.175576 0.196449,0.268126 0.131551,0.233026 0.215792,0.495044 0.302387,0.746441 0.14385,0.414742 0.275919,0.834061 0.438468,1.241982 0.02449,0.05526 0.153209,0.344482 0.173794,0.396317 0.153168,0.385709 0.259358,0.789762 0.349419,1.194066 0.06822,0.388954 0.08769,0.451385 0.122401,0.849636 0.05153,0.591273 0.03258,1.186311 0.08531,1.777541 0.06508,0.665873 0.137671,1.330995 0.186638,1.99827 0.06594,0.817601 -0.02755,-0.309453 0.04532,0.470816 0.02014,0.215608 0.02714,0.433996 0.05379,0.648943 0.0077,0.06185 0.02123,0.122823 0.03185,0.184235 0.0456,0.183326 0.08366,0.298154 0.192361,0.453852 0.02871,0.04111 0.04667,0.09496 0.08963,0.12082 2.973564,1.790021 2.1104,1.437845 3.395805,1.951613 0.273197,0.05917 0.556542,0.07892 0.825388,-0.01278 0.215227,-0.0959 0.426643,-0.223787 0.511276,-0.461063 0.01132,-0.03173 0.0065,-0.251518 0.0062,-0.280928 -0.0037,-0.292746 -0.0087,-0.586883 -0.07149,-0.874352 -0.03722,-0.121754 -0.04309,-0.156481 -0.09758,-0.272301 -0.08489,-0.180452 -0.200955,-0.34517 -0.279911,-0.528671 -0.156566,-0.319916 -0.387493,-0.597001 -0.575168,-0.89889 -0.253989,-0.420109 -0.461327,-0.877131 -0.817008,-1.225203 -0.488919,-0.556145 -0.969231,-1.128089 -1.292922,-1.80048 -0.284127,-0.648443 -0.537455,-1.290874 -0.62376,-1.999715 -0.07501,-0.436262 -0.168602,-0.869114 -0.225842,-1.308198 -0.04971,-0.37107 -0.108397,-0.735333 -0.333982,-1.046717 -0.27008,-0.274964 -0.556132,-0.534883 -0.847562,-0.786794 z" /><path
     style="fill:#323232;fill-opacity:1;stroke:#333333;stroke-width:2.871"
     id="path41"
     d="m 39.062854,45.356736 c 0.08588,0.435634 0.169075,0.871923 0.26686,1.305073 0.09333,0.417907 0.217785,0.827881 0.358605,1.231997 0.138277,0.374413 0.237484,0.759871 0.329528,1.14753 0.08978,0.384373 0.196433,0.759884 0.345825,1.125394 0.259164,0.583705 0.508708,1.171338 0.768153,1.754964 0.346974,0.75919 0.683961,1.523218 1.062968,2.267127 0.373807,0.706048 0.811257,1.376299 1.294621,2.011709 0.33661,0.442212 0.705201,0.857829 1.042902,1.299149 0.357302,0.469148 0.664354,0.972699 0.936494,1.495092 0.256223,0.493329 0.443217,1.016421 0.590485,1.551185 0.105393,0.34129 0.149619,0.696786 0.234841,1.042499 0.08208,0.262655 0.227807,0.517946 0.421066,0.714697 0.220393,0.19969 0.396832,0.445061 0.56269,0.69076 1.269688,1.940411 2.394375,1.998213 3.957051,2.042942 0.342203,-0.03174 0.61626,-0.258091 0.877001,-0.462298 0.297029,-0.240327 0.604087,-0.466997 0.909199,-0.697339 0.119765,-0.11107 0.386898,-0.221605 0.495997,-0.335244 0.03129,-0.03259 0.113976,-0.08632 0.07666,-0.111794 -1.047774,-0.71504 -2.145156,-1.354533 -3.217734,-2.031799 -0.574978,0.368165 -1.181053,0.685243 -1.764074,1.041665 -1.544293,1.013093 -1.221258,0.701932 2.811119,2.211949 0.179875,0.06736 0.307523,-0.230432 0.466293,-0.338527 0.20256,-0.13791 0.411539,-0.26615 0.617308,-0.399224 1.293061,-0.822831 2.587351,-1.641853 3.918494,-2.401961 0.985228,-0.541502 1.996125,-1.033788 2.990673,-1.557398 0.647724,-0.357107 1.286887,-0.728377 1.949211,-1.058272 0.522659,-0.24638 1.040875,-0.499648 1.551352,-0.770278 0.485377,-0.260726 0.963557,-0.532497 1.434486,-0.81831 0.23786,-0.119254 0.463541,-0.263919 0.700077,-0.385154 0.100856,-0.05169 0.206424,-0.09374 0.307891,-0.144221 0.04425,-0.0192 0.08725,-0.04161 0.132762,-0.05759 0.04182,-0.01468 0.08676,-0.01921 0.128505,-0.03411 0.215412,-0.07686 0.420174,-0.193787 0.621388,-0.30091 0.314436,-0.175395 0.578473,-0.400068 0.783505,-0.695215 0.239511,-0.339112 0.292196,-0.723257 0.28327,-1.12742 -0.02418,-0.453335 -0.186546,-0.873746 -0.370116,-1.282985 -0.223052,-0.464462 -0.477713,-0.913802 -0.749828,-1.351139 -0.230787,-0.345049 -0.473257,-0.68409 -0.734172,-1.007106 -0.29147,-0.327536 -0.553143,-0.679757 -0.803009,-1.039558 -0.256953,-0.381014 -0.493028,-0.776635 -0.722193,-1.174958 -0.16941,-0.292289 -0.318054,-0.531093 -0.594957,-0.731476 -1.395128,0.790429 -2.451002,-2.038552 -3.943857,-2.087816 -0.299099,-0.0099 -0.41913,0.03475 -0.726179,0.09522 -0.809279,0.183748 -1.601477,0.44259 -2.372061,0.749662 -0.42425,0.182175 -0.859048,0.334016 -1.279702,0.525371 -0.477249,0.238296 -0.993596,0.391395 -1.460823,0.65096 -0.09415,0.05231 -0.183349,0.113075 -0.275024,0.169613 -0.380372,0.220887 -0.740941,0.473914 -1.081648,0.751693 -0.182567,0.139961 -0.374288,0.261783 -0.581861,0.36032 0,0 3.104136,2.023406 3.104136,2.023406 v 0 c 0.207659,-0.131229 0.408353,-0.272599 0.605949,-0.418565 0.327471,-0.256276 0.644726,-0.527291 1.0023,-0.742244 0.54847,-0.312366 1.137196,-0.538505 1.724527,-0.766848 0.431058,-0.164513 0.869843,-0.312708 1.277615,-0.531855 0.716127,-0.33545 1.463286,-0.616783 2.256504,-0.694941 0.353414,-0.0025 0.400389,-0.0291 0.718885,0.05472 0.874979,0.230271 5.301566,3.24643 -2.42368,-1.469628 0.0897,0.04196 0.1837,0.0755 0.269668,0.124655 0.181009,0.103495 0.276738,0.289826 0.409301,0.442341 0.246927,0.401547 0.498429,0.799094 0.734251,1.207655 0.248321,0.360265 0.482547,0.73177 0.766361,1.066092 0.282958,0.307522 0.519933,0.650541 0.781398,0.97636 0.288067,0.411851 0.520768,0.853926 0.762837,1.293645 0.169824,0.371209 0.351526,0.743658 0.413285,1.151515 0.02826,0.320382 0.01952,0.625692 -0.172514,0.89912 -0.188,0.23675 -0.425098,0.409597 -0.692634,0.549977 -0.291192,0.142614 -0.598901,0.241398 -0.886139,0.390837 -0.340899,0.180405 -0.674805,0.373694 -1.007334,0.569027 -0.445582,0.292396 -0.892325,0.583301 -1.372602,0.817258 -0.522104,0.251838 -1.046301,0.499554 -1.557847,0.772516 -0.63881,0.352592 -1.261427,0.73155 -1.889481,1.102518 -0.971002,0.538081 -1.945859,1.06946 -2.905484,1.627654 -1.309229,0.789162 -2.575131,1.6474 -3.897139,2.415114 -0.225604,0.119053 -0.44787,0.244657 -0.67681,0.357158 -0.18641,0.0916 -0.713457,0.105986 -0.568606,0.254841 0.821411,0.844118 1.899456,1.393227 2.849627,2.089237 0.01119,0.0082 -0.04155,-0.01513 -0.03266,-0.02578 0.05065,-0.06074 0.118693,-0.104744 0.181532,-0.152762 0.08213,-0.06276 0.168671,-0.119522 0.253007,-0.179283 0.425153,-0.263929 0.849326,-0.51761 1.316448,-0.702175 0.08943,-0.03534 0.178165,-0.07584 0.272401,-0.09499 0.05691,-0.01156 0.116101,0.0028 0.174152,0.0042 -3.435425,-2.270315 -2.119892,-2.72395 -3.497524,-1.692866 -0.304995,0.2313 -0.615662,0.454915 -0.920692,0.686054 -0.226469,0.158582 -0.450681,0.290925 -0.737727,0.242623 -0.142609,-0.01439 -0.298311,-0.02214 -0.430286,-0.08519 -0.03908,-0.01867 -0.144694,-0.09514 -0.107406,-0.07311 2.837858,1.676672 4.096423,2.466813 2.991775,1.774148 -0.213069,-0.218532 -0.371847,-0.485942 -0.550698,-0.73222 -0.03103,-0.02892 -0.06206,-0.05783 -0.0931,-0.08675 -0.03288,-0.02022 -0.07001,-0.03478 -0.09864,-0.06067 -0.122361,-0.110648 -0.187958,-0.284528 -0.307719,-0.399007 -0.129751,-0.342102 -0.174401,-0.708667 -0.291679,-1.055493 -0.148607,-0.558154 -0.328338,-1.105408 -0.574948,-1.629021 -0.270974,-0.531375 -0.553654,-1.058262 -0.901562,-1.544247 -0.332521,-0.462902 -0.693591,-0.881601 -1.058602,-1.31768 -0.509428,-0.624161 -1.002784,-1.260083 -1.383281,-1.974422 -0.375094,-0.727754 -0.697305,-1.478513 -1.029511,-2.226518 -0.1329,-0.314434 -0.279398,-0.623488 -0.407659,-0.939811 -0.399396,-0.985015 0.157787,0.360683 -0.208536,-0.560859 -0.03076,-0.07737 -0.06698,-0.152467 -0.100463,-0.2287 -0.153535,-0.341718 -0.263762,-0.693641 -0.340517,-1.060372 -0.108923,-0.397947 -0.205507,-0.798687 -0.341838,-1.188692 -0.139096,-0.39421 -0.271258,-0.790211 -0.36372,-1.198504 -0.114496,-0.403523 -0.212921,-0.815861 -0.248195,-1.234454 z" /><path
     style="fill:#323232;fill-opacity:1;stroke:#333333;stroke-width:2.871"
     id="path42"
     d="m 64.042595,46.705668 c -0.298053,-0.771198 -0.598833,-1.540484 -0.929601,-2.298486 -0.292113,-0.666881 -0.693533,-1.275776 -1.095188,-1.880059 -0.239985,-0.335398 -0.483798,-0.668205 -0.737846,-0.993099 -0.249061,-0.296547 -0.503078,-0.588772 -0.75263,-0.884996 -0.235684,-0.278233 -0.499999,-0.530161 -0.740937,-0.803564 -0.149814,-0.191195 -0.220344,-0.234375 -0.135978,-0.47332 0.04979,-0.102384 0.122391,-0.129609 0.229722,-0.141646 0.03043,-0.0034 0.06246,-0.0147 0.0917,-0.0056 0.03604,0.01121 0.06257,0.04223 0.09385,0.06334 1.037223,0.696231 2.391633,1.327006 -2.644619,-1.485269 -0.07214,-0.04028 0.132945,0.09824 0.19724,0.150134 0.163971,0.132352 0.177562,0.154157 0.32602,0.303415 0.255407,0.298747 0.366253,0.659563 0.381941,1.045889 -0.0012,0.08749 -6.74e-4,0.238113 -0.01231,0.324543 -0.0058,0.04284 -0.01126,0.165799 -0.02906,0.126399 -0.02153,-0.04767 -0.03158,-0.178665 0.01562,-0.15614 2.974666,1.419338 3.976051,2.587344 3.032917,1.521638 -0.23603,-0.388148 -0.326738,-0.832964 -0.449908,-1.263481 -0.03785,-0.114881 -0.07678,-0.246854 -0.131755,-0.354915 -0.621411,-1.221529 -3.392449,-2.214822 -3.643962,-2.360182 -0.55544,0.0706 -1.080606,0.288448 -1.607753,0.467739 -0.589214,0.190401 -1.179083,0.379696 -1.763261,0.585129 -0.390053,0.169718 -0.77317,0.35039 -1.118981,0.599611 -0.311717,0.235382 -0.638794,0.447708 -0.977069,0.642549 -0.0381,0.01773 -0.07798,0.03204 -0.114292,0.0532 -0.121454,0.07078 -0.230453,0.160501 -0.355452,0.226995 -0.05012,0.02666 -0.102305,0.04923 -0.153458,0.07384 -0.06106,0.03356 -0.122125,0.06712 -0.183187,0.10068 -0.407691,0.214279 -0.833928,0.388905 -1.260412,0.561223 -0.487134,0.223263 -1.019012,0.302741 -1.539168,0.409323 -0.319403,0.06165 -0.640833,0.09893 -0.953667,0.190227 -0.328887,0.07822 -0.65528,0.16621 -0.988224,0.227127 -0.351435,0.117928 -0.714694,0.190844 -1.073572,0.281605 -0.340496,0.05518 -0.663223,0.171259 -0.993988,0.264495 -0.218773,0.07049 -0.450195,0.07478 -0.674251,0.113478 -0.08179,0.01413 -0.161109,0.04002 -0.241744,0.0597 -0.133739,0.02196 -0.06701,0.01273 -0.200165,0.0278 0,0 3.053788,2.141533 3.053788,2.141533 v 0 c 0.142803,-0.03156 0.07128,-0.01473 0.214568,-0.05056 0.294372,-0.07196 0.59608,-0.114401 0.886946,-0.202285 0.328987,-0.08257 0.652322,-0.186652 0.983344,-0.262088 0.362101,-0.08401 0.723852,-0.168255 1.083577,-0.261855 0.334443,-0.0811 0.670583,-0.154139 1.005986,-0.231126 0.303929,-0.0635 0.607769,-0.12785 0.907307,-0.21023 0.536219,-0.129199 1.078143,-0.245159 1.590813,-0.454259 0.4279,-0.188069 0.852022,-0.385163 1.275077,-0.583815 0.292795,-0.138429 0.581055,-0.284516 0.847255,-0.470538 0.319212,-0.22488 0.645088,-0.439886 0.967169,-0.660623 0.33279,-0.209741 0.683274,-0.389674 1.045757,-0.542714 0.570906,-0.225078 1.154904,-0.408263 1.740783,-0.589928 0.33905,-0.118982 0.977666,-0.357704 1.334433,-0.276045 0.0567,0.01298 0.10603,0.04784 0.159045,0.07177 -1.004356,-0.592378 -2.007364,-1.187048 -3.013069,-1.777133 -0.04616,-0.02708 0.09162,0.05571 0.13427,0.08803 0.180528,0.136824 0.344441,0.312111 0.416172,0.529224 0.158374,0.438671 0.260702,0.895419 0.437149,1.328103 0.02128,0.075 -0.0026,0.184175 0.06384,0.225002 1.103241,0.678182 2.900674,2.820274 3.505377,1.675107 0.06815,-0.129058 0.06094,-0.393088 0.07387,-0.536978 -0.0014,-0.467758 -0.06272,-0.866372 -0.303658,-1.278344 -0.118468,-0.176452 -0.306246,-0.427332 -0.491388,-0.539804 -1.102219,-0.669587 -2.213544,-1.324248 -3.329905,-1.969981 -0.06745,-0.03901 -0.143337,-0.0627 -0.218667,-0.08261 -0.064,-0.01692 -0.131144,-0.01812 -0.196716,-0.02718 -0.320245,0.06536 -0.531766,0.177461 -0.683861,0.480654 -0.130518,0.303141 -0.202494,0.528997 -0.01667,0.830679 0.214245,0.303312 0.491971,0.549124 0.739951,0.824136 0.258665,0.286674 0.501481,0.586586 0.760819,0.87259 0.270653,0.326496 0.525206,0.664342 0.793057,0.993167 0.345155,0.454044 0.0021,-0.0074 0.350974,0.495422 0.302211,0.435503 0.622962,0.858753 0.838931,1.347526 0.323361,0.717055 0.658261,1.442173 0.828818,2.213357 z" /><path
     style="fill:#323232;fill-opacity:1;stroke:#333333;stroke-width:2.871"
     id="path43"
     d="m 34.348304,72.537247 c -0.181466,0.307178 -0.390438,0.597109 -0.604766,0.882108 -1.270297,1.37536 -0.433239,0.534283 2.775649,2.481172 0.541689,-0.483878 1.130206,-0.914337 1.722036,-1.334417 0.486731,-0.351288 1.012419,-0.648627 1.59246,-0.812004 -3.206428,-2.104476 -2.229477,-2.665781 -3.529572,-1.757664 -0.230159,0.160766 -0.476808,0.299658 -0.715529,0.447024 -0.383643,0.238748 -0.763084,0.492547 -1.101342,0.793763 -0.06172,0.05496 -0.132074,0.10368 -0.178529,0.172028 -0.04544,0.06685 -0.06076,0.14981 -0.09113,0.224715 0.346627,1.551085 0.03818,0.518647 3.55623,2.113146 0.120125,0.05445 0.260811,-0.03966 0.390592,-0.06314 0.47026,-0.08508 0.92574,-0.218035 1.387448,-0.339511 0.046,-0.01339 0.713012,-0.214906 0.803506,-0.215747 0.07692,-7.15e-4 0.14355,0.05533 0.215325,0.083 -1.041379,-0.576239 -2.045454,-1.225761 -3.124136,-1.728719 -0.07522,-0.03507 -0.03531,0.16404 -0.07276,0.238101 -0.07308,0.144533 -0.170879,0.275171 -0.256319,0.412757 -1.287305,1.755467 -1.084645,1.001098 2.688182,2.872112 0.108221,0.05367 0.219868,-0.100261 0.331494,-0.146433 0.13371,-0.05531 0.269561,-0.105288 0.404341,-0.157933 1.961249,-0.706413 1.640682,-0.371398 -2.338997,-2.418525 -0.143241,-0.07368 -0.308068,0.09473 -0.464274,0.134064 -0.22445,0.05651 -0.451481,0.102234 -0.677221,0.153351 -0.205619,0.03986 -0.90923,0.208979 -1.190313,0.165636 -0.05441,-0.0084 -0.161184,-0.147954 -0.114144,-0.119357 1.098673,0.667923 2.125317,1.461716 3.273639,2.040127 0.142281,0.07167 0.298598,-0.111188 0.448434,-0.165313 0.190642,-0.06886 0.381989,-0.135766 0.572983,-0.203649 0.302944,-0.08919 0.702527,-0.225975 1.027419,-0.256332 0.08443,-0.0079 0.324952,0.0687 0.253308,0.02334 -2.843906,-1.800356 -2.184058,-2.375728 -3.788237,-1.61791 -0.489738,0.219786 -0.978979,0.438264 -1.495298,0.58811 -0.05635,0.01635 -0.219628,0.0079 -0.171176,0.04103 3.187343,2.176957 2.09725,2.601723 3.528367,1.909283 1.784101,-0.646056 1.167878,-0.490986 -2.719615,-2.188365 -0.157139,-0.06861 -0.307399,0.152154 -0.463534,0.223021 -0.189877,0.08618 -0.382859,0.16535 -0.574288,0.248025 -1.987677,0.829678 -2.103741,0.212966 2.247227,2.407135 0.118763,0.05989 0.249488,-0.09241 0.375394,-0.135295 0.135977,-0.04632 0.273427,-0.0882 0.41014,-0.132303 -0.195928,-0.538959 0.493535,0.147252 0.381034,0.08224 -1.060728,-0.613005 -2.099711,-1.262986 -3.156418,-1.882896 -0.01046,-0.0061 0.0087,0.02354 0.0075,0.03561 -0.007,0.0706 -0.09208,0.172606 -0.03205,0.210436 1.083968,0.683121 2.234495,1.254431 3.351743,1.881646 0.649621,-0.273779 1.242707,-0.658188 1.873671,-0.969155 0.280728,-0.18776 0.861218,-0.300866 1.108083,-0.535228 0.05973,-0.05671 0.197133,-0.169125 0.126842,-0.212061 -3.304897,-2.018724 -2.309208,-2.364995 -3.850351,-1.624179 -0.812852,0.353796 -1.598731,0.759202 -2.331539,1.258049 -0.271637,0.197417 -0.552683,0.382256 -0.836522,0.561626 -0.04777,0.03019 -0.11316,0.04062 -0.145564,0.08692 -0.07065,0.100948 -0.257334,0.274494 -0.151304,0.337262 1.116702,0.661062 2.348178,1.105515 3.522268,1.658273 0.611914,-0.270371 1.220505,-0.548879 1.846604,-0.785218 0.347885,-0.13132 0.220069,-0.102574 0.459898,-0.139897 -1.069459,-0.663537 -2.111365,-1.373692 -3.208377,-1.990611 -0.05126,-0.02882 -0.09034,0.07576 -0.139647,0.107808 -0.04833,0.03141 -0.313728,0.174015 -0.33083,0.169137 -0.03576,-0.0102 -0.0209,-0.130011 0.01107,-0.111016 1.083481,0.643735 2.131763,1.344951 3.197645,2.017427 0.662061,-0.502915 1.380652,-0.925709 2.045043,-1.425517 0.498181,-0.372406 0.783103,-0.94581 1.276112,-1.320786 0.05015,-0.02322 0.09631,-0.08074 0.150451,-0.06967 0.03378,0.0069 0.04158,0.119774 0.01155,0.102807 -1.089481,-0.615729 -2.094134,-1.386697 -3.22639,-1.919696 -0.114132,-0.05373 -0.163267,0.192682 -0.252131,0.282215 -0.237086,0.238872 -0.524732,0.481001 -0.778276,0.701609 -0.101226,0.08815 -0.213401,0.165126 -0.303678,0.264464 -0.88135,0.969812 2.115445,1.591002 3.321997,2.102416 0.180289,0.07642 0.364075,-0.144445 0.54803,-0.21156 0.468678,-0.170995 1.045373,-0.360395 1.516195,-0.518034 0.219709,-0.03307 0.437089,-0.09115 0.659127,-0.09923 0.154657,-0.0056 0.313894,0.0092 0.460581,0.05849 0.09466,0.03183 0.328766,0.225797 0.241318,0.177562 -1.012452,-0.573267 -2.024905,-1.146535 -3.037358,-1.719803 0.0212,0.03312 0.05291,0.06152 0.0636,0.09937 0.01003,0.03549 -0.0028,0.0737 -0.0043,0.110553 -0.238186,0.658174 -0.593033,1.265984 -0.912695,1.886547 -0.657386,1.569064 0.862494,1.189587 3.286784,2.228701 0.004,0.0017 0.492749,-0.314768 0.498641,-0.317445 0.04817,-0.0219 0.10448,-0.01681 0.15672,-0.02522 -1.068809,-0.580028 -2.103626,-1.227624 -3.206428,-1.740082 -0.06976,-0.03242 -0.0262,0.153124 -0.05697,0.223622 -0.0737,0.168843 -0.163778,0.330267 -0.254732,0.490476 -0.87076,1.533787 0.184389,-0.39427 -0.660821,1.055606 -0.07448,0.127755 -0.133724,0.263799 -0.200586,0.395699 -0.102601,1.616415 -0.132015,0.563209 3.384009,2.346349 0.140003,0.071 0.311401,-0.03998 0.467125,-0.05977 0.187647,-0.02385 0.731335,-0.104247 0.939174,-0.08742 0.09763,0.0079 0.188042,0.05495 0.282063,0.08243 -1.032015,-0.5729 -2.055957,-1.160589 -3.096045,-1.718699 -0.01675,-0.009 0.0099,0.04123 -6.67e-4,0.05701 -0.05197,0.07737 -0.117485,0.144895 -0.180854,0.213238 -0.222658,0.240136 -0.468823,0.446851 -0.677126,0.699877 -0.09107,0.186656 -0.105797,0.327748 -0.0045,0.506104 0.02023,0.03561 0.05703,0.06438 0.06433,0.104679 0.02707,0.149516 -0.06114,0.299208 -0.111891,0.427063 -0.04498,0.07552 -0.08363,0.155196 -0.134941,0.226574 -0.833887,1.160088 -4.007897,-1.543149 3.109982,2.059925 0.06376,0.03228 0.113063,-0.08754 0.171685,-0.128413 0.08467,-0.05904 0.172019,-0.114138 0.258029,-0.171207 0.356062,-0.197626 0.720678,-0.382198 1.087821,-0.558501 0.08122,-0.039 0.609597,-0.270672 0.702572,-0.32613 0.07991,-0.04767 0.147135,-0.113956 0.220703,-0.170934 0.03509,-0.08686 0.0982,-0.16716 0.105271,-0.260569 0.01799,-0.237534 -0.08362,-0.390905 -0.282355,-0.505506 -1.136731,-0.6555 -2.288435,-1.284896 -3.442356,-1.909639 -0.08331,-0.0451 -0.348418,-0.146184 -0.266606,-0.09842 0.973536,0.568319 1.96347,1.108071 2.945205,1.662106 -0.516092,-0.345666 -0.433612,-0.978482 -0.583992,-1.509694 -0.04174,-0.147443 -0.105205,-0.287851 -0.157807,-0.431777 -0.09037,-0.14044 -0.163143,-0.293905 -0.2711,-0.421321 -0.117719,-0.138937 -0.245312,-0.27633 -0.400599,-0.371446 -1.168186,-0.715536 -2.353519,-1.404405 -3.559514,-2.054196 -0.157911,-0.08508 -0.345336,-0.09722 -0.518726,-0.143164 -0.147629,-0.03912 -0.574721,-0.19141 -0.444273,-0.11199 0.945384,0.575574 1.936129,1.073102 2.904194,1.609653 -0.03354,-0.04414 -0.09955,-0.07699 -0.100633,-0.132417 -0.0044,-0.224717 0.263295,-0.618019 0.356036,-0.754101 0.135803,-0.199267 0.513828,-0.686383 0.707807,-0.851956 0.07415,-0.06329 0.172753,-0.0904 0.25913,-0.135604 -1.063254,-0.541085 -2.078176,-1.190056 -3.18976,-1.623255 -0.117117,-0.04564 0.01237,0.252986 -0.0081,0.377002 -0.07286,0.441094 -0.319745,1.274806 -0.558477,1.661251 -0.03179,0.05147 -0.09531,0.07453 -0.142961,0.111802 5.473019,2.626347 3.520446,2.462358 3.015722,1.202584 -0.0667,-0.166477 -0.107258,-0.342271 -0.161242,-0.513294 -0.160706,-0.509126 -0.328133,-1.013753 -0.510288,-1.515581 -0.602982,-1.543504 -0.89404,-1.13811 -3.662764,-2.141698 -0.08724,-0.03162 -0.275386,0.645928 -0.27707,0.653204 -0.02501,0.10802 -0.03267,0.219333 -0.04901,0.328999 0.01456,0.108656 0.0045,0.223581 0.04368,0.325967 0.04336,0.113303 0.0939,0.243002 0.197932,0.305418 1.148781,0.689274 2.310439,1.365633 3.52596,1.928932 0.155959,0.07227 0.342615,-0.03103 0.512467,-0.05743 0.514838,-0.08002 0.525512,-0.1037 1.01189,-0.259009 0,0 -2.985326,-2.040134 -2.985326,-2.040134 v 0 c -0.37632,0.102315 -0.550706,0.174639 -0.952308,0.177112 -0.157426,9.7e-4 -0.597544,-0.141275 -0.469694,-0.04942 0.875633,0.62913 1.844341,1.117603 2.756518,1.692469 0.140289,0.08841 -0.591043,-0.229978 -0.380197,-0.320824 0.01,-0.238896 -0.01,-0.297302 0.08893,-0.520976 0.02188,-0.04948 0.139199,-0.103696 0.0935,-0.132648 -1.015291,-0.643269 -2.096694,-1.176256 -3.129545,-1.790932 -0.0634,-0.03773 0.161273,0.0045 0.214172,0.05592 0.08857,0.08612 0.118524,0.216799 0.177786,0.325199 0.272689,0.635917 0.538612,1.301622 0.661325,1.986276 0.0259,0.144507 -0.07685,0.358203 0.0464,0.437976 1.083124,0.701089 2.281812,1.205018 3.422718,1.807526 0.184667,-0.403407 0.06981,-0.129995 0.267636,-0.713937 0.156006,-0.460496 0.262553,-0.770634 0.431785,-1.226693 0.06583,-0.177399 0.351687,-0.413287 0.20288,-0.530163 -0.999313,-0.784877 -2.201593,-1.269496 -3.30239,-1.904245 -0.34642,0.355659 -0.665246,0.737777 -0.962395,1.135857 -0.178102,0.238598 -0.477762,0.640525 -0.561303,0.944227 -0.03707,0.13476 -0.01193,0.279277 -0.01789,0.418916 1.134841,0.645768 2.254477,1.319019 3.404522,1.937306 0.124561,0.06697 0.274969,0.06768 0.408965,0.1129 1.079045,0.364151 2.566198,1.370426 -2.113054,-1.352716 -0.145309,-0.08456 0.293704,0.16786 0.421208,0.277442 0.113035,0.09715 0.195866,0.224713 0.2938,0.337069 0.06037,0.121394 0.135556,0.23649 0.181121,0.364182 0.203581,0.570509 0.03658,1.245528 0.423094,1.758575 1.131595,0.649181 2.256897,1.309456 3.394784,1.947542 0.08056,0.04518 0.337197,0.148525 0.258086,0.100853 -0.956357,-0.576307 -1.940554,-1.105833 -2.892962,-1.688644 -0.07314,-0.04476 0.16308,0.05526 0.247578,0.06984 0.06223,0.01073 0.127779,-0.0085 0.189352,0.0055 0.02197,0.005 0.03155,0.03217 0.04732,0.04826 -0.240929,0.212384 -0.536361,0.324578 -0.823419,0.465018 -0.379866,0.185845 -0.762829,0.365707 -1.135941,0.564934 -0.09712,0.05535 -0.194763,0.109779 -0.291344,0.166059 -0.07135,0.04158 -0.278424,0.07788 -0.212411,0.127491 3.019073,2.26909 2.529271,3.029852 3.387048,1.517756 0.07419,-0.149939 0.434871,-0.787596 0.190008,-0.926127 -0.02747,-0.01554 -0.0631,0.0013 -0.09465,0.0019 -0.01693,-0.01372 -0.03385,-0.02743 -0.05078,-0.04115 0.02728,-0.05215 0.04474,-0.110758 0.08184,-0.156447 0.24012,-0.295724 0.586147,-0.503393 0.802406,-0.8208 0.08031,-0.117873 0.307203,-0.294651 0.193982,-0.381396 -1.011121,-0.774679 -2.180533,-1.317289 -3.2708,-1.975934 -0.399662,0.01022 -0.804324,0.09152 -1.203692,0.07473 -0.147239,-0.0062 -0.556001,-0.152447 -0.437283,-0.06513 3.937516,2.895921 3.57657,2.559113 2.695107,1.690243 0.039,-0.124722 0.06026,-0.256454 0.11701,-0.374167 0.25467,-0.528249 0.687791,-1.046187 1.009027,-1.539536 0.08646,-0.13279 0.368846,-0.310083 0.244167,-0.407881 -0.996335,-0.781521 -2.171304,-1.303559 -3.256957,-1.955339 -0.08576,0.05274 -0.320407,0.198925 -0.392755,0.233632 -0.07902,0.03791 -0.317506,0.04464 -0.245379,0.09442 0.984064,0.679207 2.067581,1.203557 3.070098,1.855219 0.04434,0.02882 -0.126705,0.08644 -0.153335,0.04075 -0.04005,-0.06872 0.02666,-0.15682 0.03999,-0.235231 0.306552,-0.664636 0.707442,-1.276902 1.025947,-1.935579 0.424384,-1.595766 -1.240181,-1.377849 -3.200861,-2.522172 -0.08017,-0.04679 -0.183633,-0.03496 -0.276444,-0.03351 -0.435805,0.0068 -0.639733,0.09409 -1.084876,0.209184 -0.57102,0.181318 -0.988498,0.326439 -1.571562,0.462259 -0.199513,0.04648 -0.754674,-0.02773 -0.604369,0.111463 0.851636,0.788653 1.909485,1.320188 2.863812,1.980883 0.02337,0.01618 -0.08513,-0.02271 -0.07092,-0.04733 0.06255,-0.108387 0.170982,-0.18278 0.256473,-0.27417 0.564508,-0.499284 0.218304,-0.201959 0.817062,-0.694558 0.11632,-0.0957 0.457991,-0.185157 0.348081,-0.288151 -3.433286,-3.217253 -2.044627,-2.894529 -3.27012,-1.976273 -0.443176,0.413416 -0.742532,0.952659 -1.21755,1.335207 -0.674172,0.525989 -1.40236,0.971162 -2.138595,1.404128 0.99916,0.733249 1.973023,1.502277 2.997479,2.199747 0.03636,0.02475 0.04973,-0.074 0.08354,-0.102129 0.04358,-0.03625 0.09661,-0.05932 0.145338,-0.08827 1.386791,-0.823793 0.821425,-0.126543 -2.692475,-2.314926 -0.213,0.185247 -0.544331,0.293709 -0.79475,0.40076 -0.470675,0.20121 -0.94571,0.398396 -1.446992,0.511297 1.012762,0.596686 2.09333,1.090932 3.038286,1.79006 0.09864,0.07298 -0.15535,0.191707 -0.21408,0.299435 -0.02314,0.04245 0.0678,-0.06922 0.105251,-0.09981 0.255822,-0.208957 0.54085,-0.379064 0.807919,-0.572461 0.71117,-0.47634 1.452741,-0.913597 2.262513,-1.202361 0.145327,-0.04145 0.55302,-0.02874 0.435981,-0.124346 -0.916318,-0.748489 -2.012003,-1.249474 -2.969211,-1.944908 -0.04801,-0.03488 0.189931,-0.141632 0.138863,-0.111405 -0.640136,0.378892 0.497892,-0.176565 -0.553554,0.325018 -0.153031,0.073 -0.308718,0.140301 -0.463077,0.210452 -0.865057,0.402731 -0.0786,0.0303 -0.837606,0.405671 -0.253493,0.125366 -0.546563,0.299059 -0.832718,0.339969 -0.06193,0.0089 -0.124981,-0.0059 -0.187471,-0.0088 1.027113,0.618497 2.076562,1.201332 3.081338,1.855491 0.03885,0.0253 -0.09679,0.115204 -0.117835,0.0739 -0.02756,-0.05408 0.04653,-0.11212 0.06979,-0.16818 -1.058493,-0.683862 -2.116986,-1.367725 -3.175479,-2.051588 -0.12488,-0.07512 -0.294136,0.332059 -0.413985,0.140574 -0.137283,0.04141 -0.273364,0.08703 -0.411847,0.124226 -0.137772,0.03701 -0.521581,0.0018 -0.416527,0.09828 0.873978,0.802887 1.883082,1.445698 2.848527,2.135901 0.02195,0.01569 0.02611,-0.05011 0.04894,-0.06448 0.241536,-0.152024 0.623948,-0.299295 0.86556,-0.402959 0.199995,-0.07544 0.398079,-0.15615 0.599985,-0.226312 0.1751,-0.06085 0.664211,-0.03808 0.530586,-0.166558 -2.711122,-2.60674 -1.897195,-2.42794 -3.377772,-1.926338 -1.486806,0.370585 -0.564925,0.05282 2.620757,2.208552 0.03183,0.02154 0.05444,-0.05591 0.08822,-0.07426 0.114181,-0.06204 0.234285,-0.112575 0.352986,-0.165453 0.174876,-0.0779 0.350516,-0.154182 0.527634,-0.226844 0.194589,-0.07983 0.391563,-0.153712 0.587345,-0.230568 0.174586,-0.06875 0.357507,-0.119268 0.523759,-0.20626 0.141729,-0.07416 0.516147,-0.170685 0.393991,-0.273956 -2.839282,-2.400341 -2.282513,-2.332208 -4.363264,-1.672471 -0.199702,0.06116 -0.3989,0.123982 -0.599106,0.183471 -0.179352,0.05329 -0.666153,0.01712 -0.539522,0.154857 0.807946,0.878809 1.822442,1.543845 2.769452,2.270654 0.03287,0.02523 0.06761,-0.05079 0.107263,-0.06284 0.232496,-0.07066 0.986038,-0.204699 1.126644,-0.231489 0.24523,-0.0374 0.48969,-0.08026 0.73569,-0.112199 0.176414,-0.02291 0.662108,0.06807 0.531117,-0.05229 -0.876333,-0.805254 -1.921219,-1.405169 -2.881828,-2.107754 -0.01516,0.01915 -0.02359,0.04662 -0.04548,0.05746 -0.154981,0.0767 -0.622713,0.232529 -0.767145,0.282657 -0.139821,0.04132 -0.277062,0.09268 -0.419465,0.123971 -0.106727,0.02345 -0.412514,-0.02627 -0.325408,0.03971 0.949729,0.719392 1.987417,1.314615 2.981126,1.971922 -0.01466,-0.03158 -0.05512,-0.06175 -0.04397,-0.09473 0.06425,-0.189995 0.412248,-0.62563 0.499674,-0.743549 0.110184,-0.146205 0.229656,-0.285852 0.330554,-0.438613 0.08884,-0.134501 0.3604,-0.317101 0.237404,-0.421285 -2.781868,-2.356388 -2.269828,-2.39084 -4.220059,-1.808383 -0.451982,0.11413 -0.906772,0.24444 -1.375934,0.263213 -0.124102,0.005 -0.475111,-0.08519 -0.37228,-0.01554 2.769665,1.876053 3.983178,1.298602 2.69601,1.835998 -0.107948,-0.07285 -0.08113,-0.02898 0.08862,-0.191421 0.31362,-0.300115 0.688103,-0.530654 1.062211,-0.745956 0.253603,-0.146267 0.505169,-0.294751 0.754956,-0.447422 1.359213,-0.830757 0.716657,-0.172087 -2.707706,-2.313878 -0.174459,0.109417 -0.365416,0.187397 -0.545126,0.287967 -0.346252,0.19377 -0.665967,0.428221 -0.988907,0.657615 -0.590141,0.426662 -1.171888,0.879997 -1.817077,1.220451 3.687454,2.356353 2.342144,2.859474 3.577356,1.473209 0.215015,-0.293003 0.407117,-0.602536 0.632131,-0.887973 z" /></svg>
