<?xml version="1.0" encoding="UTF-8" standalone="no"?>
<svg
   width="98"
   height="98"
   viewBox="0 0 98 98"
   fill="none"
   version="1.1"
   id="svg30"
   sodipodi:docname="dual_pfeifer_zeliska.svg"
   inkscape:version="1.4 (86a8ad7, 2024-10-11)"
   xmlns:inkscape="http://www.inkscape.org/namespaces/inkscape"
   xmlns:sodipodi="http://sodipodi.sourceforge.net/DTD/sodipodi-0.dtd"
   xmlns="http://www.w3.org/2000/svg"
   xmlns:svg="http://www.w3.org/2000/svg">
  <sodipodi:namedview
     id="namedview30"
     pagecolor="#ffffff"
     bordercolor="#000000"
     borderopacity="0.25"
     inkscape:showpageshadow="2"
     inkscape:pageopacity="0.0"
     inkscape:pagecheckerboard="0"
     inkscape:deskcolor="#d1d1d1"
     inkscape:zoom="3.6681818"
     inkscape:cx="67.335812"
     inkscape:cy="67.472119"
     inkscape:window-width="1920"
     inkscape:window-height="1009"
     inkscape:window-x="-8"
     inkscape:window-y="-8"
     inkscape:window-maximized="1"
     inkscape:current-layer="svg30"
     showguides="true" />
  <path
     style="fill:#ae9d04;fill-opacity:1;stroke:#604c03;stroke-width:1.12543;stroke-dasharray:none;stroke-opacity:1;paint-order:markers stroke fill"
     d="m 74.270005,15.536285 0.786821,1.35923 1.001032,-0.590544 -0.720414,-1.35127 z"
     id="path32"
     sodipodi:nodetypes="ccccc" />
  <path
     d="M 33.729405,34.621387 84.099032,6.3561706 c 0,0 0.582807,-1.9366061 -1.638393,-3.128568 0,0 -5.076446,2.8098311 -7.463057,4.1682288 L 32.008123,31.638997 Z"
     fill="#514c49"
     stroke="#363330"
     stroke-width="1.83249"
     stroke-miterlimit="3.99393"
     stroke-linecap="round"
     id="path1"
     sodipodi:nodetypes="cccccc" />
  <path
     fill-rule="evenodd"
     clip-rule="evenodd"
     d="m 22.941874,57.576301 c 1.428929,-0.286905 4.258403,-1.763591 4.258403,-1.763591 0.789019,-0.227068 1.245494,-0.06343 1.493357,0.272513 0.253806,0.344005 0.237152,0.861967 0.0864,1.642118 -0.319017,1.651738 0.405729,3.486898 1.663421,4.506241 1.512201,1.22576 3.727803,1.40488 5.102702,0.158157 0.281642,-0.255383 -0.014,-0.645693 -0.357955,-0.487535 -0.652186,0.299733 -1.018039,0.206027 -2.020752,-0.04216 -1.058541,-0.261953 -2.030447,-1.03084 -2.476444,-2.115026 -0.46797,-1.13753 -0.507612,-2.204664 -0.02752,-3.082822 0.685807,-1.25431 1.341433,-2.101338 2.314903,-3.046998 l -0.99505,-1.149733 -7.290312,2.210609 z"
     fill="#45413F"
     stroke="#353230"
     stroke-width="1.83249"
     stroke-miterlimit="3.99393"
     stroke-linecap="round"
     id="path2"
     style="fill:#ae9d04;fill-opacity:1;stroke:#604c03;stroke-opacity:1" />
  <path
     style="fill:#514c49;fill-opacity:1;stroke:#363330;stroke-width:1.332;stroke-dasharray:none;stroke-opacity:1;paint-order:markers stroke fill"
     d="m 38.004797,34.210787 2.579031,-1.472529 0.699253,1.095579 -2.760164,1.3099 z"
     id="path30"
     sodipodi:nodetypes="ccccc" />
  <path
     d="m 15.866577,52.697543 c -0.535913,0.161528 -2.035559,0.604338 -2.035559,0.604338 0.22243,-0.158936 -1.239017,-3.708069 -1.964206,-3.25759 -1.340244,0.832543 -8.4185799,0.85444 -11.16670454,-1.759596 -0.0861842,-0.230252 1.41156804,-0.475188 1.82207234,-0.55638 3.6112159,0.531276 6.1011839,-0.542331 7.4352999,-3.658392 L 9.7541707,41.834931 11.464921,40.93061 Z"
     fill="#5d5855"
     stroke="#363330"
     stroke-width="1.83249"
     stroke-miterlimit="3.99393"
     stroke-linecap="round"
     id="path3"
     sodipodi:nodetypes="ccscccccc"
     style="fill:#ae9d04;fill-opacity:1;stroke:#604c03;stroke-width:1.332;stroke-dasharray:none;stroke-opacity:1" />
  <path
     fill-rule="evenodd"
     clip-rule="evenodd"
     d="m 8.5234177,66.520889 c 0.01165,-2.72114 -0.756805,-5.172975 -1.519942,-7.516007 7.6722123,-3.593589 10.4895603,-5.00856 9.1722873,-11.631156 L 10.907843,35.48895 c 1.621302,-0.690968 4.265458,-3.021041 5.877535,-3.787918 l 1.292362,1.642113 12.680506,-5.70943 c 1.532376,-0.785559 17.231488,-10.203881 17.231488,-10.203881 0,0 1.493254,2.826698 1.694546,2.989322 0.180733,0.146014 -14.865697,9.073886 -14.663237,9.127404 l 4.406574,7.635134 c -1.799473,1.097248 -0.468372,0.440699 0.78283,4.494603 0.06646,0.426994 0.320034,0.821058 0.573604,1.215123 0.159161,0.247346 4.618198,-1.298808 3.790373,-1.606032 -2.418226,-0.897457 -1.88007,-7.742541 1.8523,-6.371899 0.440126,0.161628 1.776314,6.430357 1.684751,6.728647 -0.820189,2.671977 -6.115876,8.178213 -6.712968,8.75456 -2.568716,-1.017457 -5.334363,-0.261899 -8.099149,0.485908 -5.963051,2.063262 -7.299393,9.619462 -6.238674,12.300499 -3.63374,2.645425 -5.227158,-0.468322 -6.584542,3.477171 C 14.465493,61.234576 11.223878,64.049187 8.6107557,66.521906 Z M 37.766639,43.757086 31.415127,30.613006 17.978742,38.34912 25.41103,50.401627 Z"
     fill="#79726d"
     id="path4"
     sodipodi:nodetypes="ccccccccscccssssccccccccccc"
     style="stroke-width:0.999999" />
  <path
     d="m 33.910729,34.929177 -0.6464,-0.04044 -1.721204,-2.98239 0.288131,-0.580224 z"
     fill="#45413f"
     id="path7"
     style="stroke-width:0.999999" />
  <path
     fill-rule="evenodd"
     clip-rule="evenodd"
     d="m 39.996987,31.237502 1.874145,3.24755 8.156347,-4.710703 C 49.443861,29.32135 48.873673,29.073246 48.152788,26.526173 Z"
     fill="#5d5855"
     stroke="#363330"
     stroke-width="1.83249"
     stroke-miterlimit="3.99393"
     stroke-linecap="round"
     id="path8"
     sodipodi:nodetypes="ccccc" />
  <path
     fill-rule="evenodd"
     clip-rule="evenodd"
     d="M 39.996205,31.236172 37.956297,27.70203 51.425726,20.767246 c 0.244143,1.520927 0.87969,2.303412 2.040143,2.554856 z"
     fill="#6b6561"
     stroke="#363330"
     stroke-width="1.83249"
     stroke-miterlimit="3.99393"
     stroke-linecap="round"
     id="path9"
     sodipodi:nodetypes="ccccc" />
  <path
     d="m 6.8168837,58.311868 c 1.842224,2.343268 1.718262,5.487959 1.70669,8.209256 l 0.08703,6.26e-4 c 2.6132003,-2.472563 5.8548153,-5.287096 11.8653853,0.13829 0.304786,-0.886371 0.65977,-1.755691 1.070817,-2.608897 1.528621,-1.15599 2.838388,-0.907177 4.824188,0.544947 3.531702,2.582772 7.262085,1.474887 9.208946,0.532277 1.369895,-0.662745 3.324263,-2.074353 4.641457,-3.370041 1.441596,-1.416926 2.594434,-3.260221 3.055914,-4.38422 0.682054,-1.661046 0.559921,-3.193892 0.127215,-4.765535 -0.171236,-0.621992 -0.51457,-1.155833 -0.798558,-1.597141 l -0.144573,-0.226834 c -0.144574,-0.230901 -0.317688,-0.46141 -0.488768,-0.689104 0,0 -0.252327,-0.95487 -0.07802,-0.813006 L 42.053256,48.551613 41.910558,48.29537 C 41.692686,48.21947 41.4556,48.148103 41.530475,48.003302 l 4.171047,-3.060277 0.141286,-1.138619 3.396579,-1.948495 -1.539508,-3.468165 c -0.884002,-1.991459 1.232447,-3.208214 0.03848,-3.566822 l -5.226505,2.533875 1.165103,3.715239 c 0,0 -2.812921,1.94124 -2.892745,1.82146 l -1.57e-4,-2.35e-4 -1.56e-4,-2.34e-4 c -0.253654,-0.394065 -0.506835,-0.787503 -0.573375,-1.214498 -1.251358,-4.054216 -3.034636,-3.247122 -1.234929,-4.343979 l -4.406573,-7.635134 c -0.310108,-0.08196 16.201901,-9.42447 15.990267,-9.69429 -0.377502,-0.481293 -1.382227,-4.075379 -2.772402,-3.074383 0,0 -16.938268,9.770455 -17.721405,10.171802 l -8.961083,5.160628 c -0.382977,0.163789 -0.736163,0.352452 -1.166757,0.601108 -1.519896,0.210602 -2.778014,-0.827691 -3.582695,-1.638349 L 9.9136257,34.842697 16.309064,47.373645 C 17.626123,53.997389 6.0135007,58.208356 6.8168837,58.311868 Z"
     stroke="#363330"
     stroke-width="3.66498"
     id="path24"
     sodipodi:nodetypes="cccccccccsccccccccccscccscscccscccccccc"
     style="stroke-width:3.665;stroke-dasharray:none" />
  <path
     style="fill:#514c49;fill-opacity:1;stroke:#363330;stroke-width:3.665;stroke-dasharray:none;stroke-opacity:1;paint-order:markers stroke fill"
     d="m 43.35556,36.359399 -0.376814,-1.055459 6.989903,-4.202986 0.678266,1.33817 z"
     id="path31"
     sodipodi:nodetypes="ccccc" />
  <path
     d="M 75.083044,5.9292078 79.152148,3.579073 C 78.572992,2.6230015 77.299114,2.3205622 76.30555,2.8940596 l 0.335045,0.580584 -1.845917,1.9549206 z"
     fill="#433f3d"
     stroke="#363330"
     stroke-width="1.83249"
     stroke-miterlimit="3.99393"
     stroke-linecap="round"
     id="path10" />
  <path
     d="M 18.067866,54.209834 C 13.039325,51.863543 11.655407,47.086633 11.741176,41.32958 l 22.759279,-12.764137 6.593217,12.507094 z"
     fill="#5d5855"
     stroke="#363330"
     stroke-width="1.83249"
     stroke-miterlimit="3.99393"
     stroke-linecap="round"
     id="path13"
     sodipodi:nodetypes="ccccc" />
  <path
     d="m 74.288364,11.438628 1.688278,2.910544 -26.120598,14.956282 -1.608349,-2.883812 z"
     fill="#534e4b"
     stroke="#363330"
     stroke-width="1.83249"
     stroke-miterlimit="3.99393"
     stroke-linecap="round"
     id="path11"
     sodipodi:nodetypes="ccccc" />
  <path
     d="m 27.33883,56.747577 c 0.217526,-0.173332 0.288132,-0.223783 0.515274,-0.388902 0.965729,-2.257305 1.774687,-2.935459 5.447053,-5.478261 l 1.151665,-0.816288 0.709891,0.546825 c 3.23966,-1.812946 5.938947,-0.370442 6.574713,2.697753 0.42301,2.041188 -0.104619,4.190082 -1.89549,6.39944 -1.790716,2.209279 -4.675392,4.112176 -6.327007,4.464785 -3.304871,0.704591 -8.052745,1.083794 -6.176099,-7.425352 z"
     stroke="#363330"
     stroke-width="1.83249"
     id="path25" />
  <path
     fill-rule="evenodd"
     clip-rule="evenodd"
     d="M 11.426856,91.152544 C 15.632402,91.120474 22.107974,88.12826 24.690445,84.882431 19.986259,80.623438 19.746769,71.810369 20.176479,67.273128 l -3.582365,-5.671976 -8.0365403,4.052934 c 0.06472,7.276579 -2.203187,22.462027 2.8692823,25.498458 z"
     fill="#66381a"
     stroke="#512d15"
     stroke-width="3.66498"
     stroke-miterlimit="3.99393"
     stroke-linecap="round"
     id="path26"
     sodipodi:nodetypes="cccccc" />
  <path
     d="M 17.854708,53.836672 C 12.826167,51.490382 11.708696,47.086633 11.794466,41.32958 l 3.737275,-2.007682 6.753086,12.24055 z"
     fill="#5d5855"
     stroke="#363330"
     stroke-width="1.83249"
     stroke-miterlimit="3.99393"
     stroke-linecap="round"
     id="path34"
     sodipodi:nodetypes="ccccc" />
  <path
     style="fill:#4b4e4e;fill-opacity:1;stroke:#363330;stroke-width:1.332;stroke-dasharray:none;stroke-opacity:1;paint-order:markers stroke fill"
     d="m 17.148842,42.647463 2.50461,4.691166 -2.238162,1.332718 c -4.190702,1.859583 -6.282572,-2.518204 -1.838491,-4.984364 z"
     id="path35"
     sodipodi:nodetypes="ccccc" />
  <ellipse
     style="fill:#ae9d04;fill-opacity:1;stroke:#604c03;stroke-width:0.877367;stroke-dasharray:none;stroke-opacity:1;paint-order:markers stroke fill"
     id="path33"
     cx="46.528149"
     cy="33.10614"
     rx="0.20392273"
     ry="0.20399593" />
  <path
     style="fill:#3e4040;fill-opacity:1;stroke:#363330;stroke-width:1.332;stroke-dasharray:none;stroke-opacity:1;paint-order:markers stroke fill"
     d="m 15.523509,42.247648 0.524436,0.948911 c -2.00216,2.816852 0.323894,4.940826 2.566681,5.113137 l 0.799023,1.054664 0.985857,-0.426469 -3.863494,-7.383257 z"
     id="path36"
     sodipodi:nodetypes="ccccccc" />
  <defs
     id="defs30">
    <clipPath
       id="clip0_1243_369">
      <rect
         width="110"
         height="110"
         fill="#ffffff"
         id="rect30"
         x="0"
         y="0" />
    </clipPath>
  </defs>
  <ellipse
     style="fill:#ae9d04;fill-opacity:1;stroke:#604c03;stroke-width:0.877367;stroke-dasharray:none;stroke-opacity:1;paint-order:markers stroke fill"
     id="path33-0"
     cx="14.815294"
     cy="76.442406"
     rx="1.1031212"
     ry="1.1035171" />
  <path
     style="fill:none;stroke:#604c03;stroke-width:0.532;stroke-dasharray:none;stroke-opacity:1;paint-order:markers stroke fill"
     d="M 13.645976,76.909177 15.86918,76.061041"
     id="path5" />
  <ellipse
     style="fill:#3e4040;fill-opacity:1;stroke:#363330;stroke-width:0.531999;stroke-dasharray:none;stroke-opacity:1;paint-order:markers stroke fill"
     id="path6"
     cx="77.707214"
     cy="7.4279633"
     rx="0.37962192"
     ry="0.31098336" />
  <ellipse
     style="fill:#3e4040;fill-opacity:1;stroke:#363330;stroke-width:0.531999;stroke-dasharray:none;stroke-opacity:1;paint-order:markers stroke fill"
     id="path6-8"
     cx="80.045692"
     cy="6.1472125"
     rx="0.37962192"
     ry="0.31098336" />
  <ellipse
     style="fill:#3e4040;fill-opacity:1;stroke:#363330;stroke-width:0.531999;stroke-dasharray:none;stroke-opacity:1;paint-order:markers stroke fill"
     id="path6-9"
     cx="78.905792"
     cy="6.7408938"
     rx="0.37962192"
     ry="0.31098336" />
  <ellipse
     style="fill:#3e4040;fill-opacity:1;stroke:#363330;stroke-width:0.531999;stroke-dasharray:none;stroke-opacity:1;paint-order:markers stroke fill"
     id="path6-4"
     cx="76.522453"
     cy="7.9942374"
     rx="0.37962192"
     ry="0.31098336" />
  <path
     style="fill:#3e4040;fill-opacity:1;stroke:#363330;stroke-width:0.532;stroke-dasharray:none;stroke-opacity:1;paint-order:markers stroke fill"
     d="m 20.448556,39.267859 0.32888,0.698925 c -0.177407,0.284482 -0.246852,0.425069 -0.632815,0.553079 l 0.385796,0.726642 c 0.283522,1.099215 -0.267201,1.334843 -0.899261,0.473115 l -0.425763,-0.686662 c -0.234783,0.35286 -0.514895,0.414732 -0.77936,0.419806 L 17.97059,40.647221 c 0.936994,-0.402608 1.681894,-0.818159 2.477966,-1.379362 z"
     id="path12"
     sodipodi:nodetypes="ccccccccc" />
  <path
     style="fill:#3e4040;fill-opacity:1;stroke:#363330;stroke-width:0.532;stroke-dasharray:none;stroke-opacity:1;paint-order:markers stroke fill"
     d="m 23.651477,44.884406 0.328881,0.698925 c -0.177408,0.284482 -0.246853,0.42507 -0.632815,0.553079 l 0.385796,0.726642 c 0.283521,1.099216 -0.267202,1.334843 -0.899262,0.473115 l -0.425763,-0.686661 c -0.234783,0.352859 -0.514894,0.414732 -0.77936,0.419806 l -0.455442,-0.805544 c 0.936993,-0.402608 1.681894,-0.818159 2.477965,-1.379362 z"
     id="path14"
     sodipodi:nodetypes="ccccccccc" />
  <ellipse
     style="fill:#ae9d04;fill-opacity:1;stroke:#604c03;stroke-width:0.877367;stroke-dasharray:none;stroke-opacity:1;paint-order:markers stroke fill"
     id="circle14"
     cx="18.153994"
     cy="57.223587"
     rx="0.6368373"
     ry="0.63706589" />
  <ellipse
     style="fill:#ae9d04;fill-opacity:1;stroke:#604c03;stroke-width:0.877367;stroke-dasharray:none;stroke-opacity:1;paint-order:markers stroke fill"
     id="circle15"
     cx="28.971777"
     cy="51.253006"
     rx="0.6368373"
     ry="0.63706589" />
  <ellipse
     style="fill:#ae9d04;fill-opacity:1;stroke:#604c03;stroke-width:0.877367;stroke-dasharray:none;stroke-opacity:1;paint-order:markers stroke fill"
     id="circle16"
     cx="28.172438"
     cy="53.065506"
     rx="0.15723112"
     ry="0.15728755" />
  <ellipse
     style="fill:#ae9d04;fill-opacity:1;stroke:#604c03;stroke-width:0.877367;stroke-dasharray:none;stroke-opacity:1;paint-order:markers stroke fill"
     id="circle17"
     cx="25.521278"
     cy="56.357311"
     rx="0.38371181"
     ry="0.38384956" />
  <path
     style="fill:#ae9d04;fill-opacity:1;stroke:#604c03;stroke-width:1.12543;stroke-dasharray:none;stroke-opacity:1;paint-order:markers stroke fill"
     d="m 83.457598,19.660411 0.78682,1.35923 1.00103,-0.590544 -0.72041,-1.35127 z"
     id="path32-0"
     sodipodi:nodetypes="ccccc" />
  <path
     d="m 42.916998,38.745513 50.36963,-28.265216 c 0,0 0.582796,-1.9366065 -1.6384,-3.1285684 0,0 -5.07644,2.8098314 -7.46305,4.1682294 l -42.98946,24.243165 z"
     fill="#514c49"
     stroke="#363330"
     stroke-width="1.83249"
     stroke-miterlimit="3.99393"
     stroke-linecap="round"
     id="path1-9"
     sodipodi:nodetypes="cccccc" />
  <path
     fill-rule="evenodd"
     clip-rule="evenodd"
     d="m 32.129468,61.700427 c 1.42893,-0.286905 4.2584,-1.763591 4.2584,-1.763591 0.78902,-0.227068 1.2455,-0.06343 1.49336,0.272513 0.25381,0.344005 0.23715,0.861967 0.0864,1.642118 -0.31902,1.651738 0.40573,3.486898 1.66342,4.506241 1.5122,1.22576 3.7278,1.40488 5.1027,0.158157 0.28164,-0.255383 -0.014,-0.645693 -0.35795,-0.487535 -0.65219,0.299733 -1.01804,0.206027 -2.02075,-0.04216 -1.05854,-0.261953 -2.03045,-1.03084 -2.47645,-2.115026 -0.46797,-1.13753 -0.50761,-2.204664 -0.0275,-3.082822 0.68581,-1.25431 1.34144,-2.101338 2.3149,-3.046998 l -0.99504,-1.149733 -7.29032,2.210609 z"
     fill="#45413F"
     stroke="#353230"
     stroke-width="1.83249"
     stroke-miterlimit="3.99393"
     stroke-linecap="round"
     id="path2-4"
     style="fill:#ae9d04;fill-opacity:1;stroke:#604c03;stroke-opacity:1" />
  <path
     style="fill:#514c49;fill-opacity:1;stroke:#363330;stroke-width:1.332;stroke-dasharray:none;stroke-opacity:1;paint-order:markers stroke fill"
     d="m 47.192388,38.334913 2.57903,-1.472529 0.69926,1.095579 -2.76017,1.3099 z"
     id="path30-8"
     sodipodi:nodetypes="ccccc" />
  <path
     d="m 25.054168,56.821669 c -0.53591,0.161528 -2.03556,0.604338 -2.03556,0.604338 0.22243,-0.158936 -1.23901,-3.708069 -1.9642,-3.25759 -1.34025,0.832543 -8.41858,0.85444 -11.1667103,-1.759596 -0.0862,-0.230252 1.4115703,-0.475188 1.8220803,-0.55638 3.61121,0.531276 6.10118,-0.542331 7.4353,-3.658392 l -0.20331,-2.234992 1.71075,-0.904321 z"
     fill="#5d5855"
     stroke="#363330"
     stroke-width="1.83249"
     stroke-miterlimit="3.99393"
     stroke-linecap="round"
     id="path3-8"
     sodipodi:nodetypes="ccscccccc"
     style="fill:#ae9d04;fill-opacity:1;stroke:#604c03;stroke-width:1.332;stroke-dasharray:none;stroke-opacity:1" />
  <path
     fill-rule="evenodd"
     clip-rule="evenodd"
     d="m 17.711008,70.645015 c 0.0117,-2.72114 -0.7568,-5.172975 -1.51994,-7.516007 7.67221,-3.593589 10.48956,-5.00856 9.17229,-11.631156 l -5.26792,-11.884776 c 1.6213,-0.690968 4.26546,-3.021041 5.87753,-3.787918 l 1.29237,1.642113 12.6805,-5.70943 c 1.53238,-0.785559 17.23149,-10.203881 17.23149,-10.203881 0,0 1.49325,2.826698 1.69455,2.989322 0.18073,0.146014 -14.8657,9.073886 -14.66324,9.127404 l 4.40657,7.635134 c -1.79947,1.097248 -0.46837,0.440699 0.78283,4.494603 0.0665,0.426994 0.32004,0.821058 0.57361,1.215123 0.15916,0.247346 4.61819,-1.298808 3.79037,-1.606032 -2.41823,-0.897457 -1.88007,-7.742541 1.8523,-6.371899 0.44013,0.161628 1.77631,6.430357 1.68475,6.728647 -0.82019,2.671977 -6.11588,8.178213 -6.71297,8.75456 -2.56871,-1.017457 -5.33436,-0.261899 -8.09915,0.485908 -5.96305,2.063262 -7.29939,9.619462 -6.23867,12.300499 -3.63374,2.645425 -5.22716,-0.468322 -6.58454,3.477171 -6.01065,-5.425698 -9.25227,-2.611087 -11.86539,-0.138368 z m 29.24322,-22.763803 -6.35151,-13.14408 -13.43638,7.736114 7.43229,12.052507 z"
     fill="#79726d"
     id="path4-2"
     sodipodi:nodetypes="ccccccccscccssssccccccccccc"
     style="stroke-width:0.999999" />
  <path
     d="m 43.098318,39.053303 -0.64639,-0.04044 -1.72121,-2.98239 0.28813,-0.580224 z"
     fill="#45413f"
     id="path7-4"
     style="stroke-width:0.999999" />
  <path
     fill-rule="evenodd"
     clip-rule="evenodd"
     d="m 49.184578,35.361628 1.87415,3.24755 8.15634,-4.710703 c -0.58361,-0.452999 -1.1538,-0.701103 -1.87469,-3.248176 z"
     fill="#5d5855"
     stroke="#363330"
     stroke-width="1.83249"
     stroke-miterlimit="3.99393"
     stroke-linecap="round"
     id="path8-5"
     sodipodi:nodetypes="ccccc" />
  <path
     fill-rule="evenodd"
     clip-rule="evenodd"
     d="m 49.183798,35.360298 -2.03991,-3.534142 13.46943,-6.934784 c 0.24414,1.520927 0.87969,2.303412 2.04014,2.554856 z"
     fill="#6b6561"
     stroke="#363330"
     stroke-width="1.83249"
     stroke-miterlimit="3.99393"
     stroke-linecap="round"
     id="path9-5"
     sodipodi:nodetypes="ccccc" />
  <path
     d="m 16.004478,62.435994 c 1.84222,2.343268 1.71826,5.487959 1.70669,8.209256 l 0.087,6.26e-4 c 2.6132,-2.472563 5.85482,-5.287096 11.86538,0.13829 0.30479,-0.886371 0.65977,-1.755691 1.07082,-2.608897 1.52862,-1.15599 2.83839,-0.907177 4.82419,0.544947 3.5317,2.582772 7.26208,1.474887 9.20895,0.532277 1.36989,-0.662745 3.32426,-2.074353 4.64145,-3.370041 1.4416,-1.416926 2.59444,-3.260221 3.05592,-4.38422 0.68205,-1.661046 0.55992,-3.193892 0.12721,-4.765535 -0.17123,-0.621992 -0.51457,-1.155833 -0.79856,-1.597141 l -0.14457,-0.226834 c -0.14457,-0.230901 -0.31769,-0.46141 -0.48877,-0.689104 0,0 -0.25232,-0.95487 -0.078,-0.813006 l 0.15865,-0.730873 -0.1427,-0.256243 c -0.21787,-0.0759 -0.45495,-0.147267 -0.38008,-0.292068 l 4.17105,-3.060277 0.14128,-1.138619 3.39658,-1.948495 -1.53951,-3.468165 c -0.884,-1.991459 1.23245,-3.208214 0.0385,-3.566822 l -5.2265,2.533875 1.1651,3.715239 c 0,0 -2.81292,1.94124 -2.89274,1.82146 l -1.6e-4,-2.35e-4 -1.6e-4,-2.34e-4 c -0.25365,-0.394065 -0.50683,-0.787503 -0.57337,-1.214498 -1.25136,-4.054216 -3.03464,-3.247122 -1.23493,-4.343979 l -4.40657,-7.635134 c -0.31011,-0.08196 16.2019,-9.42447 15.99027,-9.69429 -0.37751,-0.481293 -1.38223,-4.075379 -2.77241,-3.074383 0,0 -16.93827,9.770455 -17.7214,10.171802 l -8.96109,5.160628 c -0.38297,0.163789 -0.73616,0.352452 -1.16675,0.601108 -1.5199,0.210602 -2.77802,-0.827691 -3.5827,-1.638349 l -6.44132,3.618763 6.39544,12.530948 c 1.31706,6.623744 -10.29556,10.834711 -9.49218,10.938223 z"
     stroke="#363330"
     stroke-width="3.66498"
     id="path24-1"
     sodipodi:nodetypes="cccccccccsccccccccccscccscscccscccccccc"
     style="stroke-width:3.665;stroke-dasharray:none" />
  <path
     style="fill:#514c49;fill-opacity:1;stroke:#363330;stroke-width:3.665;stroke-dasharray:none;stroke-opacity:1;paint-order:markers stroke fill"
     d="m 52.543158,40.483525 -0.37682,-1.055459 6.9899,-4.202986 0.67827,1.33817 z"
     id="path31-7"
     sodipodi:nodetypes="ccccc" />
  <path
     d="m 84.270638,10.053334 4.0691,-2.350135 c -0.57915,-0.9560715 -1.85303,-1.2585108 -2.84659,-0.6850134 l 0.33504,0.580584 -1.84592,1.9549202 z"
     fill="#433f3d"
     stroke="#363330"
     stroke-width="1.83249"
     stroke-miterlimit="3.99393"
     stroke-linecap="round"
     id="path10-1" />
  <path
     d="m 27.255458,58.33396 c -5.02854,-2.346291 -6.41246,-7.123201 -6.32669,-12.880254 l 22.75928,-12.764137 6.59322,12.507094 z"
     fill="#5d5855"
     stroke="#363330"
     stroke-width="1.83249"
     stroke-miterlimit="3.99393"
     stroke-linecap="round"
     id="path13-1"
     sodipodi:nodetypes="ccccc" />
  <path
     d="m 83.475958,15.562754 1.68828,2.910544 -26.1206,14.956282 -1.60835,-2.883812 z"
     fill="#534e4b"
     stroke="#363330"
     stroke-width="1.83249"
     stroke-miterlimit="3.99393"
     stroke-linecap="round"
     id="path11-5"
     sodipodi:nodetypes="ccccc" />
  <path
     d="m 36.526428,60.871703 c 0.21752,-0.173332 0.28813,-0.223783 0.51527,-0.388902 0.96573,-2.257305 1.77469,-2.935459 5.44705,-5.478261 l 1.15167,-0.816288 0.70989,0.546825 c 3.23966,-1.812946 5.93895,-0.370442 6.57471,2.697753 0.42301,2.041188 -0.10462,4.190082 -1.89549,6.39944 -1.79071,2.209279 -4.67539,4.112176 -6.32701,4.464785 -3.30487,0.704591 -8.05274,1.083794 -6.17609,-7.425352 z"
     stroke="#363330"
     stroke-width="1.83249"
     id="path25-2" />
  <path
     fill-rule="evenodd"
     clip-rule="evenodd"
     d="m 20.614448,95.27667 c 4.20555,-0.03207 10.68112,-3.024284 13.26359,-6.270113 -4.70419,-4.258993 -4.94367,-13.072062 -4.51396,-17.609303 l -3.58237,-5.671976 -8.03654,4.052934 c 0.0647,7.276579 -2.20319,22.462027 2.86928,25.498458 z"
     fill="#66381a"
     stroke="#512d15"
     stroke-width="3.66498"
     stroke-miterlimit="3.99393"
     stroke-linecap="round"
     id="path26-7"
     sodipodi:nodetypes="cccccc" />
  <path
     d="m 27.042298,57.960798 c -5.02854,-2.34629 -6.14601,-6.750039 -6.06024,-12.507092 l 3.73728,-2.007682 6.75308,12.24055 z"
     fill="#5d5855"
     stroke="#363330"
     stroke-width="1.83249"
     stroke-miterlimit="3.99393"
     stroke-linecap="round"
     id="path34-6"
     sodipodi:nodetypes="ccccc" />
  <path
     style="fill:#4b4e4e;fill-opacity:1;stroke:#363330;stroke-width:1.332;stroke-dasharray:none;stroke-opacity:1;paint-order:markers stroke fill"
     d="m 26.336438,46.771589 2.50461,4.691166 -2.23816,1.332718 c -4.19071,1.859583 -6.28258,-2.518204 -1.83849,-4.984364 z"
     id="path35-1"
     sodipodi:nodetypes="ccccc" />
  <ellipse
     style="fill:#ae9d04;fill-opacity:1;stroke:#604c03;stroke-width:0.877367;stroke-dasharray:none;stroke-opacity:1;paint-order:markers stroke fill"
     id="path33-4"
     cx="55.715736"
     cy="37.230267"
     rx="0.20392273"
     ry="0.20399593" />
  <path
     style="fill:#3e4040;fill-opacity:1;stroke:#363330;stroke-width:1.332;stroke-dasharray:none;stroke-opacity:1;paint-order:markers stroke fill"
     d="m 24.711108,46.371774 0.52443,0.948911 c -2.00216,2.816852 0.3239,4.940826 2.56668,5.113137 l 0.79902,1.054664 0.98586,-0.426469 -3.86349,-7.383257 z"
     id="path36-2"
     sodipodi:nodetypes="ccccccc" />
  <ellipse
     style="fill:#ae9d04;fill-opacity:1;stroke:#604c03;stroke-width:0.877367;stroke-dasharray:none;stroke-opacity:1;paint-order:markers stroke fill"
     id="path33-0-3"
     cx="24.002888"
     cy="80.566528"
     rx="1.1031212"
     ry="1.1035171" />
  <path
     style="fill:none;stroke:#604c03;stroke-width:0.532;stroke-dasharray:none;stroke-opacity:1;paint-order:markers stroke fill"
     d="m 22.833568,81.033303 2.22321,-0.848136"
     id="path5-2" />
  <ellipse
     style="fill:#3e4040;fill-opacity:1;stroke:#363330;stroke-width:0.531999;stroke-dasharray:none;stroke-opacity:1;paint-order:markers stroke fill"
     id="path6-2"
     cx="86.894806"
     cy="11.55209"
     rx="0.37962192"
     ry="0.31098336" />
  <ellipse
     style="fill:#3e4040;fill-opacity:1;stroke:#363330;stroke-width:0.531999;stroke-dasharray:none;stroke-opacity:1;paint-order:markers stroke fill"
     id="path6-8-1"
     cx="89.233292"
     cy="10.271339"
     rx="0.37962192"
     ry="0.31098336" />
  <ellipse
     style="fill:#3e4040;fill-opacity:1;stroke:#363330;stroke-width:0.531999;stroke-dasharray:none;stroke-opacity:1;paint-order:markers stroke fill"
     id="path6-9-6"
     cx="88.093384"
     cy="10.865021"
     rx="0.37962192"
     ry="0.31098336" />
  <ellipse
     style="fill:#3e4040;fill-opacity:1;stroke:#363330;stroke-width:0.531999;stroke-dasharray:none;stroke-opacity:1;paint-order:markers stroke fill"
     id="path6-4-8"
     cx="85.710052"
     cy="12.118364"
     rx="0.37962192"
     ry="0.31098336" />
  <path
     style="fill:#3e4040;fill-opacity:1;stroke:#363330;stroke-width:0.532;stroke-dasharray:none;stroke-opacity:1;paint-order:markers stroke fill"
     d="m 29.636148,43.391985 0.32888,0.698925 c -0.1774,0.284482 -0.24685,0.425069 -0.63281,0.553079 l 0.38579,0.726642 c 0.28353,1.099215 -0.2672,1.334843 -0.89926,0.473115 l -0.42576,-0.686662 c -0.23478,0.35286 -0.5149,0.414732 -0.77936,0.419806 l -0.45544,-0.805543 c 0.93699,-0.402608 1.68189,-0.818159 2.47796,-1.379362 z"
     id="path12-5"
     sodipodi:nodetypes="ccccccccc" />
  <path
     style="fill:#3e4040;fill-opacity:1;stroke:#363330;stroke-width:0.532;stroke-dasharray:none;stroke-opacity:1;paint-order:markers stroke fill"
     d="m 32.839068,49.008532 0.32888,0.698925 c -0.1774,0.284482 -0.24685,0.42507 -0.63281,0.553079 l 0.3858,0.726642 c 0.28352,1.099216 -0.26721,1.334843 -0.89927,0.473115 l -0.42576,-0.686661 c -0.23478,0.352859 -0.51489,0.414732 -0.77936,0.419806 l -0.45544,-0.805544 c 0.93699,-0.402608 1.68189,-0.818159 2.47796,-1.379362 z"
     id="path14-7"
     sodipodi:nodetypes="ccccccccc" />
  <ellipse
     style="fill:#ae9d04;fill-opacity:1;stroke:#604c03;stroke-width:0.877367;stroke-dasharray:none;stroke-opacity:1;paint-order:markers stroke fill"
     id="circle14-6"
     cx="27.341585"
     cy="61.347713"
     rx="0.6368373"
     ry="0.63706589" />
  <ellipse
     style="fill:#ae9d04;fill-opacity:1;stroke:#604c03;stroke-width:0.877367;stroke-dasharray:none;stroke-opacity:1;paint-order:markers stroke fill"
     id="circle15-1"
     cx="38.15937"
     cy="55.377132"
     rx="0.6368373"
     ry="0.63706589" />
  <ellipse
     style="fill:#ae9d04;fill-opacity:1;stroke:#604c03;stroke-width:0.877367;stroke-dasharray:none;stroke-opacity:1;paint-order:markers stroke fill"
     id="circle16-8"
     cx="37.360023"
     cy="57.189632"
     rx="0.15723112"
     ry="0.15728755" />
  <ellipse
     style="fill:#ae9d04;fill-opacity:1;stroke:#604c03;stroke-width:0.877367;stroke-dasharray:none;stroke-opacity:1;paint-order:markers stroke fill"
     id="circle17-9"
     cx="34.70887"
     cy="60.481438"
     rx="0.38371181"
     ry="0.38384956" />
</svg>
