<?xml version="1.0" encoding="UTF-8" standalone="no"?>
<svg
   version="1.1"
   width="245.131"
   height="25"
   viewBox="0 0 245.13099 25"
   id="svg186"
   sodipodi:docname="L86A2_world.svg"
   inkscape:version="1.3 (0e150ed6c4, 2023-07-21)"
   xmlns:inkscape="http://www.inkscape.org/namespaces/inkscape"
   xmlns:sodipodi="http://sodipodi.sourceforge.net/DTD/sodipodi-0.dtd"
   xmlns="http://www.w3.org/2000/svg"
   xmlns:svg="http://www.w3.org/2000/svg">
  <defs
     id="defs190">
    <clipPath
       clipPathUnits="userSpaceOnUse"
       id="clipPath272">
      <path
         id="path273"
         style="fill:#ff0000;fill-opacity:1;fill-rule:nonzero;stroke:none;stroke-width:0.829333"
         d="m 276.18058,180.88537 v 5.14284 h 17.42895 v -5.14284 z m 7.85112,3.43882 c 0.007,-4.7e-4 0.0155,-2e-5 0.0227,0 0.18009,3.7e-4 0.25389,0.1493 0.16198,0.30128 0.0129,0.0203 0.0202,0.0593 -0.01,0.12472 -0.006,0.0172 -0.007,0.0235 -0.0146,0.0405 -0.0157,0.0357 -0.0388,0.0678 -0.0664,0.0956 -0.008,0.007 -0.0158,0.0156 -0.0243,0.0227 -0.0455,0.0382 -0.10146,0.06 -0.16035,0.0664 -0.0396,0.002 -0.0369,0.004 -0.0794,-0.002 -0.0286,-0.004 -0.0609,-0.0152 -0.0858,-0.0292 -0.0141,-0.008 -0.027,-0.0187 -0.0405,-0.0275 -0.007,-0.007 -0.0168,-0.0138 -0.0243,-0.0211 -0.0362,-0.0361 -0.0595,-0.0807 -0.0746,-0.12958 -0.006,-0.0271 -0.0104,-0.0413 -0.0114,-0.0696 -0.002,-0.0596 0.01,-0.1131 0.0389,-0.16523 0.007,-0.0104 0.0134,-0.0223 0.0211,-0.0324 0.0118,-0.016 0.027,-0.0292 0.0421,-0.0421 8.2e-4,-9.1e-4 -8.3e-4,-0.002 0.002,-0.003 0.002,-9.9e-4 0.002,-0.002 0.005,-0.003 l 0.002,-0.002 c 0.006,-0.006 0.0117,-0.011 0.0178,-0.0162 0.0289,-0.0246 0.0628,-0.0427 0.0972,-0.0583 0.0677,-0.0308 0.12849,-0.0469 0.18141,-0.0502 z m 4.95495,0.0162 h 0.002 c 0.0163,-0.002 0.04,0.005 0.0745,0.0243 0.0204,0.0108 0.0406,0.0206 0.0583,0.0356 0.0157,0.0131 0.0264,0.0216 0.0405,0.0373 0.0276,0.0308 0.0474,0.0664 0.0615,0.10529 0.007,0.0227 0.0112,0.0311 0.0162,0.0551 0.009,0.0419 0.01,0.084 0.005,0.12634 -0.004,0.0223 -0.006,0.0323 -0.0129,0.0535 -0.0161,0.0455 -0.0419,0.0841 -0.0794,0.11499 -0.0115,0.007 -0.0222,0.0163 -0.034,0.0227 -0.0483,0.026 -0.10234,0.0306 -0.1555,0.0211 -0.009,-0.002 -0.0188,-0.006 -0.0275,-0.008 -0.0452,-0.013 -0.0867,-0.0365 -0.12148,-0.068 -0.0197,-0.0206 -0.0261,-0.0261 -0.0421,-0.0502 -0.0209,-0.0314 -0.0363,-0.0663 -0.0421,-0.10367 -0.002,-0.0136 8.3e-4,-0.0283 -0.002,-0.0421 0.002,-0.0137 0.002,-0.0269 0.005,-0.0405 0.007,-0.0439 0.029,-0.0839 0.0518,-0.12148 0.024,-0.0367 0.049,-0.0723 0.0858,-0.0972 h 0.002 c 0.0481,-0.0326 0.0738,-0.0395 0.0875,-0.0308 h 0.003 c 0.002,-0.0177 0.009,-0.0307 0.0243,-0.034 z m -5.8102,0.021 c 0.002,-3.5e-4 0.006,0 0.008,0 0.0492,-3.7e-4 0.0828,0.0118 0.12311,0.0373 0.006,0.005 0.012,0.008 0.0178,0.013 0.006,0.004 0.01,0.01 0.0146,0.0146 l 0.002,0.002 c 0.0444,0.0238 0.0813,0.0789 0.0939,0.16199 0.002,0.005 0.002,0.01 0.003,0.0146 0.003,0.0125 0.007,0.0245 0.01,0.0373 0.052,-0.0138 0.0761,0.001 0.0308,0.0858 -0.009,0.0162 -0.0153,0.0335 -0.0226,0.0502 v 0.003 c -0.003,0.0263 -0.0124,0.0491 -0.026,0.0713 -0.005,0.008 -0.0112,0.014 -0.0162,0.0211 -0.007,0.006 -0.0119,0.009 -0.0162,0.013 l -0.002,0.002 c -8.3e-4,9.1e-4 -0.002,0.002 -0.003,0.003 -0.006,0.006 -0.0129,0.0115 -0.0194,0.0162 -0.002,0.001 -0.002,0.002 -0.005,0.003 l -0.002,0.002 c -0.004,0.003 -0.01,0.004 -0.0146,0.006 -0.007,0.003 -0.0136,0.006 -0.0211,0.008 -0.0206,0.007 -0.0425,0.01 -0.0648,0.01 -0.016,-9.9e-4 -0.0158,0.001 -0.0275,-0.002 -0.006,-9.1e-4 -0.009,-0.002 -0.0146,-0.003 -8.3e-4,-1.6e-4 -0.003,7.4e-4 -0.003,0 -0.002,-3.1e-4 -0.002,-0.001 -0.007,-0.003 -0.002,-8e-5 -0.006,0.001 -0.008,-0.002 -0.0181,-0.001 -0.0362,-0.002 -0.0534,-0.006 -0.0138,-0.004 -0.0207,-0.006 -0.034,-0.013 -0.0324,-0.0163 -0.0608,-0.0416 -0.0794,-0.0729 -0.003,-0.005 -0.005,-0.0105 -0.008,-0.0162 -0.002,-0.004 -0.003,-0.002 -0.003,-0.002 -0.006,-0.01 -0.0112,-0.0206 -0.0162,-0.0308 -0.0127,-0.025 -0.007,-0.0141 -0.0162,-0.0324 -0.009,-0.0217 -0.0177,-0.0429 -0.0211,-0.0664 -0.002,-0.0186 -0.002,-0.0379 -0.002,-0.0567 8.3e-4,-0.0146 0.002,-0.0294 0.005,-0.0437 0.002,-0.0142 0.006,-0.0283 0.01,-0.0421 0.003,-0.0128 0.007,-0.0247 0.0114,-0.0373 0.009,-0.0253 0.0216,-0.0491 0.0389,-0.0696 0.01,-0.0107 0.0147,-0.017 0.0259,-0.0259 0.026,-0.0206 0.055,-0.0351 0.0875,-0.0421 0.008,-9.9e-4 0.0163,-0.004 0.0243,-0.005 z m 6.54234,0.005 c 0.0104,-8.1e-4 0.0202,-9.1e-4 0.0308,0 0.0147,9.9e-4 0.0291,0.006 0.0437,0.008 0.0126,0.005 0.0265,0.009 0.0389,0.0146 0.007,0.003 0.012,0.008 0.0178,0.0113 0.0244,0.0151 0.0469,0.0341 0.0664,0.0551 0.0138,0.0169 0.0214,0.0232 0.0324,0.0421 0.0165,0.0284 0.0275,0.0587 0.034,0.0907 0.004,0.0211 0.007,0.0297 0.008,0.0518 0.003,0.0391 -6.5e-4,0.0784 -0.008,0.11662 -0.008,0.0313 -0.0166,0.063 -0.034,0.0907 -0.028,0.0446 -0.0532,0.0676 -0.0988,0.0923 -0.016,0.006 -0.0308,0.012 -0.0469,0.0162 -0.0116,0.003 -0.0236,0.004 -0.0357,0.005 -0.0351,0.003 -0.0706,-0.004 -0.10367,-0.0146 -0.0192,-0.007 -0.0252,-0.01 -0.0437,-0.0194 -0.0349,-0.018 -0.0669,-0.0411 -0.0923,-0.0713 -0.0163,-0.0223 -0.0241,-0.0322 -0.0357,-0.0583 -0.0158,-0.0366 -0.0252,-0.0767 -0.0194,-0.11663 1.4e-4,-9.9e-4 -1.5e-4,-0.002 0,-0.003 -0.029,-0.003 -0.0402,-0.0287 -0.0178,-0.10042 0.003,-0.0114 0.008,-0.0231 0.0129,-0.034 0.0114,-0.026 0.0259,-0.0504 0.0454,-0.0713 0.0183,-0.0197 0.0362,-0.0379 0.06,-0.0518 0.0178,-0.011 0.0352,-0.0214 0.0551,-0.0292 0.0289,-0.0116 0.0596,-0.0219 0.0907,-0.0243 z m 0.64144,0 c 0.013,-9.1e-4 0.0258,-6.2e-4 0.0389,0 0.15515,0.007 0.22973,0.0755 0.23002,0.1474 0.003,0.004 0.006,0.008 0.01,0.013 0.007,0.009 0.0143,0.0193 0.0211,0.0292 0.0163,0.0255 0.0182,0.0327 0.0292,0.0599 0.002,0.0115 0.007,0.024 0.01,0.0356 0.0112,0.0514 0.007,0.10448 -0.01,0.15388 -0.0101,0.0248 -0.013,0.0319 -0.0275,0.0551 -0.0215,0.0343 -0.0503,0.0627 -0.0842,0.0842 -0.0226,0.0121 -0.0274,0.0159 -0.0518,0.0243 -0.0398,0.0137 -0.0832,0.0175 -0.12472,0.0113 -0.0118,-0.003 -0.0224,-0.006 -0.034,-0.01 -0.008,-0.002 -0.0168,-0.005 -0.0243,-0.008 -0.0333,-0.0138 -0.0636,-0.033 -0.0907,-0.0567 -0.0202,-0.0197 -0.0263,-0.0242 -0.0437,-0.047 -0.0276,-0.036 -0.0483,-0.0782 -0.0615,-0.12148 -0.003,-0.0114 -0.006,-0.0225 -0.008,-0.034 -0.0129,-0.0581 -0.0117,-0.11947 0.003,-0.17656 0.0105,-0.0262 0.0137,-0.0375 0.0308,-0.0615 0.0255,-0.0359 0.06,-0.0609 0.10042,-0.0778 0.007,-0.003 0.016,-0.006 0.0243,-0.008 0.0209,-0.007 0.0415,-0.0114 0.0632,-0.013 z m -5.65955,0.005 h 0.002 0.002 v 0.002 c 0.0153,-0.002 0.0371,0.002 0.0664,0.006 0.007,0.002 0.0153,0.003 0.0226,0.005 0.0236,0.007 0.0444,0.0174 0.0648,0.0308 0.005,0.004 0.0112,0.008 0.0162,0.0113 0.005,0.004 0.008,0.0102 0.0129,0.0146 0.004,0.004 0.009,0.008 0.0129,0.013 0.002,0.002 0.005,0.006 0.008,0.008 0.0108,0.0119 0.0236,0.022 0.0324,0.0356 0.0173,0.0292 0.0313,0.059 0.0389,0.0923 0.002,0.008 0.007,0.0164 0.008,0.0243 0.003,0.0222 -8.3e-4,0.0445 -0.003,0.0664 v 0.002 c 8.3e-4,0.0255 -8.3e-4,0.0511 -0.008,0.0761 -0.002,0.006 -0.002,0.0117 -0.007,0.0178 -0.01,0.0312 -0.0265,0.0619 -0.0469,0.0875 -0.0122,0.0146 -0.0114,0.0171 -0.0259,0.0308 -0.0221,0.0209 -0.0484,0.0378 -0.0761,0.0502 -0.0249,0.009 -0.0347,0.0127 -0.0615,0.0162 -0.0403,0.005 -0.0803,-4e-5 -0.11825,-0.0146 -0.026,-0.0122 -0.0353,-0.0148 -0.0583,-0.0324 -0.0416,-0.0318 -0.0671,-0.0723 -0.0842,-0.12148 -0.003,-0.0137 -0.01,-0.0266 -0.0129,-0.0405 -0.006,-0.0384 -0.002,-0.0778 0.008,-0.115 v -0.002 c -0.063,-0.0929 -0.003,-0.21821 0.14417,-0.23001 0.0108,-8.3e-4 0.0224,-5e-4 0.034,0 -5.7e-4,-0.0174 0.006,-0.0313 0.0292,-0.034 z m -2.31954,0.01 c 0.003,-1.8e-4 0.007,3e-5 0.01,0 0.009,-9e-5 0.0182,10e-4 0.0275,0.003 0.01,0.002 0.0197,0.003 0.0292,0.005 0.0327,0.008 0.062,0.0232 0.0875,0.0453 0.0187,0.0161 0.0367,0.0338 0.0518,0.0535 0.006,0.007 0.0105,0.0152 0.0162,0.0227 0.11068,-0.002 0.18693,0.12058 0.0956,0.28347 -0.004,0.0207 -0.0104,0.0411 -0.0227,0.0583 -0.004,0.009 -0.0126,0.0157 -0.0178,0.0243 -0.007,0.0114 -0.0138,0.0228 -0.0211,0.0324 -5e-4,5.7e-4 8.2e-4,0.002 -0.002,0.003 -0.002,0.003 -0.002,0.007 -0.007,0.01 -0.002,0.002 -0.005,0.003 -0.008,0.005 l -0.003,0.003 c -0.0619,0.0689 -0.13744,0.0797 -0.19276,0.0486 -0.0151,-9.9e-4 -0.0303,0.001 -0.0454,-0.002 -0.007,-0.002 -0.0143,-0.004 -0.0211,-0.006 -0.012,-0.003 -0.0226,-0.006 -0.034,-0.0113 -0.0872,0.0181 -0.18661,-0.0585 -0.19113,-0.23325 -10e-5,-0.003 1e-4,-0.003 0,-0.005 -8.3e-4,-0.005 8.3e-4,-0.01 -0.002,-0.0146 -8.3e-4,-0.009 -0.003,-0.0187 -0.003,-0.0276 8.3e-4,0.003 4.3e-4,-0.007 0,-0.005 -0.003,-0.0137 -0.008,-0.0282 -0.008,-0.0421 0,-0.005 -2.2e-4,-0.0106 0,-0.0146 -2.7e-4,-0.007 -1e-4,-0.0112 0,-0.0178 2.2e-4,-0.0336 0.007,-0.0688 0.0259,-0.0972 0.01,-0.0118 0.012,-0.0152 0.0243,-0.0243 0.009,-0.007 0.0197,-0.0116 0.0308,-0.0146 l 0.003,-0.003 c 0.002,-0.002 0.006,-0.003 0.008,-0.005 0.005,-0.004 0.009,-0.008 0.0146,-0.013 0.0101,-0.0101 0.0182,-0.0222 0.0324,-0.0291 0.005,-0.002 0.009,-0.004 0.0146,-0.005 0.01,-0.003 0.0206,-0.005 0.0308,-0.005 0.004,-2.5e-4 0.009,-3e-5 0.0129,0 0.02,-0.005 0.0396,-0.0103 0.06,-0.0113 z m 5.8766,0.003 c 0.003,-1.7e-4 0.007,-5e-5 0.0114,0 0.0236,3.7e-4 0.0474,0.006 0.0697,0.0113 0.0132,0.003 0.0243,0.006 0.034,0.01 8.3e-4,3.6e-4 0.002,-3.7e-4 0.003,0 0.005,0.001 0.008,0.003 0.0129,0.005 0.002,8.2e-4 0.002,0.002 0.007,0.003 0.0358,0.012 0.0658,0.0307 0.0923,0.0599 0.006,0.007 0.0129,0.0139 0.0178,0.0211 0.0256,0.0353 0.041,0.0757 0.0502,0.11824 0.002,0.007 0.004,0.0153 0.005,0.0227 0.006,0.0434 0.006,0.0869 -0.005,0.12958 -0.009,0.0279 -0.0109,0.0386 -0.0259,0.0648 -0.0197,0.0344 -0.0469,0.0638 -0.081,0.0842 -0.0117,0.007 -0.025,0.0119 -0.0372,0.0178 -0.0137,0.004 -0.0265,0.009 -0.0405,0.0113 -0.0424,0.008 -0.0878,0.002 -0.12796,-0.013 -0.009,-0.003 -0.016,-0.008 -0.0243,-0.0113 -0.007,-0.004 -0.0153,-0.007 -0.0226,-0.0113 -0.0324,-0.0196 -0.06,-0.0463 -0.081,-0.0777 -0.003,-0.006 -0.007,-0.0104 -0.01,-0.0162 -0.0155,-0.0279 -0.0274,-0.0597 -0.034,-0.0907 -0.004,-0.0184 -0.002,-0.0227 -0.007,-0.0421 -0.004,-0.0326 -0.004,-0.0664 0.002,-0.0988 0.002,-0.009 0.002,-0.0159 0.005,-0.0243 0.007,-0.0281 0.0177,-0.0585 0.034,-0.0826 0.0258,-0.0379 0.0303,-0.0357 0.068,-0.0648 0.0181,-0.007 0.0347,-0.0161 0.0534,-0.0211 0.01,-0.003 0.0201,-0.004 0.0308,-0.005 z m -2.43293,0.005 c 0.003,-2.5e-4 0.005,2.2e-4 0.008,0 0.0183,-0.001 0.0366,0.001 0.0551,0.003 0.031,0.007 0.0615,0.0185 0.0875,0.0373 0.0149,0.0111 0.0301,0.0228 0.0421,0.0373 0.007,0.009 0.0144,0.0172 0.0194,0.0275 0.0108,0.0237 0.0382,0.0498 0.0259,0.0729 -0.002,0.003 -0.002,0.005 -0.005,0.008 0.003,0.007 0.007,0.0119 0.01,0.0211 0.003,0.009 0.005,0.0173 0.008,0.0259 0.007,0.0294 0.0129,0.0427 0.0129,0.0745 0,0.0446 -0.0128,0.0881 -0.0357,0.12634 -0.007,0.011 -0.0153,0.0204 -0.0226,0.0308 -0.0266,0.0268 -0.0323,0.0363 -0.0664,0.0551 -0.0372,0.0205 -0.0792,0.0291 -0.12148,0.0275 -0.0125,-4.1e-4 -0.0251,-0.002 -0.0372,-0.003 -0.011,-0.003 -0.0217,-0.006 -0.0324,-0.01 -0.0422,-0.014 -0.0816,-0.0387 -0.11339,-0.0696 -0.008,-0.008 -0.016,-0.0172 -0.0243,-0.0259 -0.0203,-0.0298 -0.0276,-0.0358 -0.0405,-0.0696 -0.0139,-0.0368 -0.0173,-0.076 -0.0129,-0.115 0.002,-0.011 0.005,-0.0215 0.008,-0.0324 0.008,-0.0251 0.009,-0.0353 0.0226,-0.0583 0.0146,-0.0248 0.0349,-0.0461 0.0583,-0.0632 0.008,-0.0122 0.0207,-0.0263 0.0405,-0.0437 0.007,-0.006 0.0119,-0.014 0.0194,-0.0194 0.0154,-0.0119 0.0224,-0.0128 0.0389,-0.0211 0.008,-0.003 0.0172,-0.008 0.0259,-0.01 0.007,-0.002 0.0129,-0.004 0.0194,-0.005 0.003,-4.2e-4 0.007,0.001 0.01,-0.002 z m 0.62524,0.005 c 0.011,-2.1e-4 0.0217,0.003 0.0324,0.003 0.014,0.003 0.0284,0.004 0.0421,0.008 0.0101,0.003 0.0201,0.008 0.0292,0.013 0.0329,0.0189 0.0567,0.0424 0.0761,0.0745 0.0145,0.0248 0.0269,0.0505 0.0372,0.0777 0.002,0.007 0.006,0.0136 0.008,0.0211 0.009,0.0333 0.0119,0.0691 0.0114,0.10367 -8.3e-4,0.0168 -8.3e-4,0.0231 -0.003,0.0405 -0.006,0.0417 -0.0192,0.0827 -0.0421,0.11824 -0.009,0.0109 -0.0163,0.0224 -0.0259,0.0324 -0.0337,0.0345 -0.0784,0.0573 -0.12635,0.0632 -0.009,9.9e-4 -0.0182,-0.001 -0.0275,0.002 -0.007,-5e-4 -0.0168,0.001 -0.0243,-0.002 -0.0311,-0.003 -0.0612,-0.0135 -0.0891,-0.0275 -0.007,-0.004 -0.0129,-0.007 -0.0194,-0.0113 -0.0332,-0.0209 -0.061,-0.0481 -0.0842,-0.0794 -0.004,-0.007 -0.009,-0.0142 -0.0129,-0.0211 -0.0232,-0.0372 -0.0396,-0.0779 -0.0454,-0.12149 -0.002,-0.0269 -0.004,-0.0357 0,-0.0632 0.005,-0.0392 0.0207,-0.075 0.0437,-0.10691 0.007,-0.008 0.0134,-0.0171 0.0211,-0.0243 0.0303,-0.0282 0.0615,-0.0459 0.0988,-0.0535 0.003,-0.003 0.007,-0.006 0.01,-0.008 0.0257,-0.0187 0.0478,-0.0306 0.0794,-0.0356 0.003,-5.6e-4 0.007,-0.002 0.0114,-0.002 z m 1.19379,0.0113 h 0.002 c 0.0354,-0.003 0.07,0.004 0.10527,0.0178 0.0389,0.0153 0.0772,0.0327 0.11177,0.0567 0.007,0.005 0.0143,0.0106 0.0211,0.0162 0.0377,0.0322 0.0663,0.073 0.0809,0.11986 0.002,0.0111 0.007,0.0228 0.008,0.034 0.007,0.039 0.005,0.0846 -0.005,0.1231 -0.003,0.0132 -0.007,0.0259 -0.0114,0.0389 -0.0153,0.0315 -0.0179,0.0408 -0.0405,0.068 -0.0273,0.0329 -0.0636,0.058 -0.10366,0.0729 -0.0125,0.005 -0.0245,0.007 -0.0372,0.0113 -0.0288,0.003 -0.0377,0.006 -0.0664,0.005 -0.0395,-0.001 -0.0789,-0.009 -0.11501,-0.0259 -0.0145,-0.007 -0.0283,-0.0163 -0.0421,-0.0243 -0.0124,-0.011 -0.026,-0.0202 -0.0372,-0.0324 -0.0394,-0.0426 -0.0566,-0.099 -0.0632,-0.1555 -0.002,-0.0318 -0.003,-0.0413 0.002,-0.0745 0.002,-0.0112 0.003,-0.0234 0.008,-0.034 v -0.002 c -6.3e-4,-0.008 -8.3e-4,-0.0158 0.002,-0.0275 0.005,-0.0477 0.0252,-0.0861 0.0567,-0.12148 0.0287,-0.0255 0.0371,-0.0403 0.0761,-0.0534 0.0164,-0.006 0.0327,-0.01 0.0486,-0.0113 z m -2.41187,0.01 0.002,0.003 c 0.0296,-0.003 0.0399,0.0122 0.0389,0.0356 0.0253,-0.0109 0.0512,-0.0155 0.081,-0.0162 0.0206,0.001 0.0284,0.002 0.0503,0.008 0.0377,0.0111 0.0702,0.0333 0.094,0.0648 0.009,0.0114 0.0129,0.0246 0.0194,0.0373 0.003,0.0157 0.0114,0.0309 0.0129,0.047 0.003,0.0322 -0.002,0.0609 -0.0114,0.0907 -0.003,0.0107 -0.007,0.0215 -0.01,0.0324 -0.007,0.0255 -0.016,0.0504 -0.0308,0.0729 -0.003,0.006 -0.007,0.0121 -0.0114,0.0178 -0.005,0.007 -0.0105,0.0117 -0.0162,0.0178 -0.002,0.003 -0.005,0.005 -0.008,0.008 -0.002,0.002 -0.002,0.004 -0.007,0.005 -0.0201,0.0274 -0.0433,0.0507 -0.0745,0.0664 -0.0106,0.004 -0.0216,0.008 -0.0324,0.0113 -0.0345,0.0111 -0.0718,0.013 -0.10691,0.003 -0.0139,-0.004 -0.0255,-0.004 -0.0389,-0.0113 -0.0406,-0.0185 -0.0662,-0.0417 -0.0907,-0.0794 -0.003,-0.007 -0.007,-0.0142 -0.01,-0.0211 -0.005,-0.0113 -0.008,-0.0226 -0.0114,-0.034 l -0.003,-0.002 c -0.005,-0.007 -0.009,-0.0151 -0.0129,-0.0227 -0.0134,-0.0284 -0.0242,-0.0555 -0.0275,-0.0875 -1.6e-4,-0.002 10e-5,-0.004 0,-0.006 -0.0163,-0.0409 -0.01,-0.0608 0.008,-0.068 h 0.002 c 6.8e-4,-0.003 -7.8e-4,-0.005 0,-0.008 0.003,-0.0126 0.01,-0.0236 0.0146,-0.0356 0.006,-0.009 0.0112,-0.0201 0.0178,-0.0292 0.0253,-0.0351 0.0595,-0.0605 0.0988,-0.0777 0.023,-0.0101 0.0408,-0.0169 0.0551,-0.0194 0.002,-3.8e-4 0.004,-0.002 0.008,-0.003 z m 5.91386,0.008 c 0.0124,-4.6e-4 0.025,0.001 0.0372,0.003 0.18684,0.0202 0.25507,0.13484 0.21543,0.22191 0.004,0.0102 0.008,0.021 0.0114,0.0324 0.002,0.008 0.007,0.0159 0.008,0.0243 0.009,0.0343 0.007,0.0351 0.01,0.0729 -0.002,0.0182 -0.002,0.0372 -0.007,0.0551 -0.012,0.0525 -0.0508,0.10062 -0.0956,0.12959 -0.0113,0.007 -0.0236,0.0132 -0.0357,0.0194 -0.0123,0.004 -0.0246,0.008 -0.0372,0.0113 -0.0418,0.0104 -0.0892,0.01 -0.13121,0.002 -0.0124,-0.002 -0.025,-0.007 -0.0372,-0.01 -0.0275,-0.0104 -0.0362,-0.0129 -0.0615,-0.0275 -0.0396,-0.0225 -0.0745,-0.0517 -0.10042,-0.0891 -0.0135,-0.0222 -0.0195,-0.0312 -0.0292,-0.0551 -0.0167,-0.0414 -0.0227,-0.0849 -0.0194,-0.12959 0.002,-0.0112 0.002,-0.0228 0.005,-0.034 0.009,-0.0485 0.0309,-0.093 0.0615,-0.13121 0.008,-0.008 0.0156,-0.0179 0.0243,-0.0259 0.0337,-0.0308 0.0758,-0.0495 0.11986,-0.0599 0.0203,-0.004 0.0411,-0.007 0.0615,-0.008 z m -4.05434,0.008 h 0.002 c 0.002,-5e-5 0.002,0 0.005,0 0.032,1.6e-4 0.0647,0.01 0.0923,0.0259 0.01,0.006 0.0185,0.0139 0.0275,0.0211 0.006,0.004 0.0112,0.01 0.0162,0.0146 0.004,0.005 0.009,0.009 0.0129,0.0146 0.0162,0.0207 0.0292,0.0446 0.0405,0.068 0.0158,0.0367 0.0291,0.0748 0.0324,0.115 1.2e-4,0.007 -10e-5,0.0143 0,0.0211 4.1e-4,0.0281 -0.002,0.0551 -0.008,0.0826 -0.005,0.0189 -0.007,0.03 -0.0162,0.0486 -0.0161,0.035 -0.0396,0.0636 -0.0712,0.0858 -0.01,0.006 -0.0192,0.0129 -0.0292,0.0178 -0.039,0.0195 -0.0836,0.0235 -0.12635,0.0162 -0.031,-0.006 -0.0618,-0.0144 -0.0891,-0.0308 -0.0262,-0.016 -0.0515,-0.0345 -0.0729,-0.0567 -0.005,-0.006 -0.01,-0.0104 -0.0146,-0.0162 -0.0225,-0.0273 -0.0387,-0.0587 -0.0503,-0.0923 -0.002,-0.008 -0.002,-0.0175 -0.007,-0.0259 -0.007,-0.0383 -0.005,-0.0773 0.005,-0.115 0.008,-0.0275 0.0161,-0.0503 0.0324,-0.0745 0.0137,-0.0203 0.0301,-0.0395 0.0502,-0.0534 0.0114,-0.008 0.0236,-0.0126 0.0357,-0.0194 0.009,-0.003 0.0182,-0.008 0.0275,-0.0113 h 0.002 c 0.0187,-0.0121 0.0382,-0.0232 0.06,-0.0292 0.0121,-0.002 0.0251,-0.005 0.0372,-0.005 0.002,0 0.004,-7.8e-4 0.007,-0.002 z m 1.8741,0.0194 c -0.0117,0.0661 -0.0426,0.15795 -0.0324,0.20896 0.007,-0.009 0.015,-0.0179 0.0243,-0.0243 l 0.0162,-0.008 c 0.0124,-0.006 0.0267,-0.006 0.0405,-0.005 0.0111,0.0591 5.9e-4,0.0916 -0.0794,0.0453 0.01,0.0331 0.0421,0.0393 0.11501,0.01 8.3e-4,-0.0156 -8.3e-4,-0.0287 -0.008,-0.0421 7.4e-4,-1.2e-4 -0.009,-0.01 -0.008,-0.01 -8.3e-4,-4.5e-4 -0.002,-10e-4 -0.003,-0.003 -0.005,-9.9e-4 -0.0109,0.001 -0.0162,-0.002 -0.0101,-0.0492 -0.0354,-0.11483 -0.0486,-0.17008 z m -0.0308,0.21705 c -5.9e-4,-0.002 8.3e-4,-0.003 -0.002,-0.005 -8.2e-4,9.9e-4 -0.002,0.002 -0.003,0.003 0.002,10e-4 0.002,-0.001 0.005,0.002 z m -7.21455,-0.20571 v 0.003 c 0.0128,-0.001 0.0259,3e-5 0.0389,0 0.0107,0.003 0.0221,0.002 0.0324,0.005 0.05,0.0172 0.0915,0.0538 0.12473,0.094 0.045,0.0647 0.063,0.11502 0.0357,0.19275 -0.006,0.0101 -0.0112,0.0229 -0.0178,0.0324 -0.0336,0.046 -0.088,0.0696 -0.13929,0.0891 -0.0827,0.0247 -0.16175,0.0449 -0.2446,0.003 -0.0642,-0.0306 -0.11562,-0.0619 -0.12471,-0.13931 -0.002,-0.0109 -9e-5,-0.0214 0,-0.0324 0.002,-0.011 0.002,-0.0232 0.007,-0.034 0.0134,-0.0531 0.0442,-0.0994 0.0842,-0.13606 0.0372,-0.029 0.0765,-0.0527 0.1231,-0.0632 0.0152,-0.003 0.0287,-0.005 0.0405,-0.003 0.0138,-0.005 0.0266,-0.009 0.0405,-0.0113 z m -0.77588,0.006 v 0.002 h 0.002 c 0.0136,-2.3e-4 0.0275,9.9e-4 0.0421,0.003 0.0381,0.004 0.0755,0.0135 0.11014,0.0308 0.0436,0.0226 0.0838,0.0478 0.10853,0.0923 0.0201,0.0512 0.01,0.0919 0.01,0.14578 -0.0129,0.0624 -0.0318,0.12394 -0.0761,0.1717 -0.009,0.008 -0.0163,0.0168 -0.0259,0.0243 -0.0513,0.0405 -0.11553,0.054 -0.17981,0.0502 -0.0805,-0.0119 -0.16,-0.0375 -0.21866,-0.0972 -0.007,-0.0113 -0.0177,-0.0203 -0.0226,-0.0324 -0.0278,-0.0557 -0.0163,-0.11967 0,-0.17656 0.0182,-0.0553 0.042,-0.11158 0.0809,-0.15388 0.0337,-0.0342 0.0635,-0.039 0.081,-0.0259 3.4e-4,-0.001 0.002,-0.003 0.003,-0.005 0.002,-0.003 0.009,-0.002 0.0129,-0.002 h 0.002 c 3.8e-4,-2.8e-4 0.002,2.9e-4 0.003,0 0.0179,-0.0132 0.0356,-0.0221 0.0551,-0.0243 0.003,-5e-4 0.009,-0.001 0.0129,-0.003 z m 3.00147,0.14578 c -0.005,0.0127 -0.009,0.0253 -0.0129,0.0373 0.004,0.002 0.008,0.003 0.0129,0.005 0.0161,-0.006 0.0334,-0.0139 0.0503,-0.0194 -0.008,-0.006 -0.0161,-0.0119 -0.0243,-0.0178 -0.009,-0.003 -0.0168,-0.002 -0.026,-0.005 z m 1.2764,0.008 c -0.004,0.002 -0.007,0.004 -0.0114,0.006 0.005,0.002 0.01,0.003 0.0146,0.005 -8.2e-4,-0.004 -0.002,-0.008 -0.003,-0.0113 z m 4.55809,0.003 c -0.01,0.007 -0.0214,0.0139 -0.0324,0.0211 0.008,-0.001 0.0168,2.7e-4 0.0259,0.005 -0.002,0.007 -0.002,0.0145 -0.007,0.0227 -7.9e-4,0.002 -0.005,0.007 -0.008,0.0113 -0.002,0.002 -0.002,0.003 -0.003,0.005 l -0.002,0.003 c -8.3e-4,2.1e-4 -0.002,-1e-4 -0.003,0 -0.01,0.001 -0.0192,0.002 -0.0292,0 -0.008,-9.9e-4 -0.016,-0.004 -0.0243,-0.006 -0.003,-0.002 -0.008,9.1e-4 -0.0114,-0.002 -0.0786,0.0536 -0.12834,0.10306 0.003,0.13282 l 0.002,0.002 h 0.003 c 0.006,-4.2e-4 0.012,0.001 0.0178,-0.002 0.0272,-0.006 0.0528,-0.02 0.068,-0.0437 0.003,-0.005 0.002,-0.0122 0.007,-0.0178 0.002,-0.008 0.007,-0.016 0.008,-0.0243 0.006,-0.025 -8.3e-4,-0.0509 -0.0129,-0.0729 -7.3e-4,-0.002 -0.007,-0.008 -0.007,-0.0113 0.002,-0.008 0.006,-0.0162 0.007,-0.0227 z m -0.034,0.0162 c -0.009,0.001 -0.0187,0.005 -0.0292,0.008 -0.0193,0.008 -0.0279,0.0153 -0.0405,0.0291 0.003,0.002 0.007,0.003 0.01,0.005 0.0196,-0.0135 0.0391,-0.0286 0.06,-0.0421 z m -0.82772,0.005 c -0.002,5.9e-4 -0.005,0.003 -0.005,0.003 0.002,0.006 0.007,0.01 0.002,0.005 0.002,10e-4 0.002,-0.001 0.005,0.002 -8.3e-4,-0.003 8.3e-4,-0.003 -0.002,-0.005 0.002,-0.003 -4e-5,-0.004 0,-0.005 z m 1.50641,0.0162 c -0.003,8.3e-4 -0.008,-0.001 -0.0114,0.002 -0.0122,0.006 -0.0204,0.0151 -0.0275,0.0259 8.3e-4,-1.2e-4 0.002,8e-5 0.003,0 -8.3e-4,1.5e-4 -0.002,0.001 -0.003,0.003 h -0.002 v 0.002 c -7.3e-4,0.003 -0.002,0.007 -0.003,0.0113 -3.4e-4,0.002 8.3e-4,0.004 -0.002,0.006 v 0.002 c -1e-5,0.002 -1.6e-4,0.004 0,0.006 8.2e-4,0.006 0.002,0.01 0.007,0.0146 0.0665,0.13272 0.0842,0.0432 0.10366,-0.0648 -0.0274,0.0101 -0.0586,0.0177 -0.094,0.0227 0.0137,-0.006 0.0246,-0.0145 0.034,-0.0259 -0.002,2.5e-4 -0.002,-3.6e-4 -0.005,0 z m -9.61994,0.0227 c -0.003,0.009 -0.002,0.0168 -0.007,0.0259 -8.2e-4,0.004 -8.3e-4,0.007 -0.003,0.0113 0.007,-0.004 0.0139,-0.005 0.0194,-0.003 7.3e-4,-0.002 -8.3e-4,-0.003 0.002,-0.005 -5e-5,-0.003 -1.9e-4,-0.002 0,-0.005 -0.002,-0.007 -0.007,-0.0163 -0.01,-0.0243 z m 1.04962,0.003 c 2.5e-4,0.005 2e-4,0.009 0,0.0146 6.3e-4,-0.005 5.4e-4,-0.01 0,-0.0146 z m -0.31747,0.0308 c -4.9e-4,0.003 -0.002,0.005 -0.002,0.008 1e-4,0.005 -8.3e-4,0.01 0,0.0146 0.003,0.0123 0.0172,0.0214 0.0324,0.0292 -0.0127,-0.0152 -0.0221,-0.0341 -0.0308,-0.0518 z m -0.74349,0.0113 -0.002,0.002 c -7.8e-4,0.003 8.3e-4,0.005 -0.002,0.0113 l 0.005,0.005 h 0.002 c 0.002,0.001 0.003,0.003 0.008,0.003 h 0.002 c 7.7e-4,-0.001 0.002,-0.004 0.003,-0.005 v -0.003 -0.002 c -0.005,-0.004 -0.0118,-0.005 -0.0162,-0.0113 z m -0.005,0.013 c -8.2e-4,0.005 8.3e-4,0.0107 -0.002,0.0162 8.2e-4,-0.004 -8.3e-4,-0.009 0.002,-0.0162 z m 10.36019,0.002 v 0.003 c 0.002,-1.5e-4 0.004,-0.001 0.008,-0.003 -7.7e-4,-7e-5 -0.004,1e-4 -0.008,0 z m -4.0835,0.002 c -8.3e-4,0.002 -0.002,0.004 -0.003,0.006 v 0.002 c 5.1e-4,1.6e-4 0.002,-1.5e-4 0.003,0 6.8e-4,-0.002 -3e-4,-0.004 0.002,-0.006 z m -6.17464,0.11501 v 0.003 c 0.006,0.002 0.012,0.001 0.0178,0.003 8.3e-4,-6.9e-4 0.002,-10e-4 0.003,-0.003 -0.007,-2.1e-4 -0.0143,-0.001 -0.0211,-0.003 z" />
    </clipPath>
  </defs>
  <sodipodi:namedview
     id="namedview188"
     pagecolor="#505050"
     bordercolor="#999999"
     borderopacity="1"
     inkscape:showpageshadow="0"
     inkscape:pageopacity="0"
     inkscape:pagecheckerboard="true"
     inkscape:deskcolor="#d1d1d1"
     showgrid="false"
     inkscape:zoom="8"
     inkscape:cx="114.1875"
     inkscape:cy="9.9375"
     inkscape:window-width="1920"
     inkscape:window-height="1017"
     inkscape:window-x="-8"
     inkscape:window-y="-8"
     inkscape:window-maximized="1"
     inkscape:current-layer="g182"
     inkscape:pageshadow="0" />
  <g
     transform="translate(-138.35253,-167.3)"
     id="g184">
    <g
       data-paper-data="{&quot;isPaintingLayer&quot;:true}"
       fill-rule="nonzero"
       stroke-linejoin="miter"
       stroke-miterlimit="10"
       stroke-dasharray="none"
       stroke-dashoffset="0"
       style="mix-blend-mode:normal"
       id="g182">
      <g
         id="g872"
         transform="matrix(1.205788,0,0,1.205788,-28.471287,-37.811363)">
        <path
           d="m 291.10967,185.52857 c -2.60966,0 -14.42857,0 -14.42857,0 v -4.14286 h 16.42857 c 0,0 0,1.32184 0,2 0,0.70197 -1.0284,2.14286 -2,2.14286 z"
           fill="#515151"
           stroke="#333333"
           stroke-width="1"
           stroke-linecap="butt"
           id="path134"
           style="stroke:#171717;stroke-opacity:1"
           clip-path="url(#clipPath272)" />
        <path
           d="m 236.34539,187.03333 c -10.08847,0 -89.18333,0 -89.18333,0 v -11 c 0,0 79.09486,0 89.18334,0 1.53355,0 2.65,0.56832 2.65,1.43334 0,2.34604 0,6.87448 0,8.16666 0,0.6754 -1.11645,1.4 -2.65,1.4 z"
           fill="#74744e"
           stroke="#3d3d28"
           stroke-width="2"
           stroke-linecap="butt"
           id="path138"
           style="stroke:#1d1d13;stroke-opacity:1" />
        <path
           d="M 273.82872,186.36666 239.66205,185.7 v -8.33333 l 34.17623,-0.68805 5.59192,2.21033 0.0724,5.11171 z"
           fill="#515151"
           stroke="#333333"
           stroke-width="2"
           stroke-linecap="butt"
           id="path140"
           style="stroke:#171717;stroke-opacity:1" />
        <path
           d="m 296.32872,183.36667 h -17.16666 v -4 h 17.16666 z"
           fill="#515151"
           stroke="#333333"
           stroke-width="2"
           stroke-linecap="butt"
           id="path142"
           style="stroke:#181818;stroke-opacity:1" />
        <path
           d="m 324.99539,183.22381 h -28.66667 v -3.66666 h 28.66667 z"
           fill="#515151"
           stroke="#333333"
           stroke-width="2"
           stroke-linecap="butt"
           id="path144"
           style="stroke:#181818;stroke-opacity:1" />
        <path
           d="m 338.79958,183.89047 c -1.95932,0 -13.63752,0 -13.63752,0 v -5 c 0,0 11.52972,0 13.54661,0 0.57995,0 1.93824,0.39872 1.93823,2.50573 0.0323,2.01213 -1.30908,2.49427 -1.84732,2.49427 z"
           fill="#515151"
           stroke="#333333"
           stroke-width="2"
           stroke-linecap="butt"
           id="path146"
           style="stroke:#181818;stroke-opacity:1" />
        <path
           d="m 147.35253,186.99166 c 0,0 -5.30199,0 -6.67381,0 -0.61153,0 -1.32619,-0.60256 -1.32619,-1.19167 0,-1.26517 0,-6.13249 0,-8.5 0,-0.79516 0.71466,-1.30833 1.32619,-1.30833 1.37182,0 6.67381,0 6.67381,0 z"
           fill="#515151"
           stroke="#333333"
           stroke-width="2"
           stroke-linecap="butt"
           id="path148"
           style="stroke:#171717;stroke-opacity:1" />
        <path
           d="m 248.51206,183.96666 h -7.5 V 179.3 h 7.5 z"
           fill="#515151"
           stroke="#333333"
           stroke-width="1"
           stroke-linecap="butt"
           id="path150"
           style="stroke:#171717;stroke-opacity:1" />
        <path
           d="m 244.34539,183.63333 c -1.10457,0 -2,-0.89543 -2,-2 0,-1.10457 0.89543,-2 2,-2 1.10457,0 2,0.89543 2,2 0,1.10457 -0.89543,2 -2,2 z"
           fill="#515151"
           stroke="#333333"
           stroke-width="1"
           stroke-linecap="butt"
           id="path152"
           style="stroke:#171717;stroke-opacity:1" />
        <path
           d="m 317.9323,183.94643 v -5.075 h 3 v 5.075 z"
           fill="#515151"
           stroke="#333333"
           stroke-width="2"
           stroke-linecap="butt"
           id="path154"
           style="stroke:#171717;stroke-opacity:1" />
        <g
           stroke-width="2"
           id="g180">
          <path
             d="m 197.6023,183.27393 c 0,-1.33932 0,-2.9532 0,-3.625 0,-0.48415 0.66343,-1.2975 1.50315,-1.2975 4.34238,0 40.19685,0 40.19685,0 0,0 0.625,2.21508 0.625,3.2975 0,1.04993 -0.625,3.1025 -0.625,3.1025 0,0 -35.85447,0 -40.19685,0 -0.83972,0 -1.50315,-0.63496 -1.50315,-1.4775 z"
             fill="#434343"
             stroke="#323232"
             stroke-linecap="butt"
             id="path156"
             style="stroke:#171717;stroke-opacity:1" />
          <path
             d="m 201.48045,179.14893 v 4.75"
             fill="none"
             stroke="#323232"
             stroke-linecap="round"
             id="path158"
             style="stroke:#171717;stroke-opacity:1" />
          <path
             d="m 205.23045,179.02393 v 4.75"
             fill="none"
             stroke="#323232"
             stroke-linecap="round"
             id="path160"
             style="stroke:#171717;stroke-opacity:1" />
          <path
             d="m 209.10545,179.27393 v 4.75"
             fill="none"
             stroke="#323232"
             stroke-linecap="round"
             id="path162"
             style="stroke:#171717;stroke-opacity:1" />
          <path
             d="m 212.85545,179.14893 v 4.75"
             fill="none"
             stroke="#323232"
             stroke-linecap="round"
             id="path164"
             style="stroke:#171717;stroke-opacity:1" />
          <path
             d="m 216.48045,179.39893 v 4.75"
             fill="none"
             stroke="#323232"
             stroke-linecap="round"
             id="path166"
             style="stroke:#171717;stroke-opacity:1" />
          <path
             d="m 220.23045,179.27393 v 4.75"
             fill="none"
             stroke="#323232"
             stroke-linecap="round"
             id="path168"
             style="stroke:#171717;stroke-opacity:1" />
          <path
             d="m 223.85545,179.52393 v 4.75"
             fill="none"
             stroke="#323232"
             stroke-linecap="round"
             id="path170"
             style="stroke:#171717;stroke-opacity:1" />
          <path
             d="m 227.60545,179.39893 v 4.75"
             fill="none"
             stroke="#323232"
             stroke-linecap="round"
             id="path172"
             style="stroke:#171717;stroke-opacity:1" />
          <path
             d="m 231.23045,179.39893 v 4.75"
             fill="none"
             stroke="#323232"
             stroke-linecap="round"
             id="path174"
             style="stroke:#171717;stroke-opacity:1" />
          <path
             d="m 234.98045,179.27393 v 4.75"
             fill="none"
             stroke="#323232"
             stroke-linecap="round"
             id="path176"
             style="stroke:#171717;stroke-opacity:1" />
          <path
             d="m 238.60545,179.52393 v 4.75"
             fill="none"
             stroke="#323232"
             stroke-linecap="round"
             id="path178"
             style="stroke:#171717;stroke-opacity:1" />
        </g>
      </g>
      <path
         style="fill:#74744e;fill-opacity:1;stroke:#171717;stroke-width:0.10572;stroke-opacity:0"
         d="m 298.41236,185.67223 c -3.85537,-0.0973 -33.84454,-0.66416 -35.13662,-0.66416 -1.47769,0 -1.54817,-0.01 -1.54817,-0.21144 0,-0.20847 0.0705,-0.21144 5.0217,-0.21144 h 5.02169 v -3.38303 -3.38304 h -5.02169 -5.0217 v -0.30023 -0.30024 l 2.66943,-0.0638 c 1.46818,-0.0351 10.44776,-0.21334 19.95462,-0.39617 l 17.28519,-0.33241 2.643,1.0575 2.64299,1.0575 v 2.45904 2.45904 l -2.7398,1.14436 -2.73981,1.14436 -0.90753,-0.0226 c -0.49914,-0.0124 -1.45463,-0.0364 -2.1233,-0.0533 z"
         id="path1" />
      <path
         style="fill:#515151;fill-opacity:1;stroke:#171717;stroke-width:0.21144;stroke-opacity:0"
         d="m 150.40459,181.04358 v -5.39171 l 53.5471,0.0149 c 29.4509,0.008 53.73739,0.0966 53.96997,0.19658 0.23942,0.10288 -9.83066,0.18816 -23.21229,0.19657 -25.95864,0.0163 -24.57071,-0.055 -25.54598,1.31244 -0.4602,0.64524 -0.51363,0.96116 -0.57692,3.41104 -0.0615,2.38105 -0.0183,2.80614 0.36553,3.5991 0.2394,0.49453 0.74653,1.08736 1.12694,1.31741 0.6752,0.4083 1.25309,0.42084 24.2672,0.52668 17.05203,0.0784 8.7002,0.12229 -30.18301,0.15858 l -53.75854,0.0502 z"
         id="path2" />
      <path
         style="fill:#515151;fill-opacity:1;stroke:#171717;stroke-width:0.013215;stroke-opacity:0"
         d="m 239.83035,186.33618 v -0.1718 l 9.14807,0.001 9.14807,0.001 -0.0991,0.0465 c -0.30225,0.14193 -0.74157,0.24574 -1.18869,0.2809 -0.1224,0.01 -2.79761,0.014 -8.59304,0.014 h -8.4153 z"
         id="path3" />
      <path
         style="fill:#515151;fill-opacity:1;stroke:#171717;stroke-width:0.0528599;stroke-opacity:0"
         d="m 167.90122,181.06973 v -5.44485 l 44.70628,0.0135 c 42.63885,0.0129 44.72068,0.0178 45.01778,0.1073 0.17133,0.0516 0.4092,0.13676 0.5286,0.18926 0.20994,0.0923 -0.47418,0.0966 -20.7683,0.13008 -11.90315,0.0196 -21.78609,0.0577 -22.83548,0.0879 -2.61265,0.0753 -3.69797,0.16653 -4.42399,0.37202 -0.51651,0.1462 -1.20887,1.03198 -1.35878,1.7384 -0.1709,0.80527 -0.23185,4.61248 -0.0851,5.31749 0.11113,0.53402 0.4525,1.17521 0.86002,1.61538 0.38997,0.4212 0.66159,0.59633 1.04954,0.67671 1.09147,0.22614 5.43099,0.26889 27.93031,0.2751 19.61909,0.005 19.63725,0.005 19.40945,0.11016 -0.59096,0.27144 2.42945,0.25447 -45.4826,0.25546 l -44.5477,9.2e-4 z"
         id="path4" />
      <rect
         style="fill:#171717;fill-opacity:1;stroke:#171717;stroke-opacity:0"
         id="rect4"
         width="48.366623"
         height="6.4289479"
         x="210.4913"
         y="178.0457"
         rx="1.9953974"
         ry="1.40625" />
      <rect
         style="fill:#171717;fill-opacity:1;stroke:#171717;stroke-opacity:0"
         id="rect5"
         width="5.7088709"
         height="7.1889486"
         x="207.28186"
         y="175.54614"
         rx="1.9953974"
         ry="1.40625" />
      <rect
         style="fill:#171717;fill-opacity:1;stroke:#171717;stroke-opacity:0"
         id="rect6"
         width="5.0745521"
         height="8.0347071"
         x="207.49329"
         y="178.5063"
         rx="1.9953974"
         ry="1.40625" />
      <rect
         style="fill:#171717;fill-opacity:1;stroke:#171717;stroke-opacity:0"
         id="rect7"
         width="2.5416772"
         height="7.0269899"
         x="300.1228"
         y="177.37289"
         rx="1.9953974"
         ry="1.40625" />
      <rect
         style="fill:#515151;fill-opacity:1;stroke:#171717;stroke-width:0.92022;stroke-opacity:0.991701"
         id="rect8"
         width="56.517323"
         height="2.1957526"
         x="325.11868"
         y="186.52454"
         rx="3.5796306"
         ry="0.66379935" />
      <rect
         style="mix-blend-mode:normal;fill:#181818;fill-opacity:1;stroke:#171717;stroke-width:0.177876;stroke-opacity:0"
         id="rect8-8"
         width="1.8446491"
         height="2.5136416"
         x="380.04178"
         y="184.04637"
         rx="0.11683431"
         ry="0.75990057" />
      <ellipse
         style="fill:#181818;fill-opacity:1;stroke:#171717;stroke-width:1.0859;stroke-opacity:0"
         id="path8"
         cx="398.3414"
         cy="145.77628"
         rx="0.96139079"
         ry="1.4569525"
         transform="rotate(5.8070451)" />
      <rect
         style="fill:#515151;fill-opacity:1;stroke:#171717;stroke-width:1.10099;stroke-opacity:0"
         id="rect9"
         width="11.633908"
         height="10.94673"
         x="145.48624"
         y="175.59663"
         rx="2.3359888"
         ry="1.4560975" />
      <rect
         style="fill:#74744e;fill-opacity:1;stroke:#171717;stroke-width:1.92084;stroke-opacity:1"
         id="rect273"
         width="37.204166"
         height="7.360415"
         x="261.06296"
         y="177.38542"
         rx="6.251545"
         ry="1.6560936" />
    </g>
  </g>
</svg>
