<?xml version="1.0" encoding="UTF-8" standalone="no"?>
<svg
   width="110"
   height="110"
   viewBox="0 0 110 110"
   fill="none"
   version="1.1"
   id="svg80"
   sodipodi:docname="model_94.svg"
   inkscape:version="1.3 (0e150ed6c4, 2023-07-21)"
   xmlns:inkscape="http://www.inkscape.org/namespaces/inkscape"
   xmlns:sodipodi="http://sodipodi.sourceforge.net/DTD/sodipodi-0.dtd"
   xmlns="http://www.w3.org/2000/svg"
   xmlns:svg="http://www.w3.org/2000/svg">
  <sodipodi:namedview
     id="namedview82"
     pagecolor="#505050"
     bordercolor="#ffffff"
     borderopacity="1"
     inkscape:pageshadow="0"
     inkscape:pageopacity="0"
     inkscape:pagecheckerboard="1"
     showgrid="false"
     inkscape:zoom="3.9590909"
     inkscape:cx="24.879449"
     inkscape:cy="59.483353"
     inkscape:window-width="1920"
     inkscape:window-height="1017"
     inkscape:window-x="-8"
     inkscape:window-y="-8"
     inkscape:window-maximized="1"
     inkscape:current-layer="svg80"
     inkscape:showpageshadow="2"
     inkscape:deskcolor="#d1d1d1" />
  <defs
     id="defs78">
    <linearGradient
       id="paint0_linear_619_1198"
       x1="51.9184"
       y1="47.9879"
       x2="53.1716"
       y2="47.2644"
       gradientUnits="userSpaceOnUse">
      <stop
         stop-color="#4E4A48"
         id="stop70" />
      <stop
         offset="1"
         stop-color="#4B4846"
         id="stop72" />
    </linearGradient>
    <clipPath
       id="clip0_619_1198">
      <rect
         width="110"
         height="110"
         fill="#ffffff"
         transform="translate(0.0859375)"
         id="rect75"
         x="0"
         y="0" />
    </clipPath>
  </defs>
  <g
     id="g11"
     transform="matrix(0.96235311,0,0,0.96235311,-2.2728608,-5.4882615)">
    <path
       fill="#313131"
       d="m 45.851366,79.580686 c -0.411386,0.697218 -0.49756,1.418365 -1.022144,2.022784 q -1.97849,2.271709 -3.959409,4.536557 c -1.42567,1.624854 -3.487757,0.0465 -3.835442,-1.542359 -0.194336,-0.893781 0.327914,-1.400031 1.021144,-2.226377 q 1.999789,-2.390501 4.025458,-4.75153 a 0.22146491,0.22472175 41.771265 0 0 -0.01443,-0.307001 q -0.18841,-0.17433 -0.413582,0.07998 C 32.439139,87.857503 23.13376,98.478289 13.334486,108.39786 a 1.3222758,1.3222758 0 0 1 -2.144987,-0.38094 C 9.3233819,103.90635 7.4897521,100.40693 3.7808065,97.633179 2.5793934,96.735896 2.4599502,95.582298 3.7267112,94.656438 Q 12.85281,87.994232 22.283894,81.757113 c 0.800961,-0.530746 1.546525,-1.117587 2.567033,-1.010696 2.118977,0.220229 2.929773,0.694892 4.597325,-1.027951 q 4.196725,-4.333184 8.190886,-8.858871 0.09927,-0.112394 0.137103,-0.258659 l 0.605838,-2.264776 a 0.35173839,0.35173839 0 0 0 -0.286821,-0.439239 l -1.845559,-0.281437 q -0.144581,-0.02499 -0.0668,-0.149399 c 0.348497,-0.560623 1.84522,-0.509512 2.753283,-0.554397 a 0.37453625,0.37127941 17.471265 0 0 0.276983,-0.142859 c 0.390563,-0.502895 0.773483,-0.970634 1.344788,-1.290296 q 5.933108,-3.303912 11.898988,-6.554524 0.218029,-0.117353 0.09785,-0.339013 l -0.328985,-0.601999 a 0.1758692,0.1758692 0 0 1 0.06885,-0.237601 l 3.05519,-1.691823 q 0.183302,-0.101971 0.27437,0.08986 l 0.244476,0.516031 a 0.13678715,0.13678715 0 0 0 0.192749,0.05998 l 1.049306,-0.627933 q 0.141711,-0.08415 0.09592,-0.244079 c -0.141427,-0.473713 0.0089,-0.839035 0.456691,-1.062441 q 1.932443,-0.974551 3.691312,-2.243026 0.133619,-0.09829 0.296425,-0.08794 0.07471,0.0062 0.146305,0.0111 0.07794,0.0066 0.150256,-0.02076 1.900795,-0.692965 3.7947,-1.409751 c 3.082336,-1.169931 5.635155,-3.124274 8.603493,-4.380546 q 0.453872,-0.193116 0.351155,-0.740786 a 0.22146491,0.22146491 0 0 1 0.111271,-0.235614 l 1.287979,-0.70006 a 0.19866705,0.19541022 49.471265 0 1 0.214548,0.01654 l 0.25751,0.199317 q 0.146344,0.116602 0.311878,0.02559 l 29.48356,-16.295987 q 0.13728,-0.07487 0.0866,-0.222268 l -0.10492,-0.318217 a 0.24751961,0.25077645 65.671265 0 1 0.11241,-0.297826 l 1.2508,-0.717802 q 0.16596,-0.09428 0.30792,0.03114 l 0.33112,0.293777 a 0.20518073,0.20843757 50.371265 0 0 0.24363,0.02014 l 1.03315,-0.629937 a 0.20192389,0.20192389 0 0 0 0.0648,-0.284048 l -0.29855,-0.450539 q -0.11327,-0.171579 0.0664,-0.270712 l 2.08619,-1.155673 q 0.11991,-0.06715 0.25365,-0.03413 l 1.1475,0.273614 a 0.45595717,0.44618666 36.671265 0 0 0.31384,-0.04309 l 1.04773,-0.588748 a 0.19866705,0.19866705 0 0 1 0.26952,0.07606 l 1.17144,2.117677 q 0.0801,0.147777 -0.0677,0.227893 l -0.9682,0.529699 q -0.151,0.07972 -0.1193,0.247738 l 0.0389,0.214869 q 0.0508,0.27869 0.3108,0.166547 l 0.22209,-0.09716 q 0.19786,-0.08704 0.3059,0.10032 l 1.18561,2.135839 a 0.25729012,0.26054696 60.971265 0 1 -0.10266,0.351546 l -4.89953,2.696993 q -0.16232,0.09145 -0.0781,0.259415 l 0.28613,0.576993 q 0.0817,0.161109 -0.0395,0.293747 -0.615,0.671962 -1.51244,0.842873 -0.19509,0.03817 -0.29179,-0.134644 l -0.31603,-0.574142 q -0.0777,-0.140912 -0.22184,-0.06359 L 83.973202,48.598985 a 0.1758692,0.1758692 0 0 1 -0.237592,-0.06887 l -1.249948,-2.252124 q -0.104402,-0.190158 0.08576,-0.294562 L 107.97212,31.939056 a 0.28334482,0.28660165 62.371265 0 0 0.11846,-0.37255 q -0.0842,-0.16797 -0.28013,-0.202122 -0.11512,-0.02436 -0.25646,0.05676 -12.967682,7.180052 -25.910766,14.320491 a 0.15958501,0.15632817 61.071265 0 0 -0.05918,0.212541 l 2.286662,4.133204 a 0.23449226,0.23123542 60.571265 0 1 -0.08495,0.314364 q -1.579018,0.929779 -3.059597,1.727381 -0.224892,0.119776 -0.09253,0.402027 a 0.23449226,0.24100593 50.571265 0 1 -0.028,0.252504 q -0.792826,1.020744 -1.95128,0.703108 -0.190723,-0.04986 -0.363522,0.0468 C 68.586055,59.119762 58.610771,64.426259 49.415753,70.82393 a 0.35499523,0.35499523 0 0 0 -0.08477,0.498163 c 2.610176,3.641692 0.398089,6.658926 -3.244328,8.058032 a 0.4494435,0.46898452 5.7712651 0 0 -0.234917,0.200587 z M 113.69954,28.316829 a 0.24100593,0.24100593 0 0 0 -0.32685,-0.09667 l -3.46226,1.882118 a 0.24100593,0.24100593 0 0 0 -0.0967,0.326855 l 0.084,0.154523 a 0.24100593,0.24100593 0 0 0 0.32686,0.09667 l 3.46226,-1.882118 a 0.24100593,0.24100593 0 0 0 0.0967,-0.326855 z M 79.487294,47.095467 a 0.14004399,0.14004399 0 0 0 -0.190769,-0.05319 l -1.168684,0.659305 a 0.14004399,0.14004399 0 0 0 -0.05317,0.190766 l 1.225782,2.172856 a 0.14004399,0.14004399 0 0 0 0.19077,0.05319 l 1.168682,-0.659296 a 0.14004399,0.14004399 0 0 0 0.05317,-0.190776 z m -22.030136,12.235472 1.377774,2.438638 a 0.09444827,0.09444827 0 0 0 0.126882,0.03539 L 75.511422,52.470053 A 0.18238287,2.3612068 60.571265 0 0 77.4799,51.152106 L 76.188311,48.865282 A 0.18238287,2.3612068 60.571265 0 0 74.0426,49.865888 l -16.549607,9.334904 a 0.09444827,0.09444827 0 0 0 -0.03583,0.130109 z m -17.162465,11.867915 1.856832,1.963125 q 0.124544,0.133598 0.270267,0.0171 6.782252,-5.440047 14.238811,-9.913633 0.16311,-0.09792 0.07206,-0.263453 l -1.506477,-2.69745 q -0.08295,-0.151413 -0.234766,-0.0652 -6.401487,3.534608 -12.846268,6.994931 c -1.216923,0.656364 -1.644891,2.624862 -1.908886,3.694802 q -0.04024,0.165656 0.05842,0.269784 z m 7.235076,4.878321 a 0.20192389,0.20192389 0 0 1 -0.02669,0.40035 q -2.007969,0.128317 -2.975434,-1.570241 a 0.18889654,0.18889654 0 0 0 -0.271524,-0.05988 c -0.634596,0.459494 -1.115157,1.052959 -1.711343,1.546752 q -0.175588,0.145592 -0.153969,0.368156 a 0.14330083,0.14655766 68.471265 0 0 0.233579,0.101225 l 0.508218,-0.393127 a 0.17261236,0.17261236 0 0 1 0.264247,0.06563 c 1.508846,3.498503 8.192986,-0.595049 4.150423,-4.171557 q -0.127346,-0.111021 -0.261766,-0.0063 l -1.678042,1.304751 a 0.49503922,0.49829605 62.071265 0 0 -0.168353,0.53703 q 0.491876,1.564078 2.090644,1.877265 z m -16.393401,5.324226 c -1.912065,2.027257 -3.72927,2.258007 -6.322435,1.680355 q -0.16606,-0.03702 -0.308971,0.0568 -9.456939,6.233912 -18.6214216,12.888072 a 0.14330083,0.14004399 46.371265 0 0 -0.00504,0.225818 c 3.0788466,2.429769 5.0595546,5.537194 6.6601506,9.089744 q 0.161924,0.36139 0.434322,0.0703 13.985289,-14.907164 27.489856,-30.25137 0.125901,-0.1419 -0.0047,-0.279535 l -1.548664,-1.590151 q -0.122515,-0.123502 -0.237115,0.0067 -2.522137,2.791709 -7.535966,8.103246 z m 13.111167,-0.999388 a 1.078013,1.078013 0 0 0 -0.09917,-1.521307 l -0.03427,-0.03005 a 1.078013,1.078013 0 0 0 -1.521301,0.09914 l -4.171993,4.753667 a 1.078013,1.078013 0 0 0 0.09917,1.521299 l 0.03427,0.03005 a 1.078013,1.078013 0 0 0 1.5213,-0.09913 z"
       id="path9"
       style="stroke-width:0.325684" />
    <path
       style="fill:#713d25;fill-opacity:1;stroke:#713d25;stroke-width:0.126292;stroke-opacity:1"
       d="m 12.554297,105.42782 c -0.0591,-0.0948 -0.429781,-0.81369 -0.823737,-1.59748 C 10.295638,100.97549 8.7382673,98.871571 6.6913581,97.022635 6.1898042,96.569586 5.7846044,96.157299 5.7909147,96.106429 5.8185035,95.884023 16.110906,88.668303 22.099133,84.673199 l 2.428623,-1.620282 1.585541,0.143276 c 1.484865,0.134213 1.641906,0.123766 2.473376,-0.164832 0.488312,-0.169466 1.187172,-0.541997 1.55302,-0.827834 0.577664,-0.45134 4.059662,-4.099718 7.478473,-7.835827 0.589571,-0.644291 1.127466,-1.164552 1.195318,-1.156135 0.13344,0.01655 1.800269,1.724191 1.787045,1.830797 -0.0108,0.08703 -6.321932,7.192357 -10.72698,12.076862 -7.03527,7.800997 -16.950251,18.513416 -17.116221,18.492826 -0.05257,-0.007 -0.143931,-0.0894 -0.203027,-0.18426 z"
       id="path3" />
    <path
       style="fill:#713d25;fill-opacity:1;stroke:#713d25;stroke-width:0.126292;stroke-opacity:1"
       d="m 58.111274,60.590836 c -0.38428,-0.676484 -0.672594,-1.284004 -0.640699,-1.35004 0.05866,-0.12144 15.235706,-8.724506 17.349836,-9.834702 0.629589,-0.330617 1.208733,-0.59318 1.286986,-0.583473 0.07825,0.0097 0.439438,0.554782 0.80263,1.211279 l 0.660352,1.193629 -0.691777,0.463919 c -0.855754,0.573885 -17.84073,10.157635 -17.972979,10.141229 -0.05262,-0.0065 -0.410069,-0.565354 -0.794349,-1.241841 z"
       id="path5" />
    <path
       style="fill:#713d25;fill-opacity:1;stroke:#713d25;stroke-width:0.126292;stroke-opacity:1"
       d="m 78.604808,48.973344 -0.648745,-1.130367 0.520294,-0.36017 c 0.950583,-0.658036 0.910273,-0.673979 1.668068,0.659789 l 0.682864,1.201885 -0.594101,0.403182 c -0.326756,0.221751 -0.680846,0.392578 -0.786868,0.379615 -0.106021,-0.01296 -0.484702,-0.532232 -0.841512,-1.153934 z"
       id="path7" />
    <path
       style="fill:#4e4a48;fill-opacity:1;stroke:#4e4a48;stroke-width:0.126292;stroke-opacity:1"
       d="m 41.161872,72.198496 -0.995901,-1.046171 0.178847,-0.824721 c 0.21866,-1.008313 0.722703,-2.150228 1.15921,-2.626183 0.178944,-0.195115 2.33133,-1.442423 4.783082,-2.771795 2.451751,-1.329373 5.403604,-2.93816 6.559674,-3.575084 1.15607,-0.636923 2.16794,-1.149857 2.248598,-1.139851 0.127191,0.01578 1.762166,2.776587 1.741757,2.941118 -0.0042,0.03366 -0.643336,0.454269 -1.420356,0.934684 -3.713554,2.296012 -6.894663,4.488022 -10.344924,7.128386 -1.476421,1.129853 -2.73608,2.047869 -2.799242,2.040034 -0.06317,-0.0078 -0.562996,-0.485023 -1.110742,-1.060417 z"
       id="path11" />
  </g>
</svg>
