<?xml version="1.0" encoding="UTF-8" standalone="no"?>
<!-- Created with Inkscape (http://www.inkscape.org/) -->

<svg
   width="48"
   height="17"
   viewBox="0 0 12.699999 4.4979167"
   version="1.1"
   id="svg1"
   xml:space="preserve"
   inkscape:version="1.3.2 (091e20e, 2023-11-25, custom)"
   sodipodi:docname="HK53_Killfeed_v1.svg"
   xmlns:inkscape="http://www.inkscape.org/namespaces/inkscape"
   xmlns:sodipodi="http://sodipodi.sourceforge.net/DTD/sodipodi-0.dtd"
   xmlns="http://www.w3.org/2000/svg"
   xmlns:svg="http://www.w3.org/2000/svg"><sodipodi:namedview
     id="namedview1"
     pagecolor="#5d5d5d"
     bordercolor="#000000"
     borderopacity="0.25"
     inkscape:showpageshadow="2"
     inkscape:pageopacity="0.0"
     inkscape:pagecheckerboard="0"
     inkscape:deskcolor="#232323"
     inkscape:document-units="px"
     inkscape:zoom="38.533334"
     inkscape:cx="34.969722"
     inkscape:cy="7.6946365"
     inkscape:window-width="1920"
     inkscape:window-height="1017"
     inkscape:window-x="-8"
     inkscape:window-y="-8"
     inkscape:window-maximized="1"
     inkscape:current-layer="layer4"
     showguides="false" /><defs
     id="defs1"><inkscape:path-effect
       effect="powerclip"
       id="path-effect1"
       is_visible="true"
       lpeversion="1"
       inverse="true"
       flatten="false"
       hide_clip="false"
       message="Use fill-rule evenodd on &lt;b&gt;fill and stroke&lt;/b&gt; dialog if no flatten result after convert clip to paths." /><inkscape:path-effect
       effect="powerclip"
       id="path-effect65"
       is_visible="true"
       lpeversion="1"
       inverse="true"
       flatten="false"
       hide_clip="false"
       message="Use fill-rule evenodd on &lt;b&gt;fill and stroke&lt;/b&gt; dialog if no flatten result after convert clip to paths." /><inkscape:path-effect
       effect="powerclip"
       id="path-effect33"
       is_visible="true"
       lpeversion="1"
       inverse="true"
       flatten="false"
       hide_clip="false"
       message="Use fill-rule evenodd on &lt;b&gt;fill and stroke&lt;/b&gt; dialog if no flatten result after convert clip to paths." /><clipPath
       clipPathUnits="userSpaceOnUse"
       id="clipPath32"><ellipse
         style="display:none;fill:#424242;fill-opacity:1;stroke:none;stroke-width:2.11667;stroke-linecap:round;stroke-linejoin:round;stroke-miterlimit:29;stroke-dasharray:none;stroke-opacity:1;paint-order:normal"
         id="ellipse33"
         cx="157.6105"
         cy="26.437967"
         rx="3.2623587"
         ry="0.78343379"
         d="m 160.87286,26.437967 a 3.2623587,0.78343379 0 0 1 -3.26236,0.783434 3.2623587,0.78343379 0 0 1 -3.26235,-0.783434 3.2623587,0.78343379 0 0 1 3.26235,-0.783433 3.2623587,0.78343379 0 0 1 3.26236,0.783433 z" /><path
         id="lpe_path-effect33"
         style="fill:#424242;fill-opacity:1;stroke:none;stroke-width:2.11667;stroke-linecap:round;stroke-linejoin:round;stroke-miterlimit:29;stroke-dasharray:none;stroke-opacity:1;paint-order:normal"
         class="powerclip"
         d="m 141.91137,18.5264 h 25.48159 v 15.589274 h -25.48159 z m 19.49937,7.806757 a 3.8353176,0.98178834 0 0 0 -3.83532,-0.981789 3.8353176,0.98178834 0 0 0 -3.83531,0.981789 3.8353176,0.98178834 0 0 0 3.83531,0.981788 3.8353176,0.98178834 0 0 0 3.83532,-0.981788 z" /></clipPath><clipPath
       clipPathUnits="userSpaceOnUse"
       id="clipPath64"><g
         id="g65"
         style="display:none;stroke-width:0.999999"><path
           style="opacity:1;fill:#d9d9d9;fill-opacity:1;stroke:none;stroke-width:2.11667;stroke-linecap:round;stroke-linejoin:round;stroke-miterlimit:29;stroke-dasharray:none;stroke-opacity:1"
           d="m 36.418352,17.636514 v -3.586941 c 0,-1.061291 1.05835,-2.347631 2.347632,-2.347631 h 2.589449 v 0.99749 l -0.673332,1.166248 3.595279,1.634791 h 2.458463 v 0.423178 h 4.433299 V 15.33926 h 1.428631 l 0.02079,1.428479 -0.801063,0.462494 h -5.50484 l -0.374427,0.374427 z"
           id="path64"
           sodipodi:nodetypes="ccccccccccccccccc" /><rect
           style="fill:#d9d9d9;fill-opacity:1;stroke:none;stroke-width:2.11667;stroke-linecap:round;stroke-linejoin:round;stroke-miterlimit:29;stroke-dasharray:none;stroke-opacity:1"
           id="rect64"
           width="1.0583333"
           height="4.2846022"
           x="104.95296"
           y="16.314445"
           d="m 104.95296,16.314445 h 1.05833 v 4.284603 h -1.05833 z" /><rect
           style="display:inline;fill:#d9d9d9;fill-opacity:1;stroke:none;stroke-width:2.11667;stroke-linecap:round;stroke-linejoin:round;stroke-miterlimit:29;stroke-dasharray:none;stroke-opacity:1"
           id="rect65"
           width="1.0583333"
           height="4.2846022"
           x="137.75305"
           y="16.313532"
           d="m 137.75305,16.313532 h 1.05834 v 4.284602 h -1.05834 z" /></g><path
         id="lpe_path-effect65"
         style="stroke-width:0.999999"
         class="powerclip"
         d="M 18.492208,10.643095 H 146.93094 V 47.773551 H 18.492208 Z m 17.926144,6.993419 9.519881,-0.03185 0.374427,-0.374427 h 5.50484 l 0.801063,-0.462494 -0.02079,-1.428479 h -1.428631 v 0.584389 H 46.735843 V 15.500471 H 44.27738 l -3.595279,-1.634791 0.673332,-1.166248 v -0.99749 h -2.589449 c -1.289282,0 -2.347632,1.28634 -2.347632,2.347631 z m 68.534608,-1.322069 v 4.284603 h 1.05833 v -4.284603 z m 32.80009,-9.13e-4 v 4.284602 h 1.05834 v -4.284602 z" /></clipPath><clipPath
       clipPathUnits="userSpaceOnUse"
       id="clipPath1"><ellipse
         style="display:none;fill:#d9d9d9;fill-opacity:1;stroke:none;stroke-width:16.557;stroke-linecap:round;stroke-linejoin:round;stroke-miterlimit:29;stroke-dasharray:none;stroke-opacity:1;paint-order:normal"
         id="ellipse1"
         cx="157.57542"
         cy="26.333157"
         rx="3.8353176"
         ry="0.98178834"
         d="m 161.41074,26.333157 a 3.8353176,0.98178834 0 0 1 -3.83532,0.981788 3.8353176,0.98178834 0 0 1 -3.83531,-0.981788 3.8353176,0.98178834 0 0 1 3.83531,-0.981789 3.8353176,0.98178834 0 0 1 3.83532,0.981789 z" /><path
         id="lpe_path-effect1"
         style="fill:#d9d9d9;fill-opacity:1;stroke:none;stroke-width:16.557;stroke-linecap:round;stroke-linejoin:round;stroke-miterlimit:29;stroke-dasharray:none;stroke-opacity:1;paint-order:normal"
         class="powerclip"
         d="m 141.91137,18.5264 h 25.48159 v 15.589274 h -25.48159 z m 19.49937,7.806757 a 3.8353176,0.98178834 0 0 0 -3.83532,-0.981789 3.8353176,0.98178834 0 0 0 -3.83531,0.981789 3.8353176,0.98178834 0 0 0 3.83531,0.981788 3.8353176,0.98178834 0 0 0 3.83532,-0.981788 z" /></clipPath></defs><g
     inkscape:groupmode="layer"
     id="layer2"
     inkscape:label="Layer 2 - Magazine"
     style="display:inline;opacity:1;fill:#d9d9d9;fill-opacity:1;stroke:none;stroke-width:15.6665;stroke-opacity:1"
     inkscape:highlight-color="#f3eb35"
     transform="matrix(0.06405189,0,0,0.06361056,-0.70229553,-0.51037755)"><path
       style="display:inline;opacity:1;fill:#d9d9d9;fill-opacity:1;stroke:none;stroke-width:33.1605;stroke-linecap:round;stroke-linejoin:miter;stroke-miterlimit:29;stroke-dasharray:none;stroke-opacity:1"
       d="m 76.186916,42.760804 c 1.465076,12.046486 4.755161,25.33705 10.596922,35.972888 l 15.137932,-6.04177 c 0.70752,-0.531802 0.0744,-1.710504 -0.72985,-1.491854 0,0 -9.625235,-21.068797 -9.049365,-34.645328 z"
       id="path2"
       sodipodi:nodetypes="cccscc" /></g><g
     inkscape:groupmode="layer"
     id="layer3"
     inkscape:label="Layer 3 - Platform"
     style="display:inline;opacity:1;fill:#d9d9d9;fill-opacity:1;stroke:none;stroke-width:15.6446;stroke-opacity:1"
     transform="matrix(0.06414127,0,0,0.06369932,-0.69869099,-0.54820293)"><path
       style="display:inline;opacity:1;fill:#d9d9d9;fill-opacity:1;stroke:none;stroke-width:16.557;stroke-linecap:round;stroke-linejoin:round;stroke-miterlimit:29;stroke-dasharray:none;stroke-opacity:1;paint-order:normal"
       d="m 55.261313,41.952455 0.09354,5.332026 c 0.151981,0.640813 1.287879,1.943748 2.23337,2.712786 0.5884,0.508803 0.726671,-0.01582 0.64312,-0.163702 -1.24032,-2.415685 -2.468778,-4.860951 0.795125,-7.88111 z"
       id="path14"
       sodipodi:nodetypes="cccccc"
       inkscape:label="Trigger" /><path
       style="display:inline;opacity:1;fill:#d9d9d9;fill-opacity:1;stroke:none;stroke-width:33.1143;stroke-linecap:round;stroke-linejoin:round;stroke-miterlimit:29;stroke-dasharray:none;stroke-opacity:1;paint-order:normal"
       d="m 27.792102,58.514912 c -0.291734,1.335387 8.598386,5.228055 12.423931,7.706754 0.472874,0.346428 0.853506,0.02815 0.809945,-0.621275 -0.130879,-1.951163 0.392963,-4.627017 2.491411,-6.523683 0.313146,-2.528164 0.500735,-3.641962 2.440129,-5.789329 -0.247554,-1.743989 1.308823,-4.250027 3.955714,-3.814444 -0.766174,-1.023093 -1.152286,-2.116311 1.737924,-7.190062 l 15.145318,-0.04183 7.179172,-0.02195 -2.441908,-11.419836 -35.88496,0.05204 -0.03307,6.009076 c 3.760374,2.574459 2.056241,5.370353 1.932383,7.39638 -4.280231,5.027028 -7.746062,9.140955 -9.755989,14.258172 z"
       id="path7"
       sodipodi:nodetypes="ccscccccccccccc"
       inkscape:label="Platform" /><g
       id="g9"
       inkscape:label="Hand Guard"
       style="fill:none;fill-opacity:1;stroke:#d9d9d9;stroke-width:2.06964;stroke-dasharray:none;stroke-opacity:1"><path
         style="fill:none;fill-opacity:1;stroke:#d9d9d9;stroke-width:2.06964;stroke-linecap:round;stroke-linejoin:round;stroke-miterlimit:29;stroke-dasharray:none;stroke-opacity:1;paint-order:normal"
         d="m 68.295564,42.447903 -2.841889,7.894136 c -0.64832,1.250798 -1.538335,1.48637 -2.887,1.48861 l -7.443043,0.09022 C 53.185431,51.783733 50.8179,50.120073 48.827388,48.672671"
         id="path8"
         sodipodi:nodetypes="ccccc" /><path
         style="display:inline;fill:none;fill-opacity:1;stroke:#d9d9d9;stroke-width:2.06964;stroke-linecap:round;stroke-linejoin:round;stroke-miterlimit:29;stroke-dasharray:none;stroke-opacity:1;paint-order:normal"
         d="m 63.243317,41.153832 c 3.645996,0 4.390411,1.912832 3.653857,5.128368 1.112698,-2.468672 1.312924,-5.101912 5.494819,-5.101912 z"
         id="path9"
         sodipodi:nodetypes="cccc" /></g><path
       style="fill:#d9d9d9;fill-opacity:1;stroke:#d9d9d9;stroke-width:1.24179;stroke-linecap:round;stroke-linejoin:round;stroke-miterlimit:29;stroke-dasharray:none;stroke-opacity:1;paint-order:normal"
       d="m 72.397186,46.434947 c 0.533851,-1.132429 0.27939,-4.099523 0.463022,-4.233333"
       id="path20"
       sodipodi:nodetypes="cc"
       inkscape:label="Mag Release" /></g><g
     inkscape:groupmode="layer"
     id="layer4"
     inkscape:label="Layer 4 - Body"
     style="display:inline;opacity:1;fill:#d9d9d9;fill-opacity:1;stroke:none;stroke-width:15.6446;stroke-opacity:1"
     inkscape:highlight-color="#8a5ff1"
     transform="matrix(0.06414127,0,0,0.06369932,-0.6903752,-0.54820293)"><path
       id="rect31"
       style="display:inline;opacity:1;fill:#d9d9d9;fill-opacity:1;stroke:none;stroke-width:33.1143;stroke-linecap:round;stroke-linejoin:miter;stroke-miterlimit:29;stroke-opacity:1"
       d="m 146.95814,23.5264 h 15.03725 c 0.53776,2.084523 0.52236,3.941272 0,5.589274 h -15.08402 z"
       sodipodi:nodetypes="ccccc"
       clip-path="url(#clipPath1)"
       inkscape:path-effect="#path-effect33;#path-effect1"
       inkscape:original-d="m 146.95814,23.5264 h 15.03725 c 0.53776,2.084523 0.52236,3.941272 0,5.589274 h -15.08402 z"
       inkscape:label="Muzzle" /><g
       id="g30"
       style="display:inline;opacity:1;fill:#d9d9d9;fill-opacity:1;stroke:none;stroke-width:245.944;stroke-opacity:1"
       inkscape:label="Front Sights"><path
         style="display:inline;opacity:1;fill:#d9d9d9;fill-opacity:1;stroke:none;stroke-width:33.1143;stroke-linecap:round;stroke-linejoin:miter;stroke-miterlimit:29;stroke-dasharray:none;stroke-opacity:1;paint-order:normal"
         d="m 142.91707,29.137851 -0.0182,-12.627241 1.0756,3.47e-4 -0.029,-1.456107 -1.04862,0.0058 -0.008,-5.5191039 c 0,-0.6648843 0.27555,-0.9354434 0.98221,-0.9354434 h 2.43216 l 1.59025,5.5191153 v 2.432153 c 0.93222,0 0.72282,4.720886 0.51166,5.533058 l -0.41476,0.103233 -0.003,1.490691 0.0401,5.441628 z"
         id="path26"
         sodipodi:nodetypes="ccccccccccccccc"
         inkscape:label="path26" /></g><path
       style="display:inline;opacity:1;fill:#d9d9d9;fill-opacity:1;stroke:none;stroke-width:33.1143;stroke-linecap:round;stroke-linejoin:round;stroke-miterlimit:29;stroke-dasharray:none;stroke-opacity:1;paint-order:normal"
       d="M 141.93094,16.536458 H 52.05677 35.420366 l 0.0017,-0.873943 -9.107578,-0.01942 -2.82228,5.916249 v 9.132323 l 2.800507,4.85062 h 8.387358 l 0.0292,-5.50255 37.455815,-0.0876 2.673067,12.821414 18.692037,-7.347968 -0.06615,-14.98652 h 48.394778 z"
       id="path33"
       inkscape:label="Body"
       sodipodi:nodetypes="cccccccccccccccc"
       clip-path="url(#clipPath64)"
       inkscape:path-effect="#path-effect65"
       inkscape:original-d="M 141.93094,16.536458 H 52.05677 35.420366 l 0.0017,-0.873943 -9.107578,-0.01942 -2.82228,5.916249 v 9.132323 l 2.800507,4.85062 h 8.387358 l 0.0292,-5.50255 37.455815,-0.0876 2.673067,12.821414 18.692037,-7.347968 -0.06615,-14.98652 h 48.394778 z" /><path
       style="display:inline;opacity:1;fill:#d9d9d9;fill-opacity:1;stroke:none;stroke-width:33.1143;stroke-linecap:round;stroke-linejoin:round;stroke-miterlimit:29;stroke-dasharray:none;stroke-opacity:1;paint-order:normal"
       d="m 94.356339,21.29155 v 13.938104 h 6.341231 l 41.24048,-5.948434 -0.045,-7.896126 z"
       id="path15"
       sodipodi:nodetypes="cccccc"
       inkscape:label="Front Grip" /><path
       style="display:inline;opacity:1;fill:#d9d9d9;fill-opacity:1;stroke:none;stroke-width:16.557;stroke-linecap:round;stroke-linejoin:round;stroke-miterlimit:29;stroke-dasharray:none;stroke-opacity:1;paint-order:normal"
       d="m 73.013487,30.282391 c -0.692762,0.928767 -1.472585,-0.144879 -1.966472,5.358 0.235653,0.599858 0.481597,1.194874 1.449938,1.449937 l 2.104747,0.04677 c 1.207023,-0.355684 1.490068,-1.167554 1.356395,-2.011203 l -2.063954,-3.367596 0.930933,-1.005751 0.03816,-1.70412 -1.152786,0.01845 c -0.172334,0.522823 -0.407609,0.852439 -0.696961,1.215515 z"
       id="path22"
       sodipodi:nodetypes="cccccccccc"
       transform="translate(-52.029411)" /><g
       id="g24"
       inkscape:label="Stock"
       style="display:inline;opacity:1;fill:#d9d9d9;fill-opacity:1;stroke:none;stroke-width:15.6446;stroke-opacity:1"
       transform="translate(-0.81216714)"><path
         style="fill:#d9d9d9;fill-opacity:1;stroke:none;stroke-width:33.1143;stroke-linecap:round;stroke-linejoin:round;stroke-miterlimit:29;stroke-dasharray:none;stroke-opacity:1;paint-order:normal"
         d="m 14.719109,19.190316 c -0.297913,0.347691 -0.691962,0.839434 -1.361663,1.222036 0.789878,10.908554 1.370785,21.631414 -1.781925,28.667856 1.409389,2.293755 3.356618,3.091785 4.241358,0.227095 l 3.762287,-17.689595 c 0.163876,-1.12284 1.094197,-1.670845 1.984375,-2.248958 l 0.369477,-8.400521 -5.552277,-1.790361 z"
         id="path21"
         sodipodi:nodetypes="ccccccccc"
         inkscape:label="Stock" /><g
         id="g23"
         style="display:inline;fill:#d9d9d9;fill-opacity:1;stroke:none;stroke-width:17.3031;stroke-opacity:1"
         inkscape:label="Extendor"
         transform="matrix(0.81748693,0,0,1,2.8015318,0)"><path
           id="rect22"
           style="display:inline;opacity:1;fill:#d9d9d9;fill-opacity:1;stroke:none;stroke-width:36.6249;stroke-linecap:round;stroke-linejoin:round;stroke-miterlimit:29;stroke-dasharray:none;stroke-opacity:1"
           d="m 24.200429,25.084953 h 63.381913 v 4.189192 H 23.97668 Z"
           sodipodi:nodetypes="ccccc"
           inkscape:label="Extention" /></g></g><path
       style="opacity:1;fill:#d9d9d9;fill-opacity:1;stroke:none;stroke-width:33.1143;stroke-linecap:round;stroke-linejoin:round;stroke-miterlimit:29;stroke-dasharray:none;stroke-opacity:1"
       d="m 37.039525,16.863493 v -3.456932 c 0,-1.022824 0.951327,-2.262542 2.193879,-2.262542 h 2.495595 v 0.961337 l -0.648928,1.123977 3.464968,1.575538 h 2.369357 v 0.40784 h 4.272613 v -0.563208 h 0.602052 l 0.561385,1.376704 -0.813227,0.486928 -5.415179,-0.0412 -0.360857,0.360857 z"
       id="path40"
       sodipodi:nodetypes="ccccccccccccccccc" /><path
       style="opacity:1;fill:#d9d9d9;fill-opacity:1;stroke:none;stroke-width:33.1143;stroke-linecap:round;stroke-linejoin:round;stroke-miterlimit:29;stroke-dasharray:none;stroke-opacity:1"
       d="m 40.451651,14.012356 0.63429,-1.086489 -0.01979,-1.469898 -0.803773,-0.0136 0.693451,-1.240717 5.659815,2.572429 -1.618251,3.29143 z"
       id="path42"
       sodipodi:nodetypes="cccccccc"
       inkscape:label="Rear Sight" /><path
       style="fill:#d9d9d9;fill-opacity:1;stroke:none;stroke-width:33.1143;stroke-linecap:round;stroke-linejoin:round;stroke-miterlimit:29;stroke-dasharray:none;stroke-opacity:1"
       d="m 165.75479,24.072358 34.93446,-13.888909 -6.60865,7.926989 14.68319,3.196561 -15.2325,9.220477 7.40111,6.249175 -35.23634,-8.191986 2.50672,-1.122504 -2.1416,-1.046772 1.94793,-1.083093 z"
       id="path65"
       sodipodi:nodetypes="ccccccccccc"
       inkscape:label="Muzzle Flash" /></g></svg>
