<?xml version="1.0" encoding="UTF-8" standalone="no"?>
<!-- Created with Inkscape (http://www.inkscape.org/) -->

<svg
   width="126"
   height="126"
   viewBox="0 0 33.337499 33.337501"
   version="1.1"
   id="svg1"
   xml:space="preserve"
   inkscape:version="1.3.2 (091e20e, 2023-11-25, custom)"
   sodipodi:docname="hk53e.svg"
   xmlns:inkscape="http://www.inkscape.org/namespaces/inkscape"
   xmlns:sodipodi="http://sodipodi.sourceforge.net/DTD/sodipodi-0.dtd"
   xmlns="http://www.w3.org/2000/svg"
   xmlns:svg="http://www.w3.org/2000/svg"><sodipodi:namedview
     id="namedview1"
     pagecolor="#5d5d5d"
     bordercolor="#000000"
     borderopacity="0.25"
     inkscape:showpageshadow="2"
     inkscape:pageopacity="0.0"
     inkscape:pagecheckerboard="0"
     inkscape:deskcolor="#232323"
     inkscape:document-units="px"
     inkscape:zoom="4.8166668"
     inkscape:cx="67.266434"
     inkscape:cy="74.013839"
     inkscape:window-width="1920"
     inkscape:window-height="1009"
     inkscape:window-x="-8"
     inkscape:window-y="-8"
     inkscape:window-maximized="1"
     inkscape:current-layer="layer4"
     showguides="false" /><defs
     id="defs1"><inkscape:path-effect
       effect="powerclip"
       id="path-effect33"
       is_visible="true"
       lpeversion="1"
       inverse="true"
       flatten="false"
       hide_clip="false"
       message="Use fill-rule evenodd on &lt;b&gt;fill and stroke&lt;/b&gt; dialog if no flatten result after convert clip to paths." /><clipPath
       clipPathUnits="userSpaceOnUse"
       id="clipPath32"><ellipse
         style="display:none;fill:#424242;fill-opacity:1;stroke:none;stroke-width:2.11667;stroke-linecap:round;stroke-linejoin:round;stroke-miterlimit:29;stroke-dasharray:none;stroke-opacity:1;paint-order:normal"
         id="ellipse33"
         cx="157.6105"
         cy="26.437967"
         rx="3.2623587"
         ry="0.78343379"
         d="m 160.87286,26.437967 a 3.2623587,0.78343379 0 0 1 -3.26236,0.783434 3.2623587,0.78343379 0 0 1 -3.26235,-0.783434 3.2623587,0.78343379 0 0 1 3.26235,-0.783433 3.2623587,0.78343379 0 0 1 3.26236,0.783433 z" /><path
         id="lpe_path-effect33"
         style="fill:#424242;fill-opacity:1;stroke:none;stroke-width:2.11667;stroke-linecap:round;stroke-linejoin:round;stroke-miterlimit:29;stroke-dasharray:none;stroke-opacity:1;paint-order:normal"
         class="powerclip"
         d="m 140.84414,17.468065 h 27.60561 v 17.705944 h -27.60561 z m 20.02872,8.969902 a 3.2623587,0.78343379 0 0 0 -3.26236,-0.783433 3.2623587,0.78343379 0 0 0 -3.26235,0.783433 3.2623587,0.78343379 0 0 0 3.26235,0.783434 3.2623587,0.78343379 0 0 0 3.26236,-0.783434 z" /></clipPath></defs><g
     inkscape:groupmode="layer"
     id="layer2"
     inkscape:label="Layer 2 - Magazine"
     style="display:inline;opacity:1"
     inkscape:highlight-color="#f3eb35"
     transform="matrix(0.18973369,0,0,0.18973369,-2.1467185,-1.4320719)"><path
       style="display:inline;opacity:1;fill:#6a707a;fill-opacity:1;stroke:#2f3237;stroke-width:1.81592;stroke-linecap:round;stroke-linejoin:miter;stroke-miterlimit:29;stroke-dasharray:none;stroke-opacity:1"
       d="m 119.6675,91.515165 c 5.35162,8.929475 12.56724,18.197465 20.85641,24.494125 l 9.75543,-10.01666 c 0.36904,-0.66388 -0.5385,-1.3663 -1.09263,-0.91451 0,0 -14.89429,-13.153095 -19.18019,-23.993847 z"
       id="path2"
       sodipodi:nodetypes="cccscc" /><path
       style="opacity:1;fill:#6a707a;fill-opacity:1;stroke:#2f3237;stroke-width:1.81592;stroke-linecap:round;stroke-linejoin:round;stroke-miterlimit:100;stroke-dasharray:none;stroke-opacity:1"
       d="m 124.62686,93.266635 c 1.88221,3.14685 7.89418,11.718975 14.83357,17.507695"
       id="path3"
       sodipodi:nodetypes="cc" /><path
       style="display:inline;opacity:1;fill:#6a707a;fill-opacity:1;stroke:#2f3237;stroke-width:1.81592;stroke-linecap:round;stroke-linejoin:round;stroke-miterlimit:100;stroke-dasharray:none;stroke-opacity:1"
       d="m 126.26831,91.674951 c 1.88246,3.146634 7.89431,11.719099 14.83401,17.507409"
       id="path3-4"
       sodipodi:nodetypes="cc" /><path
       style="display:inline;opacity:1;fill:#6a707a;fill-opacity:1;stroke:#2f3237;stroke-width:1.81592;stroke-linecap:round;stroke-linejoin:round;stroke-miterlimit:100;stroke-dasharray:none;stroke-opacity:1"
       d="m 127.85797,90.049003 c 1.88248,3.146652 7.89447,11.718957 14.83405,17.507527"
       id="path3-4-5"
       sodipodi:nodetypes="cc" /><path
       style="fill:none;fill-opacity:1;stroke:#2f3237;stroke-width:0.907907;stroke-linecap:round;stroke-linejoin:miter;stroke-miterlimit:29;stroke-dasharray:none;stroke-opacity:1"
       d="m 141.88877,114.81515 -1.5901,-1.41863 7.87104,-8.08735"
       id="path5"
       sodipodi:nodetypes="ccc" /><path
       style="display:inline;opacity:1;fill:#50545c;fill-opacity:1;stroke:none;stroke-width:0.907907;stroke-linecap:round;stroke-linejoin:miter;stroke-miterlimit:29;stroke-dasharray:none;stroke-opacity:1;paint-order:normal"
       d="m 144.25546,106.00363 0.56363,0.47522 1.14593,-1.31131 -0.61283,-0.40116 z"
       id="path6"
       sodipodi:nodetypes="ccccc" /><path
       style="display:inline;opacity:1;fill:#50545c;fill-opacity:1;stroke:#2f3237;stroke-width:0.907907;stroke-linecap:round;stroke-linejoin:miter;stroke-miterlimit:29;stroke-dasharray:none;stroke-opacity:1;paint-order:normal"
       d="M 144.48073,106.17272 C 136.9854,100.12741 130.31138,90.790505 128.50764,87.023845 l 1.47111,-1.419881 c 1.9071,4.012641 8.109,13.304883 15.59848,19.331686"
       id="path4"
       sodipodi:nodetypes="cccc" /></g><g
     inkscape:groupmode="layer"
     id="layer3"
     inkscape:label="Layer 3 - Platform"
     style="display:inline;opacity:1"
     transform="translate(-11.314377,-7.5477678)"><path
       style="display:inline;opacity:1;fill:#50545c;fill-opacity:1;stroke:#2f3237;stroke-width:0.172242;stroke-linecap:round;stroke-linejoin:round;stroke-miterlimit:29;stroke-dasharray:none;stroke-opacity:1;paint-order:normal"
       d="m 28.815704,24.833252 0.366866,0.786636 c 0.06505,0.0852 0.320204,0.203773 0.511685,0.255517 0.121189,0.03667 0.107208,-0.05009 0.08469,-0.06706 -0.344365,-0.27707 -0.688885,-0.559329 -0.403491,-1.224515 z"
       id="path14"
       sodipodi:nodetypes="cccccc"
       inkscape:label="Trigger" /><path
       style="display:inline;opacity:1;fill:#50545c;fill-opacity:1;stroke:#2f3237;stroke-width:0.3445;stroke-linecap:round;stroke-linejoin:round;stroke-miterlimit:29;stroke-dasharray:none;stroke-opacity:1;paint-order:normal"
       d="m 25.805868,29.065482 c 0.04493,0.217899 1.624639,0.208148 2.357585,0.323466 0.09316,0.02013 0.128859,-0.05213 0.0793,-0.146029 -0.148543,-0.281468 -0.247885,-0.714013 -0.06146,-1.134958 -0.120761,-0.396667 -0.166621,-0.574703 -0.02035,-1.022377 -0.152256,-0.242924 -0.08689,-0.718579 0.33568,-0.829065 -0.181687,-0.101392 -0.311446,-0.238385 -0.217583,-1.184173 l 2.249234,-1.008788 1.180845,-0.528455 -1.189999,-1.65164 -5.569137,2.489133 0.446865,1.018509 c 0.729567,0.133817 0.800126,0.600573 0.915823,0.910027 -0.303621,1.030823 -0.546621,1.87198 -0.506712,2.765945 z"
       id="path7"
       sodipodi:nodetypes="ccscccccccccccc"
       inkscape:label="Platform" /><g
       id="g9"
       inkscape:label="Hand Guard"
       transform="matrix(0.14869289,-0.0662025,0.0662025,0.14869289,17.799569,22.204618)"><path
         style="fill:none;fill-opacity:1;stroke:#2f3237;stroke-width:2.11667;stroke-linecap:round;stroke-linejoin:round;stroke-miterlimit:29;stroke-dasharray:none;stroke-opacity:1;paint-order:normal"
         d="m 68.295564,42.447903 -2.841889,7.894136 c -0.64832,1.250798 -1.538335,1.48637 -2.887,1.48861 l -7.443043,0.09022 c -1.938201,-0.137136 -3.106844,-1.25916 -5.097356,-2.706562"
         id="path8"
         sodipodi:nodetypes="ccccc" /><path
         style="display:inline;fill:none;fill-opacity:1;stroke:#2f3237;stroke-width:2.11667;stroke-linecap:round;stroke-linejoin:round;stroke-miterlimit:29;stroke-dasharray:none;stroke-opacity:1;paint-order:normal"
         d="m 63.243317,42.252448 c 3.645996,0 4.390411,0.814216 3.653857,4.029752 1.112698,-2.468672 1.69744,-4.058227 5.879335,-4.058227 z"
         id="path9"
         sodipodi:nodetypes="cccc" /></g><path
       style="fill:none;fill-opacity:1;stroke:#2f3237;stroke-width:0.172242;stroke-linecap:round;stroke-linejoin:round;stroke-miterlimit:29;stroke-dasharray:none;stroke-opacity:1;paint-order:normal"
       d="m 27.681834,23.244165 c -0.899585,0.416546 -0.471817,1.765216 0.415446,1.673261 0.07828,0.0026 0.15628,0.0047 0.236414,0.151941"
       id="path11"
       sodipodi:nodetypes="ccc"
       inkscape:label="path11" /><g
       id="g39"
       transform="matrix(0.14869289,-0.0662025,0.0662025,0.14869289,17.860065,22.219199)"
       inkscape:label="Gun Safety"><circle
         style="fill:none;fill-opacity:1;stroke:#2f3237;stroke-width:1.05833;stroke-linecap:round;stroke-linejoin:round;stroke-miterlimit:29;stroke-dasharray:none;stroke-opacity:1;paint-order:normal"
         id="path10"
         cx="52.911228"
         cy="35.877625"
         r="1.3758353"
         inkscape:label="Saftey Selector pt1" /><path
         style="fill:none;fill-opacity:1;stroke:#bcbcbc;stroke-width:1.05833;stroke-linecap:round;stroke-linejoin:round;stroke-miterlimit:29;stroke-dasharray:none;stroke-opacity:1;paint-order:normal"
         d="M 54.277484,35.891154 H 52.961116"
         id="path12"
         inkscape:label="Saftey Selector pt2" /><circle
         style="display:inline;fill:#a10000;fill-opacity:1;stroke:none;stroke-width:1.05833;stroke-linecap:round;stroke-linejoin:round;stroke-miterlimit:29;stroke-dasharray:none;stroke-opacity:1;paint-order:normal"
         id="path14-5"
         cx="55.475117"
         cy="35.909931"
         r="0.57221407"
         inkscape:label="Auto" /><circle
         style="display:inline;fill:#bcbcbc;fill-opacity:1;stroke:none;stroke-width:1.05833;stroke-linecap:round;stroke-linejoin:round;stroke-miterlimit:29;stroke-dasharray:none;stroke-opacity:1;paint-order:normal"
         id="path14-5-7"
         cx="52.94577"
         cy="33.314198"
         r="0.57221407"
         inkscape:label="Safe" /></g><path
       style="display:inline;opacity:1;fill:none;fill-opacity:1;stroke:#2f3237;stroke-width:0.172242;stroke-linecap:round;stroke-linejoin:round;stroke-miterlimit:29;stroke-dasharray:none;stroke-opacity:1;paint-order:normal"
       d="M 30.224386,23.148661 29.952893,22.538853 28.653441,23.11739 Z"
       id="path19"
       sodipodi:nodetypes="cccc"
       inkscape:label="path19" /><path
       style="fill:#555a62;fill-opacity:1;stroke:#2f3237;stroke-width:0.172242;stroke-linecap:round;stroke-linejoin:round;stroke-miterlimit:29;stroke-dasharray:none;stroke-opacity:1;paint-order:normal"
       d="m 31.674049,24.329911 c 0.005,-0.203749 -0.229883,-0.628073 -0.211415,-0.660121"
       id="path20"
       sodipodi:nodetypes="cc"
       inkscape:label="Mag Release" /><circle
       style="display:inline;opacity:1;fill:#17191b;fill-opacity:1;stroke:#2f3237;stroke-width:0.172242;stroke-linecap:round;stroke-linejoin:round;stroke-miterlimit:29;stroke-dasharray:none;stroke-opacity:1;paint-order:normal"
       id="path18"
       cx="19.012867"
       cy="34.113632"
       r="0.1507272"
       inkscape:label="Screw"
       transform="rotate(-24)" /><path
       style="fill:none;fill-opacity:1;stroke:#2f3237;stroke-width:0.172242;stroke-linecap:round;stroke-linejoin:round;stroke-miterlimit:29;stroke-dasharray:none;stroke-opacity:1;paint-order:normal"
       d="M 25.45325,25.372982 26.481174,24.9153 c 0.278211,-0.123841 0.342522,-0.296953 0.237674,-0.532407 L 26.425033,23.72291"
       id="path36"
       sodipodi:nodetypes="cccc" /><path
       style="fill:none;fill-opacity:1;stroke:#2f3237;stroke-width:0.172242;stroke-linecap:round;stroke-linejoin:round;stroke-miterlimit:29;stroke-dasharray:none;stroke-opacity:1;paint-order:normal"
       d="M 31.238441,23.1888 30.717761,23.13395 30.526263,22.703761 30.897436,22.5385"
       id="path37" /><circle
       style="fill:#8a919b;fill-opacity:1;stroke:none;stroke-width:0.172242;stroke-linecap:round;stroke-linejoin:round;stroke-miterlimit:29;stroke-dasharray:none;stroke-opacity:1;paint-order:normal"
       id="path38"
       cx="18.884169"
       cy="33.452888"
       r="0.12098527"
       transform="rotate(-24)" /><path
       style="opacity:1;fill:none;fill-opacity:1;stroke:#2f3237;stroke-width:0.172242;stroke-linecap:round;stroke-linejoin:round;stroke-miterlimit:29;stroke-dasharray:none;stroke-opacity:1;paint-order:normal"
       d="m 27.802478,23.51933 c -0.5713,0.264807 -0.3625,1.291503 0.489357,1.099076 l 2.31757,-1.024643 c 0.07347,-0.05931 0.03578,-0.144197 -0.06574,-0.147387 l -2.50305,-0.02788 z"
       id="path39"
       sodipodi:nodetypes="cccccc" /></g><g
     inkscape:groupmode="layer"
     id="layer4"
     inkscape:label="Layer 4 - Body"
     style="display:inline;opacity:1"
     inkscape:highlight-color="#8a5ff1"
     transform="matrix(0.18973369,0,0,0.18973369,-2.1221173,-1.4320719)"><path
       id="rect31"
       style="display:inline;opacity:1;fill:#424242;fill-opacity:1;stroke:#333333;stroke-width:2.11667;stroke-linecap:round;stroke-linejoin:miter;stroke-miterlimit:29;stroke-opacity:1"
       d="m 146.95814,23.5264 h 15.03725 c 0.53776,2.084523 0.52236,3.941272 0,5.589274 h -15.08402 z"
       sodipodi:nodetypes="ccccc"
       clip-path="url(#clipPath32)"
       inkscape:path-effect="#path-effect33"
       inkscape:original-d="m 146.95814,23.5264 h 15.03725 c 0.53776,2.084523 0.52236,3.941272 0,5.589274 h -15.08402 z"
       inkscape:label="Muzzle"
       transform="matrix(0.78369271,-0.34892258,0.34892258,0.78369271,45.466762,84.752187)" /><g
       id="g30"
       style="display:inline;opacity:1"
       inkscape:label="Front Sights"
       transform="matrix(0.78369271,-0.34892258,0.34892258,0.78369271,45.466762,84.752187)"><path
         style="display:inline;opacity:1;fill:#5c5c5c;fill-opacity:1;stroke:#333333;stroke-width:2.11667;stroke-linecap:round;stroke-linejoin:miter;stroke-miterlimit:29;stroke-dasharray:none;stroke-opacity:1;paint-order:normal"
         d="m 142.91707,29.137851 -0.0182,-12.627241 1.0756,3.47e-4 -0.029,-1.456107 -1.04862,0.0058 -0.008,-5.5191039 c 0,-0.6648843 0.27555,-0.9354434 0.98221,-0.9354434 h 2.43216 l 1.59025,5.5191153 v 2.432153 c 0.93222,0 0.72282,4.720886 0.51166,5.533058 l -0.41476,0.103233 -0.003,1.490691 0.0401,5.441628 z"
         id="path26"
         sodipodi:nodetypes="ccccccccccccccc"
         inkscape:label="path26" /><path
         style="fill:#5c5c5c;fill-opacity:1;stroke:#333333;stroke-width:1.05833;stroke-linecap:round;stroke-linejoin:round;stroke-miterlimit:29;stroke-dasharray:none;stroke-opacity:1;paint-order:normal"
         d="m 143.96473,17.130306 c 0.0466,-0.01248 3.80024,0 3.80024,0"
         id="path27" /><path
         style="fill:#5c5c5c;fill-opacity:1;stroke:#333333;stroke-width:1.05833;stroke-linecap:round;stroke-linejoin:round;stroke-miterlimit:29;stroke-dasharray:none;stroke-opacity:1;paint-order:normal"
         d="m 144.15182,14.464292 h 3.95224"
         id="path28" /><path
         style="fill:#5c5c5c;fill-opacity:1;stroke:#333333;stroke-width:1.05833;stroke-linecap:round;stroke-linejoin:round;stroke-miterlimit:29;stroke-dasharray:none;stroke-opacity:1;paint-order:normal"
         d="m 143.66071,21.725671 h 4.47844"
         id="path29" /><path
         style="display:inline;fill:none;fill-opacity:1;stroke:#333333;stroke-width:1.05833;stroke-linecap:round;stroke-linejoin:round;stroke-miterlimit:29;stroke-dasharray:none;stroke-opacity:1;paint-order:normal"
         d="m 147.40248,23.984091 c -1.12242,1.622942 -2.77588,1.776803 -3.83531,-0.008"
         id="path30"
         sodipodi:nodetypes="cc" /><circle
         style="display:inline;opacity:1;fill:#333333;fill-opacity:1;stroke:none;stroke-width:1.05833;stroke-linecap:round;stroke-linejoin:round;stroke-miterlimit:29;stroke-dasharray:none;stroke-opacity:1;paint-order:normal"
         id="path31"
         cx="145.53217"
         cy="23.547918"
         r="0.6945312"
         inkscape:label="Screw" /></g><path
       style="display:inline;opacity:1;fill:#50545c;fill-opacity:1;stroke:#2f3237;stroke-width:1.81595;stroke-linecap:round;stroke-linejoin:round;stroke-miterlimit:29;stroke-dasharray:none;stroke-opacity:1;paint-order:normal"
       d="m 163.24198,47.843799 -2.83438,1.261893 c -0.2978,0.775913 -0.8544,1.043986 -1.65449,0.736662 l -23.91556,10.647772 c -0.23782,0.865763 -0.99732,1.266431 -1.80804,0.804995 l -40.996297,18.252802 -13.037786,5.804814 -0.303583,-0.685525 -7.144317,3.162643 -0.147502,5.621281 3.186473,7.156954 3.887256,2.82407 6.573083,-2.9265 -1.89707,-4.322331 29.323013,-13.137888 6.56907,9.115308 12.0847,-12.280573 -5.2811,-11.721765 38.70183,-17.231042 z"
       id="path33"
       inkscape:label="Body"
       sodipodi:nodetypes="cccccccccccccccccccc" /><path
       style="display:inline;opacity:1;fill:#6b717b;fill-opacity:1;stroke:#2f3237;stroke-width:1.81595;stroke-linecap:round;stroke-linejoin:round;stroke-miterlimit:29;stroke-dasharray:none;stroke-opacity:1;paint-order:normal"
       d="m 125.81915,68.126678 4.86302,10.923203 5.16865,-2.301089 32.17614,-18.190984 -3.43119,-7.607753 z"
       id="path15"
       sodipodi:nodetypes="cccccc"
       inkscape:label="Front Grip" /><circle
       style="display:inline;opacity:1;fill:#4e4e44;fill-opacity:1;stroke:#37372f;stroke-width:0.907909;stroke-linecap:round;stroke-linejoin:round;stroke-miterlimit:29;stroke-dasharray:none;stroke-opacity:1"
       id="path45"
       cx="33.335197"
       cy="123.83823"
       r="1.0602664"
       inkscape:label="Screw"
       transform="rotate(-24)" /><path
       style="fill:#555a62;fill-opacity:1;stroke:#2f3237;stroke-width:0.907909;stroke-linecap:round;stroke-linejoin:round;stroke-miterlimit:29;stroke-dasharray:none;stroke-opacity:1;paint-order:normal"
       d="m 160.75561,53.151004 c 1.54746,3.475787 1.80842,3.677593 5.29208,2.126536 l -1.66617,-3.748742 z"
       id="path17"
       sodipodi:nodetypes="cccc"
       inkscape:label="Indent" /><circle
       style="display:inline;opacity:1;fill:#9ca1a9;fill-opacity:1;stroke:#2f3237;stroke-width:0.907909;stroke-linecap:round;stroke-linejoin:round;stroke-miterlimit:29;stroke-dasharray:none;stroke-opacity:1;paint-order:normal"
       id="path16"
       cx="127.34544"
       cy="115.78935"
       r="0.76235336"
       inkscape:label="Screw"
       transform="rotate(-24)" /><path
       style="display:inline;opacity:1;fill:#50545c;fill-opacity:1;stroke:#2f3237;stroke-width:1.81595;stroke-linecap:round;stroke-linejoin:round;stroke-miterlimit:29;stroke-dasharray:none;stroke-opacity:1;paint-order:normal"
       d="M 126.07189,68.014145 77.349031,89.706881"
       id="path34"
       inkscape:label="Indent" /><g
       id="g25"
       inkscape:label="Bolt"
       transform="matrix(0.78369271,-0.34892258,0.34892258,0.78369271,45.189358,84.129058)"
       style="stroke-width:1.00012;stroke-dasharray:none"><path
         id="rect24"
         style="display:inline;opacity:1;fill:#4e4e44;fill-opacity:1;stroke:#37372f;stroke-width:2.11667;stroke-linecap:round;stroke-linejoin:round;stroke-miterlimit:29;stroke-dasharray:none;stroke-opacity:1"
         d="m 75.209646,18.627015 10.476965,-0.01169 c 3.771148,0 3.975338,5.425571 0,5.425571 l -10.476965,0.09354 c -4.092116,0 -3.879807,-5.507422 0,-5.507422 z"
         sodipodi:nodetypes="cccccc"
         inkscape:label="rect24" /><path
         style="fill:#44474e;fill-opacity:1;stroke:#37372f;stroke-width:1.05833;stroke-linecap:round;stroke-linejoin:round;stroke-miterlimit:29;stroke-dasharray:none;stroke-opacity:1;paint-order:normal"
         d="M 72.244111,21.382905 H 88.49294"
         id="path24"
         sodipodi:nodetypes="cc"
         inkscape:label="path24" /><circle
         style="fill:#37372f;fill-opacity:1;stroke:none;stroke-width:1.00012;stroke-linecap:round;stroke-linejoin:round;stroke-miterlimit:29;stroke-dasharray:none;stroke-opacity:1;paint-order:normal"
         id="path25"
         cx="83.227989"
         cy="20.604425"
         r="0.79374999" /></g><ellipse
       style="fill:none;fill-opacity:1;stroke:#333333;stroke-width:0.907909;stroke-linecap:round;stroke-linejoin:round;stroke-miterlimit:29;stroke-dasharray:none;stroke-opacity:1;paint-order:normal"
       id="ellipse32"
       cx="142.24133"
       cy="118.50798"
       rx="3.2901607"
       ry="0.84223545"
       transform="rotate(-24)" /><path
       style="fill:#50545c;fill-opacity:1;stroke:#2f3237;stroke-width:1.81595;stroke-linecap:round;stroke-linejoin:round;stroke-miterlimit:29;stroke-dasharray:none;stroke-opacity:1;paint-order:normal"
       d="m 160.93374,52.482264 -0.88645,-1.990872"
       id="path35"
       sodipodi:nodetypes="cc" /><rect
       style="fill:#50545c;fill-opacity:1;stroke:#2f3237;stroke-width:1.81595;stroke-linecap:round;stroke-linejoin:round;stroke-miterlimit:29;stroke-dasharray:none;stroke-opacity:1;paint-order:normal"
       id="rect35"
       width="2.7053509"
       height="0.30059415"
       x="47.694519"
       y="112.45069"
       transform="rotate(-24)" /><rect
       style="fill:#50545c;fill-opacity:1;stroke:#2f3237;stroke-width:1.81595;stroke-linecap:round;stroke-linejoin:round;stroke-miterlimit:29;stroke-dasharray:none;stroke-opacity:1;paint-order:normal"
       id="rect36"
       width="2.7053509"
       height="0.30059415"
       x="63.752117"
       y="112.45069"
       transform="rotate(-24)" /><path
       style="fill:none;stroke:#2f3237;stroke-width:0.907909;stroke-linecap:round;stroke-linejoin:round;stroke-miterlimit:29"
       d="m 129.65525,81.122213 -3.40428,-3.14709 -9.64612,4.294741 c -0.23685,0.159649 -0.37131,0.527497 -0.27696,0.869442 l 2.9939,6.539036 c 0.19718,0.365197 0.91048,0.516815 1.29449,0.231315"
       id="path13"
       sodipodi:nodetypes="cccccc" /><rect
       style="display:inline;opacity:1;fill:#44484f;fill-opacity:1;stroke:none;stroke-width:1.81595;stroke-linecap:round;stroke-linejoin:round;stroke-miterlimit:29;stroke-dasharray:none"
       id="rect33"
       width="45.803387"
       height="1.8849162"
       x="38.118107"
       y="117.17059"
       transform="rotate(-24)" /><path
       style="display:inline;opacity:1;fill:#44474e;fill-opacity:1;stroke:#2f3237;stroke-width:0.907909;stroke-linecap:round;stroke-linejoin:round;stroke-miterlimit:29;stroke-dasharray:none;stroke-opacity:1;paint-order:normal"
       d="m 70.937265,102.70727 c 0.989223,-0.51456 1.396458,0.0127 1.484429,0.52029 l 0.212584,2.89654 c 0.39397,0.38802 0.794361,0.76855 1.642227,0.63083 l 1.665779,-0.69784 c 0.82182,-0.69997 0.760384,-1.43496 0.361276,-2.04982 l -2.792542,-1.9187 0.512493,-1.27586 -2.99867,-6.144613 -2.943347,1.322873 c 0.108842,2.771261 1.050577,4.30245 2.003817,4.7809 l 0.636167,2.30818 -1.048623,0.14178 0.544196,0.90586 c 0.836147,0.0754 0.700547,-0.93344 0.720236,-1.42031 z"
       id="path22"
       sodipodi:nodetypes="cccccccccccccccc" /><g
       id="g24"
       inkscape:label="Stock"
       style="display:inline;opacity:1"
       transform="matrix(0.78369271,-0.34892258,0.34892258,0.78369271,-3.725778,106.43562)"><path
         style="fill:#44474e;fill-opacity:1;stroke:#2f3237;stroke-width:2.11667;stroke-linecap:round;stroke-linejoin:round;stroke-miterlimit:29;stroke-dasharray:none;stroke-opacity:1;paint-order:normal"
         d="m 14.719109,19.190316 c -0.297913,0.347691 -0.691962,0.839434 -1.361663,1.222036 0.789878,10.908554 1.370785,21.631414 -1.781925,28.667856 1.409389,2.293755 3.356618,3.091785 4.241358,0.227095 l 3.762287,-17.689595 c 0.163876,-1.12284 1.094197,-1.670845 1.984375,-2.248958 l 0.369477,-8.400521 -5.552277,-1.790361 z"
         id="path21"
         sodipodi:nodetypes="ccccccccc"
         inkscape:label="Stock" /><g
         id="g23"
         style="display:inline"
         inkscape:label="Extendor"><path
           id="rect22"
           style="display:inline;opacity:1;fill:#979ba4;fill-opacity:1;stroke:#2f3237;stroke-width:2.11667;stroke-linecap:round;stroke-linejoin:round;stroke-miterlimit:29;stroke-dasharray:none"
           d="m 21.516228,25.084953 h 66.066114 v 4.189192 H 21.423281 Z"
           sodipodi:nodetypes="ccccc"
           inkscape:label="Extention" /><path
           style="display:inline;opacity:1;fill:#44474e;fill-opacity:1;stroke:#2f3237;stroke-width:2.11667;stroke-linecap:round;stroke-linejoin:round;stroke-miterlimit:29;stroke-dasharray:none;stroke-opacity:1;paint-order:normal"
           d="m 21.779293,25.080744 -0.203625,4.160371 -5.249831,0.0274 C 15.018511,27.96119 15.04878,26.291163 16.270547,25.069394 Z"
           id="path23"
           sodipodi:nodetypes="ccccc"
           inkscape:label="Extention cap" /></g></g><path
       id="rect32"
       style="fill:#50545c;fill-opacity:1;stroke:#2f3237;stroke-width:1.81595;stroke-linecap:round;stroke-linejoin:round;stroke-miterlimit:29;stroke-dasharray:none"
       d="m 73.581877,95.073444 8.522265,-3.794295 c 0.787499,1.296461 1.339057,2.697866 1.836006,4.12354 l -8.52228,3.794445 c -0.388682,-1.473872 -1.007479,-2.845379 -1.835991,-4.12369 z"
       sodipodi:nodetypes="ccccc" /><path
       style="display:inline;opacity:1;fill:none;stroke:#2f3237;stroke-width:0.907909;stroke-linecap:round;stroke-linejoin:round;stroke-miterlimit:29"
       d="m 79.148191,102.92515 -1.977822,-4.442329 c -0.458314,-1.479524 -1.029061,-2.9092 -1.876794,-4.215359 l -2.688516,-6.0385"
       id="path32"
       sodipodi:nodetypes="cccc" /><path
       style="opacity:1;fill:#9197a1;fill-opacity:1;stroke:#2f3237;stroke-width:1.81595;stroke-linecap:round;stroke-linejoin:round;stroke-miterlimit:29;stroke-dasharray:none;stroke-opacity:1"
       d="m 80.148532,85.231874 -1.206191,-2.709142 c -0.356893,-0.801625 0.01035,-2.129065 0.983689,-2.562596 l 1.955752,-0.870797 0.335437,0.753419 -0.116391,1.10725 3.265212,0.02587 1.856853,-0.82673 0.1423,0.31965 3.34839,-1.490844 -0.196494,-0.441365 0.471882,-0.210048 1.103213,0.801567 -0.449506,0.61869 -4.157723,1.851154 -0.156895,0.408703 z"
       id="path40"
       sodipodi:nodetypes="ccccccccccccccccc" /><circle
       style="opacity:1;fill:#646b75;fill-opacity:1;stroke:#2f3237;stroke-width:0.453962;stroke-linecap:round;stroke-linejoin:round;stroke-miterlimit:29;stroke-dasharray:none;stroke-opacity:1"
       id="path41"
       cx="40.246056"
       cy="108.74944"
       r="0.56645501"
       inkscape:label="Screw"
       transform="rotate(-24)" /><path
       style="opacity:1;fill:#646b75;fill-opacity:1;stroke:#2f3237;stroke-width:1.81595;stroke-linecap:round;stroke-linejoin:round;stroke-miterlimit:29;stroke-dasharray:none;stroke-opacity:1"
       d="m 82.270453,80.474995 0.117966,-1.072783 -0.528335,-1.145063 -0.634661,0.269774 0.110524,-1.214266 5.333135,0.04129 -0.119723,3.144118 z"
       id="path42"
       sodipodi:nodetypes="cccccccc"
       inkscape:label="Rear Sight" /><circle
       style="fill:#d98500;fill-opacity:1;stroke:none;stroke-width:0.453963;stroke-linecap:round;stroke-linejoin:round;stroke-miterlimit:29;stroke-dasharray:none;stroke-opacity:1"
       id="path43"
       cx="44.641701"
       cy="106.60004"
       r="0.31513432"
       inkscape:label="Sight Number"
       transform="rotate(-24)" /><path
       style="fill:none;fill-opacity:1;stroke:#2f3237;stroke-width:1.81595;stroke-linecap:round;stroke-linejoin:round;stroke-miterlimit:29;stroke-dasharray:none;stroke-opacity:1"
       d="m 135.25512,63.86127 -0.65153,-1.463691"
       id="path44"
       sodipodi:nodetypes="cc" /><rect
       style="fill:none;fill-opacity:1;stroke:#2f3237;stroke-width:0.907909;stroke-linecap:round;stroke-linejoin:round;stroke-miterlimit:29;stroke-dasharray:none;stroke-opacity:1"
       id="rect44"
       width="3.204354"
       height="2.5388472"
       x="84.534225"
       y="110.88224"
       transform="rotate(-24)" /></g></svg>
