<?xml version="1.0" encoding="UTF-8" standalone="no"?>
<svg
   viewBox="0 0 65.570001 24.799999"
   version="1.1"
   id="svg24"
   width="65.57"
   height="24.799999"
   sodipodi:docname="peacemaker_world.svg"
   inkscape:version="1.3.2 (091e20e, 2023-11-25, custom)"
   xmlns:inkscape="http://www.inkscape.org/namespaces/inkscape"
   xmlns:sodipodi="http://sodipodi.sourceforge.net/DTD/sodipodi-0.dtd"
   xmlns="http://www.w3.org/2000/svg"
   xmlns:svg="http://www.w3.org/2000/svg">
  <sodipodi:namedview
     id="namedview1"
     pagecolor="#ffffff"
     bordercolor="#000000"
     borderopacity="0.25"
     inkscape:showpageshadow="2"
     inkscape:pageopacity="0.0"
     inkscape:pagecheckerboard="0"
     inkscape:deskcolor="#d1d1d1"
     inkscape:zoom="6.4870057"
     inkscape:cx="27.285316"
     inkscape:cy="1.9269291"
     inkscape:window-width="1920"
     inkscape:window-height="1009"
     inkscape:window-x="-8"
     inkscape:window-y="-8"
     inkscape:window-maximized="1"
     inkscape:current-layer="svg24" />
  <defs
     id="defs28" />
  <g
     id="Layer_14"
     data-name="Layer 14"
     transform="translate(0.00401384)">
    <g
       id="g67">
      <path
         id="polygon6"
         class="cls-3"
         d="m 33.22,23.23 -8.79,-0.08 c -0.36,0 -0.69,-0.21 -0.85,-0.53 l -3.51,-6.87 h 1.25 c 0,0 0,-6.73 0,-6.73 h -1.25 c 0,0 3.51,-6.86 3.51,-6.86 0.16,-0.32 0.49,-0.52 0.85,-0.53 l 8.79,-0.08 c 0.49,0 0.9,0.35 0.96,0.84 l 0.89,6.55 -1.25,0.02 v 6.86 l 1.25,0.02 -0.89,6.55 c -0.07,0.48 -0.48,0.84 -0.96,0.84 z"
         style="fill:#b8b8b8;fill-rule:evenodd;stroke:#171717;stroke-width:3px;stroke-linecap:round;fill-opacity:1" />
      <path
         id="rect56"
         class="cls-3"
         d="m 26.58,1.5 h 11.67 c 0.11,0 0.2,0.13 0.2,0.29 v 21.22 c 0,0.16 -0.09,0.29 -0.2,0.29 H 26.58 c -0.11,0 -0.2,-0.13 -0.2,-0.29 V 1.79 c 0,-0.16 0.09,-0.29 0.2,-0.29 z"
         style="fill:#b8b8b8;fill-rule:evenodd;stroke:#171717;stroke-width:3px;stroke-linecap:round;fill-opacity:1" />
      <path
         id="rect57"
         class="cls-1"
         d="m 31.42,19.03 h 2.52 c 1.12,0 2.03,0.2 2.03,0.44 v 0 c 0,0.24 -0.91,0.44 -2.03,0.44 h -2.52 c -1.12,0 -2.03,-0.2 -2.03,-0.44 v 0 c 0,-0.24 0.91,-0.44 2.03,-0.44 z"
         style="fill:#3d3d3d" />
      <path
         id="rect58"
         class="cls-1"
         d="m 31.42,4.51 h 2.52 c 1.12,0 2.03,0.2 2.03,0.44 v 0 c 0,0.24 -0.91,0.44 -2.03,0.44 h -2.52 c -1.12,0 -2.03,-0.2 -2.03,-0.44 v 0 c 0,-0.24 0.91,-0.44 2.03,-0.44 z"
         style="fill:#3d3d3d" />
      <path
         id="path58"
         class="cls-5"
         d="m 1.51,17.13 c -0.07,0.77 0.28,1.09 0.64,1.4 4.75,1.83 9.66,1.52 14.55,0.87 0.47,-0.07 0.87,-0.45 1.27,-0.88 L 18.32,6.67 C 13.16,3.9 4.54,4.86 2.14,6.24 1.67,6.43 1.64,7.01 1.56,7.82 l -0.06,9.3 v 0 z"
         style="fill:#404040;fill-rule:evenodd;stroke:#252525;stroke-width:3px;stroke-linecap:round;fill-opacity:1;stroke-opacity:1" />
      <path
         id="path67"
         class="cls-3"
         d="m 39.07,16.16 23.85,-0.14 c 1.81,-2.26 1.24,-4.98 -0.07,-7.06 L 39.15,8.64 Z"
         style="fill:#b8b8b8;fill-rule:evenodd;stroke:#171717;stroke-width:3px;stroke-linecap:round;fill-opacity:1" />
      <path
         id="path59"
         class="cls-4"
         d="m 7.46,8.31 3.69,-0.8 9.45,0.39 c 0.75,0.03 1.34,0.65 1.34,1.4 v 6.58 c 0,0.78 -0.63,1.41 -1.41,1.4 L 11.37,17.25 7.4,15.96 C 7.18,15.89 7.03,15.69 7.03,15.46 7.01,14.33 6.97,10.95 7.03,8.81 7.03,8.56 7.22,8.35 7.46,8.3 Z"
         style="fill:#cecece;fill-rule:evenodd;stroke:#171717;stroke-width:3px;stroke-linecap:round;fill-opacity:1" />
      <path
         id="rect14"
         class="cls-6"
         d="m 21.57,8.55 h 25.12 c 0.46,0 0.83,0.37 0.83,0.83 v 6.03 c 0,0.46 -0.37,0.83 -0.83,0.83 H 21.57 Z"
         style="fill:#cecece;stroke:#171717;stroke-width:3px;stroke-linecap:round;fill-opacity:1" />
      <path
         id="path61"
         class="cls-2"
         d="m 19.74,10.46 c -1.28,0 -2.55,0.21 -3.83,0.34 -0.25,0.03 -0.45,0.24 -0.45,0.49 v 1.13 c 0,0 -0.01,1.09 -0.01,1.09 0,0.26 0.19,0.47 0.45,0.49 1.61,0.17 3.23,0.46 4.83,0.28 0.25,-0.03 0.44,-0.25 0.44,-0.5 v -1.09 0 -0.6 0 V 11 c 0,-0.25 -0.19,-0.48 -0.44,-0.5 -0.33,-0.04 -0.66,-0.05 -0.99,-0.06 z"
         style="fill:#bbbbbb;fill-rule:evenodd;stroke:#171717;stroke-width:1.5px;stroke-linecap:round;fill-opacity:1" />
      <path
         id="path63"
         class="cls-3"
         d="m 43.07,16.05 2.89,0.07 c 0.55,0.01 1.02,-0.41 1.05,-0.96 0.1,-1.82 0.09,-3.65 -0.04,-5.5 C 46.94,9.13 46.49,8.72 45.96,8.71 L 43.12,8.67 c -0.57,0 -1.03,0.45 -1.03,1.02 v 5.34 c -0.02,0.55 0.43,1.01 0.98,1.02 z"
         style="fill:#bbbbbb;fill-rule:evenodd;stroke:#171717;stroke-width:3px;stroke-linecap:round;fill-opacity:1" />
      <path
         id="rect67"
         class="cls-8"
         d="m 56.83,11.15 h 3.13 c 0.22,0 0.39,0.23 0.39,0.51 v 1.47 c 0,0.28 -0.17,0.51 -0.39,0.51 h -3.13 c -0.22,0 -0.39,-0.23 -0.39,-0.51 v -1.47 c 0,-0.28 0.17,-0.51 0.39,-0.51 z"
         style="fill:#303030;fill-rule:evenodd" />
      <path
         id="path19"
         class="cls-7"
         d="m 11.16,7.53 c 0,0 -2.35,4.05 0.23,9.75"
         style="fill:none;stroke:#171717;stroke-width:1.5px;stroke-linecap:round"
         inkscape:label="path19" />
    </g>
  </g>
</svg>
