<?xml version="1.0" encoding="UTF-8" standalone="no"?>
<svg
   width="98"
   height="98"
   viewBox="0 0 98 98"
   fill="none"
   version="1.1"
   id="svg30"
   sodipodi:docname="pfeifer_zeliska.svg"
   inkscape:version="1.4 (86a8ad7, 2024-10-11)"
   xmlns:inkscape="http://www.inkscape.org/namespaces/inkscape"
   xmlns:sodipodi="http://sodipodi.sourceforge.net/DTD/sodipodi-0.dtd"
   xmlns="http://www.w3.org/2000/svg"
   xmlns:svg="http://www.w3.org/2000/svg">
  <sodipodi:namedview
     id="namedview30"
     pagecolor="#ffffff"
     bordercolor="#000000"
     borderopacity="0.25"
     inkscape:showpageshadow="2"
     inkscape:pageopacity="0.0"
     inkscape:pagecheckerboard="0"
     inkscape:deskcolor="#d1d1d1"
     inkscape:zoom="3.6681818"
     inkscape:cx="67.335813"
     inkscape:cy="111.09046"
     inkscape:window-width="1920"
     inkscape:window-height="1009"
     inkscape:window-x="-8"
     inkscape:window-y="-8"
     inkscape:window-maximized="1"
     inkscape:current-layer="svg30"
     showguides="false" />
  <path
     style="fill:#ae9d04;fill-opacity:1;stroke:#604c03;stroke-width:1.12543;stroke-dasharray:none;stroke-opacity:1;paint-order:markers stroke fill"
     d="m 80.540141,16.081514 0.786821,1.35923 1.001032,-0.590544 -0.720414,-1.35127 z"
     id="path32"
     sodipodi:nodetypes="ccccc" />
  <path
     d="M 39.999541,35.166616 90.369168,6.9013998 c 0,0 0.582807,-1.9366061 -1.638393,-3.128568 0,0 -5.076446,2.8098311 -7.463057,4.1682288 L 38.278259,32.184226 Z"
     fill="#514c49"
     stroke="#363330"
     stroke-width="1.83249"
     stroke-miterlimit="3.99393"
     stroke-linecap="round"
     id="path1"
     sodipodi:nodetypes="cccccc" />
  <path
     fill-rule="evenodd"
     clip-rule="evenodd"
     d="m 29.21201,58.12153 c 1.428929,-0.286905 4.258403,-1.763591 4.258403,-1.763591 0.789019,-0.227068 1.245494,-0.06343 1.493357,0.272513 0.253806,0.344005 0.237152,0.861967 0.0864,1.642118 -0.319017,1.651738 0.405729,3.486898 1.663421,4.506241 1.512201,1.22576 3.727803,1.40488 5.102702,0.158157 0.281642,-0.255383 -0.014,-0.645693 -0.357955,-0.487535 -0.652186,0.299733 -1.018039,0.206027 -2.020752,-0.04216 -1.058541,-0.261953 -2.030447,-1.03084 -2.476444,-2.115026 -0.46797,-1.13753 -0.507612,-2.204664 -0.02752,-3.082822 0.685807,-1.25431 1.341433,-2.101338 2.314903,-3.046998 l -0.99505,-1.149733 -7.290312,2.210609 z"
     fill="#45413F"
     stroke="#353230"
     stroke-width="1.83249"
     stroke-miterlimit="3.99393"
     stroke-linecap="round"
     id="path2"
     style="fill:#ae9d04;fill-opacity:1;stroke:#604c03;stroke-opacity:1" />
  <path
     style="fill:#514c49;fill-opacity:1;stroke:#363330;stroke-width:1.332;stroke-dasharray:none;stroke-opacity:1;paint-order:markers stroke fill"
     d="m 44.274933,34.756016 2.579031,-1.472529 0.699253,1.095579 -2.760164,1.3099 z"
     id="path30"
     sodipodi:nodetypes="ccccc" />
  <path
     d="M 22.136713,53.242772 C 21.6008,53.4043 20.101154,53.84711 20.101154,53.84711 20.323584,53.688174 18.862137,50.139041 18.136948,50.58952 16.796704,51.422063 9.7183684,51.44396 6.9702438,48.829924 6.8840596,48.599672 8.3818118,48.354736 8.7923161,48.273544 12.403532,48.80482 14.8935,47.731213 16.227616,44.615152 l -0.203309,-2.234992 1.71075,-0.904321 z"
     fill="#5d5855"
     stroke="#363330"
     stroke-width="1.83249"
     stroke-miterlimit="3.99393"
     stroke-linecap="round"
     id="path3"
     sodipodi:nodetypes="ccscccccc"
     style="fill:#ae9d04;fill-opacity:1;stroke:#604c03;stroke-width:1.332;stroke-dasharray:none;stroke-opacity:1" />
  <path
     fill-rule="evenodd"
     clip-rule="evenodd"
     d="m 14.793554,67.066118 c 0.01165,-2.72114 -0.756805,-5.172975 -1.519942,-7.516007 7.672212,-3.593589 10.48956,-5.00856 9.172287,-11.631156 l -5.26792,-11.884776 c 1.621302,-0.690968 4.265458,-3.021041 5.877535,-3.787918 l 1.292362,1.642113 12.680506,-5.70943 C 38.560758,27.393385 54.25987,17.975063 54.25987,17.975063 c 0,0 1.493254,2.826698 1.694546,2.989322 0.180733,0.146014 -14.865697,9.073886 -14.663237,9.127404 l 4.406574,7.635134 c -1.799473,1.097248 -0.468372,0.440699 0.78283,4.494603 0.06646,0.426994 0.320034,0.821058 0.573604,1.215123 0.159161,0.247346 4.618198,-1.298808 3.790373,-1.606032 -2.418226,-0.897457 -1.88007,-7.742541 1.8523,-6.371899 0.440126,0.161628 1.776314,6.430357 1.684751,6.728647 -0.820189,2.671977 -6.115876,8.178213 -6.712968,8.75456 -2.568716,-1.017457 -5.334363,-0.261899 -8.099149,0.485908 -5.963051,2.063262 -7.299393,9.619462 -6.238674,12.300499 -3.63374,2.645425 -5.227158,-0.468322 -6.584542,3.477171 -6.010649,-5.425698 -9.252264,-2.611087 -11.865386,-0.138368 z m 29.243221,-22.763803 -6.351512,-13.14408 -13.436385,7.736114 7.432288,12.052507 z"
     fill="#79726d"
     id="path4"
     sodipodi:nodetypes="ccccccccscccssssccccccccccc"
     style="stroke-width:0.999999" />
  <path
     d="m 40.180865,35.474406 -0.6464,-0.04044 -1.721204,-2.98239 0.288131,-0.580224 z"
     fill="#45413f"
     id="path7"
     style="stroke-width:0.999999" />
  <path
     fill-rule="evenodd"
     clip-rule="evenodd"
     d="m 46.267123,31.782731 1.874145,3.24755 8.156347,-4.710703 c -0.583618,-0.452999 -1.153806,-0.701103 -1.874691,-3.248176 z"
     fill="#5d5855"
     stroke="#363330"
     stroke-width="1.83249"
     stroke-miterlimit="3.99393"
     stroke-linecap="round"
     id="path8"
     sodipodi:nodetypes="ccccc" />
  <path
     fill-rule="evenodd"
     clip-rule="evenodd"
     d="m 46.266341,31.781401 -2.039908,-3.534142 13.469429,-6.934784 c 0.244143,1.520927 0.87969,2.303412 2.040143,2.554856 z"
     fill="#6b6561"
     stroke="#363330"
     stroke-width="1.83249"
     stroke-miterlimit="3.99393"
     stroke-linecap="round"
     id="path9"
     sodipodi:nodetypes="ccccc" />
  <path
     d="m 13.08702,58.857097 c 1.842224,2.343268 1.718262,5.487959 1.70669,8.209256 l 0.08703,6.26e-4 c 2.6132,-2.472563 5.854815,-5.287096 11.865385,0.13829 0.304786,-0.886371 0.65977,-1.755691 1.070817,-2.608897 1.528621,-1.15599 2.838388,-0.907177 4.824188,0.544947 3.531702,2.582772 7.262085,1.474887 9.208946,0.532277 1.369895,-0.662745 3.324263,-2.074353 4.641457,-3.370041 1.441596,-1.416926 2.594434,-3.260221 3.055914,-4.38422 0.682054,-1.661046 0.559921,-3.193892 0.127215,-4.765535 -0.171236,-0.621992 -0.51457,-1.155833 -0.798558,-1.597141 l -0.144573,-0.226834 c -0.144574,-0.230901 -0.317688,-0.46141 -0.488768,-0.689104 0,0 -0.252327,-0.95487 -0.07802,-0.813006 l 0.158649,-0.730873 -0.142698,-0.256243 c -0.217872,-0.0759 -0.454958,-0.147267 -0.380083,-0.292068 l 4.171047,-3.060277 0.141286,-1.138619 3.396579,-1.948495 -1.539508,-3.468165 c -0.884002,-1.991459 1.232447,-3.208214 0.03848,-3.566822 l -5.226505,2.533875 1.165103,3.715239 c 0,0 -2.812921,1.94124 -2.892745,1.82146 l -1.57e-4,-2.35e-4 -1.56e-4,-2.34e-4 C 46.800381,43.042193 46.5472,42.648755 46.48066,42.22176 45.229302,38.167544 43.446024,38.974638 45.245731,37.877781 l -4.406573,-7.635134 c -0.310108,-0.08196 16.201901,-9.42447 15.990267,-9.69429 -0.377502,-0.481293 -1.382227,-4.075379 -2.772402,-3.074383 0,0 -16.938268,9.770455 -17.721405,10.171802 l -8.961083,5.160628 c -0.382977,0.163789 -0.736163,0.352452 -1.166757,0.601108 -1.519896,0.210602 -2.778014,-0.827691 -3.582695,-1.638349 l -6.441321,3.618763 6.395438,12.530948 c 1.317059,6.623744 -10.295563,10.834711 -9.49218,10.938223 z"
     stroke="#363330"
     stroke-width="3.66498"
     id="path24"
     sodipodi:nodetypes="cccccccccsccccccccccscccscscccscccccccc"
     style="stroke-width:3.665;stroke-dasharray:none" />
  <path
     style="fill:#514c49;fill-opacity:1;stroke:#363330;stroke-width:3.665;stroke-dasharray:none;stroke-opacity:1;paint-order:markers stroke fill"
     d="m 49.625696,36.904628 -0.376814,-1.055459 6.989903,-4.202986 0.678266,1.33817 z"
     id="path31"
     sodipodi:nodetypes="ccccc" />
  <path
     d="M 81.35318,6.474437 85.422284,4.1243022 C 84.843128,3.1682307 83.56925,2.8657914 82.575686,3.4392888 l 0.335045,0.580584 -1.845917,1.9549206 z"
     fill="#433f3d"
     stroke="#363330"
     stroke-width="1.83249"
     stroke-miterlimit="3.99393"
     stroke-linecap="round"
     id="path10" />
  <path
     d="M 24.338002,54.755063 C 19.309461,52.408772 17.925543,47.631862 18.011312,41.874809 L 40.770591,29.110672 47.363808,41.617766 Z"
     fill="#5d5855"
     stroke="#363330"
     stroke-width="1.83249"
     stroke-miterlimit="3.99393"
     stroke-linecap="round"
     id="path13"
     sodipodi:nodetypes="ccccc" />
  <path
     d="M 80.5585,11.983857 82.246778,14.894401 56.12618,29.850683 54.517831,26.966871 Z"
     fill="#534e4b"
     stroke="#363330"
     stroke-width="1.83249"
     stroke-miterlimit="3.99393"
     stroke-linecap="round"
     id="path11"
     sodipodi:nodetypes="ccccc" />
  <path
     d="m 33.608966,57.292806 c 0.217526,-0.173332 0.288132,-0.223783 0.515274,-0.388902 0.965729,-2.257305 1.774687,-2.935459 5.447053,-5.478261 l 1.151665,-0.816288 0.709891,0.546825 c 3.23966,-1.812946 5.938947,-0.370442 6.574713,2.697753 0.42301,2.041188 -0.104619,4.190082 -1.89549,6.39944 -1.790716,2.209279 -4.675392,4.112176 -6.327007,4.464785 -3.304871,0.704591 -8.052745,1.083794 -6.176099,-7.425352 z"
     stroke="#363330"
     stroke-width="1.83249"
     id="path25" />
  <path
     fill-rule="evenodd"
     clip-rule="evenodd"
     d="M 17.696992,91.697773 C 21.902538,91.665703 28.37811,88.673489 30.960581,85.42766 26.256395,81.168667 26.016905,72.355598 26.446615,67.818357 l -3.582365,-5.671976 -8.03654,4.052934 c 0.06472,7.276579 -2.203187,22.462027 2.869282,25.498458 z"
     fill="#66381a"
     stroke="#512d15"
     stroke-width="3.66498"
     stroke-miterlimit="3.99393"
     stroke-linecap="round"
     id="path26"
     sodipodi:nodetypes="cccccc" />
  <path
     d="m 24.124844,54.381901 c -5.028541,-2.34629 -6.146012,-6.750039 -6.060242,-12.507092 l 3.737275,-2.007682 6.753086,12.24055 z"
     fill="#5d5855"
     stroke="#363330"
     stroke-width="1.83249"
     stroke-miterlimit="3.99393"
     stroke-linecap="round"
     id="path34"
     sodipodi:nodetypes="ccccc" />
  <path
     style="fill:#4b4e4e;fill-opacity:1;stroke:#363330;stroke-width:1.332;stroke-dasharray:none;stroke-opacity:1;paint-order:markers stroke fill"
     d="m 23.418978,43.192692 2.50461,4.691166 -2.238162,1.332718 c -4.190702,1.859583 -6.282572,-2.518204 -1.838491,-4.984364 z"
     id="path35"
     sodipodi:nodetypes="ccccc" />
  <ellipse
     style="fill:#ae9d04;fill-opacity:1;stroke:#604c03;stroke-width:0.877367;stroke-dasharray:none;stroke-opacity:1;paint-order:markers stroke fill"
     id="path33"
     cx="52.798286"
     cy="33.651371"
     rx="0.20392273"
     ry="0.20399593" />
  <path
     style="fill:#3e4040;fill-opacity:1;stroke:#363330;stroke-width:1.332;stroke-dasharray:none;stroke-opacity:1;paint-order:markers stroke fill"
     d="m 21.793645,42.792877 0.524436,0.948911 c -2.00216,2.816852 0.323894,4.940826 2.566681,5.113137 l 0.799023,1.054664 0.985857,-0.426469 -3.863494,-7.383257 z"
     id="path36"
     sodipodi:nodetypes="ccccccc" />
  <defs
     id="defs30">
    <clipPath
       id="clip0_1243_369">
      <rect
         width="110"
         height="110"
         fill="#ffffff"
         id="rect30"
         x="0"
         y="0" />
    </clipPath>
  </defs>
  <ellipse
     style="fill:#ae9d04;fill-opacity:1;stroke:#604c03;stroke-width:0.877367;stroke-dasharray:none;stroke-opacity:1;paint-order:markers stroke fill"
     id="path33-0"
     cx="21.08543"
     cy="76.987633"
     rx="1.1031212"
     ry="1.1035171" />
  <path
     style="fill:none;stroke:#604c03;stroke-width:0.532;stroke-dasharray:none;stroke-opacity:1;paint-order:markers stroke fill"
     d="M 19.916112,77.454406 22.139316,76.60627"
     id="path5" />
  <ellipse
     style="fill:#3e4040;fill-opacity:1;stroke:#363330;stroke-width:0.531999;stroke-dasharray:none;stroke-opacity:1;paint-order:markers stroke fill"
     id="path6"
     cx="83.977348"
     cy="7.9731927"
     rx="0.37962192"
     ry="0.31098336" />
  <ellipse
     style="fill:#3e4040;fill-opacity:1;stroke:#363330;stroke-width:0.531999;stroke-dasharray:none;stroke-opacity:1;paint-order:markers stroke fill"
     id="path6-8"
     cx="86.315826"
     cy="6.6924419"
     rx="0.37962192"
     ry="0.31098336" />
  <ellipse
     style="fill:#3e4040;fill-opacity:1;stroke:#363330;stroke-width:0.531999;stroke-dasharray:none;stroke-opacity:1;paint-order:markers stroke fill"
     id="path6-9"
     cx="85.175926"
     cy="7.2861233"
     rx="0.37962192"
     ry="0.31098336" />
  <ellipse
     style="fill:#3e4040;fill-opacity:1;stroke:#363330;stroke-width:0.531999;stroke-dasharray:none;stroke-opacity:1;paint-order:markers stroke fill"
     id="path6-4"
     cx="82.792587"
     cy="8.5394669"
     rx="0.37962192"
     ry="0.31098336" />
  <path
     style="fill:#3e4040;fill-opacity:1;stroke:#363330;stroke-width:0.532;stroke-dasharray:none;stroke-opacity:1;paint-order:markers stroke fill"
     d="m 26.718692,39.813088 0.32888,0.698925 c -0.177407,0.284482 -0.246852,0.425069 -0.632815,0.553079 l 0.385796,0.726642 c 0.283522,1.099215 -0.267201,1.334843 -0.899261,0.473115 l -0.425763,-0.686662 c -0.234783,0.35286 -0.514895,0.414732 -0.77936,0.419806 L 24.240726,41.19245 c 0.936994,-0.402608 1.681894,-0.818159 2.477966,-1.379362 z"
     id="path12"
     sodipodi:nodetypes="ccccccccc" />
  <path
     style="fill:#3e4040;fill-opacity:1;stroke:#363330;stroke-width:0.532;stroke-dasharray:none;stroke-opacity:1;paint-order:markers stroke fill"
     d="m 29.921613,45.429635 0.328881,0.698925 c -0.177408,0.284482 -0.246853,0.42507 -0.632815,0.553079 l 0.385796,0.726642 c 0.283521,1.099216 -0.267202,1.334843 -0.899262,0.473115 L 28.67845,47.194735 c -0.234783,0.352859 -0.514894,0.414732 -0.77936,0.419806 l -0.455442,-0.805544 c 0.936993,-0.402608 1.681894,-0.818159 2.477965,-1.379362 z"
     id="path14"
     sodipodi:nodetypes="ccccccccc" />
  <ellipse
     style="fill:#ae9d04;fill-opacity:1;stroke:#604c03;stroke-width:0.877367;stroke-dasharray:none;stroke-opacity:1;paint-order:markers stroke fill"
     id="circle14"
     cx="24.424129"
     cy="57.768818"
     rx="0.6368373"
     ry="0.63706589" />
  <ellipse
     style="fill:#ae9d04;fill-opacity:1;stroke:#604c03;stroke-width:0.877367;stroke-dasharray:none;stroke-opacity:1;paint-order:markers stroke fill"
     id="circle15"
     cx="35.241913"
     cy="51.798237"
     rx="0.6368373"
     ry="0.63706589" />
  <ellipse
     style="fill:#ae9d04;fill-opacity:1;stroke:#604c03;stroke-width:0.877367;stroke-dasharray:none;stroke-opacity:1;paint-order:markers stroke fill"
     id="circle16"
     cx="34.442574"
     cy="53.610737"
     rx="0.15723112"
     ry="0.15728755" />
  <ellipse
     style="fill:#ae9d04;fill-opacity:1;stroke:#604c03;stroke-width:0.877367;stroke-dasharray:none;stroke-opacity:1;paint-order:markers stroke fill"
     id="circle17"
     cx="31.791414"
     cy="56.902542"
     rx="0.38371181"
     ry="0.38384956" />
</svg>
