<?xml version="1.0" encoding="UTF-8" standalone="no"?>
<svg
   version="1.1"
   width="141.757"
   height="16.831142"
   viewBox="0 0 141.757 16.831143"
   id="svg67"
   sodipodi:docname="px4s_world.svg"
   inkscape:version="1.4.2 (f4327f4, 2025-05-13)"
   xmlns:inkscape="http://www.inkscape.org/namespaces/inkscape"
   xmlns:sodipodi="http://sodipodi.sourceforge.net/DTD/sodipodi-0.dtd"
   xmlns="http://www.w3.org/2000/svg"
   xmlns:svg="http://www.w3.org/2000/svg">
  <defs
     id="defs67" />
  <sodipodi:namedview
     id="namedview67"
     pagecolor="#ffffff"
     bordercolor="#000000"
     borderopacity="0.25"
     inkscape:showpageshadow="2"
     inkscape:pageopacity="0.0"
     inkscape:pagecheckerboard="0"
     inkscape:deskcolor="#d1d1d1"
     inkscape:zoom="3.994366"
     inkscape:cx="53.57546"
     inkscape:cy="19.903033"
     inkscape:window-width="1920"
     inkscape:window-height="1009"
     inkscape:window-x="-8"
     inkscape:window-y="-8"
     inkscape:window-maximized="1"
     inkscape:current-layer="svg67" />
  <g
     transform="matrix(1.2752914,0,0,1.2752914,-235.35084,-221.13688)"
     id="g67">
    <g
       data-paper-data="{&quot;isPaintingLayer&quot;:true}"
       fill-rule="nonzero"
       stroke-linejoin="miter"
       stroke-miterlimit="10"
       stroke-dasharray="none"
       stroke-dashoffset="0"
       style="mix-blend-mode:normal"
       id="g66">
      <g
         id="g33">
        <g
           fill="#575757"
           stroke-linecap="butt"
           id="g2">
          <path
             d="m 209.48978,181.75587 c 0,-0.93813 0,-2.94416 0,-3.4007 0,-0.19491 0.18319,-0.38525 0.45402,-0.38525 2.13306,0 28.47934,0 32.31358,0 0.30187,0 0.46419,0.1477 0.46419,0.38525 0,0.84622 0,2.8325 0,3.34307 0,0.23343 -0.14175,0.47516 -0.40659,0.47516 -3.63134,0 -30.40898,0 -32.42879,0 -0.23813,0 -0.39641,-0.0947 -0.39641,-0.41751 z"
             stroke="#373533"
             stroke-width="1.5"
             id="path1" />
          <path
             d="m 213.8098,181.98682 c 0,-1.06676 0,-3.34787 0,-3.86701 0,-0.22164 0.0308,-0.43807 0.0763,-0.43807 0.35842,0 4.78528,0 5.42953,0 0.0507,0 0.078,0.16796 0.078,0.43807 0,0.96223 0,3.22089 0,3.80148 0,0.26544 -0.0238,0.54028 -0.0683,0.54028 -0.61017,0 -5.10952,0 -5.44889,0 -0.04,0 -0.0666,-0.10771 -0.0666,-0.47475 z"
             stroke="#434343"
             stroke-width="0.5"
             id="path2" />
        </g>
        <path
           d="m 185.29676,181.81662 c 0,-1.10492 0,-2.71674 0,-3.38566 0,-0.64434 0.35569,-1.3825 0.94912,-1.54096 1.39673,-0.37294 4.11047,-0.99828 6.60352,-0.99828 7.83671,0 37.99804,0 42.72171,0 0.40585,0 1.82013,0.84883 1.82013,1.25889 0,0.22514 -1.19624,0.17456 -1.19624,0.66248 0,1.22375 0,3.06259 0,4.45596 0,0.46759 1.12586,0.49327 1.12586,0.82045 0,0.45346 -1.41492,1.12529 -1.94681,1.12529 -5.3071,0 -34.78984,0 -42.52469,0 -2.25908,0 -4.86358,-0.37241 -6.34094,-0.74626 -0.84572,-0.21403 -1.2117,-0.99916 -1.2117,-1.65189 z"
           fill="#474747"
           stroke="#373533"
           stroke-width="1.5"
           stroke-linecap="butt"
           id="path3" />
        <path
           d="m 185.29676,181.81662 c 0,-1.10492 0,-2.71674 0,-3.38566 0,-0.64434 0.35569,-1.3825 0.94912,-1.54096 1.39673,-0.37294 4.11047,-0.99828 6.60352,-0.99828 7.83671,0 37.99804,0 42.72171,0 0.40585,0 1.82013,0.84883 1.82013,1.25889 0,0.22514 -1.19624,0.17456 -1.19624,0.66248 0,1.22375 0,3.06259 0,4.45596 0,0.46759 1.12586,0.49327 1.12586,0.82045 0,0.45346 -1.41492,1.12529 -1.94681,1.12529 -5.3071,0 -34.78984,0 -42.52469,0 -2.25908,0 -4.86358,-0.37241 -6.34094,-0.74626 -0.84572,-0.21403 -1.2117,-0.99916 -1.2117,-1.65189 z"
           fill="#474747"
           stroke="#373533"
           stroke-width="1.5"
           stroke-linecap="butt"
           id="path4" />
        <g
           fill="#474747"
           stroke="#373533"
           stroke-width="0.5"
           stroke-linecap="butt"
           id="g6">
          <path
             d="m 230.40115,181.87001 c 0,-0.87183 0,-3.0117 0,-3.5751 0,-0.26465 0.22271,-0.51138 0.4289,-0.48083 0.39591,0.0587 1.78511,0.26444 2.47404,0.36649 0.23879,0.0354 0.39345,0.27627 0.39345,0.59746 0,0.77257 0,2.14231 0,2.51223 0,0.18158 -0.16285,0.39575 -0.41127,0.43991 -0.66517,0.11824 -1.9439,0.34554 -2.35306,0.41827 -0.24655,0.0438 -0.53206,-0.0474 -0.53206,-0.27844 z"
             id="path5" />
          <path
             d="m 230.40115,181.75473 v -3.51587 h 3.05483 v 3.41821 z"
             id="path6" />
        </g>
        <g
           fill="#474747"
           stroke="#373533"
           stroke-width="0.5"
           stroke-linecap="butt"
           id="g8">
          <path
             d="m 192.3746,182.78517 c 0,-1.20264 0,-4.15449 0,-4.93168 0,-0.36507 0.22271,-0.70542 0.42889,-0.66329 0.39591,0.0809 1.78511,0.36478 2.47404,0.50556 0.23879,0.0488 0.39345,0.38109 0.39345,0.82417 0,1.06572 0,2.95521 0,3.46551 0,0.25048 -0.16285,0.54592 -0.41127,0.60683 -0.66517,0.16311 -1.9439,0.47666 -2.35306,0.57699 -0.24654,0.0605 -0.53206,-0.0654 -0.53206,-0.38409 z"
             id="path7" />
          <path
             d="m 192.3746,182.62614 v -4.84998 h 3.05483 v 4.71526 z"
             id="path8" />
        </g>
        <g
           fill="#565656"
           stroke="none"
           stroke-linecap="butt"
           id="g20">
          <g
             id="g15">
            <g
               id="g12">
              <path
                 d="m 198.92378,183.79199 1.53047,-0.88987 h 1.00272 l -1.53048,0.88987 z"
                 stroke-width="NaN"
                 id="path11" />
              <path
                 d="m 200.34869,183.79199 1.53046,-0.88987 h 1.00271 l -1.53047,0.88987 z"
                 stroke-width="NaN"
                 id="path12" />
            </g>
            <g
               id="g14">
              <path
                 d="m 201.7736,183.79199 1.53047,-0.88987 h 1.00272 l -1.53046,0.88987 z"
                 stroke-width="NaN"
                 id="path13" />
              <path
                 d="m 203.19852,183.79199 1.53047,-0.88987 h 1.00272 l -1.53047,0.88987 z"
                 stroke-width="NaN"
                 id="path14" />
            </g>
          </g>
          <g
             id="g19">
            <g
               id="g16">
              <path
                 d="m 204.62344,183.79199 1.53046,-0.88987 h 1.00273 l -1.53047,0.88987 z"
                 stroke-width="NaN"
                 id="path15" />
              <path
                 d="m 206.04837,183.79199 1.53046,-0.88987 h 1.00272 l -1.53047,0.88987 z"
                 stroke-width="NaN"
                 id="path16" />
            </g>
            <g
               id="g18">
              <path
                 d="m 207.47327,183.79199 1.53047,-0.88987 h 1.00272 l -1.53046,0.88987 z"
                 stroke-width="NaN"
                 id="path17" />
              <path
                 d="m 208.8982,183.79199 1.53047,-0.88987 h 1.00271 l -1.53047,0.88987 z"
                 stroke-width="NaN"
                 id="path18" />
            </g>
          </g>
        </g>
        <g
           data-paper-data="{&quot;index&quot;:null}"
           fill="#565656"
           stroke="none"
           stroke-linecap="butt"
           id="g29">
          <g
             id="g24">
            <g
               id="g21">
              <path
                 d="m 199.9265,176.423 1.53048,0.88987 h -1.00272 l -1.53047,-0.88987 z"
                 stroke-width="NaN"
                 id="path20" />
              <path
                 d="m 201.35139,176.423 1.53047,0.88987 h -1.00271 l -1.53046,-0.88987 z"
                 stroke-width="NaN"
                 id="path21" />
            </g>
            <g
               id="g23">
              <path
                 d="m 202.77635,176.423 1.53046,0.88987 h -1.00272 l -1.53047,-0.88987 z"
                 stroke-width="NaN"
                 id="path22" />
              <path
                 d="m 204.20124,176.423 1.53047,0.88987 h -1.00272 l -1.53047,-0.88987 z"
                 stroke-width="NaN"
                 id="path23" />
            </g>
          </g>
          <g
             id="g28">
            <g
               id="g25">
              <path
                 d="m 205.62616,176.423 1.53047,0.88987 h -1.00273 l -1.53046,-0.88987 z"
                 stroke-width="NaN"
                 id="path24" />
              <path
                 d="m 207.05107,176.423 1.53047,0.88987 h -1.00272 l -1.53046,-0.88987 z"
                 stroke-width="NaN"
                 id="path25" />
            </g>
            <g
               id="g27">
              <path
                 d="m 208.476,176.423 1.53046,0.88987 h -1.00272 l -1.53047,-0.88987 z"
                 stroke-width="NaN"
                 id="path26" />
              <path
                 d="m 209.90091,176.423 1.53047,0.88987 h -1.00271 L 208.8982,176.423 Z"
                 stroke-width="NaN"
                 id="path27" />
            </g>
          </g>
        </g>
      </g>
      <g
         stroke-linecap="butt"
         id="g47">
        <g
           stroke="#343230"
           stroke-width="2"
           id="g39">
          <path
             d="m 241.10189,180.04706 c 0,-1.21015 1.24564,-3.63044 2.17826,-3.63044 1.67411,0 7.01884,0 7.01884,0 v 7.26087 c 0,0 -5.34473,0 -7.01884,0 -0.93261,0 -2.17826,-2.42029 -2.17826,-3.63044 z"
             fill="#888888"
             id="path33" />
          <path
             d="m 243.01791,183.65734 v -7.18021 h 1.61352 v 7.18021 z"
             fill="#757575"
             id="path34" />
          <path
             d="m 243.01791,180.51096 v -4.03381 h 1.61352 v 4.03381 z"
             fill="#979797"
             id="path35" />
          <path
             d="m 245.70047,174.96944 c 0,0 42.74612,0 46.81417,0 0.60973,0 1.10329,0.25715 1.17812,0.66392 0.19722,1.07214 1.01052,2.26764 1.01052,4.36666 0,2.04078 -0.73553,2.92547 -0.93681,4.07211 -0.11247,0.64076 -0.59028,1.07721 -1.13814,1.07721 -3.87518,0 -46.92788,0 -46.92788,0 z"
             fill="#575757"
             id="path36" />
          <path
             d="m 266.04299,174.96944 c 0,0 24.34414,0 26.47163,0 0.60973,0 1.10329,0.25715 1.17812,0.66392 0.19722,1.07214 1.01052,2.26764 1.01052,4.36666 0,2.04078 -0.73553,2.92547 -0.93681,4.07211 -0.11247,0.64076 -0.59028,1.07721 -1.13814,1.07721 -2.04206,0 -26.58533,0 -26.58533,0 0,0 0.58087,-3.17518 0.58087,-4.91268 0,-1.65142 -0.58087,-5.26721 -0.58087,-5.26721 z"
             fill="#474747"
             id="path37" />
          <path
             d="m 245.61679,184.68089 c -0.094,-1.38746 -0.25922,-3.94555 -0.25922,-4.78268 0,-1.29861 0.15917,-3.48457 0.25394,-4.67098 0.0402,-0.50287 0.30799,-0.82617 0.63349,-0.82617 0.52855,0 1.28458,0 1.61353,0 0.30687,0 0.63141,0.31498 0.61166,0.80707 -0.0473,1.17866 -0.0469,3.37344 -0.0469,4.69006 0,1.43095 0.0949,4.01884 0.13911,5.1484 0.0135,0.34367 -0.16245,0.55235 -0.42954,0.55235 -0.55134,0 -1.45376,0 -1.80715,0 -0.28038,0 -0.67151,-0.36656 -0.70888,-0.91805 z"
             fill="#696969"
             id="path38" />
          <path
             d="m 252.06582,184.99001 c 0.0225,-1.16791 0.0686,-3.73585 0.0686,-5.1936 0,-1.40784 -0.0497,-3.92973 -0.0711,-4.94936 -0.006,-0.27938 0.19222,-0.44598 0.37765,-0.44598 0.32579,0 1.49475,0 2.12985,0 0.2865,0 0.39103,0.16712 0.39695,0.44759 0.0215,1.01474 0.071,3.51311 0.071,4.94774 0,1.48815 -0.0495,4.20727 -0.071,5.3142 -0.006,0.30561 -0.14281,0.48834 -0.34852,0.48834 -0.58802,0 -1.76919,0 -2.12986,0 -0.20451,0 -0.43084,-0.23126 -0.42356,-0.60893 z"
             fill="#474747"
             id="path39" />
        </g>
        <g
           stroke="#373533"
           stroke-width="1"
           id="g46">
          <path
             d="m 241.10189,180.04706 c 0,-1.21015 1.24564,-3.63044 2.17826,-3.63044 1.67411,0 7.01884,0 7.01884,0 v 7.26087 c 0,0 -5.34473,0 -7.01884,0 -0.93261,0 -2.17826,-2.42029 -2.17826,-3.63044 z"
             fill="#888888"
             id="path40" />
          <path
             d="m 243.01791,183.65734 v -7.18021 h 1.61352 v 7.18021 z"
             fill="#757575"
             id="path41" />
          <path
             d="m 243.01791,180.51096 v -4.03381 h 1.61352 v 4.03381 z"
             fill="#979797"
             id="path42" />
          <path
             d="m 245.70047,174.96944 c 0,0 42.74612,0 46.81417,0 0.60973,0 1.10329,0.25715 1.17812,0.66392 0.19722,1.07214 1.01052,2.26764 1.01052,4.36666 0,2.04078 -0.73553,2.92547 -0.93681,4.07211 -0.11247,0.64076 -0.59028,1.07721 -1.13814,1.07721 -3.87518,0 -46.92788,0 -46.92788,0 z"
             fill="#575757"
             id="path43" />
          <path
             d="m 266.04299,174.96944 c 0,0 24.34414,0 26.47163,0 0.60973,0 1.10329,0.25715 1.17812,0.66392 0.19722,1.07214 1.01052,2.26764 1.01052,4.36666 0,2.04078 -0.73553,2.92547 -0.93681,4.07211 -0.11247,0.64076 -0.59028,1.07721 -1.13814,1.07721 -2.04206,0 -26.58533,0 -26.58533,0 0,0 0.58087,-3.17518 0.58087,-4.91268 0,-1.65142 -0.58087,-5.26721 -0.58087,-5.26721 z"
             fill="#474747"
             id="path44" />
          <path
             d="m 245.61679,184.68089 c -0.094,-1.38746 -0.25922,-3.94555 -0.25922,-4.78268 0,-1.29861 0.15917,-3.48457 0.25394,-4.67098 0.0402,-0.50287 0.30799,-0.82617 0.63349,-0.82617 0.52855,0 1.28458,0 1.61353,0 0.30687,0 0.63141,0.31498 0.61166,0.80707 -0.0473,1.17866 -0.0469,3.37344 -0.0469,4.69006 0,1.43095 0.0949,4.01884 0.13911,5.1484 0.0135,0.34367 -0.16245,0.55235 -0.42954,0.55235 -0.55134,0 -1.45376,0 -1.80715,0 -0.28038,0 -0.67151,-0.36656 -0.70888,-0.91805 z"
             fill="#696969"
             id="path45" />
          <path
             d="m 252.06582,184.99001 c 0.0225,-1.16791 0.0686,-3.73585 0.0686,-5.1936 0,-1.40784 -0.0497,-3.92973 -0.0711,-4.94936 -0.006,-0.27938 0.19222,-0.44598 0.37765,-0.44598 0.32579,0 1.49475,0 2.12985,0 0.2865,0 0.39103,0.16712 0.39695,0.44759 0.0215,1.01474 0.071,3.51311 0.071,4.94774 0,1.48815 -0.0495,4.20727 -0.071,5.3142 -0.006,0.30561 -0.14281,0.48834 -0.34852,0.48834 -0.58802,0 -1.76919,0 -2.12986,0 -0.20451,0 -0.43084,-0.23126 -0.42356,-0.60893 z"
             fill="#474747"
             id="path46" />
        </g>
      </g>
    </g>
  </g>
</svg>
