<?xml version="1.0" encoding="UTF-8" standalone="no"?>
<!-- Created with Inkscape (http://www.inkscape.org/) -->

<svg
   width="128.69949"
   height="23.426899"
   viewBox="0 0 128.6995 23.426899"
   version="1.1"
   id="SVGRoot"
   sodipodi:docname="sv98.svg"
   inkscape:version="1.4 (86a8ad7, 2024-10-11)"
   xml:space="preserve"
   xmlns:inkscape="http://www.inkscape.org/namespaces/inkscape"
   xmlns:sodipodi="http://sodipodi.sourceforge.net/DTD/sodipodi-0.dtd"
   xmlns="http://www.w3.org/2000/svg"
   xmlns:svg="http://www.w3.org/2000/svg"><sodipodi:namedview
     id="namedview186"
     pagecolor="#505050"
     bordercolor="#ffffff"
     borderopacity="1"
     inkscape:showpageshadow="0"
     inkscape:pageopacity="0"
     inkscape:pagecheckerboard="1"
     inkscape:deskcolor="#505050"
     inkscape:document-units="px"
     showgrid="false"
     inkscape:zoom="5.6568543"
     inkscape:cx="93.780036"
     inkscape:cy="71.506173"
     inkscape:window-width="1920"
     inkscape:window-height="1009"
     inkscape:window-x="-8"
     inkscape:window-y="-8"
     inkscape:window-maximized="1"
     inkscape:current-layer="layer1"
     showguides="false"><sodipodi:guide
       position="128.81997,60.892677"
       orientation="0,-1"
       id="guide2960"
       inkscape:locked="false" /><sodipodi:guide
       position="6.3754767,56.710285"
       orientation="0,-1"
       id="guide2962"
       inkscape:locked="false" /><sodipodi:guide
       position="26.919922,64.094238"
       orientation="0,1"
       id="guide2968"
       inkscape:label=""
       inkscape:locked="false"
       inkscape:color="rgb(0,134,229)" /></sodipodi:namedview><defs
     id="defs181" /><g
     inkscape:label="Layer 1"
     inkscape:groupmode="layer"
     id="layer1"
     transform="rotate(-30,63.84384,57.258041)"><g
       id="g8267"
       inkscape:label="sv98"
       transform="matrix(0.83315817,0,0,0.83315817,6.234744,3.4170251)"
       style="stroke-width:1.20026"><g
         id="g5914"
         inkscape:label="mag"
         style="stroke-width:1.20026"
         transform="rotate(30,154.26765,99.248876)"><path
           d="m 74.043833,103.02506 4.287,4.083 8.305,-11.556997 -4.351,-2.839 z"
           fill="#f9f9f9"
           stroke="#323232"
           stroke-width="2.44269"
           id="path434-3"
           style="display:inline;fill:#4d4d4d;fill-opacity:1;stroke-width:2.63773;stroke-dasharray:none"
           transform="matrix(0.73477554,0.53701112,-0.53697249,0.73472268,39.578013,-58.094057)"
           inkscape:label="box" /><path
           style="fill:#4d4d4d;fill-opacity:1;stroke:#333333;stroke-width:2.4005;stroke-miterlimit:29;stroke-dasharray:none;stroke-opacity:1"
           d="m 47.615404,55.250658 1.181307,4.408697"
           id="path5908" /></g><path
         d="m 161.94303,40.978732 0.35361,0.204591 -0.028,0.455146 1.41246,0.815629 0.38059,-0.251 0.35287,0.204864 -1.53032,2.6466 -2.47089,-1.427702 z"
         style="display:inline;fill:#f9f9f9;stroke:#323232;stroke-width:2.64055"
         id="path4998" /><rect
         style="display:inline;fill:#333333;fill-opacity:1;stroke:#333333;stroke-width:0;stroke-miterlimit:29;stroke-dasharray:none;stroke-opacity:1"
         id="rect3054"
         width="108.36819"
         height="4.1981959"
         x="61.668076"
         y="-44.524891"
         inkscape:label="barrel"
         transform="rotate(30)" /><path
         style="fill:#666666;fill-opacity:1;stroke:#333333;stroke-width:2.4005;stroke-miterlimit:29;stroke-dasharray:none;stroke-opacity:1"
         d="m 99.035161,3.9098162 -21.991675,-12.6969 -3.250553,3.250553 26.069216,15.051069 z"
         id="path3059" /><g
         id="g2966"
         inkscape:label="stock"
         style="stroke-width:1.20026"
         transform="rotate(30,154.26765,99.248876)"><rect
           style="fill:#222c20;fill-opacity:1;stroke:#212c21;stroke-width:2.4005;stroke-miterlimit:29;stroke-dasharray:none;stroke-opacity:1"
           id="rect2802"
           width="4.8677144"
           height="11.627101"
           x="-8.9264307"
           y="57.3899" /><path
           style="fill:#2e3b2b;fill-opacity:1;stroke:#333333;stroke-width:0;stroke-miterlimit:29;stroke-dasharray:none;stroke-opacity:1"
           d="m -12.945354,71.217012 h 5.5934978 V 55.047608 H -13.39209 c 0,0 2.048379,11.948917 0.446736,16.169404 z"
           id="path684" /></g><rect
         style="fill:#2e3b2b;fill-opacity:1;stroke:#333333;stroke-width:0;stroke-miterlimit:29;stroke-dasharray:none;stroke-opacity:1"
         id="rect2800"
         width="14.331966"
         height="4.2622542"
         x="27.143015"
         y="-38.433945"
         transform="rotate(30)" /><path
         d="m 73.327026,-2.2961408 c 0,0 -1.53896,1.39639297 -0.765449,2.64260097 0.04597,-0.109864 -0.337532,-0.826936 0.361233,-1.79437197 0.207683,-0.288777 1.066064,-0.491946 1.066064,-0.491946 z"
         fill="#f9f9f9"
         stroke="#323232"
         stroke-width="0.599958"
         id="path432-6"
         style="display:inline;stroke:#1f2e1f;stroke-width:1.20025;stroke-opacity:1"
         inkscape:label="trigger" /><path
         id="path2957"
         style="display:inline;fill:#415f3b;fill-opacity:1;stroke:#1f2e1f;stroke-width:2.4005;stroke-miterlimit:29;stroke-dasharray:none;stroke-opacity:1"
         inkscape:label="body"
         d="m 74.646274,-6.5539358 -9.948316,5.21e-4 -6.414001,-3.7031252 -3.828791,2.2097852 -15.094386,-8.4260722 -5.895506,10.2113192 -0.327164,1.222914 3.447191,1.990233 2.732046,-0.732049 15.670161,4.19832997 c 0,0 2.060513,5.52063403 5.273066,5.47579503 0,0 2.107468,-5.42714003 2.380293,-6.00950703 0.239706,-0.51167 2.247181,-2.26048297 3.472902,0.835239 1.225719,3.09571703 3.929581,5.15887703 7.263405,5.46641303 l 16.213301,3.626089 27.629935,15.9521488 3.29858,-1.904721 1.70117,-2.946516 z m -0.997746,4.803217 c 1.595607,0.92083897 2.559215,2.17191297 1.84933,3.401484 -0.709897,1.229564 -2.758839,1.846967 -4.354112,0.92555 -1.594531,-0.921177 -2.040736,-2.97642603 -1.331145,-4.205488 0.709604,-1.229055 2.240898,-1.041865 3.835927,-0.121546 z m -15.278356,-5.295052 5.018254,2.936648 c 1.422895,0.67263 -5.363225,1.172876 -6.763129,1.010476 -0.205464,-1.536528 1.744875,-3.947124 1.744875,-3.947124 z m -16.704075,-5.0176332 8.416683,4.8593752 c 0,0 0.28913,0.894484 -0.302323,3.097858 l -10.889882,-2.958489 z"
         sodipodi:nodetypes="cccccccccccsscccccccscscccccccccc" /><path
         style="fill:#2e3b2b;fill-opacity:1;stroke:#333333;stroke-width:0;stroke-miterlimit:29;stroke-dasharray:none;stroke-opacity:1"
         d="m 44.627745,-22.415291 -5.368639,2.194886 16.307706,9.415258 4.387963,-2.76108 z"
         id="path2746"
         sodipodi:nodetypes="ccccc" /><path
         style="fill:#4d4d4d;stroke:#1f2e1f;stroke-width:2.4005;stroke-linejoin:round;stroke-miterlimit:29;stroke-dasharray:none"
         id="path1359"
         transform="rotate(59.999999)"
         sodipodi:type="arc"
         sodipodi:cx="33.634399"
         sodipodi:cy="-66.654343"
         sodipodi:rx="0.0042106938"
         sodipodi:ry="0.01303317"
         sodipodi:start="0.048634483"
         sodipodi:end="0.067446853"
         sodipodi:arc-type="slice"
         d="m 33.638605,-66.653709 a 0.00421069,0.01303317 0 0 1 -4e-6,2.45e-4 l -0.0042,-8.79e-4 z" /></g></g></svg>
