<?xml version="1.0" encoding="UTF-8" standalone="no"?>
<svg
   width="110"
   height="110"
   viewBox="0 0 110 110"
   fill="none"
   version="1.1"
   id="svg77"
   sodipodi:docname="svd.svg"
   inkscape:version="1.3 (0e150ed6c4, 2023-07-21)"
   xml:space="preserve"
   xmlns:inkscape="http://www.inkscape.org/namespaces/inkscape"
   xmlns:sodipodi="http://sodipodi.sourceforge.net/DTD/sodipodi-0.dtd"
   xmlns="http://www.w3.org/2000/svg"
   xmlns:svg="http://www.w3.org/2000/svg"><sodipodi:namedview
     id="namedview79"
     pagecolor="#505050"
     bordercolor="#ffffff"
     borderopacity="1"
     inkscape:pageshadow="0"
     inkscape:pageopacity="0"
     inkscape:pagecheckerboard="1"
     showgrid="false"
     inkscape:zoom="22.396"
     inkscape:cx="36.591356"
     inkscape:cy="59.541884"
     inkscape:window-width="1920"
     inkscape:window-height="1017"
     inkscape:window-x="-8"
     inkscape:window-y="-8"
     inkscape:window-maximized="1"
     inkscape:current-layer="g1"
     inkscape:showpageshadow="2"
     inkscape:deskcolor="#d1d1d1" /><defs
     id="defs75" /><g
     id="g1"
     transform="matrix(0.79303106,0,0,0.79303106,78.520891,11.529609)"><g
       id="g7"
       transform="rotate(14.852854,-31.358996,51.309473)"><g
         id="g6"><g
           id="g5"><g
             id="g4"><g
               id="g3"><g
                 id="g2"><rect
                   width="14.436293"
                   height="4.2327657"
                   x="-123.38799"
                   y="8.4493513"
                   rx="0.90226829"
                   ry="0.90226829"
                   transform="rotate(-46.845)"
                   fill="#323232"
                   stroke="#323232"
                   stroke-width="2.48124"
                   stroke-linecap="round"
                   stroke-miterlimit="10"
                   id="rect1" /><path
                   d="m -41.004683,49.312452 1.20566,1.20566 6.303759,-6.303758 -0.56782,-0.56782 -0.05901,0.05901 c 0,0 -0.426981,-0.426982 -0.895592,0.04163 -0.488389,0.488389 -0.06125,0.91553 -0.06125,0.91553 l -2.552,2.552 c 0,0 -0.427141,-0.427141 -0.906598,0.05232 -0.477543,0.477543 -0.0504,0.904684 -0.0504,0.904684 l -1.276,1.276 -0.319,-0.319 z"
                   fill="#323232"
                   id="path3-6"
                   style="stroke-width:0.225567" /><rect
                   width="4.4962282"
                   height="1.2618221"
                   x="-46.264214"
                   y="9.6484442"
                   rx="0.66880631"
                   ry="0.63091105"
                   fill="#323232"
                   id="rect7"
                   transform="rotate(-45)"
                   style="stroke-width:0.225567" /><rect
                   ry="0.63091105"
                   rx="0.66880631"
                   y="9.6786671"
                   x="-39.704723"
                   height="1.2618221"
                   width="4.4962282"
                   fill="#323232"
                   id="rect8"
                   transform="rotate(-45)"
                   style="stroke-width:0.225567" /><rect
                   width="4.4962282"
                   height="1.2618221"
                   x="-33.145458"
                   y="9.6786671"
                   rx="0.66880631"
                   ry="0.63091105"
                   fill="#323232"
                   id="rect9-3"
                   transform="rotate(-45)"
                   style="stroke-width:0.225567" /><path
                   d="m -46.36803,78.095184 c 0,0 -2.617555,1.142499 -2.78487,-2.999876 l -0.783783,0.773256 c 0.725246,3.581573 2.820757,2.908483 3.189521,2.804489 0.150249,-0.11803 0.332877,-0.406566 0.379132,-0.577869 z"
                   fill="#323232"
                   id="path9-5"
                   style="stroke-width:0.225567" /><path
                   d="m -52.514044,77.913195 1.354315,-1.464689 0.388861,0.845669 c 0,0 0.484082,0.763845 -0.08916,1.596436 l 0.981883,1.344903 c 0.367487,0.162053 1.935053,-0.08326 2.175739,-0.171143 0.948068,-0.458722 2.960479,-2.671785 3.059529,-2.992539 0.133501,-0.425387 0.132225,-1.034357 -0.06795,-1.742697 -0.226969,-0.475789 -1.286687,-1.546034 -1.286687,-1.546034 -0.221545,-0.340532 -0.413743,-1.248885 -0.413743,-1.248885 l 0.661607,-0.721897 c 0,0 0.11149,1.242665 0.344041,1.594203 0,0 1.330549,1.342671 1.395465,1.73201 0.232392,0.524277 0.269874,1.818301 0.0957,2.299353 -0.135255,0.319 -2.276383,2.829849 -3.423189,3.40341 -0.21038,0.07257 -1.23134,0.357281 -2.453269,0.30321 z m 13.323833,-5.515989 c 0,0 -0.256157,0.240845 -0.535442,0.137648 l -0.825572,-2.263304 0.550435,-0.550435 z"
                   fill="#323232"
                   id="path10"
                   style="stroke-width:0.225567" /><rect
                   ry="0.63091105"
                   rx="0.66880631"
                   y="11.421852"
                   x="-49.50832"
                   height="1.2618221"
                   width="4.4962282"
                   fill="#323232"
                   id="rect10"
                   transform="rotate(-45)"
                   style="stroke-width:0.225567" /><g
                   id="g9"><g
                     id="g8"><path
                       d="M -60.485535,81.544691 -82.40849,104.74365 c 0,0 -0.479776,0.97231 -0.160777,1.29131 4.919938,2.95809 11.260701,10.33241 11.260701,10.33241 0.37929,0.32506 0.732902,-0.25281 0.732902,-0.25281 l 13.001483,-17.956509 c 0.94743,-1.584473 4.368705,-4.867302 4.368705,-4.867302 0,0 0.986826,-0.483125 2.089769,-0.245311 1.297532,-0.389339 3.809179,-2.787741 3.809179,-2.787741 0.129673,-0.259507 -4.566007,-5.842006 -4.566007,-5.842006 -0.957,-1.595 0.957,-3.509001 0.957,-3.509001 l -2.552,-3.19 -5.104,3.828001 z m -17.116742,22.679459 2.233,-2.233 c 0.319,-0.31899 0.957,-0.31899 1.276,0 l 2.233,2.233 c 0.319,0.31901 0.319,0.957 0,1.27601 l -2.233,2.233 c -0.319,0.319 -0.957,0.319 -1.276,0 l -2.233,-2.233 c -0.319,-0.319 -0.319,-0.957 0,-1.27601 z m 10.801659,-11.163081 7.466833,-7.845167 c 0.897666,-0.875974 2.135545,-0.156789 2.135545,-0.156789 l 2.065047,3.286817 c 0,0 0.226968,1.513815 -0.638,2.552 -5.04674,4.924243 -5.786182,8.16305 -7.896367,9.96763 0,0 -1.479203,0.29444 -2.949633,-0.39763 l -3.903284,-3.47072 2.124859,-2.341141 c 1.315237,0.458722 1.276,0 1.276,0 z"
                       stroke="#323232"
                       stroke-width="2.48124"
                       id="path1-3"
                       style="fill:#785526;fill-opacity:1;stroke:#323232;stroke-opacity:1" /><path
                       d="m -59.528535,81.225691 1.276,-10e-7 4.785,-3.509 0.319,0.319 9.915478,-9.915476 1.914,1.914 0.637999,-0.638 -3.189999,-3.19 11.451302,-11.451303 -4.520071,-4.52007 -12.089462,12.089462 -0.638,1.275999 -12.148317,12.148318 c -0.540545,0.886661 1.01123,3.56323 1.01123,3.56323 z"
                       stroke="#323232"
                       stroke-width="2.48124"
                       id="path2"
                       style="fill:#424242;fill-opacity:1" /><path
                       d="m -8.8400725,29.261229 -4.5200705,-4.520071 -19.267122,19.267121 -2.807678,3.445679 5.15823,5.15823 7.592678,-9.506679 z"
                       stroke="#323232"
                       stroke-width="2.48124"
                       id="path4"
                       style="fill:#775426;fill-opacity:1" /><path
                       d="M -8.8968545,26.699339 16.808165,0.9943195 l 0.344521,0.193633 7.447693,-7.447693 c -0.336545,-0.739123 -1.008359,-1.410937 -1.814791,-1.814791 l -7.447694,7.447693 0.193793,0.3446795 -25.70502,25.70502 z M 17.0715,-0.881879 21.102224,-4.9126035 c 0.156151,-0.1561505 0.411829,-0.00829 0.411829,-0.00829 0,0 0.147538,0.2553595 -0.0086,0.41151 l -4.030406,4.0304055 c -0.175769,0.168113 -0.438625,0.035728 -0.438625,0.035728 0,0 -0.140998,-0.270512 0.03509,-0.438625 z"
                       fill="#323232"
                       id="path5-7"
                       style="stroke-width:0.225567" /><path
                       d="m -3.121519,19.076675 1.595,1.595 2.552,-2.552 -1.595,-1.595 c 0,0 -2.6389275,0.691751 -3.666267,0.161733 l -0.638,-0.638 -0.957,0.319 -4.147,4.147 0.319,0.319 -2.552,2.552 4.304267,4.304267 0.638,-0.638 -0.638,-0.638 6.38,-6.38 -0.957,-0.957 -6.38,6.38 -1.293545,-1.293545 5.423,-5.423 z m 11.1830235,-21.0063095 1.276,1.276 h 0.638 l 1.3621295,2.63813 3.548875,3.550151 0.957479,-0.9574785 -1.378559,-1.8111225 1.21555,-1.2155495 -3.954962,-3.954962 -0.0029,-0.635129 -1.276,-1.276 z M 11.600171,0.0606065 12.10148,-0.44134 a 0.52105992,0.52105992 0 0 1 0.738485,0 l 0.436073,0.436711 a 0.52105992,0.52105992 0 0 1 0,0.737847 l -0.501309,0.5019465 a 0.52105992,0.52105992 0 0 1 -0.738485,0 l -0.436072,-0.436711 a 0.52105992,0.52105992 0 0 1 -1e-6,-0.737847 z"
                       fill="#323232"
                       id="path6"
                       style="stroke-width:0.225567" /><path
                       d="m -32.55868,59.547726 c 2.833039,3.828 5.967055,5.329055 5.967055,5.329055 l -4.844015,8.034015 c 0,0 -3.079307,-1.37489 -7.881054,-6.605054 z"
                       stroke="#323232"
                       stroke-width="2.48124"
                       id="path7-5"
                       style="fill:#424242;fill-opacity:1" /><rect
                       width="4.4962282"
                       height="1.2618221"
                       x="-42.94883"
                       y="11.452075"
                       rx="0.66880631"
                       ry="0.63091105"
                       fill="#323232"
                       id="rect11"
                       transform="rotate(-45)"
                       style="stroke-width:0.225567" /></g></g><rect
                   ry="0.63091105"
                   rx="0.66880631"
                   y="11.452075"
                   x="-36.389565"
                   height="1.2618221"
                   width="4.4962282"
                   fill="#323232"
                   id="rect12"
                   transform="rotate(-45)"
                   style="stroke-width:0.225567" /></g></g></g></g></g></g><path
       style="fill:#323232;fill-opacity:1;stroke:#171717;stroke-width:0;stroke-opacity:0.0912863;stroke-dasharray:none"
       id="path13"
       d="m -36.865095,46.49368 c -0.0059,0.40018 0.190034,0.762947 0.365609,1.109825 0.280211,0.512491 0.544916,1.033041 0.807897,1.554496 0.19573,0.37467 0.399711,0.745059 0.608866,1.112399 0.146609,0.261132 0.299241,0.5189 0.459152,0.772107 0.138962,0.225568 0.288111,0.444593 0.434958,0.665037 0.16216,0.249795 0.339144,0.489771 0.516331,0.729054 0.124522,0.155498 0.231052,0.323232 0.339239,0.49003 0.107663,0.191116 0.204776,0.387934 0.310471,0.580173 0.102493,0.190749 0.213408,0.376423 0.339694,0.552351 0.08493,0.111207 0.173012,0.219927 0.270831,0.320068 0.02374,0.02869 -0.02386,-0.02912 -0.01504,-0.01545 0.0095,0.01475 0.02216,0.02724 0.03299,0.04104 0.0032,0.0039 -0.0069,-0.0073 -0.0098,-0.01147 -0.01072,-0.01506 -0.02175,-0.02995 -0.03103,-0.04593 -0.01135,-0.01953 -0.02049,-0.04025 -0.03074,-0.06039 0.0073,0.06372 -0.03732,-0.126884 -0.0301,-0.0946 0.04083,0.182397 0.109088,0.316953 0.243725,0.45264 0.7172,0.71257 1.724926,-0.301705 1.007724,-1.014275 v 0 c 0.105734,0.153077 0.09668,0.114308 0.148219,0.2712 0.0045,0.0139 0.01173,0.0573 0.0086,0.04303 -0.03047,-0.13782 -0.0043,-0.04415 -0.05185,-0.192128 -0.01638,-0.03536 -0.03075,-0.07171 -0.04914,-0.106061 -0.05449,-0.101787 -0.131485,-0.190807 -0.209088,-0.275245 -0.04827,-0.04427 -0.08383,-0.102392 -0.127578,-0.151576 -0.09389,-0.126917 -0.168786,-0.266046 -0.245375,-0.403768 -0.122845,-0.221813 -0.230696,-0.4519 -0.363264,-0.668255 -0.124472,-0.191477 -0.247893,-0.383587 -0.389856,-0.562934 -0.163196,-0.219828 -0.325984,-0.440505 -0.474992,-0.670257 -0.140557,-0.21097 -0.283463,-0.42049 -0.416383,-0.63642 -0.148447,-0.234469 -0.289309,-0.473655 -0.425218,-0.715593 -0.197298,-0.346343 -0.389571,-0.695635 -0.574665,-1.048651 -0.263862,-0.5232 -0.529113,-1.045695 -0.81056,-1.559746 -0.08778,-0.170816 -0.08952,-0.1677 -0.158821,-0.322466 -0.01236,-0.02755 -0.02099,-0.05684 -0.03543,-0.08336 -0.0025,-0.0045 -0.01504,0.0043 -0.01554,-8.93e-4 -0.0016,-0.01793 0,-0.03601 0,-0.05402 0,-1.011006 -1.429777,-1.011006 -1.429777,0 z" /><circle
       id="path14"
       style="fill:#323232;stroke:#171717;stroke-width:0;stroke-dasharray:none"
       cx="-34.714455"
       cy="48.184013"
       r="0" /><circle
       id="path15"
       style="fill:#323232;stroke:#171717;stroke-width:1.26098"
       cx="-44.821026"
       cy="44.693165"
       r="0" /><path
       style="fill:#323232;fill-opacity:1;stroke:#171717;stroke-width:0;stroke-dasharray:none;stroke-opacity:0.0912863"
       id="path16"
       d="m -44.98384,62.337502 c 0.05179,0.205635 0.144732,0.397431 0.233506,0.589003 0.06789,0.156375 0.145353,0.30822 0.232398,0.454752 0.05755,0.09032 0.123211,0.174849 0.19282,0.256089 0.09592,0.114624 0.209664,0.212548 0.337836,0.289566 0.02992,0.01798 0.06127,0.03347 0.0919,0.05019 0.185592,0.09331 0.38948,0.146068 0.596186,0.164126 0.05673,0.0049 0.113741,0.0058 0.170609,0.0086 0.496926,0.0012 0.954831,-0.202949 1.406457,-0.386258 0.521552,-0.214735 1.03173,-0.455428 1.543363,-0.692428 0.391758,-0.182878 0.782127,-0.368503 1.168735,-0.562049 0.375306,-0.18437 0.737748,-0.392721 1.101213,-0.598982 0.355712,-0.200829 0.706691,-0.40981 1.053677,-0.625326 0.281389,-0.171306 0.545299,-0.367343 0.798917,-0.576961 0.182954,-0.149888 0.376878,-0.285976 0.573958,-0.416523 0.212664,-0.133576 0.425658,-0.266257 0.632629,-0.408571 0.177905,-0.116451 0.351475,-0.239399 0.518446,-0.37104 0.154925,-0.12306 0.294042,-0.263341 0.425848,-0.410425 0.136589,-0.153067 0.242987,-0.333337 0.287555,-0.535262 0.01034,-0.04697 0.01487,-0.09505 0.02231,-0.14258 0.01733,-0.138968 -0.0083,-0.276621 -0.02092,-0.414465 -0.0047,-0.07514 -0.0061,-0.150317 -0.01072,-0.225467 -0.02045,-0.18684 -0.08555,-0.363156 -0.19591,-0.515985 -0.02608,-0.0361 -0.05697,-0.06846 -0.08547,-0.102682 -0.06812,-0.07732 -0.143583,-0.147395 -0.216995,-0.219472 -0.07388,-0.07166 -0.150239,-0.140035 -0.230029,-0.205029 -0.154862,-0.119037 -0.33896,-0.178881 -0.528433,-0.213465 -0.162206,-0.02688 -0.326381,-0.01097 -0.485545,0.02667 -0.03642,0.0086 -0.07309,0.01687 -0.108382,0.02933 -0.05736,0.02024 -0.112732,0.04572 -0.16909,0.06858 -0.05401,0.03199 -0.109643,0.06141 -0.162039,0.09597 -0.05175,0.03415 -0.100576,0.07254 -0.150041,0.109932 -0.08926,0.06748 -0.329083,0.257199 -0.401329,0.314138 -0.417165,0.328787 -0.187156,0.149714 -0.640543,0.498266 -0.36793,0.273422 -0.753242,0.522616 -1.14968,0.752516 -0.330125,0.191444 -0.669542,0.36706 -1.007264,0.544533 -0.636148,0.33269 -1.268362,0.673054 -1.90922,0.996647 -0.276932,0.135732 -0.557481,0.26421 -0.843374,0.380021 -0.170135,0.06893 -0.31482,0.121711 -0.486879,0.186076 -0.334417,0.120487 -0.662353,0.258839 -0.979808,0.41878 -0.100992,0.0566 -0.203552,0.115834 -0.287594,0.196741 -0.08016,0.07716 -0.07655,0.07637 -0.135904,0.149371 -0.05156,0.07326 -0.10789,0.144082 -0.150506,0.223307 -0.01653,0.03074 -0.0312,0.06247 -0.04681,0.0937 -0.05536,0.135363 -0.08817,0.284364 -0.06782,0.431213 0.0082,0.05905 0.02431,0.11678 0.03917,0.174523 0.01512,0.05875 0.06585,0.153046 0.08537,0.193942 0.04362,0.05799 0.08055,0.121685 0.130844,0.173993 0.110878,0.115304 0.231674,0.186379 0.382475,0.238876 0.117423,0.04088 0.234,0.04938 0.35643,0.04841 0.03783,-2.99e-4 0.07543,-0.0058 0.113149,-0.0087 0.518609,-0.07011 0.150735,-0.0032 -0.05523,-1.430138 -4.57e-4,-0.0032 -0.1651,0.0023 -0.177928,0.0024 -0.01482,1.99e-4 -0.05923,-0.0011 -0.04444,-4.5e-4 0.02487,0.0011 0.04977,0.0012 0.07466,0.0018 0.09664,0.01726 0.194934,0.05939 0.259437,0.1375 0.0428,0.05183 0.09015,0.103616 0.113602,0.166608 0.03499,0.09396 0.03888,0.196709 0.05831,0.295063 -0.03504,0.179601 -0.01811,0.115569 -0.03978,0.194672 0.528117,-0.862105 -0.691083,-1.608976 -1.219201,-0.746871 v 0 c -0.131582,0.234622 -0.06774,0.09442 -0.16568,0.431445 0.01688,0.128436 0.0121,0.261622 0.05065,0.385309 0.02704,0.08682 0.08676,0.160673 0.141852,0.233012 0.08584,0.112707 0.247088,0.210714 0.377736,0.261059 0.05087,0.0196 0.104435,0.0313 0.156653,0.04693 0.0626,0.0077 0.124951,0.01797 0.187805,0.02325 0.02913,0.0024 0.05847,2.7e-4 0.0877,-8.4e-5 0.545742,-0.0067 0.109391,-0.318246 0.03986,-1.42297 0.138109,0.0023 0.271122,0.07307 0.358496,0.179611 0.02647,0.03227 0.04536,0.07007 0.06803,0.105103 0.0079,0.02014 0.01591,0.04025 0.02376,0.06043 0.0013,0.0033 -0.0047,-0.01325 -0.004,-0.0097 0.0069,0.04188 0.01883,0.083 0.02324,0.125229 0.01072,0.102782 -0.01122,0.20783 -0.05387,0.301125 -0.0071,0.01248 -0.02947,0.04939 -0.022,0.0371 0.0047,-0.0076 0.01021,-0.01456 0.01446,-0.02232 0.0012,-0.0021 -0.0063,0.0071 -0.0049,0.0052 0.01291,-0.01801 0.02671,-0.03538 0.03958,-0.05343 0.0018,-0.0025 -0.0043,0.0047 -0.0064,0.0069 -0.03103,0.03011 -0.04906,0.0444 -0.08227,0.06547 -0.0097,0.0062 0.033,-0.02121 0.02841,-0.01962 0.26884,-0.138273 0.550353,-0.25069 0.83392,-0.354672 0.202491,-0.07589 0.338567,-0.12533 0.539692,-0.207056 0.316554,-0.128631 0.627254,-0.271165 0.933865,-0.42184 0.647631,-0.327281 1.286922,-0.670726 1.929771,-1.007237 0.362215,-0.190428 0.725933,-0.379247 1.079632,-0.585297 0.442718,-0.257907 0.872821,-0.537552 1.28365,-0.843931 0.465383,-0.357948 0.234142,-0.177796 0.653755,-0.508546 0.074,-0.05832 0.147877,-0.116792 0.222029,-0.174928 0.05012,-0.03929 0.100564,-0.07818 0.150791,-0.117322 0.02208,-0.01721 0.04587,-0.03243 0.06615,-0.05174 0.0025,-0.0024 -0.0069,-9.06e-4 -0.01047,-0.0014 -0.01333,0.003 -0.02637,0.0078 -0.03997,0.009 -0.0074,5.7e-4 0.01391,-0.0052 0.021,-0.0074 0.0079,-0.0025 0.03207,-0.0039 0.02416,-0.0067 -0.0233,-0.0081 -0.05651,0.0052 -0.08051,-0.0074 -0.03686,-0.01984 -0.07653,-0.03558 -0.107436,-0.06498 -0.0053,-0.0052 -0.02132,-0.02009 -0.01575,-0.01533 0.04363,0.03711 0.08326,0.07871 0.126035,0.116742 0.05021,0.04826 0.101081,0.09578 0.147742,0.147642 -0.04614,-0.06818 -0.07838,-0.139219 -0.08051,-0.222621 0.0016,-0.02456 3.81e-4,-0.0096 0.0015,0.03536 0.0013,0.05195 0.0033,0.103905 0.0068,0.155762 0.0013,0.01918 0.003,0.03832 0.0045,0.05749 0.0047,0.04701 0.0097,0.09394 0.01569,0.140803 7.63e-4,0.0059 -6.86e-4,0.02287 0.0025,0.01783 0.0067,-0.01047 -0.0028,-0.02605 0.0044,-0.03693 0.014,-0.0575 0.031,-0.106364 0.0692,-0.152663 5.2e-4,-6.29e-4 7.08e-4,0.0015 0.0011,0.0021 -0.0083,0.01021 -0.01661,0.02044 -0.02492,0.03067 -0.07711,0.08664 -0.157127,0.170383 -0.248114,0.242846 -0.140957,0.11287 -0.290838,0.214006 -0.441157,0.313875 -0.200219,0.138242 -0.408033,0.264439 -0.613068,0.395331 -0.238224,0.158808 -0.473055,0.32351 -0.694078,0.505784 -0.08299,0.06881 -0.165646,0.138682 -0.252691,0.202394 -0.126098,0.09229 -0.257779,0.176803 -0.389019,0.261468 -0.330888,0.205582 -0.665623,0.404866 -1.004891,0.596346 -0.341955,0.194061 -0.682591,0.39073 -1.035768,0.564054 -0.373564,0.187148 -0.750926,0.366293 -1.129469,0.543129 -0.490884,0.227392 -0.980233,0.458622 -1.480445,0.665095 -0.125392,0.05097 -0.309922,0.127036 -0.440478,0.176452 -0.103893,0.03932 -0.211518,0.07894 -0.321433,0.09885 -0.0185,0.0034 -0.03733,0.0045 -0.05599,0.0067 -0.06649,0.0012 -0.03279,0.0024 -0.10045,-0.0039 -0.0082,-7.47e-4 -0.01632,-0.0013 -0.02444,-0.0023 -0.0055,-6.48e-4 -0.0111,-0.0034 -0.01664,-0.0025 -0.0019,2.75e-4 0.0057,0.0047 0.0038,0.0044 -0.0058,-8.99e-4 -0.01097,-0.0043 -0.01644,-0.0064 -8.42e-4,2.55e-4 -0.003,4.7e-5 -0.0025,7.64e-4 0.0064,0.009 0.01622,0.01489 0.02324,0.02333 0.0016,0.0019 -0.0049,-0.0016 -0.0067,-0.0035 -0.0073,-0.0077 -0.01405,-0.01593 -0.02107,-0.02388 -0.07721,-0.09012 0.04526,0.0635 -0.03705,-0.04493 -0.0069,-0.0091 -0.01263,-0.01919 -0.02064,-0.02731 -0.0024,-0.0024 0.0029,0.0062 0.0043,0.0093 -0.06311,-0.10127 -0.111332,-0.210719 -0.16045,-0.319173 -0.0342,-0.07369 -0.06918,-0.147205 -0.101421,-0.22178 -0.0111,-0.02579 -0.01929,-0.05295 -0.03224,-0.07788 -3.54e-4,-6.81e-4 -8.2e-4,0.0013 -0.0012,0.0019 -0.219318,-0.986932 -1.615047,-0.67677 -1.395729,0.310161 z" /><path
       style="fill:#323232;fill-opacity:1;stroke:#171717;stroke-width:0;stroke-dasharray:none;stroke-opacity:0.0912863"
       id="path17"
       d="m -43.045358,60.944969 c -0.0472,0.04224 -0.09713,0.0816 -0.141586,0.126712 -0.155712,0.158008 -0.303603,0.356405 -0.415573,0.547743 -0.0384,0.06561 -0.07852,0.131127 -0.105494,0.202204 -0.03622,0.09543 -0.0554,0.196481 -0.08309,0.294722 0.04513,0.192176 0.0247,0.413064 0.135372,0.576525 0.226013,0.333823 0.573366,0.407159 0.93142,0.370363 0.124056,-0.01275 0.244368,-0.05662 0.358635,-0.106579 0.242927,-0.106213 0.33385,-0.209733 0.52293,-0.376491 0.145645,-0.166601 0.180085,-0.190091 0.291213,-0.377114 0.03262,-0.05492 0.05783,-0.113904 0.08675,-0.170856 0.432595,-0.91378 -0.859685,-1.525562 -1.292281,-0.611783 v 0 c -0.0071,0.04609 -0.03242,0.07948 -0.06229,0.115481 -0.01565,0.01852 -0.03371,0.03526 -0.04693,0.05558 -0.0054,0.0084 -0.01261,0.02 -0.0081,0.02896 0.0054,0.01085 0.02028,0.01359 0.03157,0.01793 0.04711,0.01808 0.103249,0.0183 0.143179,0.04915 0.361168,0.279129 0.267806,0.245375 0.313644,0.693276 -0.01415,0.02624 -0.01948,0.05971 -0.04243,0.07874 -0.01888,0.01566 0.01719,-0.04613 0.02903,-0.06761 0.04082,-0.07408 0.098,-0.153499 0.148551,-0.22093 0.01729,-0.02305 0.03783,-0.04367 0.05381,-0.06764 0.0014,-0.0021 -0.0049,-0.0014 -0.0073,-0.002 0.817637,-0.594644 -0.02332,-1.750957 -0.840955,-1.156313 z" /><path
       style="fill:#323232;fill-opacity:1;stroke:#171717;stroke-width:0;stroke-dasharray:none;stroke-opacity:0.0912863"
       id="path18"
       d="m -6.2726353,30.051335 c 0.1279887,0.256886 0.2761001,0.502663 0.4207363,0.750339 0.115418,0.187432 0.2158176,0.382283 0.3000879,0.585454 0.069795,0.176524 0.1417234,0.352248 0.2149992,0.5274 0.082506,0.211078 0.1954627,0.40757 0.299243,0.608407 0.097588,0.174275 0.1864719,0.353244 0.2791807,0.530164 0.1038547,0.18235 0.2098342,0.36347 0.3251147,0.538851 0.07779,0.111534 0.1425455,0.232144 0.2072353,0.351713 0.066189,0.135755 0.1492652,0.261888 0.2321157,0.387791 0.050124,0.07169 0.062041,0.08884 0.102228,0.162311 0.5071252,0.874618 1.7440213,0.157434 1.2368962,-0.717183 v 0 c -0.046354,-0.07882 -0.091106,-0.159055 -0.1457938,-0.232682 -0.06117,-0.09229 -0.1229965,-0.184126 -0.170151,-0.284716 -0.084309,-0.153845 -0.1684953,-0.30869 -0.268161,-0.45321 -0.089454,-0.135736 -0.1705444,-0.276439 -0.2530443,-0.416508 -0.091497,-0.174605 -0.1793928,-0.3512 -0.2755794,-0.523246 -0.086213,-0.166628 -0.1815995,-0.328766 -0.2503887,-0.503775 -0.073515,-0.175509 -0.1456349,-0.351528 -0.2154582,-0.528492 -0.1099452,-0.260138 -0.2359453,-0.512415 -0.3838576,-0.753302 -0.129034,-0.220949 -0.2624575,-0.439519 -0.3765666,-0.668732 -0.4521349,-0.904271 -1.7309675,-0.264855 -1.2788314,0.639416 z" /><path
       style="fill:#424242;fill-opacity:1;stroke:#171717;stroke-width:0;stroke-dasharray:none;stroke-opacity:0.0912863"
       id="path20"
       d="m -39.757989,64.198322 c -0.02035,-0.04213 -0.04656,-0.0843 -0.05389,-0.131194 -0.02991,-0.111295 -0.0673,-0.219853 -0.111484,-0.326206 -0.04345,-0.0928 -0.01628,-0.03766 -0.07248,-0.14308 -0.0035,-0.0066 -0.02547,-0.04635 -0.02392,-0.05666 0.01759,0.05498 0.0074,-0.04522 0.0073,-0.0505 -0.0015,-0.09087 -9.3e-4,-0.181761 -7e-4,-0.272639 3.56e-4,-0.119542 4.15e-4,-0.239092 4.67e-4,-0.358638 0.0037,-0.190653 -0.01185,-0.380498 -0.03395,-0.569631 -0.0173,-0.08521 -0.01372,-0.16736 -0.0039,-0.252594 0.01816,-0.09966 0.03855,-0.198849 0.06239,-0.2973 0.02159,-0.0833 0.04237,-0.166812 0.06406,-0.250087 0.01473,-0.05653 0.0061,-0.03739 0.02049,-0.06575 0.02865,-0.06937 0.06807,-0.1339 0.109668,-0.196163 0.0589,-0.09619 0.13226,-0.182347 0.199605,-0.272593 0.0411,-0.05164 0.08739,-0.09874 0.13141,-0.147814 0.01456,-0.01021 0.09528,-0.09925 0.03508,-0.03224 0.01135,-0.0071 -0.01579,0.01248 -0.01072,0.01148 0.02658,-0.005 0.05047,-0.01957 0.07575,-0.02922 0.03176,-0.01211 0.0759,-0.02748 0.107385,-0.03861 0.106251,-0.04029 0.215139,-0.07267 0.323585,-0.106402 0.04629,-0.0086 0.08996,-0.03188 0.136403,-0.03961 0.0081,-0.0014 -0.03118,0.0083 -0.02302,0.0083 0.01787,5e-6 0.03528,-0.0055 0.05294,-0.0083 0.145757,-0.01712 0.29078,-0.03807 0.43519,-0.06417 0.09931,-0.01567 0.199153,-0.02782 0.29861,-0.04253 0.09234,-0.01446 0.18512,-0.0257 0.277599,-0.0391 0.07369,-0.01335 0.148446,-0.01566 0.223091,-0.01769 0.109668,-0.0023 0.21949,-0.0044 0.328771,0.0066 0.0096,0.0016 0.01951,0.002 0.02889,0.0048 0.002,6.01e-4 -0.0054,-2.36e-4 -0.0062,0.0018 -6.57e-4,0.0016 0.0059,0.0037 0.0042,0.0034 -0.02036,0.0012 -0.03589,-0.01456 -0.05484,-0.01777 -0.004,-6.87e-4 0.0064,0.005 0.0097,0.0076 0.02187,-0.0014 0.0021,0.0054 0.0042,0.0074 0.03956,0.03889 0.08215,0.07504 0.122214,0.113489 0.09734,0.09234 0.20229,0.175908 0.307546,0.258895 0.03224,0.03724 0.07111,0.06861 0.108167,0.100967 -0.0064,-0.0055 -0.02509,-0.02313 -0.01934,-0.01681 0.01059,0.0116 0.02262,0.02165 0.03376,0.03266 0.0034,0.0034 -0.01382,-0.01306 -0.01047,-0.0097 0.01325,0.01362 0.02702,0.02674 0.04034,0.04031 0.002,0.002 -0.0044,-0.0035 -0.0063,-0.0057 -0.01009,-0.01084 -0.01976,-0.02216 -0.02965,-0.03323 0.06001,0.0765 0.03744,0.04891 0.09295,0.120223 -0.01122,-0.0079 -0.01596,-0.02223 -0.02449,-0.03294 -0.0029,-0.0037 0.0098,0.01618 0.0074,0.01211 -0.0043,-0.0071 -0.01704,-0.02825 -0.01289,-0.02111 0.01173,0.02018 0.02362,0.04026 0.03543,0.0604 0.01714,0.02532 0.03459,0.05043 0.0514,0.07595 0.01009,0.01522 -0.02154,-0.02947 -0.03103,-0.04503 -0.01047,-0.01709 -0.01822,-0.03569 -0.02865,-0.05277 -0.0047,-0.0076 0.01439,0.03228 0.0111,0.02407 -0.03595,-0.09007 0.0013,0.01135 -0.02415,-0.05918 -0.0044,-0.01497 -0.0062,-0.01984 -0.0092,-0.03415 -0.0011,-0.005 -0.0034,-0.02037 -0.0028,-0.01525 0.0072,0.05785 0.01785,0.112455 0.02985,0.169645 0.02057,0.09706 0.06106,0.187633 0.100753,0.277906 -0.0013,-0.0026 -0.005,-0.01072 -0.0039,-0.0079 0.02309,0.0579 0.02908,0.07343 0.04989,0.129421 9.43e-4,0.0069 -0.0048,-0.01185 -0.0039,-0.0087 0.02992,0.109403 -0.01532,-0.07547 0.01522,0.06494 0.0084,0.05159 0.02067,0.102568 0.02572,0.154686 0.0042,0.0526 0.0047,0.105406 0.0052,0.158134 -3e-4,-0.0053 -6e-4,-0.01059 -9.02e-4,-0.01594 -0.06174,1.009118 1.365368,1.096435 1.427109,0.08731 v 0 c 0.0012,-0.02918 0.0023,-0.05836 0.0035,-0.08754 -0.0012,-0.103312 -0.0035,-0.206752 -0.01497,-0.309531 -0.01223,-0.09868 -0.02971,-0.196421 -0.04917,-0.293908 -0.02077,-0.09265 -0.04217,-0.185239 -0.07759,-0.273678 0.0019,0.0059 0.0076,0.02371 0.0055,0.01783 -0.02311,-0.06611 -0.04724,-0.131626 -0.07519,-0.19585 -0.0049,-0.01097 -0.0095,-0.02197 -0.01464,-0.03277 -8.17e-4,-0.0018 0.0024,0.0072 0.0016,0.0054 -0.0039,-0.0091 -0.0066,-0.01888 -0.01122,-0.02764 -0.0026,-0.005 0.0037,0.01084 0.0052,0.01637 0.0014,0.0048 0.0128,0.04956 0.0037,0.01448 0.0013,0.0082 0.0037,0.01623 0.0038,0.02449 9e-5,0.0079 -0.0023,-0.01575 -0.0038,-0.02357 -1.82e-4,-9.55e-4 -9.7e-5,0.0039 -2.27e-4,0.0029 -0.0087,-0.06427 -0.01609,-0.128778 -0.03514,-0.191135 -0.03865,-0.123577 -0.08025,-0.215116 -0.152653,-0.323931 -0.01059,-0.01596 0.02069,0.03231 0.03103,0.04846 -0.0066,-0.01084 -0.0111,-0.02313 -0.01955,-0.03261 -0.0071,-0.0079 0.02047,0.03692 0.01523,0.02775 -0.03716,-0.06523 -0.07389,-0.131047 -0.122833,-0.188584 0.0471,0.0665 -0.0592,-0.0765 -0.05942,-0.07674 -0.0066,-0.0072 0.02281,0.03116 0.01712,0.02337 -0.0091,-0.01248 -0.01823,-0.02493 -0.02735,-0.03739 -0.07062,-0.08534 -0.120311,-0.137644 -0.201035,-0.212704 -0.05144,-0.04489 -0.102922,-0.09858 -0.163294,-0.146716 -0.06932,-0.05465 -0.13917,-0.108696 -0.203926,-0.168806 -0.104675,-0.100085 -0.210266,-0.200546 -0.329787,-0.28296 -0.07151,-0.04586 -0.106313,-0.07079 -0.189039,-0.109517 -0.143485,-0.06717 -0.298809,-0.104182 -0.455938,-0.120033 -0.164101,-0.01309 -0.3285,-0.01709 -0.493077,-0.01122 -0.131629,0.004 -0.263308,0.0111 -0.393393,0.03294 -0.09306,0.01537 -0.187367,0.02343 -0.280367,0.03952 -0.112278,0.01826 -0.225868,0.02846 -0.337814,0.04905 -0.134369,0.0243 -0.269553,0.04174 -0.405018,0.05905 -0.12475,0.01992 -0.247407,0.04712 -0.367444,0.08663 -0.126112,0.03934 -0.252658,0.07754 -0.376388,0.123993 -0.174579,0.06212 -0.351243,0.124787 -0.506954,0.22742 -0.02798,0.02024 -0.05683,0.03933 -0.08394,0.0607 -0.07623,0.06007 -0.143407,0.130595 -0.209794,0.20103 -0.01712,0.02118 1.6e-4,2.1e-4 -0.03894,0.04233 -0.05925,0.06384 -0.115922,0.130106 -0.168687,0.19943 -0.08476,0.114762 -0.177423,0.224061 -0.251129,0.346681 -0.103174,0.160744 -0.198539,0.327324 -0.262097,0.508261 -0.04837,0.147697 -0.08592,0.298161 -0.123425,0.448968 -0.03854,0.161653 -0.07333,0.324561 -0.09485,0.489447 -0.0174,0.186995 -0.02322,0.374683 0.0067,0.560964 0.01576,0.133543 0.02813,0.267398 0.02417,0.402124 -5.2e-5,0.118558 -1.1e-4,0.23711 -4.63e-4,0.355665 -2.71e-4,0.107625 -10e-4,0.215285 0.0015,0.322898 0.0059,0.164551 0.02099,0.329318 0.07561,0.485982 0.0369,0.09866 0.07768,0.198154 0.131213,0.287672 2.61e-4,-0.0084 -2.55e-4,-0.0057 0.0059,0.01173 0.01084,0.03074 0.02016,0.06222 0.02947,0.09348 0.0047,0.01552 0.009,0.03115 0.01342,0.04672 0.04671,0.15439 0.105557,0.304737 0.186419,0.444822 0.501599,0.877798 1.742995,0.16843 1.241395,-0.709368 z" /><rect
       style="fill:#424242;fill-opacity:1;stroke:#171717;stroke-width:0;stroke-dasharray:none;stroke-opacity:0.0912863"
       id="rect20"
       width="7.0867052"
       height="9.1768856"
       x="-69.156624"
       y="28.378006"
       rx="2.5161657"
       ry="1.7732598"
       transform="rotate(-32.121906)" /></g></svg>
