<?xml version="1.0" encoding="UTF-8" standalone="no"?>
<!-- Created with Inkscape (http://www.inkscape.org/) -->

<svg
   width="48.238998mm"
   height="5.8499999mm"
   viewBox="0 0 48.238998 5.8499998"
   version="1.1"
   id="svg5"
   xml:space="preserve"
   inkscape:version="1.3.2 (091e20e, 2023-11-25, custom)"
   sodipodi:docname="svd_world.svg"
   xmlns:inkscape="http://www.inkscape.org/namespaces/inkscape"
   xmlns:sodipodi="http://sodipodi.sourceforge.net/DTD/sodipodi-0.dtd"
   xmlns="http://www.w3.org/2000/svg"
   xmlns:svg="http://www.w3.org/2000/svg"><sodipodi:namedview
     id="namedview7"
     pagecolor="#505050"
     bordercolor="#ffffff"
     borderopacity="1"
     inkscape:showpageshadow="0"
     inkscape:pageopacity="0"
     inkscape:pagecheckerboard="1"
     inkscape:deskcolor="#505050"
     inkscape:document-units="mm"
     showgrid="false"
     inkscape:zoom="2.8284271"
     inkscape:cx="114.5513"
     inkscape:cy="-1.5909903"
     inkscape:window-width="1920"
     inkscape:window-height="1009"
     inkscape:window-x="-8"
     inkscape:window-y="-8"
     inkscape:window-maximized="1"
     inkscape:current-layer="layer1" /><defs
     id="defs2"><inkscape:path-effect
       effect="fillet_chamfer"
       id="path-effect5681"
       is_visible="true"
       lpeversion="1"
       nodesatellites_param="F,0,0,1,0,0.13022528,0,1 @ F,0,0,1,0,0.40340994,0,1 @ F,0,0,1,0,0.40340994,0,1 @ F,0,1,1,0,0.13022528,0,1"
       unit="px"
       method="auto"
       mode="F"
       radius="0"
       chamfer_steps="1"
       flexible="false"
       use_knot_distance="true"
       apply_no_radius="true"
       apply_with_radius="true"
       only_selected="false"
       hide_knots="false" /><inkscape:path-effect
       effect="fillet_chamfer"
       id="path-effect5679"
       is_visible="true"
       lpeversion="1"
       nodesatellites_param="F,0,0,1,0,0,0,1 @ F,0,0,1,0,0,0,1 @ F,0,0,1,0,0,0,1 @ F,0,0,1,0,0.30813358,0,1 @ F,0,1,1,0,0.30813358,0,1 @ F,0,0,1,0,0,0,1"
       unit="px"
       method="auto"
       mode="F"
       radius="0"
       chamfer_steps="1"
       flexible="false"
       use_knot_distance="true"
       apply_no_radius="true"
       apply_with_radius="true"
       only_selected="false"
       hide_knots="false" /><inkscape:path-effect
       effect="fillet_chamfer"
       id="path-effect5009"
       is_visible="true"
       lpeversion="1"
       nodesatellites_param="F,0,1,1,0,0.2234803,0,1 @ F,0,0,1,0,0.2234803,0,1 @ F,0,0,1,0,0,0,1 @ F,0,0,1,0,0,0,1"
       unit="px"
       method="auto"
       mode="F"
       radius="0"
       chamfer_steps="1"
       flexible="false"
       use_knot_distance="true"
       apply_no_radius="true"
       apply_with_radius="true"
       only_selected="false"
       hide_knots="false" /><inkscape:path-effect
       effect="fillet_chamfer"
       id="path-effect3009"
       is_visible="true"
       lpeversion="1"
       nodesatellites_param="F,0,0,1,0,0,0,1 @ F,0,1,1,0,0.012714645,0,1 @ F,0,0,1,0,0.032170229,0,1 @ F,0,0,1,0,0.032170229,0,1 @ F,0,0,1,0,0.012714645,0,1 @ F,0,0,1,0,0,0,1 @ F,0,0,1,0,0,0,1 @ F,0,0,1,0,0,0,1 @ F,0,0,1,0,0,0,1"
       unit="px"
       method="auto"
       mode="F"
       radius="0"
       chamfer_steps="1"
       flexible="false"
       use_knot_distance="true"
       apply_no_radius="true"
       apply_with_radius="true"
       only_selected="false"
       hide_knots="false" /></defs><g
     inkscape:label="Layer 1"
     inkscape:groupmode="layer"
     id="layer1"
     transform="translate(-115.22744,-139.00789)"><rect
       style="fill:#3c3c3c;fill-opacity:1;stroke:#171717;stroke-width:0.784236;stroke-linecap:round;stroke-linejoin:round;stroke-dasharray:none;stroke-opacity:1;paint-order:markers fill stroke"
       id="rect5677"
       width="1.3092098"
       height="5.3758068"
       x="141.10536"
       y="-163.09135"
       rx="0"
       ry="0"
       transform="rotate(90)" /><rect
       style="fill:#3c3c3c;fill-opacity:1;stroke:#171717;stroke-width:0.115434;stroke-opacity:1"
       id="rect1"
       width="0.64227515"
       height="1.5429476"
       x="161.01277"
       y="139.1685" /><g
       id="g884"
       transform="matrix(0,0.53056344,-0.36039984,0,160.39105,139.20462)"><path
         style="fill:#e4c48b;stroke:#241a08;stroke-width:1.75px;stroke-opacity:1"
         d="m 0.572,83.769 c 0.022,-0.116 0.293,-0.433 0.293,-0.433 l 1.396,-1.911 5.453,-0.061 1.436,1.905 c 0,0 0.302,0.381 0.327,0.5 0.019,0.104 -0.147,0.613 -0.147,0.613 0,0 -0.352,12.06 -0.424,12.67 -0.681,5.966 -0.034,20.164 -0.034,20.164 0,0 0.042,0.317 0.034,0.487 -0.002,0.101 -0.058,0.404 -0.058,0.404 l -0.509,4.418 c 0,1.496 -2.947,1.87 -3.249,1.867 -0.31,-0.004 -3.382,-0.371 -3.382,-1.867 l -0.514,-4.368 c 0,0 -0.051,-0.33 -0.056,-0.431 -0.002,-0.107 0.024,-0.453 0.024,-0.453 0,0 0.668,-13.933 -0.024,-20.144 C 1.072,96.501 0.676,84.255 0.676,84.255 c 0,0 -0.124,-0.379 -0.104,-0.486 z"
         id="path4" /><rect
         style="fill:#5f5f5f;stroke:#181818;stroke-width:0.775px;stroke-opacity:1"
         x="3.0969999"
         y="81.581001"
         width="3.6429999"
         height="8.7580004"
         rx="1.4011254"
         ry="0.99507225"
         id="rect6" /><rect
         style="fill:#646464;stroke:#171717;stroke-width:1.75px;stroke-opacity:1"
         x="2.973"
         width="4.257"
         height="5.7049999"
         rx="1.4011254"
         ry="0.99507225"
         id="rect8"
         y="0" /><rect
         style="fill:#444444;stroke:#171717;stroke-width:0.775px;stroke-opacity:1"
         y="47.483002"
         width="10.081"
         height="12.26"
         rx="1.4011254"
         ry="0.99507225"
         id="rect10"
         x="0" /><rect
         style="fill:#393939;stroke:#181818;stroke-width:1.75px;stroke-opacity:1"
         x="2.4030001"
         y="1.99"
         width="5.3969998"
         height="45.130001"
         rx="1.4011254"
         ry="0.99507225"
         id="rect12" /><rect
         style="fill:#5f5f5f;stroke:#161616;stroke-width:1.75px;stroke-opacity:1"
         x="2.2279999"
         y="43.692001"
         width="5.6680002"
         height="12.26"
         rx="1.4011254"
         ry="0.99507225"
         id="rect14" /><path
         d="M 2.027,46.603 C 2.136,46.461 2.362,46.478 2.362,46.478 L 7.81,46.446 c 0,0 0.218,-0.043 0.321,0.09 0.133,0.172 0.11,0.642 0.11,0.642 v 22.666 c 0,0 -0.011,0.397 -0.083,0.63 -0.038,0.123 -0.13,0.411 -0.13,0.411 L 6.814,72.52 c 0,0 -0.21,0.238 -0.335,0.306 -0.154,0.084 -0.447,0.068 -0.447,0.068 l -2.035,0.017 c 0,0 -0.276,-0.015 -0.41,-0.091 C 3.447,72.743 3.248,72.483 3.248,72.483 L 2.315,71.199 c 0,0 -0.255,-0.398 -0.331,-0.64 C 1.913,70.324 1.902,69.875 1.902,69.875 V 47.208 c 0,0 -0.009,-0.433 0.125,-0.605 z"
         style="fill:#444444;stroke:#161616;stroke-width:1.75px;stroke-opacity:1"
         id="path16" /><path
         d="m 1.466,61.48 c 0.109,-0.141 0.336,-0.125 0.336,-0.125 h 6.482 c 0,0 0.218,-0.043 0.321,0.089 0.133,0.173 0.11,0.642 0.11,0.642 v 22.666 c 0,0 -0.011,0.398 -0.084,0.63 -0.037,0.124 -0.129,0.411 -0.129,0.411 l -1.215,1.635 c 0,0 -0.209,0.238 -0.334,0.306 -0.154,0.084 -0.447,0.069 -0.447,0.069 l -3.07,-0.015 c 0,0 -0.276,-0.016 -0.411,-0.09 C 2.887,87.621 2.688,87.36 2.688,87.36 L 1.754,86.077 c 0,0 -0.256,-0.398 -0.33,-0.64 C 1.352,85.202 1.34,84.752 1.34,84.752 V 62.086 c 0,0 -0.008,-0.434 0.126,-0.606 z"
         style="fill:#5f5f5f;stroke:#161616;stroke-width:1.75px;stroke-opacity:1"
         id="path18" /><rect
         style="fill:#5f5f5f;fill-opacity:0;stroke:#171717;stroke-opacity:1"
         x="4.3280001"
         y="61.234001"
         width="1.449"
         height="26.122"
         id="rect20" /><rect
         style="fill:#444444;stroke:#171717;stroke-width:0.775px;stroke-opacity:1"
         x="3.635"
         y="3.9200001"
         width="2.9330001"
         height="8.0010004"
         rx="1.4011254"
         ry="0.99507225"
         id="rect22" /><rect
         style="fill:#444444;stroke:#171717;stroke-width:0.775px;stroke-opacity:1"
         x="4.552"
         y="5.9530001"
         width="1.099"
         height="4.3540001"
         rx="0.70056272"
         ry="0.49753612"
         id="rect24" /><rect
         style="fill:#444444;stroke:#171717;stroke-width:0.775px;stroke-opacity:1"
         x="3.635"
         y="23.563"
         width="2.9330001"
         height="17.024"
         rx="1.4011254"
         ry="0.99507225"
         id="rect26" /><rect
         style="fill:#444444;stroke:#171717;stroke-width:0.775px;stroke-opacity:1"
         x="4.3775005"
         y="35.759998"
         width="1.448"
         height="3.3139999"
         rx="0.70056272"
         ry="0.49753612"
         id="rect28" /><rect
         style="fill:#444444;stroke:#171717;stroke-width:0.775px;stroke-opacity:1"
         x="4.3775005"
         y="25.08"
         width="1.448"
         height="2.3770001"
         rx="0.70056272"
         ry="0.49753612"
         id="rect30" /><rect
         style="fill:#161616;fill-opacity:1;stroke:none;stroke-width:0px;stroke-opacity:1"
         x="141.783"
         y="279.59698"
         width="3.678"
         height="0.80699998"
         transform="matrix(0,1,1,0,-270.26282,-70.142593)"
         id="rect32" /><circle
         style="fill:#161616;fill-opacity:1;stroke:#000000;stroke-width:0px;stroke-opacity:1"
         cx="9.5600004"
         cy="75.521004"
         id="ellipse34"
         r="1.096" /><rect
         style="fill:#5f5f5f;stroke:#181818;stroke-width:0.775px;stroke-opacity:1"
         x="0.205"
         y="64.569"
         width="9.5389996"
         height="1.719"
         rx="0.70056272"
         ry="0.49753612"
         id="rect36" /><rect
         style="fill:#5f5f5f;stroke:#181818;stroke-width:0.775px;stroke-opacity:1"
         x="0.20200001"
         y="69.642998"
         width="9.5389996"
         height="1.98"
         rx="0.70056272"
         ry="0.49753612"
         id="rect38" /><rect
         style="fill:#5f5f5f;stroke:#171717;stroke-width:0.775px;stroke-opacity:1"
         x="0.177"
         y="75.486"
         width="9.5389996"
         height="1.719"
         rx="0.70056272"
         ry="0.49753612"
         id="rect40" /><rect
         style="fill:#5f5f5f;stroke:#181818;stroke-width:0.775px;stroke-opacity:1"
         x="0.17399999"
         y="80.559998"
         width="9.5389996"
         height="1.98"
         rx="0.70056272"
         ry="0.49753612"
         id="rect42" /></g><path
       style="fill:#775426;fill-opacity:1;stroke:#171717;stroke-width:0.0198058;stroke-opacity:1"
       d="m 128.51269,143.63344 c -0.0733,-0.004 -0.58802,-0.028 -1.14336,-0.0539 -1.47007,-0.0685 -1.85019,-0.0916 -2.11134,-0.12908 -1.27051,-0.17982 -3.68425,-0.18791 -6.66334,-0.0222 l -0.65464,0.0362 -0.41358,-0.0714 c -0.22755,-0.0393 -0.45314,-0.0779 -0.50131,-0.0858 l -0.0873,-0.0144 v -1.415 -1.41507 l 0.50931,-0.0877 0.50942,-0.0877 0.40438,0.0257 c 1.7393,0.11098 3.76261,0.16057 4.97875,0.12219 0.95767,-0.0301 1.25504,-0.0497 1.81843,-0.12052 0.20195,-0.0252 0.57377,-0.0569 0.82619,-0.0705 0.25238,-0.0136 0.64306,-0.0348 0.86796,-0.0472 1.01882,-0.0559 1.90105,-0.0966 1.941,-0.0894 0.0396,0.007 0.0328,0.0196 -0.0861,0.15158 -0.0734,0.0808 -0.15376,0.19495 -0.18435,0.2616 l -0.0549,0.11789 -0.20297,0.0103 c -0.16238,0.008 -0.21987,0.0207 -0.28795,0.0626 -0.10544,0.0648 -0.21001,0.21237 -0.26046,0.36709 -0.0359,0.11083 -0.038,0.15045 -0.0426,0.69973 -0.008,0.66423 0.006,0.75068 0.10917,0.94296 0.036,0.0664 0.10161,0.14594 0.1548,0.18819 0.0855,0.068 0.10417,0.073 0.29296,0.0806 l 0.20112,0.008 0.0356,0.11023 c 0.0337,0.10506 0.18784,0.33418 0.32116,0.47917 l 0.0595,0.0632 -0.10023,-0.004 c -0.0556,-0.002 -0.16035,-0.008 -0.23365,-0.0113 z"
       id="path8" /><path
       style="fill:#775426;fill-opacity:1;stroke:#171717;stroke-width:0.0928204;stroke-opacity:0"
       d="m 116.3404,143.25727 c -0.21266,-0.0294 -0.3245,-0.11991 -0.43658,-0.3524 -0.20652,-0.42904 -0.20527,-1.5735 0.003,-2.00483 0.15166,-0.31485 0.23805,-0.35994 0.87385,-0.45516 l 0.32914,-0.0489 v 1.46638 1.46634 l -0.24143,-0.0157 c -0.13273,-0.009 -0.36994,-0.0333 -0.52733,-0.0551 z"
       id="path10" /><path
       style="fill:#775426;fill-opacity:1;stroke:#171717;stroke-width:0.0140049;stroke-opacity:0"
       d="m 144.96091,141.90996 v -0.97222 l 0.52819,8.2e-4 0.52815,8.2e-4 -0.0747,0.043 c -0.10555,0.0605 -0.20256,0.19128 -0.25533,0.34331 -0.0571,0.16306 -0.0698,0.30057 -0.0624,0.6754 0.007,0.26767 0.01,0.32033 0.0325,0.4072 0.0596,0.21747 0.16762,0.37163 0.31742,0.44932 0.036,0.0187 -0.0334,0.0221 -0.48571,0.023 l -0.5282,0.001 z"
       id="path15" /><path
       style="fill:#775426;fill-opacity:1;stroke:#171717;stroke-width:0.0198058;stroke-opacity:0"
       d="m 146.01062,142.43892 c -0.0247,-0.0185 -0.0613,-0.0814 -0.0807,-0.14052 -0.0332,-0.0962 -0.0358,-0.13559 -0.0301,-0.41758 0.01,-0.46623 0.0497,-0.53429 0.31692,-0.53429 h 0.15578 l -0.0602,0.0596 c -0.0327,0.0328 -0.0771,0.1044 -0.0998,0.15865 -0.0349,0.0863 -0.0395,0.12883 -0.0396,0.34561 -1.8e-4,0.2266 0.005,0.25564 0.0442,0.35565 0.0247,0.0596 0.0708,0.13114 0.10015,0.15828 l 0.0554,0.049 -0.15858,-5.4e-4 c -0.10577,-3.7e-4 -0.17333,-0.0118 -0.20282,-0.0342 z"
       id="path17" /><path
       style="fill:#775426;fill-opacity:1;stroke:#171717;stroke-width:0.0198058;stroke-opacity:0"
       d="m 143.96005,141.88711 v -1.03577 l 0.17945,0.007 0.17944,0.007 v 1.02243 1.02237 l -0.17944,0.007 -0.17945,0.007 z"
       id="path19" /><path
       style="fill:#775426;fill-opacity:1;stroke:#171717;stroke-width:0.0198058;stroke-opacity:0"
       d="m 146.46793,142.08306 c -0.033,-0.0188 -0.0276,-0.32797 0.008,-0.34625 0.0145,-0.008 0.21213,-0.0142 0.43896,-0.0142 0.2986,0 0.4181,0.008 0.4326,0.0281 0.0264,0.0364 0.0264,0.28305 0,0.31969 -0.0149,0.0204 -0.13368,0.0276 -0.43817,0.0262 -0.2299,-0.001 -0.42745,-0.007 -0.43889,-0.0136 z"
       id="path20" /><path
       style="fill:#775426;fill-opacity:1;stroke:#171717;stroke-width:0.0198058;stroke-opacity:0"
       d="m 147.49486,142.42456 c 0.0294,-0.027 0.0746,-0.0978 0.1,-0.15819 0.0405,-0.0982 0.0443,-0.13086 0.0445,-0.34394 1.7e-4,-0.19982 -0.008,-0.25199 -0.0386,-0.34763 -0.0229,-0.0637 -0.0661,-0.13739 -0.0998,-0.17043 l -0.061,-0.0576 h 1.56006 1.56002 l -0.0624,0.0593 c -0.10603,0.10149 -0.13746,0.21694 -0.13746,0.50458 0,0.21955 0.006,0.25832 0.041,0.35153 0.0236,0.0574 0.068,0.12904 0.0985,0.15868 l 0.0571,0.0535 -1.55888,-3.9e-4 -1.55885,-4e-4 z"
       id="path21" /><path
       style="fill:#775426;fill-opacity:1;stroke:#171717;stroke-width:0.0198058;stroke-opacity:0"
       d="m 150.65735,142.08306 c -0.0331,-0.0188 -0.0276,-0.32797 0.008,-0.34625 0.0527,-0.0277 0.51668,-0.0157 0.53784,0.0139 0.0242,0.0344 0.0264,0.24004 0.004,0.30241 -0.0165,0.0418 -0.0354,0.0451 -0.27123,0.0434 -0.13964,-0.001 -0.26333,-0.007 -0.27479,-0.0136 z"
       id="path22" /><path
       style="fill:#775426;fill-opacity:1;stroke:#171717;stroke-width:0.0198058;stroke-opacity:0"
       d="m 151.32916,142.43093 c 0.1198,-0.10424 0.15855,-0.23139 0.15855,-0.5203 0,-0.28898 -0.0383,-0.41611 -0.15855,-0.5204 l -0.051,-0.0433 0.1713,-8e-5 0.17135,-9e-5 0.0625,0.08 0.0623,0.0801 v 0.40315 0.40306 l -0.0623,0.0801 -0.0625,0.08 -0.17135,-8e-5 -0.1713,-9e-5 z"
       id="path23" /><rect
       style="fill:#775426;fill-opacity:1;stroke:#171717;stroke-width:0.224077;stroke-opacity:0"
       id="rect23"
       width="0.79075164"
       height="1.9277285"
       x="152.27838"
       y="140.92938"
       rx="0.52794892"
       ry="0.50496536" /><rect
       style="fill:#775426;fill-opacity:1;stroke:#171717;stroke-width:0.224077;stroke-opacity:0"
       id="rect25"
       width="0.36587027"
       height="0.37391272"
       x="152.48198"
       y="142.50826"
       rx="0.52794892"
       ry="0.37207031" /><path
       style="fill:#775426;fill-opacity:1;stroke:#171717;stroke-width:0.00350118;stroke-opacity:0"
       d="m 151.68676,142.86175 c 0.0763,-0.0359 0.13544,-0.0861 0.19444,-0.1679 0.077,-0.10695 0.12846,-0.24411 0.1497,-0.40381 0.008,-0.0451 0.009,-0.0625 0.01,-0.34275 0.002,-0.36571 -7.3e-4,-0.41129 -0.0271,-0.52557 -0.0544,-0.22771 -0.17914,-0.40106 -0.33729,-0.46685 l -0.0247,-0.0104 0.45594,-6e-5 0.4558,-6e-5 -0.0248,0.0115 c -0.0601,0.0276 -0.1067,0.0675 -0.15062,0.12907 -0.0567,0.0777 -0.0923,0.17856 -0.10291,0.2845 -0.006,0.0441 -0.006,1.00319 0,1.04754 0.018,0.17573 0.10573,0.33186 0.22566,0.39888 0.0145,0.008 0.0384,0.0227 0.0551,0.0326 0.0247,0.0158 0.0368,0.0218 0.0606,0.0285 0.005,9.7e-4 -0.21442,0.002 -0.48385,0.002 l -0.48977,3.1e-4 z"
       id="path25" /></g></svg>
