<?xml version="1.0" encoding="UTF-8" standalone="no"?>
<svg
   width="20"
   height="20"
   viewBox="0 0 20 20"
   fill="none"
   version="1.1"
   id="svg44"
   sodipodi:docname="m3k.svg"
   inkscape:version="1.3.2 (091e20e, 2023-11-25, custom)"
   xmlns:inkscape="http://www.inkscape.org/namespaces/inkscape"
   xmlns:sodipodi="http://sodipodi.sourceforge.net/DTD/sodipodi-0.dtd"
   xmlns="http://www.w3.org/2000/svg"
   xmlns:svg="http://www.w3.org/2000/svg">
  <sodipodi:namedview
     id="namedview44"
     pagecolor="#000000"
     bordercolor="#000000"
     borderopacity="0.25"
     inkscape:showpageshadow="2"
     inkscape:pageopacity="0.0"
     inkscape:pagecheckerboard="true"
     inkscape:deskcolor="#aeaeae"
     inkscape:zoom="29.563636"
     inkscape:cx="10.418204"
     inkscape:cy="11.28075"
     inkscape:window-width="1920"
     inkscape:window-height="1009"
     inkscape:window-x="-8"
     inkscape:window-y="-8"
     inkscape:window-maximized="1"
     inkscape:current-layer="svg44" />
  <g
     clip-path="url(#clip0_619_1190)"
     id="g44"
     transform="matrix(0.1835695,0,0,0.1809369,-0.13883283,-0.25774759)"
     style="stroke-width:0.658442;stroke-dasharray:none">
    <path
       d="m 39.6844,53.5334 c -0.0205,0.2208 -0.0365,0.4856 0.0186,0.7671 0.0422,0.2343 0.0512,0.3948 -0.1345,0.502 l -4.6675,2.6948 c -0.1758,0.1015 -0.236,0.3262 -0.1345,0.502 0.1015,0.1757 0.3262,0.236 0.502,0.1345 l 4.9857,-2.8785 c 0.0153,0.0265 0.023,0.0397 0.0335,0.0425 0.0104,0.0028 0.0237,-0.0048 0.0502,-0.0201 l 6.683,-3.8585 c 0.3448,-0.199 0.3691,-0.7081 0.2466,-0.9203 l -0.5971,-1.0343 c -0.2144,-0.3712 -0.6745,-0.4945 -1.364,-0.0964 l -4.3228,2.4957 c -0.4774,0.2756 -1.2388,1.018 -1.2992,1.6695 z"
       fill="#333638"
       id="path1"
       style="stroke-width:0.658442;stroke-dasharray:none" />
    <path
       d="m 46.7562,51.5732 0.2653,-0.1531 c 0.2923,-0.1688 0.3543,-0.5606 0.2918,-0.8052 l -0.8328,0.4808 z"
       fill="#26292c"
       id="path2"
       style="stroke-width:0.658442;stroke-dasharray:none" />
    <path
       d="m 97.75408,18.666942 1.1806,-0.6771 -0.2947,-0.3879 -1.0725,0.6192 z"
       stroke="#2f3337"
       stroke-width="0.417042"
       id="path4"
       inkscape:label="path4"
       style="fill:none;stroke-width:0.658442;stroke-dasharray:none" />
    <path
       d="m 34.45,62.8496 c -0.8371,0.4637 -0.9463,0.9372 -0.9743,1.0587 -0.0347,0.1293 -0.0474,0.239 -0.0445,0.3352 0.0629,-0.0634 0.1331,-0.1044 0.1936,-0.1383 0.1154,-0.0649 0.3259,-0.0754 0.3766,0.1009 0.1879,0.5744 0.4372,0.7529 0.9392,1.0141 0.0644,0.0335 0.1434,-0.0707 0.0602,-0.1408 -0.776,-0.6532 -0.8799,-1.1842 -0.5508,-2.2298 z"
       fill="#36393a"
       stroke="#313435"
       stroke-width="0.417042"
       id="path5"
       style="stroke-width:0.658442;stroke-dasharray:none" />
    <path
       d="m 50.0206,52.9408 c -2.1348,1.1979 -4.0023,2.2942 -5.7583,3.3249 -1.6638,0.9767 -3.2274,1.8945 -4.8232,2.7843 -2.0096,1.1603 -3.9042,2.1109 -6.0532,3.1892 -0.8245,0.4137 -1.6864,0.8462 -2.6066,1.3165 l 0.6417,0.654 c 2.9036,-1.4321 4.5087,-2.272 7.3595,-3.7893 0.1591,-0.0919 0.2713,-0.0168 0.3764,0.1008 0.837,-0.5607 1.3216,-0.8961 2.0591,-1.5782 0.0898,-0.4198 0.1467,-0.6858 0.4823,-0.8795 l 4.2546,-2.4914 0.9159,-0.7409 c 0.213,-0.1818 0.4049,-0.3399 0.6518,-0.341 l 1.9986,0.1545 1.1138,-0.6431 z"
       fill="#424548"
       id="path6"
       style="stroke-width:0.658442;stroke-dasharray:none" />
    <path
       fill-rule="evenodd"
       clip-rule="evenodd"
       d="m 38.7832,60.4205 c -2.7336,1.455 -4.3218,2.287 -7.0078,3.6156 l 1.7615,1.3228 c 0.3707,0.2657 0.88,0.3189 1.103,0.3179 0.7406,-0.0033 1.3761,-0.158 2.3146,-0.523 0.3754,-0.1461 0.7202,-0.3451 1.0149,-0.6921 l 1.2712,-2.8202 c 0.4601,-0.9511 0.7807,-1.444 1.4667,-2.246 -0.4882,0.41 -0.9183,0.7042 -1.5476,1.1259 -0.1052,-0.1176 -0.2174,-0.1928 -0.3765,-0.1009 z m -5.3059,3.4877 c 0.0283,-0.1229 0.1399,-0.6066 1.0055,-1.0756 0.92,-0.4985 1.8176,-0.7103 1.8504,-0.7148 0.7543,-0.1023 1.0377,0.1436 1.2826,0.5679 0.323,0.5595 0.2817,1.1975 -0.1862,1.6986 -0.34,0.3642 -0.9506,0.6196 -1.6371,0.8392 -0.5251,0.1679 -0.9181,0.2472 -1.3211,0.1616 -0.3824,-0.0812 -0.6787,-0.3182 -0.8153,-0.5547 -0.1448,-0.2486 -0.303,-0.4591 -0.1788,-0.9222 z"
       fill="#3c3f41"
       id="path7"
       style="stroke-width:0.658442;stroke-dasharray:none" />
    <path
       d="m 32.8901,64.6711 -0.7737,-0.5437 0.0743,-0.3613 0.6674,-0.3145 0.3429,0.2264 -0.0456,0.84 z"
       fill="#353839"
       id="path8"
       style="stroke-width:0.658442;stroke-dasharray:none" />
    <path
       d="m 27.8052,60.3939 0.7828,0.9271 2.835,2.8893 c 0,0 -0.8572,0.4611 -1.7615,1.0524 -0.9241,0.6043 -1.5064,1.188 -1.855,2.2379 -0.3341,1.0061 -0.2871,1.9309 -0.0787,2.8035 0.3127,1.3088 0.922,2.3319 0.922,2.3319 0.0612,0.106 -0.0213,0.3305 -0.1804,0.4224 l -4.2383,1.8458 c -0.1542,0.0651 -0.1814,0.0406 -0.2494,-0.0207 -0.0323,-0.0292 -0.0737,-0.0666 -0.1424,-0.1067 -0.2407,-0.1403 -0.4307,-0.1526 -0.5969,-0.1151 -0.1713,0.0388 -0.3399,0.119 -0.5263,0.3746 l -6.759,8.8352 0.0173,-0.2399 -0.8894,0.7256 c -0.1438,0.1184 -0.208,0.1908 -0.211,0.3694 l 0.0093,0.3836 0.1302,-0.0051 -3.683,4.8144 -1.80202,2.2072 C 9.33573,92.3441 8.84607,92.4146 8.59398,92.1005 6.36217,89.2545 4.91164,87.4373 2.91435,85.0191 2.78825,84.8659 2.65924,84.7126 2.52808,84.5568 2.17362,84.1356 1.80345,83.6958 1.43244,83.1873 0.901503,82.4597 0.963606,81.7015 1.75721,81.055 4.09924,79.1471 5.51125,78.1765 7.99621,76.4887 L 19.9939,67.6265 c 0.3505,-0.2482 0.5478,-0.3181 0.9028,-0.2737 l 0.5662,0.0621 c 0.4938,-0.0022 0.8717,-0.1439 1.5647,-0.9034 2.1498,-2.3561 3.1886,-3.6964 4.7776,-6.1176 z"
       fill="#484A4B"
       id="path9"
       style="fill:#ffffff;fill-opacity:1;stroke-width:0.658442;stroke-dasharray:none" />
    <path
       d="m 24.1379,74.0727 3.2866,-1.4732 c 0,0 -1.4309,-2.0076 -0.6319,-4.5856 0.7989,-2.5779 3.3827,-3.7564 3.4847,-3.886 l -2.0298,-2.0458 -0.5766,-0.6925 -4.5554,5.7063 c -0.3814,0.5031 -0.9492,1.7857 -1.0479,2.6559 l -0.36,3.6024 c 1.01,-0.088 1.5667,0.0497 2.4303,0.7185 z"
       fill="#404344"
       id="path11"
       style="fill:#c9c9c9;fill-opacity:1;stroke-width:0.658442;stroke-dasharray:none" />
    <path
       d="m 6.78228,77.3144 0.09228,0.1598 0.57334,0.5768 c 0.06757,0.0597 0.10659,0.058 0.17854,0.0031 L 17.8749,70.5105 c 0.1257,-0.1037 0.1724,-0.1604 0.204,-0.2592 l 0.362,-1.4792 -10.4457,7.7158 c -0.43341,0.2944 -0.83417,0.567 -1.21292,0.8265 z"
       fill="#464849"
       stroke="#323334"
       stroke-width="0.417042"
       id="path12"
       style="fill:#cbcbcb;fill-opacity:1;stroke-width:0.658442;stroke-dasharray:none" />
    <path
       d="m 11.3387,89.9052 -0.0104,0.0136 -1.802,2.2073 C 9.33355,92.3434 8.84388,92.414 8.5918,92.0998 6.35999,89.2538 4.90946,87.4367 2.91217,85.0185 2.78607,84.8652 2.65706,84.7119 2.5259,84.5561 2.17144,84.135 1.80127,83.6952 1.43026,83.1867 0.89932,82.459 0.961424,81.7009 1.75503,81.0544 c 0.51299,-0.4179 0.98135,-0.7909 1.42615,-1.1362 -0.06457,0.2545 -0.12017,0.4359 0.02645,0.6511 2.55651,3.7525 4.16744,5.7275 7.41247,8.9804 0.2014,0.2019 0.4277,0.2912 0.7186,0.3555 z"
       fill="#464749"
       stroke="#323334"
       stroke-width="0.417042"
       id="path13"
       style="fill:#e0e0e0;fill-opacity:1;stroke-width:0.658442;stroke-dasharray:none" />
    <path
       fill-rule="evenodd"
       clip-rule="evenodd"
       d="m 15.9728,83.6302 -0.0823,1.1441 c -0.0184,0.1521 -0.1887,0.2858 -0.352,0.3093 l -0.6572,0.0258 -0.0093,-0.3838 c 0.003,-0.1786 0.0672,-0.251 0.2111,-0.3695 z m -0.3344,1.2896 c 0.1099,-0.0634 0.1476,-0.204 0.0841,-0.3138 -0.0634,-0.1099 -0.2039,-0.1476 -0.3138,-0.0841 -0.1099,0.0634 -0.1475,0.2039 -0.0841,0.3138 0.0634,0.1099 0.204,0.1475 0.3138,0.0841 z"
       fill="#424446"
       stroke="#323334"
       stroke-width="0.417042"
       id="path14"
       style="stroke-width:0.658442;stroke-dasharray:none" />
    <path
       d="M 9.2636,92.2836 C 9.04116,92.3494 8.76214,92.3128 8.59172,92.1005 6.35991,89.2545 4.90938,87.4373 2.91209,85.0191 2.78599,84.8658 2.65698,84.7126 2.52582,84.5567 2.48358,84.5065 2.44111,84.4561 2.39844,84.4053 2.95197,84.2055 3.36948,84.2771 3.7047,84.7383 Z"
       fill="#424445"
       stroke="#323334"
       stroke-width="0.417042"
       id="path15"
       style="stroke-width:0.658442;stroke-dasharray:none" />
    <path
       d="m 41.9046,57.943 4.0488,-2.3708 0.9159,-0.741 c 0.213,-0.1818 0.4049,-0.3398 0.6518,-0.3409 l 0.4441,0.0343 0.3641,0.6306 z"
       fill="#36393b"
       stroke="#313335"
       stroke-width="0.834085"
       id="path21"
       style="stroke-width:0.658442;stroke-dasharray:none" />
    <rect
       x="78.419899"
       y="34.6357"
       width="30.132799"
       height="2.3885701"
       transform="rotate(-30,78.4199,34.6357)"
       fill="#373B3F"
       stroke="#303336"
       stroke-width="0.834085"
       id="rect23"
       style="fill:#ffffff;fill-opacity:1;stroke-width:0.658442;stroke-dasharray:none" />
    <path
       d="m 76.3169,35.9556 c 0.4228,1.2709 0.5456,2.1699 0.3355,2.8472 -0.0156,0.0504 -0.0321,0.0971 -0.0496,0.1408 l 3.1708,-2.0842 c -0.1026,-1.3575 -0.409,-1.9036 -1.4087,-2.4399 l -2.2528,1.0923 c 0.1129,0.2439 0.2048,0.4438 0.2048,0.4438 z"
       fill="#41464B"
       stroke="#2f3337"
       stroke-width="0.834085"
       id="path24"
       style="fill:#e5e5e5;fill-opacity:1;stroke-width:0.658442;stroke-dasharray:none" />
    <path
       d="m 104.393,19.3574 1.439,2.4929 3.394,-1.9598 c 0.147,-0.0846 0.197,-0.2719 0.112,-0.4184 l -1.133,-1.9624 c -0.084,-0.1465 -0.271,-0.1967 -0.418,-0.1121 z"
       fill="#32363a"
       stroke="#2f3337"
       stroke-width="0.834085"
       id="path25"
       style="stroke-width:0.658442;stroke-dasharray:none" />
    <path
       d="M 100.21,18.2363 99.8728,17.6529 49.9151,46.1424 c -0.473,0.4283 -0.7833,0.6644 -1.4575,1.089 l -0.966,0.5931 0.1072,0.1856 0.8956,-0.3409 c 0.0433,-0.0246 0.0885,-0.0505 0.1357,-0.0777 l 5.454,-2.9312 c 0.1885,-0.4487 0.3639,-0.679 0.7842,-1.024 l 3.213,-1.7844 c 0.5025,-0.161 0.7605,-0.112 1.1442,-0.0391 0.0361,0.0068 0.0734,0.0139 0.1121,0.0211 l 1.1263,-0.6504 c 0.1854,-0.4517 0.3286,-0.795 0.7468,-1.1383 l 3.107,-1.7231 c 0.5025,-0.161 0.7604,-0.112 1.1441,-0.0391 h 1e-4 c 0.0065,0.0012 0.013,0.0025 0.0195,0.0037 l 1.3631,-0.787 c 0.1684,-0.4067 0.3195,-0.7261 0.7086,-1.0456 l 3.0804,-1.7077 c 0.5099,-0.1634 0.7647,-0.1656 1.1571,-0.1023 l 1.3782,-0.7957 c 0.1419,-0.356 0.2618,-0.6295 0.6206,-0.9241 l 3.2926,-1.8302 c 0.4666,-0.1496 0.7196,-0.164 1.0599,-0.1169 l 1.3387,-0.7729 c 0.1419,-0.356 0.2617,-0.6295 0.6206,-0.9241 L 83.3938,27.45 c 0.4666,-0.1496 0.7196,-0.164 1.0599,-0.1169 l 1.3387,-0.7729 c 0.1418,-0.356 0.2617,-0.6295 0.6206,-0.9241 l 3.2925,-1.8302 c 0.4666,-0.1496 0.7196,-0.164 1.0599,-0.1169 l 1.1944,-0.6896 c 0.1276,-0.3121 0.2561,-0.5632 0.5834,-0.8319 l 3.6373,-2.0293 c 0.4193,-0.1343 0.6661,-0.1596 0.9588,-0.1292 z"
       fill="#353839"
       stroke="#313435"
       stroke-width="0.417042"
       id="path27"
       style="fill:#313435;fill-opacity:1;stroke-width:0.658442;stroke-dasharray:none" />
    <circle
       cx="37.432598"
       cy="61.269299"
       transform="rotate(-30,37.4326,61.2693)"
       fill="#a2352b"
       id="circle28"
       r="0.122203"
       style="stroke-width:0.658442;stroke-dasharray:none" />
    <path
       d="m 27.8052,60.3939 0.7828,0.9271 2.835,2.8893 c 0,0 -0.8572,0.4611 -1.7615,1.0524 -0.9241,0.6043 -1.5064,1.188 -1.855,2.2379 -0.3341,1.0061 -0.2871,1.9309 -0.0787,2.8035 0.3127,1.3088 0.922,2.3319 0.922,2.3319 0.0612,0.106 -0.0213,0.3305 -0.1804,0.4224 l -4.2383,1.8458 c -0.1542,0.0651 -0.1814,0.0406 -0.2494,-0.0207 -0.0323,-0.0292 -0.0737,-0.0666 -0.1424,-0.1067 -0.2407,-0.1403 -0.4307,-0.1526 -0.5969,-0.1151 -0.1713,0.0388 -0.3399,0.119 -0.5263,0.3746 l -6.759,8.8352 0.0173,-0.2399 -0.8894,0.7256 c -0.1438,0.1184 -0.208,0.1908 -0.211,0.3694 l 0.0093,0.3836 0.1302,-0.0051 -3.6831,4.8144 -1.80192,2.2072 C 9.33573,92.3441 8.84607,92.4146 8.59398,92.1005 6.36217,89.2545 4.91164,87.4373 2.91435,85.0191 2.78825,84.8659 2.65924,84.7126 2.52808,84.5568 2.17362,84.1356 1.80345,83.6958 1.43244,83.1873 0.901503,82.4597 0.963606,81.7015 1.75721,81.055 4.09924,79.1471 5.51125,78.1765 7.9962,76.4887 l 11.9977,-8.8622 c 0.3505,-0.2482 0.5478,-0.3181 0.9028,-0.2737 l 0.5662,0.0621 c 0.4938,-0.0022 0.8717,-0.1439 1.5647,-0.9034 2.1498,-2.3561 3.1886,-3.6964 4.7776,-6.1176 z"
       stroke="#323334"
       stroke-width="0.834085"
       id="path29"
       style="stroke-width:0.658442;stroke-dasharray:none" />
    <path
       d="m 40.9836,51.8646 4.0575,-2.3426 0.8102,0.2394 0.6737,1.1669 -0.2466,0.9203 -5.9405,3.4298 c -0.0266,0.0153 -0.0398,0.0229 -0.0503,0.0201 -0.0104,-0.0028 -0.0181,-0.016 -0.0334,-0.0426 l -0.9016,0.5206 -0.3675,-0.6365 0.5834,-0.3368 c 0.1857,-0.1072 0.1767,-0.2678 0.1345,-0.502 l -0.0078,-0.0407 c -0.046,-0.2663 -0.0303,-0.5163 -0.0108,-0.7265 0.0604,-0.6514 0.8218,-1.3938 1.2992,-1.6694 z"
       stroke="#313335"
       stroke-width="0.417042"
       id="path30"
       style="stroke-width:0.658442;stroke-dasharray:none" />
    <path
       d="m 34.9022,57.4978 c -0.1758,0.1015 -0.236,0.3262 -0.1346,0.502 0.1015,0.1757 0.3263,0.2359 0.502,0.1345 l 4.9858,-2.8786 c 0.0153,0.0265 0.023,0.0398 0.0334,0.0426 0.0105,0.0028 0.0237,-0.0048 0.0503,-0.0202 l 6.683,-3.8584 c 0.3448,-0.1991 0.3691,-0.7082 0.2466,-0.9203 l -0.5818,-1.0078 1.0077,-0.5818 2.3274,4.031 c -2.1348,1.1979 -4.0024,2.2942 -5.7583,3.325 -1.6638,0.9766 -3.2274,1.8945 -4.8232,2.7843 -2.0097,1.1602 -3.9042,2.1108 -6.0533,3.1892 -0.8244,0.4136 -1.6863,0.8461 -2.6065,1.3164 l -2.1933,-2.2353 2.1874,-2.642 8.9108,-5.1446 c -0.0205,0.2209 -0.0365,0.4857 0.0186,0.7672 0.0422,0.2342 0.0511,0.3948 -0.1345,0.502 z"
       fill="#45484b"
       id="path31"
       style="stroke-width:0.658442;stroke-dasharray:none" />
    <path
       d="m 47.0305,47.804 c -0.0353,-0.0104 -0.0816,0.0163 -0.1792,0.0726 l -16.7341,9.6615 0.6584,1.1403 8.9107,-5.1446 c 0.0604,-0.6514 0.8218,-1.3938 1.2992,-1.6694 l 4.3228,-2.4958 c 0.6895,-0.3981 1.1496,-0.2748 1.364,0.0965 l 0.0153,0.0265 1.0078,-0.5818 -0.5666,-0.9812 C 47.0853,47.8531 47.0624,47.8134 47.0305,47.804 Z"
       fill="#474b4d"
       id="path32"
       style="stroke-width:0.658442;stroke-dasharray:none" />
    <path
       d="m 28.5877,61.3204 -0.7828,-0.9271 2.3118,-2.8552 16.7342,-9.6615 c 0.0976,-0.0564 0.1439,-0.0831 0.1792,-0.0727 0.0319,0.0094 0.0548,0.0491 0.0983,0.1246 l 2.8938,5.0123 0.6125,1.0608 -1.1138,0.6431 -1.9986,-0.1544 c -0.2469,0.0011 -0.4388,0.1592 -0.6518,0.3409 l -0.9159,0.741 -4.2546,2.4913 c -0.3356,0.1937 -0.3925,0.4597 -0.4823,0.8796 -0.7375,0.6821 -1.2221,1.0174 -2.0591,1.5782 -0.1051,-0.1176 -0.2173,-0.1928 -0.3765,-0.1009 -2.8507,1.5173 -4.4558,2.3572 -7.3594,3.7893 l -0.6417,-0.654 z"
       stroke="#313335"
       stroke-width="0.417042"
       id="path33"
       style="stroke-width:0.658442;stroke-dasharray:none" />
    <path
       d="m 27.8049,60.3933 0.7828,0.9271 2.1933,2.2353 0.6417,0.654 0.3517,-0.1737 1.7615,1.3227 c 0.3707,0.2657 0.88,0.319 1.1029,0.318 0.7407,-0.0033 1.3762,-0.1581 2.3147,-0.5231 0.3754,-0.146 0.7201,-0.3451 1.0149,-0.692 l 1.2712,-2.8202 c 0.4601,-0.9511 0.7769,-1.4409 1.4629,-2.2428 0.1622,-0.1362 0.3308,-0.285 0.5152,-0.4555 0.0898,-0.4199 0.1467,-0.6859 0.4823,-0.8796 l 4.2546,-2.4913 0.9159,-0.741 c 0.213,-0.1817 0.4049,-0.3398 0.6518,-0.3409 l 1.9986,0.1544 1.1138,-0.6431 -0.6124,-1.0608 -2.8939,-5.0123 c -0.0435,-0.0755 -0.0664,-0.1152 -0.0983,-0.1246 -0.0353,-0.0104 -0.0816,0.0163 -0.1792,0.0727 l -16.7342,9.6615 z"
       stroke="#313335"
       stroke-width="0.834085"
       id="path34"
       style="fill:#ffffff;fill-opacity:1;stroke-width:0.658442;stroke-dasharray:none" />
    <path
       d="m 34.767,57.9996 c -0.1015,-0.1758 -0.0413,-0.4005 0.1345,-0.502 l 4.6675,-2.6948 c 0.1856,-0.1072 0.1767,-0.2678 0.1345,-0.502 -0.0551,-0.2815 -0.0391,-0.5463 -0.0186,-0.7672 0.0604,-0.6514 0.8218,-1.3938 1.2992,-1.6694 l 4.3227,-2.4958 c 0.6896,-0.3981 1.1497,-0.2748 1.3641,0.0965 l 0.5971,1.0343 c 0.1225,0.2122 0.0982,0.7212 -0.2466,0.9203 l -6.683,3.8584 c -0.0266,0.0154 -0.0398,0.023 -0.0503,0.0202 -0.0104,-0.0028 -0.0181,-0.016 -0.0334,-0.0426 l -4.9858,2.8786 c -0.1757,0.1014 -0.4005,0.0412 -0.5019,-0.1345 z"
       stroke="#313335"
       stroke-width="0.417042"
       id="path35"
       style="fill:#dddddd;fill-opacity:1;stroke-width:0.658442;stroke-dasharray:none" />
    <path
       d="m 33.4753,63.9079 c 0.0283,-0.1229 0.1398,-0.6066 1.0055,-1.0756 0.9199,-0.4985 1.8176,-0.7103 1.8504,-0.7147 0.7542,-0.1024 1.0376,0.1435 1.2826,0.5678 0.323,0.5595 0.2817,1.1976 -0.1862,1.6987 -0.34,0.3641 -0.9506,0.6195 -1.6371,0.8391 -0.5252,0.1679 -0.9181,0.2472 -1.3211,0.1616 -0.3824,-0.0812 -0.6788,-0.3182 -0.8153,-0.5547 -0.0112,-0.0191 -0.0224,-0.038 -0.0335,-0.0568 v 0 c -0.134,-0.2257 -0.26,-0.438 -0.1453,-0.8654 z"
       stroke="#313335"
       stroke-width="0.417042"
       id="path36"
       style="stroke-width:0.658442;stroke-dasharray:none" />
    <circle
       cx="38.762199"
       cy="58.151001"
       transform="rotate(-30,38.7622,58.151)"
       fill="#3c3f42"
       id="circle36"
       r="0.19911499"
       style="stroke-width:0.658442;stroke-dasharray:none" />
    <path
       d="m 46.4317,54.2361 c -0.0887,0.0512 -0.6722,0.3881 -0.6722,0.3881 -0.1171,0.0676 -0.267,0.0275 -0.3346,-0.0897 l -0.2756,-0.4774 c -0.0677,-0.1171 -0.0275,-0.267 0.0896,-0.3346 0,0 0.5835,-0.3369 0.6723,-0.3881 0.0887,-0.0513 0.0119,-0.2898 0.2661,-0.4365 l 1.1668,-0.6737 c 0.2051,-0.1184 0.4673,-0.0482 0.5857,0.1569 l 0.3368,0.5834 c 0.1184,0.2051 0.0482,0.4673 -0.1569,0.5857 l -1.1669,0.6737 c -0.2542,0.1467 -0.4223,-0.0391 -0.5111,0.0122 z"
       stroke="#163450"
       stroke-width="0.417042"
       id="path38"
       style="fill:#ffffff;fill-opacity:1;stroke:#303336;stroke-width:0.658442;stroke-dasharray:none;stroke-opacity:1" />
    <circle
       cx="44.426701"
       cy="52.024502"
       transform="rotate(-30,44.4267,52.0245)"
       fill="#2C69A2"
       stroke="#163450"
       stroke-width="0.417042"
       id="circle39"
       style="fill:#dddddd;fill-opacity:1;stroke:#303336;stroke-width:0.658442;stroke-dasharray:none;stroke-opacity:1"
       r="0.84853601" />
    <path
       d="m 47.226,48.0981 c -0.0288,-0.0499 -0.0117,-0.1136 0.0381,-0.1424 l 0.0846,-0.0489 c 0.0499,-0.0288 0.1137,-0.0117 0.1425,0.0382 l 0.055,0.0953 c 0.1674,0.0448 0.4479,-0.0818 1.0844,-0.4492 l 10.6326,-5.7145 43.4398,-25.08 1.102,1.9095 -53.8883,31.1127 -0.5512,-0.9548 -1.0078,0.5819 0.5297,0.9175 c 0.0288,0.0498 0.0117,0.1136 -0.0382,0.1424 l -0.0846,0.0488 c -0.0498,0.0288 -0.1136,0.0118 -0.1424,-0.0381 z"
       stroke="#303336"
       stroke-width="0.834085"
       id="path39"
       style="fill:#ffffff;fill-opacity:1;stroke-width:0.658442;stroke-dasharray:none" />
    <path
       d="M 48.357,49.4465 69.5129,37.3382 c 2.2179,-1.181 3.4865,-1.8007 5.8295,-2.7645 0.1927,-0.0793 0.3069,-0.0197 0.3612,0.0743 0.0612,0.1061 0.6136,1.3077 0.6136,1.3077 0.4227,1.2709 0.5455,2.17 0.3355,2.8473 -0.1041,0.3355 -0.2468,0.5128 -0.4681,0.6592 L 54.3403,52.2154 50.6335,54.0019 48.7808,50.793 c 0.1449,-0.2283 0.1427,-0.3653 -0.0257,-0.657 z"
       stroke="#313435"
       stroke-width="0.834085"
       id="path44"
       style="fill:#ffffff;fill-opacity:1;stroke-width:0.658442;stroke-dasharray:none" />
    <path
       style="fill:none;fill-opacity:1;stroke:#2f3337;stroke-width:0.658442;stroke-linejoin:bevel;stroke-dasharray:none;stroke-opacity:1;paint-order:markers stroke fill"
       d="m 34.180505,63.067343 c -0.234185,0.34384 0.380627,1.728102 1.353013,1.26845"
       id="path45"
       sodipodi:nodetypes="cc" />
  </g>
  <defs
     id="defs44">
    <clipPath
       id="clip0_619_1190">
      <rect
         width="110"
         height="110"
         fill="#ffffff"
         id="rect44"
         x="0"
         y="0" />
    </clipPath>
  </defs>
</svg>
